<?xml version="1.0" encoding="iso-8859-1"?>
<!-- Uploaded to: SVG Repo, www.svgrepo.com, Generator: SVG Repo Mixer Tools -->
<svg fill="#000000" height="800px" width="800px" version="1.1" id="Layer_1" xmlns="http://www.w3.org/2000/svg" xmlns:xlink="http://www.w3.org/1999/xlink" 
	 viewBox="0 0 511.999 511.999" xml:space="preserve">
<g>
	<g>
		<path d="M375.203,254.051c4.602,0,8.332-3.731,8.332-8.332v-76.093c0-2.485-1.109-4.839-3.024-6.422L263.046,66.129
			c-3.081-2.546-7.535-2.546-10.616,0l-117.465,97.075c-1.915,1.583-3.024,3.937-3.024,6.422v146.079
			c0,4.602,3.731,8.332,8.332,8.332h234.93c4.602,0,8.332-3.731,8.332-8.332v-42.212c0-4.602-3.731-8.332-8.332-8.332
			c-4.602,0-8.332,3.731-8.332,8.332v24.513l-66.964-55.339l66.964-55.342v58.394C366.871,250.321,370.602,254.051,375.203,254.051z
			 M148.606,187.328l66.968,55.34l-66.968,55.336V187.328z M352.047,307.373H163.43l65.225-53.896l23.78,19.652
			c1.541,1.273,3.424,1.91,5.308,1.91c1.883,0,3.768-0.637,5.308-1.91l23.779-19.652L352.047,307.373z M329.876,196.281
			l-72.134,59.615l-72.145-59.618v-20.637h144.279V196.281z M346.541,182.508v-15.2c0-4.602-3.731-8.332-8.332-8.332H177.265
			c-4.602,0-8.332,3.731-8.332,8.332v15.199l-15.583-12.878L257.739,83.36l104.387,86.267L346.541,182.508z"/>
	</g>
</g>
<g>
	<g>
		<path d="M471.246,24.766H40.754C18.283,24.766,0,43.049,0,65.52v59.227c0,4.602,3.731,8.332,8.332,8.332
			c4.601,0,8.332-3.731,8.332-8.332V65.52c0-13.284,10.807-24.09,24.09-24.09h430.492c13.284,0,24.09,10.807,24.09,24.09v284.411
			h-52.21c-4.602,0-8.332,3.731-8.332,8.332s3.731,8.332,8.332,8.332h52.21v15.273c0,13.284-10.807,24.09-24.09,24.09h-155.41
			H196.164H40.754c-13.284,0-24.09-10.807-24.09-24.09v-15.273h398.688c4.602,0,8.332-3.731,8.332-8.332s-3.731-8.332-8.332-8.332
			H16.664V152.522c0-4.602-3.731-8.332-8.332-8.332c-4.601,0-8.332,3.73-8.332,8.332V381.87c0,22.472,18.283,40.754,40.754,40.754
			H183.54l-20.494,47.945h-40.034c-4.602,0-8.332,3.731-8.332,8.332s3.731,8.332,8.332,8.332h265.975
			c4.602,0,8.332-3.731,8.332-8.332s-3.731-8.332-8.332-8.332h-40.034l-20.494-47.945h142.786c22.472,0,40.754-18.282,40.754-40.754
			V65.52C512,43.049,493.717,24.766,471.246,24.766z M330.83,470.568H181.17l14.238-33.31h121.185L330.83,470.568z"/>
	</g>
</g>
<g>
	<g>
		<path d="M262.924,379.679c-1.914-2.906-5.583-4.299-8.952-3.457c-3.517,0.879-6.116,4.048-6.291,7.67
			c-0.364,7.534,9.106,11.629,14.33,6.172C264.674,387.282,265.089,382.887,262.924,379.679z"/>
	</g>
</g>
</svg>