<svg viewBox="0 0 512 512" xmlns="http://www.w3.org/2000/svg"><path d="M16.64 109.956c-6.25 2.972-12.335 9.267-14.577 15.081-1.587 4.114-1.636 8.112-1.636 131.39v127.146l2.029 4.489c2.703 5.981 10.468 13.17 16.491 15.27 4.351 1.516 13.196 1.575 237.053 1.575s232.702-.059 237.053-1.575c6.023-2.1 13.788-9.289 16.491-15.27l2.029-4.489V256.427c0-123.278-.049-127.276-1.636-131.39-2.242-5.814-8.327-12.109-14.577-15.081l-5.12-2.435H21.76l-5.12 2.435m119.906 45.476c11.547 4.314 19.734 11.71 24.831 22.433 3.354 7.055 4.269 12.371 3.987 23.163l-.244 9.319-11.633.236-11.633.237-.362-8.343c-.756-17.457-9.085-26.411-25.432-27.341-19.358-1.101-33.515 8.756-39.54 27.531-2.067 6.442-15.933 99.927-15.933 107.423 0 12.399 5.589 21.31 15.866 25.295 6.748 2.617 18.154 2.671 25.293.119 11.876-4.245 20.877-14.542 24.444-27.963.899-3.385 5.223-30.219 5.223-32.417 0-1.002-3.306-1.204-19.684-1.204-18.341 0-19.655-.102-19.255-1.493.236-.822 1.076-5.814 1.866-11.094l1.437-9.6h31.471c17.31 0 31.472.323 31.472.718 0 2.062-7.935 51.702-9.006 56.339-5.818 25.19-22.394 42.764-46.034 48.804-10.212 2.609-26.574 2.488-35.978-.267-15.732-4.609-25.261-13.962-29.81-29.257-2.888-9.711-2.17-18.335 5.962-71.643 4.081-26.752 8.027-51.104 8.769-54.115 4.456-18.071 15.497-33.535 29.56-41.399 11.5-6.431 19.741-8.203 36.43-7.832 10.592.235 13.174.573 17.933 2.351m145.73 48.15c12.752 2.603 25.319 10.697 30.6 19.709 5.525 9.426 6.866 21.653 3.723 33.94-3.905 15.269-13.686 25.142-28.809 29.081-3.84 1-11.234 1.261-35.741 1.261h-30.9l-.478 2.347c-5.068 24.879-1.418 38.553 12.05 45.142 3.934 1.925 6.289 2.43 12.614 2.707 9.202.403 15.26-.705 22.448-4.104 5.701-2.696 12.066-8.584 13.797-12.763l1.08-2.609h23.802l-.535 1.92c-.294 1.056-2.034 5.022-3.866 8.813-9.277 19.197-30.222 30.331-57.154 30.383-17.177.033-27.405-3.553-36.787-12.896-14.007-13.949-15.828-26.921-9.416-67.084 4.871-30.516 7.4-38.859 15.286-50.426 4.151-6.089 12.877-14.554 18.211-17.665 13.813-8.055 33.594-11.119 50.075-7.756m158.189-.143c16.805 3.216 28.568 13.475 33.319 29.059 2.912 9.553 2.506 20.298-1.806 47.822-3.995 25.504-5.288 31.9-7.851 38.827-5.66 15.304-18.356 29.168-32.121 35.078-16.865 7.241-41.824 6.944-55.804-.665-8.016-4.363-15.348-13.501-18.616-23.204-3.388-10.058-3.207-17.217 1.196-47.295 2.184-14.919 4.699-29.971 5.588-33.449 6.332-24.756 23.859-41.511 48.217-46.094 8.023-1.51 20.219-1.544 27.878-.079m-186.936 20.579c-10.204 2.86-18.93 10.068-23.484 19.396-2.115 4.331-5.007 14.752-5.92 21.333l-.444 3.2 27.893-.005c16.223-.003 29.196-.367 31.009-.87 3.864-1.074 8.824-6.399 10.058-10.798 4.087-14.572-.237-25.145-12.596-30.803-6.07-2.779-19.217-3.5-26.516-1.453m160.121 1.335c-8.798 2.074-18.199 9.563-22.393 17.841-3.342 6.594-5.083 14.713-9.057 42.246-3.269 22.648-3.489 25.239-2.588 30.55 2.473 14.586 11.207 21.401 27.428 21.402 17.816.001 30.654-9.68 35.647-26.881 2.979-10.263 8.979-53.662 8.552-61.857-.642-12.325-6.029-19.896-16.334-22.956-4.65-1.381-16.073-1.566-21.255-.345"/></svg>