<svg viewBox="0 0 512 512" xmlns="http://www.w3.org/2000/svg"><path d="M16.64 109.956c-6.25 2.972-12.335 9.267-14.577 15.081-1.587 4.114-1.636 8.112-1.636 131.39v127.146l2.029 4.489c2.703 5.981 10.468 13.17 16.491 15.27 4.351 1.516 13.196 1.575 237.053 1.575s232.702-.059 237.053-1.575c6.023-2.1 13.788-9.289 16.491-15.27l2.029-4.489V256.427c0-123.278-.049-127.276-1.636-131.39-2.242-5.814-8.327-12.109-14.577-15.081l-5.12-2.435H21.76l-5.12 2.435m110.995 44.513c8.188 2.094 14.518 5.734 20.588 11.838 5.071 5.098 9.75 13.926 11.268 21.255.998 4.823 1.281 19.612.418 21.862-.437 1.137-2.304 1.349-11.848 1.349h-11.329l-.361-8.32c-.556-12.844-5.2-20.837-14.565-25.071-3.865-1.747-5.748-2.015-13.859-1.974-7.704.04-10.281.401-14.374 2.012-9.885 3.89-18.287 12.939-21.717 23.387-1.53 4.66-9.666 55.415-15.602 97.328-2.276 16.073-.962 23.282 5.683 31.18 5.168 6.142 17.191 9.554 27.45 7.79 15.235-2.621 25.4-11.512 30.394-26.584 1.598-4.825 6.556-32.172 6.519-35.961-.004-.352-8.869-.64-19.701-.64H86.904l.476-2.347c.516-2.543 3.073-18.691 3.073-19.404 0-.24 14.208-.436 31.574-.436 17.365 0 31.573.138 31.573.307 0 3.33-9.051 57.142-10.339 61.469-7 23.517-24.178 39.765-47.15 44.599-3.375.711-10.505 1.286-16.012 1.292-16.664.019-29.162-4.546-37.682-13.765-8.273-8.952-12.213-20.713-11.447-34.168.633-11.115 14.873-103.543 17.258-112.016 5.815-20.662 19.695-36.305 38.104-42.945 11.207-4.042 29.865-4.962 41.303-2.037m157.732-.034c8.567 2.191 14.228 5.31 20.193 11.126 9.34 9.107 14.623 25.312 12.2 37.426l-.533 2.666h-23.314l.03-4.906c.05-8.181-1.779-12.79-7.255-18.285-6.285-6.307-11.133-7.868-22.912-7.374-10.213.428-15.865 2.793-23.044 9.64-7.004 6.681-10.407 14.223-10.984 24.342-.498 8.722.771 13.533 4.963 18.825 3.978 5.023 7.94 6.876 28.116 13.147 10.09 3.137 20.525 6.864 23.189 8.282 9.126 4.86 16.594 13.861 20.485 24.693 2.724 7.579 2.712 25.92-.023 36.17-2.331 8.738-8.372 20.971-13.089 26.508-13.367 15.688-30.44 22.811-54.42 22.706-23.863-.105-40.033-8.502-48.173-25.016-3.678-7.461-5.36-17.609-4.399-26.545l.619-5.76h23.975l-.558 3.494c-.687 4.292.78 12.829 2.926 17.036 2.767 5.424 9.635 10.813 16.499 12.946 16.468 5.118 35.212-.082 45.638-12.662 10.8-13.032 12.735-34.439 4.133-45.718-4.338-5.687-9.251-8.104-28.293-13.924-20.666-6.315-25.324-8.434-31.857-14.486-10.2-9.45-14.457-20.943-13.57-36.634 1.698-30.036 19.528-52.024 47.104-58.088 8.198-1.803 24.549-1.605 32.354.391m195.452 3.218c-.722 4.056-2.945 18.53-2.949 19.2-.002.352-8.847.64-19.657.64-14.951 0-19.744.256-20.033 1.067-.563 1.583-23.46 152.013-23.46 154.132 0 1.798.178 1.815 19.684 1.815 18.342 0 19.655.102 19.255 1.493-.236.821-1.076 5.813-1.866 11.093l-1.436 9.6h-51.525c-48.326 0-51.525-.092-51.525-1.48 0-.814.646-5.806 1.437-11.093l1.437-9.613h19.896c10.943 0 19.896-.219 19.896-.486 0-.817 23.046-151.672 23.554-154.181l.475-2.347h-19.694c-15.185 0-19.695-.244-19.698-1.066-.002-.587.654-5.579 1.458-11.094l1.461-10.026h103.708l-.418 2.346"/></svg>