<?xml version="1.0" encoding="UTF-8" standalone="no"?>
<svg
   version="1.1"
   viewBox="0.00 0.00 1024.00 1024.00"
   id="svg68"
   xmlns="http://www.w3.org/2000/svg"
   xmlns:svg="http://www.w3.org/2000/svg">
  <g
     stroke-width="2.00"
     fill="none"
     stroke-linecap="butt"
     id="g36">
    <path
       stroke="#787777"
       vector-effect="non-scaling-stroke"
       d="   M 110.66 765.01   C 120.12 835.74 171.92 890.16 241.56 904.62   C 260.17 908.49 277.91 909.36 296.25 909.39   Q 475.54 909.68 682.61 909.61   C 702.26 909.60 720.64 910.38 738.50 909.89   C 756.40 909.41 771.52 908.17 788.00 904.45   C 840.79 892.53 883.87 855.04 903.69 804.73   C 912.83 781.53 916.07 754.21 916.07 728.75   Q 916.11 528.15 916.09 335.09   Q 916.08 317.48 916.14 312.92   C 916.36 295.93 915.95 282.63 914.60 267.89   C 907.49 190.10 850.26 130.40 773.70 118.59   Q 757.49 116.10 743.50 115.95   Q 726.93 115.78 696.50 115.77   Q 334.56 115.66 284.00 115.80   Q 260.66 115.86 237.70 120.96   C 201.79 128.93 168.44 148.73 145.31 177.44   C 126.57 200.71 114.52 229.42 110.64 258.85   Q 108.07 278.33 107.94 301.78   Q 107.94 302.91 107.92 702.28   C 107.92 724.53 107.89 744.28 110.66 765.01"
       id="path1" />
    <path
       stroke="#17141a"
       vector-effect="non-scaling-stroke"
       d="   M 736.53 116.82   Q 602.03 117.21 289.31 117.06   Q 277.99 117.05 272.25 117.49   Q 263.14 118.20 255.25 119.14   Q 224.45 122.84 196.18 137.45   Q 177.97 146.87 163.89 159.88   Q 151.23 171.59 144.81 180.28   Q 135.54 192.84 131.24 200.74   Q 114.61 231.27 111.12 266.27   Q 109.63 281.27 109.69 288.28   Q 109.86 306.62 109.86 324.53   Q 109.92 645.96 109.86 697.09   C 109.83 718.38 108.87 745.34 112.73 769.05   Q 120.12 814.37 149.21 849.17   Q 152.60 853.23 156.83 857.35   C 161.83 862.21 165.37 866.21 170.98 870.49   Q 182.46 879.23 194.86 886.11   C 199.66 888.77 204.42 890.59 208.95 892.81   Q 213.56 895.06 219.79 897.23   Q 236.58 903.08 251.01 905.01   C 258.91 906.06 262.42 906.71 269.36 907.09   C 277.98 907.56 287.21 907.99 295.55 908.01   Q 449.18 908.40 697.25 908.20   C 703.19 908.20 710.26 909.22 715.34 909.23   Q 737.25 909.29 741.19 908.93   Q 754.73 907.73 764.37 907.06   Q 767.97 906.81 772.09 906.13   Q 779.55 904.89 779.75 904.85   C 810.85 899.18 840.63 884.86 863.36 862.62   Q 872.83 853.36 878.04 846.82   Q 902.68 815.98 910.34 776.86   Q 913.35 761.49 913.98 750.00   Q 914.69 736.95 914.71 736.52   Q 915.20 727.85 915.20 723.05   Q 915.22 470.28 915.21 307.96   Q 915.21 296.03 914.58 285.07   Q 913.80 271.20 912.70 262.31   C 908.35 227.00 892.64 192.28 867.26 166.95   Q 835.85 135.59 792.90 124.06   Q 780.25 120.67 769.49 119.30   Q 761.28 118.25 747.28 117.17   Q 742.53 116.80 736.53 116.82"
       id="path2" />
    <path
       stroke="#17141a"
       vector-effect="non-scaling-stroke"
       d="   M 407.24 217.63   C 405.17 216.70 401.82 216.83 401.44 219.74   Q 401.11 222.30 400.32 227.75   C 398.16 242.71 387.38 250.08 373.04 251.64   C 370.00 251.97 369.52 254.34 370.24 256.91   Q 370.58 258.15 372.00 258.32   Q 375.21 258.71 379.09 259.66   Q 398.87 264.49 401.13 285.07   Q 401.59 289.23 401.72 291.00   A 2.70 2.69 87.8 0 0 404.40 293.49   L 405.95 293.49   A 2.70 2.70 0.0 0 0 408.64 290.96   Q 408.83 288.01 409.31 284.27   Q 411.85 264.52 431.07 259.56   C 434.64 258.64 440.77 258.13 439.11 253.48   Q 438.52 251.83 436.76 251.59   Q 436.02 251.49 431.80 250.91   Q 418.78 249.12 412.29 237.46   Q 409.87 233.11 409.43 228.36   Q 409.02 224.03 407.94 218.51   A 1.22 1.21 6.7 0 0 407.24 217.63"
       id="path3" />
    <path
       stroke="#8c898c"
       vector-effect="non-scaling-stroke"
       d="   M 544.84 411.94   Q 544.89 411.84 544.89 411.67   A 0.46 0.45 -71.8 0 0 544.70 411.28   L 544.45 411.11"
       id="path4" />
    <path
       stroke="#17141a"
       vector-effect="non-scaling-stroke"
       d="   M 544.45 411.11   Q 544.91 410.97 544.84 410.72   Q 544.60 409.88 543.68 410.02   Q 528.67 412.36 515.26 410.32   C 502.67 408.40 487.24 401.57 485.31 387.30   Q 484.58 381.85 485.19 378.26   Q 486.58 370.13 490.87 362.09   Q 496.41 351.70 503.53 343.04   Q 509.00 336.38 515.24 330.22   Q 520.98 324.56 524.70 321.78   Q 524.93 321.61 534.77 314.07   Q 543.87 307.10 548.79 304.02   Q 577.56 286.02 604.72 275.46   C 631.10 265.20 657.81 258.83 685.57 258.36   Q 694.64 258.21 702.99 259.17   C 712.82 260.30 724.43 263.48 731.66 269.95   C 740.70 278.05 741.01 290.99 738.17 301.90   C 735.93 310.46 731.08 318.83 726.28 326.76   Q 723.81 330.85 718.49 337.63   C 711.58 346.44 707.37 352.01 700.33 358.61   A 6.34 6.09 -4.0 0 0 699.67 359.34   Q 697.89 361.64 697.23 362.23   C 694.19 364.95 690.14 368.59 687.12 372.23   C 684.87 374.93 682.56 376.21 680.42 378.38   Q 676.11 382.75 671.54 386.81   A 1.68 1.38 -48.4 0 0 671.44 389.27   C 673.24 390.38 676.24 389.00 677.88 388.12   Q 684.38 384.63 692.19 379.18   Q 698.66 374.66 714.69 360.93   C 721.86 354.78 726.06 350.26 734.60 341.81   C 740.91 335.57 745.83 329.63 751.21 322.72   Q 759.38 312.21 765.71 299.98   Q 771.12 289.52 772.14 275.58   Q 772.65 268.61 770.70 263.57   C 764.31 247.02 749.22 242.53 733.46 239.06   Q 725.47 237.30 716.94 237.01   Q 700.64 236.46 689.03 237.64   Q 678.47 238.72 664.89 241.20   Q 653.13 243.34 641.15 246.85   Q 604.83 257.49 574.46 273.20   Q 545.65 288.11 517.29 309.59   C 510.71 314.56 503.57 321.02 498.48 325.72   Q 491.33 332.32 483.67 341.67   Q 476.42 350.52 472.02 359.49   Q 470.92 361.75 469.17 364.98   C 464.51 373.61 462.51 383.13 463.06 393.10   Q 463.44 399.89 465.38 403.90   C 471.65 416.86 484.35 421.90 497.69 423.81   Q 504.44 424.78 510.62 424.07   Q 528.33 422.05 544.31 413.66   Q 545.04 413.27 545.29 412.87   Q 545.70 412.20 544.84 411.94"
       id="path5" />
    <path
       stroke="#787777"
       vector-effect="non-scaling-stroke"
       d="   M 544.45 411.11   C 528.38 414.03 509.24 413.31 495.21 404.04   Q 480.64 394.41 484.09 376.75   Q 485.53 369.38 487.33 365.81   Q 498.98 342.83 517.73 326.20   Q 537.84 308.37 562.63 294.36   Q 590.41 278.67 615.46 270.20   C 642.69 261.00 669.55 255.99 696.00 257.18   C 714.45 258.02 740.38 264.90 741.03 288.02   Q 741.36 300.15 736.16 311.17   Q 729.54 325.21 720.12 337.63   C 705.94 356.33 689.93 372.50 672.23 387.69   A 0.64 0.64 0.0 0 0 672.59 388.81   Q 672.86 388.84 673.43 388.64   C 681.22 385.90 689.43 379.76 695.99 374.73   Q 719.61 356.62 739.16 335.18   Q 752.06 321.02 761.41 305.16   Q 770.23 290.19 770.83 274.99   C 771.55 256.86 759.70 247.62 742.97 242.68   C 724.28 237.15 703.82 237.01 684.81 239.38   C 668.69 241.40 651.70 244.81 635.16 249.89   Q 571.42 269.44 519.00 309.78   Q 507.04 318.98 496.80 329.05   Q 479.91 345.64 469.66 366.94   C 465.52 375.53 463.56 384.40 464.22 393.51   C 465.60 412.60 481.98 420.85 499.07 422.60   C 514.58 424.19 531.19 419.37 544.84 411.94"
       id="path6" />
    <path
       stroke="#8c898c"
       vector-effect="non-scaling-stroke"
       d="   M 613.75 290.20   L 613.66 290.75   A 0.20 0.20 0.0 0 0 613.75 290.95   Q 613.86 291.02 613.97 291.11"
       id="path7" />
    <path
       stroke="#17141a"
       vector-effect="non-scaling-stroke"
       d="   M 613.97 291.11   Q 613.81 291.73 614.20 292.05   A 0.37 0.36 -25.1 0 0 614.43 292.13   Q 627.59 292.06 633.75 292.01   Q 646.86 291.90 657.95 295.98   C 670.78 300.69 674.94 310.06 673.23 322.96   C 672.12 331.41 668.51 339.95 663.82 347.13   Q 651.89 365.36 634.90 379.42   Q 603.34 405.51 565.73 422.81   C 553.36 428.50 540.10 433.29 528.23 436.39   Q 510.74 440.96 488.50 442.40   Q 478.65 443.05 466.89 442.05   Q 454.30 440.99 442.76 436.53   C 432.85 432.71 424.54 425.35 423.12 414.27   Q 422.20 407.17 422.70 404.51   Q 425.21 391.26 430.84 381.82   Q 436.93 371.61 441.52 365.01   Q 445.39 359.43 453.29 350.34   Q 456.09 347.12 461.55 341.96   Q 468.44 335.45 469.94 333.69   Q 473.72 329.25 478.93 324.69   Q 480.98 322.89 479.46 320.96   A 1.49 1.49 0.0 0 0 477.72 320.51   Q 468.48 324.30 460.99 329.81   Q 457.46 332.40 456.41 333.08   Q 453.23 335.12 451.78 336.30   Q 437.36 348.00 425.37 360.11   C 422.04 363.48 419.26 366.89 416.41 370.14   Q 404.03 384.31 395.73 401.67   C 391.29 410.97 389.16 421.20 392.04 431.22   C 395.15 442.05 405.91 450.90 416.29 455.23   Q 422.38 457.76 430.61 459.68   Q 447.07 463.50 462.02 463.61   C 467.45 463.65 471.77 463.18 476.96 463.07   Q 481.86 462.96 488.08 462.00   Q 513.77 458.04 533.24 452.17   Q 564.19 442.84 595.20 424.67   Q 629.01 404.85 652.58 384.23   Q 657.54 379.89 661.33 376.17   Q 669.85 367.81 669.88 367.79   A 2.62 2.41 -89.9 0 0 670.49 367.13   L 671.94 364.81   A 1.63 1.19 -87.5 0 1 672.14 364.56   Q 679.17 357.55 684.61 347.58   C 689.44 338.72 693.72 329.02 695.66 319.18   C 696.41 315.41 696.11 311.90 696.02 308.19   C 695.85 300.86 691.55 293.05 685.40 288.17   Q 675.45 280.29 662.07 279.14   C 657.27 278.73 649.52 278.91 643.37 280.01   Q 628.90 282.60 613.84 288.75   A 1.11 0.99 -25.6 0 0 613.23 290.21   Q 613.38 290.48 613.75 290.20"
       id="path8" />
    <path
       stroke="#787777"
       vector-effect="non-scaling-stroke"
       d="   M 613.97 291.11   Q 631.95 290.44 640.25 290.94   Q 653.05 291.72 662.84 296.94   C 681.34 306.81 675.45 330.19 666.47 345.06   C 656.66 361.31 643.98 374.30 629.55 385.41   C 611.65 399.19 593.26 410.58 571.22 421.50   Q 530.39 441.71 487.29 443.82   C 466.39 444.84 427.02 441.93 421.96 416.06   C 419.80 404.99 422.71 394.39 427.89 384.37   Q 437.30 366.17 451.69 350.44   C 460.74 340.56 471.81 330.08 478.22 323.22   Q 478.67 322.74 478.89 322.34   A 0.61 0.61 0.0 0 0 478.11 321.49   Q 472.31 324.15 465.80 328.30   Q 448.74 339.15 431.92 355.50   C 414.30 372.62 382.01 408.92 394.91 435.37   C 402.94 451.85 423.59 457.35 440.08 460.12   Q 460.86 463.62 482.01 461.27   Q 535.73 455.31 583.11 430.11   Q 607.01 417.41 631.14 399.89   Q 651.72 384.96 668.07 367.34   Q 685.26 348.82 692.95 324.79   C 696.24 314.50 695.50 300.66 688.18 292.50   C 678.93 282.20 663.22 278.96 649.76 280.56   Q 631.06 282.78 613.75 290.20"
       id="path9" />
    <path
       stroke="#8c898c"
       vector-effect="non-scaling-stroke"
       d="   M 815.25 287.50   Q 814.91 287.01 814.49 286.90   Q 813.98 286.77 813.48 287.13"
       id="path10" />
    <path
       stroke="#17141a"
       vector-effect="non-scaling-stroke"
       d="   M 813.48 287.13   Q 813.12 285.96 812.16 287.07   A 1.46 1.45 -24.0 0 0 811.80 288.00   C 811.71 292.74 810.15 299.11 806.21 302.25   C 803.39 304.50 800.62 305.14 797.13 305.58   A 3.01 2.66 87.3 0 0 794.78 308.50   Q 794.76 310.55 796.78 310.96   Q 800.90 311.82 802.05 312.20   C 810.62 315.07 810.92 321.63 811.93 329.23   A 1.65 1.64 2.3 0 0 813.23 330.63   Q 815.98 331.20 816.72 328.45   C 817.47 325.70 817.47 321.80 818.93 319.07   Q 821.38 314.48 826.03 312.45   C 828.26 311.48 830.80 311.38 832.76 310.64   A 1.40 1.35 3.4 0 0 833.47 310.03   Q 834.11 308.87 833.43 306.76   A 1.09 1.05 -89.1 0 0 832.79 306.08   Q 830.55 305.26 827.93 305.03   A 3.28 3.22 -31.5 0 1 827.06 304.83   Q 817.44 301.22 817.21 290.43   A 2.13 2.04 -59.4 0 0 817.01 289.58   L 815.96 287.37   A 0.43 0.42 74.5 0 0 815.53 287.12   Q 815.13 287.15 815.25 287.50"
       id="path11" />
    <path
       stroke="#787777"
       vector-effect="non-scaling-stroke"
       d="   M 813.48 287.13   C 812.74 289.94 812.73 293.35 812.01 295.61   Q 809.66 302.89 802.43 305.76   C 800.73 306.44 798.30 306.61 796.58 307.15   A 1.30 1.30 0.0 0 0 795.95 309.19   Q 796.25 309.57 796.73 309.65   Q 801.02 310.45 802.22 310.91   C 808.19 313.23 811.91 317.95 812.59 324.19   Q 812.90 327.04 813.20 328.88   A 1.19 1.11 79.2 0 0 814.55 329.87   Q 815.11 329.75 815.26 329.04   C 815.87 326.18 815.81 322.72 817.04 319.73   C 819.62 313.46 825.19 310.44 831.79 309.66   A 1.32 1.25 68.5 0 0 832.62 307.61   Q 832.39 307.29 831.87 307.13   C 829.74 306.47 826.87 306.32 824.46 305.04   Q 818.91 302.11 816.77 296.40   C 815.87 293.97 815.71 290.40 815.25 287.50"
       id="path12" />
    <path
       stroke="#17141a"
       vector-effect="non-scaling-stroke"
       d="   M 614.9426 332.8796   A 41.07 30.84 -27.4 0 0 564.2874 324.3998   A 41.07 30.84 -27.4 0 0 542.0174 370.6804   A 41.07 30.84 -27.4 0 0 592.6726 379.1602   A 41.07 30.84 -27.4 0 0 614.9426 332.8796"
       id="path13" />
    <path
       stroke="#17141a"
       vector-effect="non-scaling-stroke"
       d="   M 316.18 354.62   C 316.55 350.61 311.59 350.80 309.08 350.22   Q 298.53 347.78 294.37 338.37   C 293.12 335.56 293.02 331.79 292.28 328.26   Q 291.79 325.92 290.60 324.87   A 2.13 2.08 35.5 0 0 287.35 325.37   Q 285.95 327.89 285.70 330.95   C 284.97 339.79 280.19 346.89 271.80 349.36   Q 271.10 349.57 267.45 350.63   C 265.60 351.17 262.31 350.38 261.76 353.11   Q 261.37 355.01 262.09 356.21   A 1.41 1.39 -9.5 0 0 263.04 356.88   Q 266.64 357.52 271.46 359.01   C 283.41 362.70 285.52 371.45 286.62 382.57   C 286.88 385.23 290.53 385.70 291.72 383.35   Q 292.71 381.41 293.33 374.64   A 7.57 7.33 -31.7 0 1 293.87 372.51   Q 296.46 366.33 300.84 362.58   Q 305.14 358.89 313.22 357.19   Q 314.74 356.88 315.81 355.53   A 1.73 1.73 0.0 0 0 316.18 354.62"
       id="path14" />
    <path
       stroke="#17141a"
       vector-effect="non-scaling-stroke"
       d="   M 710.61 427.80   C 710.61 430.99 715.68 431.48 718.22 432.00   C 727.77 433.97 734.43 440.62 736.52 450.26   Q 737.46 454.60 738.28 459.76   Q 738.72 462.49 741.01 462.49   Q 743.30 462.49 743.74 459.76   Q 744.56 454.60 745.50 450.26   C 747.59 440.62 754.25 433.97 763.81 432.01   C 766.35 431.49 771.42 431.00 771.42 427.80   C 771.42 424.61 766.35 424.12 763.81 423.60   C 754.26 421.63 747.60 414.98 745.51 405.34   Q 744.57 401.00 743.74 395.84   Q 743.31 393.11 741.02 393.11   Q 738.72 393.11 738.29 395.84   Q 737.46 401.00 736.52 405.34   C 734.43 414.98 727.77 421.63 718.22 423.59   C 715.68 424.12 710.61 424.61 710.61 427.80"
       id="path15" />
    <path
       stroke="#8c898c"
       vector-effect="non-scaling-stroke"
       d="   M 329.55 473.09   Q 329.71 473.21 329.87 473.31   A 0.47 0.46 42.6 0 0 330.43 473.29   L 330.69 473.07"
       id="path16" />
    <path
       stroke="#17141a"
       vector-effect="non-scaling-stroke"
       d="   M 330.69 473.07   Q 331.11 474.14 331.81 473.14   Q 332.23 472.54 332.28 471.63   Q 332.70 464.07 339.96 460.77   A 1.86 1.73 -58.4 0 1 340.54 460.61   C 342.02 460.45 346.14 459.36 345.63 457.18   C 345.02 454.59 339.72 454.80 337.66 453.38   Q 334.76 451.37 333.49 447.99   A 2.95 2.71 -61.0 0 1 333.32 447.28   C 333.03 444.58 333.22 440.92 330.02 440.36   A 1.88 1.88 0.0 0 0 327.87 441.80   C 326.66 447.12 326.45 452.52 320.22 454.44   Q 316.25 455.67 316.19 455.70   A 1.56 1.51 -89.6 0 0 315.50 456.40   C 314.47 458.53 315.40 459.56 317.48 459.96   C 325.52 461.51 327.43 464.98 328.34 472.75   Q 328.43 473.53 329.20 473.43   Q 329.37 473.41 329.55 473.09"
       id="path17" />
    <path
       stroke="#787777"
       vector-effect="non-scaling-stroke"
       d="   M 330.69 473.07   Q 331.22 470.92 331.64 468.78   Q 333.01 461.68 339.27 459.72   Q 342.15 458.82 343.84 458.37   A 0.87 0.87 0.0 0 0 344.37 457.09   Q 344.30 456.96 344.00 456.77   Q 343.75 456.60 343.54 456.56   C 337.51 455.36 332.67 452.81 331.72 446.19   Q 331.50 444.65 331.01 442.15   A 0.99 0.99 0.0 0 0 329.19 441.84   Q 328.93 442.27 328.87 442.80   C 328.24 448.67 327.12 452.59 321.48 455.23   Q 319.16 456.32 316.36 456.84   A 0.80 0.80 0.0 0 0 316.03 458.28   Q 316.66 458.74 317.49 458.86   Q 325.42 460.00 328.29 466.79   A 4.90 4.13 -66.7 0 1 328.55 467.65   L 329.55 473.09"
       id="path18" />
    <path
       stroke="#17141a"
       vector-effect="non-scaling-stroke"
       d="   M 358.47 560.35   Q 359.23 559.36 359.25 558.58   Q 359.44 552.87 359.51 527.75   Q 359.51 526.77 359.18 524.22   A 1.26 1.26 0.0 0 0 357.94 523.12   Q 271.95 522.68 202.72 523.15   Q 200.09 523.17 200.13 525.79   Q 200.40 541.30 200.10 559.07   A 1.69 1.68 -89.5 0 0 201.78 560.79   L 257.68 560.79   A 1.49 1.49 0.0 0 1 259.17 562.28   L 259.17 725.97   A 1.71 1.70 -0.0 0 0 260.88 727.67   L 299.22 727.67   A 2.01 2.00 -88.0 0 0 301.22 725.80   Q 301.68 719.29 301.68 718.52   Q 301.56 660.09 301.66 561.46   A 0.61 0.61 0.0 0 1 302.27 560.85   L 357.47 560.85   A 1.27 1.25 -71.1 0 0 358.47 560.35"
       id="path19" />
    <path
       stroke="#17141a"
       vector-effect="non-scaling-stroke"
       d="   M 499.54 524.30   C 498.84 525.92 499.24 528.41 499.23 529.73   Q 498.87 621.00 498.92 697.70   C 498.92 706.76 499.25 716.58 499.38 725.91   A 1.80 1.79 0.2 0 0 501.15 727.68   Q 503.63 727.73 518.25 727.71   C 551.15 727.68 565.91 728.09 582.24 726.89   Q 605.46 725.18 624.68 712.97   Q 650.36 696.65 660.96 667.00   Q 663.70 659.36 664.64 654.86   Q 667.87 639.39 668.00 623.04   Q 668.24 594.12 654.71 568.55   Q 648.86 557.48 636.96 545.42   A 2.70 2.55 80.3 0 0 636.36 544.97   Q 634.95 544.18 631.51 541.28   Q 627.64 538.03 621.87 534.75   C 611.69 528.97 599.33 525.71 588.04 524.48   C 582.74 523.91 575.50 523.29 568.65 523.19   Q 537.42 522.73 501.42 523.05   A 2.09 2.07 11.1 0 0 499.54 524.30"
       id="path20" />
    <path
       stroke="#17141a"
       vector-effect="non-scaling-stroke"
       d="   M 771.82 711.99   Q 771.72 718.56 773.43 725.39   A 2.29 2.28 -8.0 0 0 775.72 727.11   Q 789.79 726.65 807.20 727.16   Q 809.08 727.21 810.25 726.28   A 1.02 1.01 -21.3 0 0 810.63 725.43   Q 809.34 705.06 809.35 699.26   Q 809.48 656.85 809.24 626.39   Q 809.22 622.75 808.74 618.14   C 807.92 610.23 806.43 603.43 802.27 596.76   Q 799.28 591.98 793.01 586.27   Q 788.09 581.80 780.96 579.34   Q 772.37 576.38 764.25 575.32   Q 753.80 573.96 745.26 573.90   Q 742.87 573.89 734.87 574.60   C 720.97 575.83 706.84 581.06 697.60 591.35   Q 687.47 602.63 684.99 618.50   A 1.57 1.57 0.0 0 0 686.54 620.32   L 721.16 620.32   A 2.76 2.74 -84.4 0 0 723.85 618.10   Q 725.15 611.60 730.69 608.22   Q 735.67 605.18 740.76 605.00   C 745.17 604.84 750.81 604.52 755.79 605.68   C 764.06 607.60 769.69 612.20 770.51 621.08   C 770.87 624.99 771.23 630.61 767.38 631.93   Q 760.83 634.16 753.76 635.11   Q 737.37 637.32 720.13 640.40   Q 710.46 642.13 705.33 644.44   C 683.32 654.37 674.10 673.84 678.92 697.56   C 683.28 719.07 702.98 727.56 722.22 729.57   Q 730.61 730.45 741.07 728.76   Q 754.66 726.56 764.36 718.88   C 767.08 716.73 768.35 714.61 770.53 712.06   Q 770.95 711.57 771.39 711.56   A 0.42 0.42 0.0 0 1 771.82 711.99"
       id="path21" />
    <path
       stroke="#17141a"
       vector-effect="non-scaling-stroke"
       d="   M 377.62 661.70   L 474.56 661.70   A 2.26 2.26 0.0 0 0 476.81 659.67   Q 478.54 643.40 475.17 626.78   Q 472.21 612.19 463.49 600.02   Q 449.43 580.39 425.72 575.89   C 404.72 571.91 381.80 574.30 364.45 586.37   C 345.64 599.45 336.41 623.63 335.77 646.00   Q 335.41 658.36 336.39 667.19   C 339.49 695.13 358.32 720.15 385.74 727.74   Q 405.56 733.24 427.06 729.27   Q 435.42 727.73 441.20 725.15   Q 444.97 723.47 452.57 718.65   C 455.74 716.64 458.38 713.60 460.50 712.00   Q 463.08 710.06 465.73 706.33   Q 472.41 696.97 475.35 687.10   C 475.88 685.32 475.43 683.43 473.34 683.42   Q 451.21 683.31 439.00 683.44   A 3.05 3.05 0.0 0 0 436.21 685.33   C 432.46 694.42 425.26 698.85 415.25 699.73   Q 405.21 700.62 396.13 697.51   C 382.25 692.76 376.84 676.21 376.68 662.65   A 0.94 0.94 0.0 0 1 377.62 661.70"
       id="path22" />
    <path
       stroke="#787777"
       vector-effect="non-scaling-stroke"
       d="   M 404.07 218.61   A 1.50 1.50 0.0 0 0 402.58 219.97   Q 401.89 227.19 401.36 229.61   C 398.35 243.36 388.50 250.94 374.31 252.61   C 372.02 252.88 370.30 253.55 371.17 256.16   A 1.32 1.30 -5.8 0 0 372.28 257.05   C 392.44 259.12 402.17 270.80 402.92 290.71   A 1.68 1.68 0.0 0 0 404.60 292.32   L 405.59 292.32   A 1.73 1.73 0.0 0 0 407.31 290.77   Q 407.64 287.60 408.02 284.22   C 409.59 270.28 418.34 260.98 432.24 257.96   Q 435.49 257.25 436.76 256.87   A 2.29 2.14 67.3 0 0 437.95 253.67   Q 437.50 252.81 436.25 252.76   C 422.76 252.15 411.85 244.44 408.35 231.19   Q 407.56 228.18 407.02 220.02   A 1.51 1.50 88.2 0 0 405.52 218.61   L 404.07 218.61"
       id="path23" />
    <path
       stroke="#787777"
       vector-effect="non-scaling-stroke"
       d="   M 613.6055 333.3493   A 39.76 29.63 -27.6 0 0 564.6425 325.5118   A 39.76 29.63 -27.6 0 0 543.1345 370.1907   A 39.76 29.63 -27.6 0 0 592.0975 378.0282   A 39.76 29.63 -27.6 0 0 613.6055 333.3493"
       id="path24" />
    <path
       stroke="#787777"
       vector-effect="non-scaling-stroke"
       d="   M 262.83 354.76   A 1.21 1.20 -89.7 0 0 263.85 355.80   C 274.00 357.22 282.28 361.42 285.94 371.14   C 287.18 374.42 287.41 378.34 287.91 382.78   A 1.31 1.27 80.9 0 0 289.44 383.93   Q 290.29 383.75 290.75 382.46   Q 290.76 382.44 291.66 376.11   C 293.42 363.87 301.71 358.66 312.88 356.08   Q 313.66 355.90 314.36 355.50   A 1.66 1.66 0.0 0 0 313.72 352.40   C 305.79 351.50 298.93 348.32 294.57 341.62   C 292.03 337.74 291.07 331.93 290.69 327.55   Q 290.59 326.49 290.17 325.94   A 1.26 1.25 29.2 0 0 287.93 326.57   Q 287.38 331.63 286.75 334.48   C 284.22 345.94 275.71 351.00 264.64 352.30   Q 263.31 352.45 263.04 352.96   Q 262.69 353.65 262.83 354.76"
       id="path25" />
    <path
       stroke="#787777"
       vector-effect="non-scaling-stroke"
       d="   M 711.72 427.78   Q 711.72 428.95 713.23 429.51   C 715.60 430.39 720.53 430.92 723.81 432.52   Q 736.27 438.57 738.43 453.02   Q 739.02 456.98 739.42 459.61   Q 739.70 461.41 740.95 461.41   Q 742.21 461.41 742.49 459.61   Q 742.89 456.98 743.48 453.02   Q 745.64 438.57 758.10 432.52   C 761.38 430.92 766.31 430.39 768.67 429.51   Q 770.19 428.94 770.19 427.78   Q 770.19 426.61 768.67 426.04   C 766.30 425.16 761.37 424.63 758.09 423.03   Q 745.63 416.98 743.47 402.53   Q 742.88 398.57 742.48 395.94   Q 742.21 394.15 740.95 394.15   Q 739.69 394.15 739.42 395.94   Q 739.02 398.57 738.43 402.53   Q 736.27 416.98 723.81 423.04   C 720.53 424.64 715.60 425.17 713.23 426.05   Q 711.72 426.61 711.72 427.78"
       id="path26" />
    <path
       stroke="#787777"
       vector-effect="non-scaling-stroke"
       d="   M 201.06 559.20   A 0.66 0.66 0.0 0 0 201.72 559.86   L 259.52 559.86   A 0.66 0.66 0.0 0 1 260.18 560.52   L 260.18 725.64   A 0.66 0.66 0.0 0 0 260.84 726.30   L 299.28 726.30   A 0.66 0.66 0.0 0 0 299.94 725.64   L 299.94 560.49   A 0.66 0.66 0.0 0 1 300.60 559.83   L 357.45 559.83   A 0.66 0.66 0.0 0 0 358.11 559.17   L 358.11 524.79   A 0.66 0.66 0.0 0 0 357.45 524.13   L 201.72 524.13   A 0.66 0.66 0.0 0 0 201.06 524.79   L 201.06 559.20"
       id="path27" />
    <path
       stroke="#787777"
       vector-effect="non-scaling-stroke"
       d="   M 500.91 726.33   Q 531.60 726.33 564.75 726.32   C 579.47 726.31 594.29 725.13 607.40 720.19   C 654.69 702.37 671.95 652.69 665.18 605.30   C 659.48 565.34 633.76 532.44 592.43 526.35   Q 580.03 524.52 564.93 524.34   Q 532.36 523.95 500.95 524.19   A 0.39 0.39 0.0 0 0 500.56 524.58   L 500.56 725.97   A 0.36 0.35 90.0 0 0 500.91 726.33"
       id="path28" />
    <path
       stroke="#787777"
       vector-effect="non-scaling-stroke"
       d="   M 540.02 691.95   C 553.90 692.27 569.39 692.91 583.28 690.58   C 606.37 686.71 619.55 669.03 624.06 647.29   C 628.13 627.70 627.56 604.19 618.45 586.31   C 608.84 567.43 591.97 560.05 571.50 559.67   Q 556.13 559.38 540.20 559.50   A 0.42 0.42 0.0 0 0 539.78 559.92   L 539.78 691.70   A 0.25 0.25 0.0 0 0 540.02 691.95"
       id="path29" />
    <path
       stroke="#17141a"
       vector-effect="non-scaling-stroke"
       d="   M 541.95 560.95   A 0.80 0.80 0.0 0 0 541.15 561.75   L 541.15 689.70   A 0.99 0.99 0.0 0 0 542.11 690.69   Q 551.97 690.99 564.64 690.87   Q 571.15 690.81 575.83 690.24   Q 584.51 689.18 586.91 688.63   C 607.58 683.90 618.90 666.45 622.88 646.37   C 625.05 635.44 625.77 625.61 624.67 615.23   Q 624.06 609.48 623.59 606.13   Q 622.79 600.47 619.73 592.32   Q 611.05 569.16 588.02 563.06   Q 585.42 562.37 580.94 561.73   Q 575.30 560.93 573.75 560.93   Q 553.18 560.91 541.95 560.95"
       id="path30" />
    <path
       stroke="#787777"
       vector-effect="non-scaling-stroke"
       d="   M 772.73 708.43   L 774.25 724.96   A 1.06 1.05 87.3 0 0 775.30 725.92   L 809.01 725.92   A 0.47 0.46 86.7 0 0 809.47 725.40   C 808.86 719.81 808.07 713.01 808.06 706.84   Q 808.05 682.15 807.99 634.75   Q 807.99 629.51 807.32 619.00   Q 805.91 597.03 790.29 585.72   Q 780.10 578.35 761.16 576.20   C 727.04 572.31 693.32 579.49 686.16 618.69   A 0.34 0.34 0.0 0 0 686.49 619.09   L 721.22 619.09   A 1.13 1.13 0.0 0 0 722.31 618.25   Q 725.32 606.80 737.03 604.26   Q 746.74 602.15 756.54 604.43   C 767.83 607.05 773.65 616.52 771.73 627.93   C 770.90 632.88 763.95 634.92 759.71 635.49   Q 746.34 637.28 721.38 641.43   Q 712.71 642.87 708.24 644.56   C 689.55 651.64 678.73 666.08 679.06 686.77   C 679.33 703.60 686.07 716.80 702.09 723.24   Q 722.46 731.43 744.37 726.83   Q 762.00 723.13 772.05 708.25   A 0.38 0.37 59.5 0 1 772.73 708.43"
       id="path31" />
    <path
       stroke="#787777"
       vector-effect="non-scaling-stroke"
       d="   M 474.12 685.76   A 0.83 0.82 4.2 0 0 473.30 684.82   L 438.86 684.82   A 1.20 1.19 -75.7 0 0 437.81 685.45   C 433.61 693.25 429.18 698.47 419.90 700.30   Q 409.62 702.33 398.83 699.66   C 380.98 695.24 374.72 676.72 375.21 660.54   A 0.34 0.34 0.0 0 1 375.55 660.21   L 474.90 660.21   A 0.91 0.91 0.0 0 0 475.81 659.35   C 477.27 632.27 471.72 602.23 447.55 586.06   C 432.21 575.80 411.45 573.83 392.98 576.54   C 370.71 579.82 353.59 592.37 344.37 613.22   C 336.53 630.94 335.37 653.34 338.50 671.77   C 342.42 694.94 356.53 714.57 378.23 723.77   C 390.56 729.00 404.00 730.08 418.04 729.18   C 443.88 727.52 465.63 712.14 473.78 687.52   Q 473.93 687.06 474.12 685.76"
       id="path32" />
    <path
       stroke="#787777"
       vector-effect="non-scaling-stroke"
       d="   M 773.22 655.22   Q 763.88 659.29 752.94 661.44   Q 734.00 665.16 733.13 665.35   Q 729.03 666.24 724.00 669.25   C 716.68 673.63 714.97 682.52 717.01 690.23   C 719.57 699.96 729.91 702.39 739.04 701.49   C 749.12 700.50 758.45 693.54 765.65 686.63   Q 771.10 681.40 772.73 673.49   Q 774.43 665.22 773.44 655.35   A 0.16 0.16 0.0 0 0 773.22 655.22"
       id="path33" />
    <path
       stroke="#787777"
       vector-effect="non-scaling-stroke"
       d="   M 375.80 636.45   L 440.36 636.45   A 0.43 0.42 -5.1 0 0 440.78 635.95   C 438.19 621.36 430.63 606.30 414.25 604.19   C 399.78 602.33 385.56 606.62 379.40 620.92   Q 376.35 627.99 375.65 636.28   A 0.15 0.15 0.0 0 0 375.80 636.45"
       id="path34" />
    <path
       stroke="#17141a"
       vector-effect="non-scaling-stroke"
       d="   M 438.41 635.16   A 0.73 0.73 0.0 0 0 439.13 634.31   Q 438.20 628.47 435.70 622.83   Q 428.07 605.66 409.23 605.07   C 402.03 604.84 393.42 606.61 387.87 611.64   C 380.93 617.92 378.40 625.43 377.17 634.27   A 0.79 0.78 -86.1 0 0 377.94 635.16   L 438.41 635.16"
       id="path35" />
    <path
       stroke="#17141a"
       vector-effect="non-scaling-stroke"
       d="   M 771.51 657.29   C 766.21 659.86 760.38 661.06 754.12 662.56   Q 752.01 663.06 735.64 666.12   Q 731.75 666.85 729.98 667.61   C 720.13 671.78 716.25 678.02 718.26 688.94   Q 720.02 698.51 730.89 699.89   C 744.48 701.62 751.80 696.40 761.68 688.71   Q 770.08 682.17 771.46 672.72   Q 772.60 664.85 772.31 657.76   A 0.56 0.55 -14.3 0 0 771.51 657.29"
       id="path36" />
  </g>
  <path
     fill="#030204"
     d="   M 241.56 904.62   C 171.92 890.16 120.12 835.74 110.66 765.01   C 107.89 744.28 107.92 724.53 107.92 702.28   Q 107.94 302.91 107.94 301.78   Q 108.07 278.33 110.64 258.85   C 114.52 229.42 126.57 200.71 145.31 177.44   C 168.44 148.73 201.79 128.93 237.70 120.96   Q 260.66 115.86 284.00 115.80   Q 334.56 115.66 696.50 115.77   Q 726.93 115.78 743.50 115.95   Q 757.49 116.10 773.70 118.59   C 850.26 130.40 907.49 190.10 914.60 267.89   C 915.95 282.63 916.36 295.93 916.14 312.92   Q 916.08 317.48 916.09 335.09   Q 916.11 528.15 916.07 728.75   C 916.07 754.21 912.83 781.53 903.69 804.73   C 883.87 855.04 840.79 892.53 788.00 904.45   C 771.52 908.17 756.40 909.41 738.50 909.89   C 720.64 910.38 702.26 909.60 682.61 909.61   Q 475.54 909.68 296.25 909.39   C 277.91 909.36 260.17 908.49 241.56 904.62   Z   M 736.53 116.82   Q 602.03 117.21 289.31 117.06   Q 277.99 117.05 272.25 117.49   Q 263.14 118.20 255.25 119.14   Q 224.45 122.84 196.18 137.45   Q 177.97 146.87 163.89 159.88   Q 151.23 171.59 144.81 180.28   Q 135.54 192.84 131.24 200.74   Q 114.61 231.27 111.12 266.27   Q 109.63 281.27 109.69 288.28   Q 109.86 306.62 109.86 324.53   Q 109.92 645.96 109.86 697.09   C 109.83 718.38 108.87 745.34 112.73 769.05   Q 120.12 814.37 149.21 849.17   Q 152.60 853.23 156.83 857.35   C 161.83 862.21 165.37 866.21 170.98 870.49   Q 182.46 879.23 194.86 886.11   C 199.66 888.77 204.42 890.59 208.95 892.81   Q 213.56 895.06 219.79 897.23   Q 236.58 903.08 251.01 905.01   C 258.91 906.06 262.42 906.71 269.36 907.09   C 277.98 907.56 287.21 907.99 295.55 908.01   Q 449.18 908.40 697.25 908.20   C 703.19 908.20 710.26 909.22 715.34 909.23   Q 737.25 909.29 741.19 908.93   Q 754.73 907.73 764.37 907.06   Q 767.97 906.81 772.09 906.13   Q 779.55 904.89 779.75 904.85   C 810.85 899.18 840.63 884.86 863.36 862.62   Q 872.83 853.36 878.04 846.82   Q 902.68 815.98 910.34 776.86   Q 913.35 761.49 913.98 750.00   Q 914.69 736.95 914.71 736.52   Q 915.20 727.85 915.20 723.05   Q 915.22 470.28 915.21 307.96   Q 915.21 296.03 914.58 285.07   Q 913.80 271.20 912.70 262.31   C 908.35 227.00 892.64 192.28 867.26 166.95   Q 835.85 135.59 792.90 124.06   Q 780.25 120.67 769.49 119.30   Q 761.28 118.25 747.28 117.17   Q 742.53 116.80 736.53 116.82   Z"
     id="path38" />
  <path
     fill="#2a262f"
     d="   M 736.53 116.82   Q 742.53 116.80 747.28 117.17   Q 761.28 118.25 769.49 119.30   Q 780.25 120.67 792.90 124.06   Q 835.85 135.59 867.26 166.95   C 892.64 192.28 908.35 227.00 912.70 262.31   Q 913.80 271.20 914.58 285.07   Q 915.21 296.03 915.21 307.96   Q 915.22 470.28 915.20 723.05   Q 915.20 727.85 914.71 736.52   Q 914.69 736.95 913.98 750.00   Q 913.35 761.49 910.34 776.86   Q 902.68 815.98 878.04 846.82   Q 872.83 853.36 863.36 862.62   C 840.63 884.86 810.85 899.18 779.75 904.85   Q 779.55 904.89 772.09 906.13   Q 767.97 906.81 764.37 907.06   Q 754.73 907.73 741.19 908.93   Q 737.25 909.29 715.34 909.23   C 710.26 909.22 703.19 908.20 697.25 908.20   Q 449.18 908.40 295.55 908.01   C 287.21 907.99 277.98 907.56 269.36 907.09   C 262.42 906.71 258.91 906.06 251.01 905.01   Q 236.58 903.08 219.79 897.23   Q 213.56 895.06 208.95 892.81   C 204.42 890.59 199.66 888.77 194.86 886.11   Q 182.46 879.23 170.98 870.49   C 165.37 866.21 161.83 862.21 156.83 857.35   Q 152.60 853.23 149.21 849.17   Q 120.12 814.37 112.73 769.05   C 108.87 745.34 109.83 718.38 109.86 697.09   Q 109.92 645.96 109.86 324.53   Q 109.86 306.62 109.69 288.28   Q 109.63 281.27 111.12 266.27   Q 114.61 231.27 131.24 200.74   Q 135.54 192.84 144.81 180.28   Q 151.23 171.59 163.89 159.88   Q 177.97 146.87 196.18 137.45   Q 224.45 122.84 255.25 119.14   Q 263.14 118.20 272.25 117.49   Q 277.99 117.05 289.31 117.06   Q 602.03 117.21 736.53 116.82   Z   M 407.24 217.63   C 405.17 216.70 401.82 216.83 401.44 219.74   Q 401.11 222.30 400.32 227.75   C 398.16 242.71 387.38 250.08 373.04 251.64   C 370.00 251.97 369.52 254.34 370.24 256.91   Q 370.58 258.15 372.00 258.32   Q 375.21 258.71 379.09 259.66   Q 398.87 264.49 401.13 285.07   Q 401.59 289.23 401.72 291.00   A 2.70 2.69 87.8 0 0 404.40 293.49   L 405.95 293.49   A 2.70 2.70 0.0 0 0 408.64 290.96   Q 408.83 288.01 409.31 284.27   Q 411.85 264.52 431.07 259.56   C 434.64 258.64 440.77 258.13 439.11 253.48   Q 438.52 251.83 436.76 251.59   Q 436.02 251.49 431.80 250.91   Q 418.78 249.12 412.29 237.46   Q 409.87 233.11 409.43 228.36   Q 409.02 224.03 407.94 218.51   A 1.22 1.21 6.7 0 0 407.24 217.63   Z   M 544.84 411.94   Q 544.89 411.84 544.89 411.67   A 0.46 0.45 -71.8 0 0 544.70 411.28   L 544.45 411.11   Q 544.91 410.97 544.84 410.72   Q 544.60 409.88 543.68 410.02   Q 528.67 412.36 515.26 410.32   C 502.67 408.40 487.24 401.57 485.31 387.30   Q 484.58 381.85 485.19 378.26   Q 486.58 370.13 490.87 362.09   Q 496.41 351.70 503.53 343.04   Q 509.00 336.38 515.24 330.22   Q 520.98 324.56 524.70 321.78   Q 524.93 321.61 534.77 314.07   Q 543.87 307.10 548.79 304.02   Q 577.56 286.02 604.72 275.46   C 631.10 265.20 657.81 258.83 685.57 258.36   Q 694.64 258.21 702.99 259.17   C 712.82 260.30 724.43 263.48 731.66 269.95   C 740.70 278.05 741.01 290.99 738.17 301.90   C 735.93 310.46 731.08 318.83 726.28 326.76   Q 723.81 330.85 718.49 337.63   C 711.58 346.44 707.37 352.01 700.33 358.61   A 6.34 6.09 -4.0 0 0 699.67 359.34   Q 697.89 361.64 697.23 362.23   C 694.19 364.95 690.14 368.59 687.12 372.23   C 684.87 374.93 682.56 376.21 680.42 378.38   Q 676.11 382.75 671.54 386.81   A 1.68 1.38 -48.4 0 0 671.44 389.27   C 673.24 390.38 676.24 389.00 677.88 388.12   Q 684.38 384.63 692.19 379.18   Q 698.66 374.66 714.69 360.93   C 721.86 354.78 726.06 350.26 734.60 341.81   C 740.91 335.57 745.83 329.63 751.21 322.72   Q 759.38 312.21 765.71 299.98   Q 771.12 289.52 772.14 275.58   Q 772.65 268.61 770.70 263.57   C 764.31 247.02 749.22 242.53 733.46 239.06   Q 725.47 237.30 716.94 237.01   Q 700.64 236.46 689.03 237.64   Q 678.47 238.72 664.89 241.20   Q 653.13 243.34 641.15 246.85   Q 604.83 257.49 574.46 273.20   Q 545.65 288.11 517.29 309.59   C 510.71 314.56 503.57 321.02 498.48 325.72   Q 491.33 332.32 483.67 341.67   Q 476.42 350.52 472.02 359.49   Q 470.92 361.75 469.17 364.98   C 464.51 373.61 462.51 383.13 463.06 393.10   Q 463.44 399.89 465.38 403.90   C 471.65 416.86 484.35 421.90 497.69 423.81   Q 504.44 424.78 510.62 424.07   Q 528.33 422.05 544.31 413.66   Q 545.04 413.27 545.29 412.87   Q 545.70 412.20 544.84 411.94   Z   M 613.75 290.20   L 613.66 290.75   A 0.20 0.20 0.0 0 0 613.75 290.95   Q 613.86 291.02 613.97 291.11   Q 613.81 291.73 614.20 292.05   A 0.37 0.36 -25.1 0 0 614.43 292.13   Q 627.59 292.06 633.75 292.01   Q 646.86 291.90 657.95 295.98   C 670.78 300.69 674.94 310.06 673.23 322.96   C 672.12 331.41 668.51 339.95 663.82 347.13   Q 651.89 365.36 634.90 379.42   Q 603.34 405.51 565.73 422.81   C 553.36 428.50 540.10 433.29 528.23 436.39   Q 510.74 440.96 488.50 442.40   Q 478.65 443.05 466.89 442.05   Q 454.30 440.99 442.76 436.53   C 432.85 432.71 424.54 425.35 423.12 414.27   Q 422.20 407.17 422.70 404.51   Q 425.21 391.26 430.84 381.82   Q 436.93 371.61 441.52 365.01   Q 445.39 359.43 453.29 350.34   Q 456.09 347.12 461.55 341.96   Q 468.44 335.45 469.94 333.69   Q 473.72 329.25 478.93 324.69   Q 480.98 322.89 479.46 320.96   A 1.49 1.49 0.0 0 0 477.72 320.51   Q 468.48 324.30 460.99 329.81   Q 457.46 332.40 456.41 333.08   Q 453.23 335.12 451.78 336.30   Q 437.36 348.00 425.37 360.11   C 422.04 363.48 419.26 366.89 416.41 370.14   Q 404.03 384.31 395.73 401.67   C 391.29 410.97 389.16 421.20 392.04 431.22   C 395.15 442.05 405.91 450.90 416.29 455.23   Q 422.38 457.76 430.61 459.68   Q 447.07 463.50 462.02 463.61   C 467.45 463.65 471.77 463.18 476.96 463.07   Q 481.86 462.96 488.08 462.00   Q 513.77 458.04 533.24 452.17   Q 564.19 442.84 595.20 424.67   Q 629.01 404.85 652.58 384.23   Q 657.54 379.89 661.33 376.17   Q 669.85 367.81 669.88 367.79   A 2.62 2.41 -89.9 0 0 670.49 367.13   L 671.94 364.81   A 1.63 1.19 -87.5 0 1 672.14 364.56   Q 679.17 357.55 684.61 347.58   C 689.44 338.72 693.72 329.02 695.66 319.18   C 696.41 315.41 696.11 311.90 696.02 308.19   C 695.85 300.86 691.55 293.05 685.40 288.17   Q 675.45 280.29 662.07 279.14   C 657.27 278.73 649.52 278.91 643.37 280.01   Q 628.90 282.60 613.84 288.75   A 1.11 0.99 -25.6 0 0 613.23 290.21   Q 613.38 290.48 613.75 290.20   Z   M 815.25 287.50   Q 814.91 287.01 814.49 286.90   Q 813.98 286.77 813.48 287.13   Q 813.12 285.96 812.16 287.07   A 1.46 1.45 -24.0 0 0 811.80 288.00   C 811.71 292.74 810.15 299.11 806.21 302.25   C 803.39 304.50 800.62 305.14 797.13 305.58   A 3.01 2.66 87.3 0 0 794.78 308.50   Q 794.76 310.55 796.78 310.96   Q 800.90 311.82 802.05 312.20   C 810.62 315.07 810.92 321.63 811.93 329.23   A 1.65 1.64 2.3 0 0 813.23 330.63   Q 815.98 331.20 816.72 328.45   C 817.47 325.70 817.47 321.80 818.93 319.07   Q 821.38 314.48 826.03 312.45   C 828.26 311.48 830.80 311.38 832.76 310.64   A 1.40 1.35 3.4 0 0 833.47 310.03   Q 834.11 308.87 833.43 306.76   A 1.09 1.05 -89.1 0 0 832.79 306.08   Q 830.55 305.26 827.93 305.03   A 3.28 3.22 -31.5 0 1 827.06 304.83   Q 817.44 301.22 817.21 290.43   A 2.13 2.04 -59.4 0 0 817.01 289.58   L 815.96 287.37   A 0.43 0.42 74.5 0 0 815.53 287.12   Q 815.13 287.15 815.25 287.50   Z   M 614.9426 332.8796   A 41.07 30.84 -27.4 0 0 564.2874 324.3998   A 41.07 30.84 -27.4 0 0 542.0174 370.6804   A 41.07 30.84 -27.4 0 0 592.6726 379.1602   A 41.07 30.84 -27.4 0 0 614.9426 332.8796   Z   M 316.18 354.62   C 316.55 350.61 311.59 350.80 309.08 350.22   Q 298.53 347.78 294.37 338.37   C 293.12 335.56 293.02 331.79 292.28 328.26   Q 291.79 325.92 290.60 324.87   A 2.13 2.08 35.5 0 0 287.35 325.37   Q 285.95 327.89 285.70 330.95   C 284.97 339.79 280.19 346.89 271.80 349.36   Q 271.10 349.57 267.45 350.63   C 265.60 351.17 262.31 350.38 261.76 353.11   Q 261.37 355.01 262.09 356.21   A 1.41 1.39 -9.5 0 0 263.04 356.88   Q 266.64 357.52 271.46 359.01   C 283.41 362.70 285.52 371.45 286.62 382.57   C 286.88 385.23 290.53 385.70 291.72 383.35   Q 292.71 381.41 293.33 374.64   A 7.57 7.33 -31.7 0 1 293.87 372.51   Q 296.46 366.33 300.84 362.58   Q 305.14 358.89 313.22 357.19   Q 314.74 356.88 315.81 355.53   A 1.73 1.73 0.0 0 0 316.18 354.62   Z   M 710.61 427.80   C 710.61 430.99 715.68 431.48 718.22 432.00   C 727.77 433.97 734.43 440.62 736.52 450.26   Q 737.46 454.60 738.28 459.76   Q 738.72 462.49 741.01 462.49   Q 743.30 462.49 743.74 459.76   Q 744.56 454.60 745.50 450.26   C 747.59 440.62 754.25 433.97 763.81 432.01   C 766.35 431.49 771.42 431.00 771.42 427.80   C 771.42 424.61 766.35 424.12 763.81 423.60   C 754.26 421.63 747.60 414.98 745.51 405.34   Q 744.57 401.00 743.74 395.84   Q 743.31 393.11 741.02 393.11   Q 738.72 393.11 738.29 395.84   Q 737.46 401.00 736.52 405.34   C 734.43 414.98 727.77 421.63 718.22 423.59   C 715.68 424.12 710.61 424.61 710.61 427.80   Z   M 329.55 473.09   Q 329.71 473.21 329.87 473.31   A 0.47 0.46 42.6 0 0 330.43 473.29   L 330.69 473.07   Q 331.11 474.14 331.81 473.14   Q 332.23 472.54 332.28 471.63   Q 332.70 464.07 339.96 460.77   A 1.86 1.73 -58.4 0 1 340.54 460.61   C 342.02 460.45 346.14 459.36 345.63 457.18   C 345.02 454.59 339.72 454.80 337.66 453.38   Q 334.76 451.37 333.49 447.99   A 2.95 2.71 -61.0 0 1 333.32 447.28   C 333.03 444.58 333.22 440.92 330.02 440.36   A 1.88 1.88 0.0 0 0 327.87 441.80   C 326.66 447.12 326.45 452.52 320.22 454.44   Q 316.25 455.67 316.19 455.70   A 1.56 1.51 -89.6 0 0 315.50 456.40   C 314.47 458.53 315.40 459.56 317.48 459.96   C 325.52 461.51 327.43 464.98 328.34 472.75   Q 328.43 473.53 329.20 473.43   Q 329.37 473.41 329.55 473.09   Z   M 358.47 560.35   Q 359.23 559.36 359.25 558.58   Q 359.44 552.87 359.51 527.75   Q 359.51 526.77 359.18 524.22   A 1.26 1.26 0.0 0 0 357.94 523.12   Q 271.95 522.68 202.72 523.15   Q 200.09 523.17 200.13 525.79   Q 200.40 541.30 200.10 559.07   A 1.69 1.68 -89.5 0 0 201.78 560.79   L 257.68 560.79   A 1.49 1.49 0.0 0 1 259.17 562.28   L 259.17 725.97   A 1.71 1.70 -0.0 0 0 260.88 727.67   L 299.22 727.67   A 2.01 2.00 -88.0 0 0 301.22 725.80   Q 301.68 719.29 301.68 718.52   Q 301.56 660.09 301.66 561.46   A 0.61 0.61 0.0 0 1 302.27 560.85   L 357.47 560.85   A 1.27 1.25 -71.1 0 0 358.47 560.35   Z   M 499.54 524.30   C 498.84 525.92 499.24 528.41 499.23 529.73   Q 498.87 621.00 498.92 697.70   C 498.92 706.76 499.25 716.58 499.38 725.91   A 1.80 1.79 0.2 0 0 501.15 727.68   Q 503.63 727.73 518.25 727.71   C 551.15 727.68 565.91 728.09 582.24 726.89   Q 605.46 725.18 624.68 712.97   Q 650.36 696.65 660.96 667.00   Q 663.70 659.36 664.64 654.86   Q 667.87 639.39 668.00 623.04   Q 668.24 594.12 654.71 568.55   Q 648.86 557.48 636.96 545.42   A 2.70 2.55 80.3 0 0 636.36 544.97   Q 634.95 544.18 631.51 541.28   Q 627.64 538.03 621.87 534.75   C 611.69 528.97 599.33 525.71 588.04 524.48   C 582.74 523.91 575.50 523.29 568.65 523.19   Q 537.42 522.73 501.42 523.05   A 2.09 2.07 11.1 0 0 499.54 524.30   Z   M 771.82 711.99   Q 771.72 718.56 773.43 725.39   A 2.29 2.28 -8.0 0 0 775.72 727.11   Q 789.79 726.65 807.20 727.16   Q 809.08 727.21 810.25 726.28   A 1.02 1.01 -21.3 0 0 810.63 725.43   Q 809.34 705.06 809.35 699.26   Q 809.48 656.85 809.24 626.39   Q 809.22 622.75 808.74 618.14   C 807.92 610.23 806.43 603.43 802.27 596.76   Q 799.28 591.98 793.01 586.27   Q 788.09 581.80 780.96 579.34   Q 772.37 576.38 764.25 575.32   Q 753.80 573.96 745.26 573.90   Q 742.87 573.89 734.87 574.60   C 720.97 575.83 706.84 581.06 697.60 591.35   Q 687.47 602.63 684.99 618.50   A 1.57 1.57 0.0 0 0 686.54 620.32   L 721.16 620.32   A 2.76 2.74 -84.4 0 0 723.85 618.10   Q 725.15 611.60 730.69 608.22   Q 735.67 605.18 740.76 605.00   C 745.17 604.84 750.81 604.52 755.79 605.68   C 764.06 607.60 769.69 612.20 770.51 621.08   C 770.87 624.99 771.23 630.61 767.38 631.93   Q 760.83 634.16 753.76 635.11   Q 737.37 637.32 720.13 640.40   Q 710.46 642.13 705.33 644.44   C 683.32 654.37 674.10 673.84 678.92 697.56   C 683.28 719.07 702.98 727.56 722.22 729.57   Q 730.61 730.45 741.07 728.76   Q 754.66 726.56 764.36 718.88   C 767.08 716.73 768.35 714.61 770.53 712.06   Q 770.95 711.57 771.39 711.56   A 0.42 0.42 0.0 0 1 771.82 711.99   Z   M 377.62 661.70   L 474.56 661.70   A 2.26 2.26 0.0 0 0 476.81 659.67   Q 478.54 643.40 475.17 626.78   Q 472.21 612.19 463.49 600.02   Q 449.43 580.39 425.72 575.89   C 404.72 571.91 381.80 574.30 364.45 586.37   C 345.64 599.45 336.41 623.63 335.77 646.00   Q 335.41 658.36 336.39 667.19   C 339.49 695.13 358.32 720.15 385.74 727.74   Q 405.56 733.24 427.06 729.27   Q 435.42 727.73 441.20 725.15   Q 444.97 723.47 452.57 718.65   C 455.74 716.64 458.38 713.60 460.50 712.00   Q 463.08 710.06 465.73 706.33   Q 472.41 696.97 475.35 687.10   C 475.88 685.32 475.43 683.43 473.34 683.42   Q 451.21 683.31 439.00 683.44   A 3.05 3.05 0.0 0 0 436.21 685.33   C 432.46 694.42 425.26 698.85 415.25 699.73   Q 405.21 700.62 396.13 697.51   C 382.25 692.76 376.84 676.21 376.68 662.65   A 0.94 0.94 0.0 0 1 377.62 661.70   Z"
     id="path39" />
  <path
     fill="#030204"
     d="   M 407.24 217.63   A 1.22 1.21 6.7 0 1 407.94 218.51   Q 409.02 224.03 409.43 228.36   Q 409.87 233.11 412.29 237.46   Q 418.78 249.12 431.80 250.91   Q 436.02 251.49 436.76 251.59   Q 438.52 251.83 439.11 253.48   C 440.77 258.13 434.64 258.64 431.07 259.56   Q 411.85 264.52 409.31 284.27   Q 408.83 288.01 408.64 290.96   A 2.70 2.70 0.0 0 1 405.95 293.49   L 404.40 293.49   A 2.70 2.69 87.8 0 1 401.72 291.00   Q 401.59 289.23 401.13 285.07   Q 398.87 264.49 379.09 259.66   Q 375.21 258.71 372.00 258.32   Q 370.58 258.15 370.24 256.91   C 369.52 254.34 370.00 251.97 373.04 251.64   C 387.38 250.08 398.16 242.71 400.32 227.75   Q 401.11 222.30 401.44 219.74   C 401.82 216.83 405.17 216.70 407.24 217.63   Z   M 404.07 218.61   A 1.50 1.50 0.0 0 0 402.58 219.97   Q 401.89 227.19 401.36 229.61   C 398.35 243.36 388.50 250.94 374.31 252.61   C 372.02 252.88 370.30 253.55 371.17 256.16   A 1.32 1.30 -5.8 0 0 372.28 257.05   C 392.44 259.12 402.17 270.80 402.92 290.71   A 1.68 1.68 0.0 0 0 404.60 292.32   L 405.59 292.32   A 1.73 1.73 0.0 0 0 407.31 290.77   Q 407.64 287.60 408.02 284.22   C 409.59 270.28 418.34 260.98 432.24 257.96   Q 435.49 257.25 436.76 256.87   A 2.29 2.14 67.3 0 0 437.95 253.67   Q 437.50 252.81 436.25 252.76   C 422.76 252.15 411.85 244.44 408.35 231.19   Q 407.56 228.18 407.02 220.02   A 1.51 1.50 88.2 0 0 405.52 218.61   L 404.07 218.61   Z"
     id="path40" />
  <path
     fill="#edebe9"
     d="   M 404.07 218.61   L 405.52 218.61   A 1.51 1.50 88.2 0 1 407.02 220.02   Q 407.56 228.18 408.35 231.19   C 411.85 244.44 422.76 252.15 436.25 252.76   Q 437.50 252.81 437.95 253.67   A 2.29 2.14 67.3 0 1 436.76 256.87   Q 435.49 257.25 432.24 257.96   C 418.34 260.98 409.59 270.28 408.02 284.22   Q 407.64 287.60 407.31 290.77   A 1.73 1.73 0.0 0 1 405.59 292.32   L 404.60 292.32   A 1.68 1.68 0.0 0 1 402.92 290.71   C 402.17 270.80 392.44 259.12 372.28 257.05   A 1.32 1.30 -5.8 0 1 371.17 256.16   C 370.30 253.55 372.02 252.88 374.31 252.61   C 388.50 250.94 398.35 243.36 401.36 229.61   Q 401.89 227.19 402.58 219.97   A 1.50 1.50 0.0 0 1 404.07 218.61   Z"
     id="path41" />
  <path
     fill="#030204"
     d="   M 544.45 411.11   C 528.38 414.03 509.24 413.31 495.21 404.04   Q 480.64 394.41 484.09 376.75   Q 485.53 369.38 487.33 365.81   Q 498.98 342.83 517.73 326.20   Q 537.84 308.37 562.63 294.36   Q 590.41 278.67 615.46 270.20   C 642.69 261.00 669.55 255.99 696.00 257.18   C 714.45 258.02 740.38 264.90 741.03 288.02   Q 741.36 300.15 736.16 311.17   Q 729.54 325.21 720.12 337.63   C 705.94 356.33 689.93 372.50 672.23 387.69   A 0.64 0.64 0.0 0 0 672.59 388.81   Q 672.86 388.84 673.43 388.64   C 681.22 385.90 689.43 379.76 695.99 374.73   Q 719.61 356.62 739.16 335.18   Q 752.06 321.02 761.41 305.16   Q 770.23 290.19 770.83 274.99   C 771.55 256.86 759.70 247.62 742.97 242.68   C 724.28 237.15 703.82 237.01 684.81 239.38   C 668.69 241.40 651.70 244.81 635.16 249.89   Q 571.42 269.44 519.00 309.78   Q 507.04 318.98 496.80 329.05   Q 479.91 345.64 469.66 366.94   C 465.52 375.53 463.56 384.40 464.22 393.51   C 465.60 412.60 481.98 420.85 499.07 422.60   C 514.58 424.19 531.19 419.37 544.84 411.94   Q 545.70 412.20 545.29 412.87   Q 545.04 413.27 544.31 413.66   Q 528.33 422.05 510.62 424.07   Q 504.44 424.78 497.69 423.81   C 484.35 421.90 471.65 416.86 465.38 403.90   Q 463.44 399.89 463.06 393.10   C 462.51 383.13 464.51 373.61 469.17 364.98   Q 470.92 361.75 472.02 359.49   Q 476.42 350.52 483.67 341.67   Q 491.33 332.32 498.48 325.72   C 503.57 321.02 510.71 314.56 517.29 309.59   Q 545.65 288.11 574.46 273.20   Q 604.83 257.49 641.15 246.85   Q 653.13 243.34 664.89 241.20   Q 678.47 238.72 689.03 237.64   Q 700.64 236.46 716.94 237.01   Q 725.47 237.30 733.46 239.06   C 749.22 242.53 764.31 247.02 770.70 263.57   Q 772.65 268.61 772.14 275.58   Q 771.12 289.52 765.71 299.98   Q 759.38 312.21 751.21 322.72   C 745.83 329.63 740.91 335.57 734.60 341.81   C 726.06 350.26 721.86 354.78 714.69 360.93   Q 698.66 374.66 692.19 379.18   Q 684.38 384.63 677.88 388.12   C 676.24 389.00 673.24 390.38 671.44 389.27   A 1.68 1.38 -48.4 0 1 671.54 386.81   Q 676.11 382.75 680.42 378.38   C 682.56 376.21 684.87 374.93 687.12 372.23   C 690.14 368.59 694.19 364.95 697.23 362.23   Q 697.89 361.64 699.67 359.34   A 6.34 6.09 -4.0 0 1 700.33 358.61   C 707.37 352.01 711.58 346.44 718.49 337.63   Q 723.81 330.85 726.28 326.76   C 731.08 318.83 735.93 310.46 738.17 301.90   C 741.01 290.99 740.70 278.05 731.66 269.95   C 724.43 263.48 712.82 260.30 702.99 259.17   Q 694.64 258.21 685.57 258.36   C 657.81 258.83 631.10 265.20 604.72 275.46   Q 577.56 286.02 548.79 304.02   Q 543.87 307.10 534.77 314.07   Q 524.93 321.61 524.70 321.78   Q 520.98 324.56 515.24 330.22   Q 509.00 336.38 503.53 343.04   Q 496.41 351.70 490.87 362.09   Q 486.58 370.13 485.19 378.26   Q 484.58 381.85 485.31 387.30   C 487.24 401.57 502.67 408.40 515.26 410.32   Q 528.67 412.36 543.68 410.02   Q 544.60 409.88 544.84 410.72   Q 544.91 410.97 544.45 411.11   Z"
     id="path42" />
  <path
     fill="#edebe9"
     d="   M 544.45 411.11   L 544.70 411.28   A 0.46 0.45 -71.8 0 1 544.89 411.67   Q 544.89 411.84 544.84 411.94   C 531.19 419.37 514.58 424.19 499.07 422.60   C 481.98 420.85 465.60 412.60 464.22 393.51   C 463.56 384.40 465.52 375.53 469.66 366.94   Q 479.91 345.64 496.80 329.05   Q 507.04 318.98 519.00 309.78   Q 571.42 269.44 635.16 249.89   C 651.70 244.81 668.69 241.40 684.81 239.38   C 703.82 237.01 724.28 237.15 742.97 242.68   C 759.70 247.62 771.55 256.86 770.83 274.99   Q 770.23 290.19 761.41 305.16   Q 752.06 321.02 739.16 335.18   Q 719.61 356.62 695.99 374.73   C 689.43 379.76 681.22 385.90 673.43 388.64   Q 672.86 388.84 672.59 388.81   A 0.64 0.64 0.0 0 1 672.23 387.69   C 689.93 372.50 705.94 356.33 720.12 337.63   Q 729.54 325.21 736.16 311.17   Q 741.36 300.15 741.03 288.02   C 740.38 264.90 714.45 258.02 696.00 257.18   C 669.55 255.99 642.69 261.00 615.46 270.20   Q 590.41 278.67 562.63 294.36   Q 537.84 308.37 517.73 326.20   Q 498.98 342.83 487.33 365.81   Q 485.53 369.38 484.09 376.75   Q 480.64 394.41 495.21 404.04   C 509.24 413.31 528.38 414.03 544.45 411.11   Z"
     id="path43" />
  <path
     fill="#030204"
     d="   M 613.97 291.11   Q 631.95 290.44 640.25 290.94   Q 653.05 291.72 662.84 296.94   C 681.34 306.81 675.45 330.19 666.47 345.06   C 656.66 361.31 643.98 374.30 629.55 385.41   C 611.65 399.19 593.26 410.58 571.22 421.50   Q 530.39 441.71 487.29 443.82   C 466.39 444.84 427.02 441.93 421.96 416.06   C 419.80 404.99 422.71 394.39 427.89 384.37   Q 437.30 366.17 451.69 350.44   C 460.74 340.56 471.81 330.08 478.22 323.22   Q 478.67 322.74 478.89 322.34   A 0.61 0.61 0.0 0 0 478.11 321.49   Q 472.31 324.15 465.80 328.30   Q 448.74 339.15 431.92 355.50   C 414.30 372.62 382.01 408.92 394.91 435.37   C 402.94 451.85 423.59 457.35 440.08 460.12   Q 460.86 463.62 482.01 461.27   Q 535.73 455.31 583.11 430.11   Q 607.01 417.41 631.14 399.89   Q 651.72 384.96 668.07 367.34   Q 685.26 348.82 692.95 324.79   C 696.24 314.50 695.50 300.66 688.18 292.50   C 678.93 282.20 663.22 278.96 649.76 280.56   Q 631.06 282.78 613.75 290.20   Q 613.38 290.48 613.23 290.21   A 1.11 0.99 -25.6 0 1 613.84 288.75   Q 628.90 282.60 643.37 280.01   C 649.52 278.91 657.27 278.73 662.07 279.14   Q 675.45 280.29 685.40 288.17   C 691.55 293.05 695.85 300.86 696.02 308.19   C 696.11 311.90 696.41 315.41 695.66 319.18   C 693.72 329.02 689.44 338.72 684.61 347.58   Q 679.17 357.55 672.14 364.56   A 1.63 1.19 -87.5 0 0 671.94 364.81   L 670.49 367.13   A 2.62 2.41 -89.9 0 1 669.88 367.79   Q 669.85 367.81 661.33 376.17   Q 657.54 379.89 652.58 384.23   Q 629.01 404.85 595.20 424.67   Q 564.19 442.84 533.24 452.17   Q 513.77 458.04 488.08 462.00   Q 481.86 462.96 476.96 463.07   C 471.77 463.18 467.45 463.65 462.02 463.61   Q 447.07 463.50 430.61 459.68   Q 422.38 457.76 416.29 455.23   C 405.91 450.90 395.15 442.05 392.04 431.22   C 389.16 421.20 391.29 410.97 395.73 401.67   Q 404.03 384.31 416.41 370.14   C 419.26 366.89 422.04 363.48 425.37 360.11   Q 437.36 348.00 451.78 336.30   Q 453.23 335.12 456.41 333.08   Q 457.46 332.40 460.99 329.81   Q 468.48 324.30 477.72 320.51   A 1.49 1.49 0.0 0 1 479.46 320.96   Q 480.98 322.89 478.93 324.69   Q 473.72 329.25 469.94 333.69   Q 468.44 335.45 461.55 341.96   Q 456.09 347.12 453.29 350.34   Q 445.39 359.43 441.52 365.01   Q 436.93 371.61 430.84 381.82   Q 425.21 391.26 422.70 404.51   Q 422.20 407.17 423.12 414.27   C 424.54 425.35 432.85 432.71 442.76 436.53   Q 454.30 440.99 466.89 442.05   Q 478.65 443.05 488.50 442.40   Q 510.74 440.96 528.23 436.39   C 540.10 433.29 553.36 428.50 565.73 422.81   Q 603.34 405.51 634.90 379.42   Q 651.89 365.36 663.82 347.13   C 668.51 339.95 672.12 331.41 673.23 322.96   C 674.94 310.06 670.78 300.69 657.95 295.98   Q 646.86 291.90 633.75 292.01   Q 627.59 292.06 614.43 292.13   A 0.37 0.36 -25.1 0 1 614.20 292.05   Q 613.81 291.73 613.97 291.11   Z"
     id="path44" />
  <path
     fill="#edebe9"
     d="   M 613.97 291.11   Q 613.86 291.02 613.75 290.95   A 0.20 0.20 0.0 0 1 613.66 290.75   L 613.75 290.20   Q 631.06 282.78 649.76 280.56   C 663.22 278.96 678.93 282.20 688.18 292.50   C 695.50 300.66 696.24 314.50 692.95 324.79   Q 685.26 348.82 668.07 367.34   Q 651.72 384.96 631.14 399.89   Q 607.01 417.41 583.11 430.11   Q 535.73 455.31 482.01 461.27   Q 460.86 463.62 440.08 460.12   C 423.59 457.35 402.94 451.85 394.91 435.37   C 382.01 408.92 414.30 372.62 431.92 355.50   Q 448.74 339.15 465.80 328.30   Q 472.31 324.15 478.11 321.49   A 0.61 0.61 0.0 0 1 478.89 322.34   Q 478.67 322.74 478.22 323.22   C 471.81 330.08 460.74 340.56 451.69 350.44   Q 437.30 366.17 427.89 384.37   C 422.71 394.39 419.80 404.99 421.96 416.06   C 427.02 441.93 466.39 444.84 487.29 443.82   Q 530.39 441.71 571.22 421.50   C 593.26 410.58 611.65 399.19 629.55 385.41   C 643.98 374.30 656.66 361.31 666.47 345.06   C 675.45 330.19 681.34 306.81 662.84 296.94   Q 653.05 291.72 640.25 290.94   Q 631.95 290.44 613.97 291.11   Z"
     id="path45" />
  <path
     fill="#030204"
     d="   M 813.48 287.13   C 812.74 289.94 812.73 293.35 812.01 295.61   Q 809.66 302.89 802.43 305.76   C 800.73 306.44 798.30 306.61 796.58 307.15   A 1.30 1.30 0.0 0 0 795.95 309.19   Q 796.25 309.57 796.73 309.65   Q 801.02 310.45 802.22 310.91   C 808.19 313.23 811.91 317.95 812.59 324.19   Q 812.90 327.04 813.20 328.88   A 1.19 1.11 79.2 0 0 814.55 329.87   Q 815.11 329.75 815.26 329.04   C 815.87 326.18 815.81 322.72 817.04 319.73   C 819.62 313.46 825.19 310.44 831.79 309.66   A 1.32 1.25 68.5 0 0 832.62 307.61   Q 832.39 307.29 831.87 307.13   C 829.74 306.47 826.87 306.32 824.46 305.04   Q 818.91 302.11 816.77 296.40   C 815.87 293.97 815.71 290.40 815.25 287.50   Q 815.13 287.15 815.53 287.12   A 0.43 0.42 74.5 0 1 815.96 287.37   L 817.01 289.58   A 2.13 2.04 -59.4 0 1 817.21 290.43   Q 817.44 301.22 827.06 304.83   A 3.28 3.22 -31.5 0 0 827.93 305.03   Q 830.55 305.26 832.79 306.08   A 1.09 1.05 -89.1 0 1 833.43 306.76   Q 834.11 308.87 833.47 310.03   A 1.40 1.35 3.4 0 1 832.76 310.64   C 830.80 311.38 828.26 311.48 826.03 312.45   Q 821.38 314.48 818.93 319.07   C 817.47 321.80 817.47 325.70 816.72 328.45   Q 815.98 331.20 813.23 330.63   A 1.65 1.64 2.3 0 1 811.93 329.23   C 810.92 321.63 810.62 315.07 802.05 312.20   Q 800.90 311.82 796.78 310.96   Q 794.76 310.55 794.78 308.50   A 3.01 2.66 87.3 0 1 797.13 305.58   C 800.62 305.14 803.39 304.50 806.21 302.25   C 810.15 299.11 811.71 292.74 811.80 288.00   A 1.46 1.45 -24.0 0 1 812.16 287.07   Q 813.12 285.96 813.48 287.13   Z"
     id="path46" />
  <path
     fill="#edebe9"
     d="   M 815.25 287.50   C 815.71 290.40 815.87 293.97 816.77 296.40   Q 818.91 302.11 824.46 305.04   C 826.87 306.32 829.74 306.47 831.87 307.13   Q 832.39 307.29 832.62 307.61   A 1.32 1.25 68.5 0 1 831.79 309.66   C 825.19 310.44 819.62 313.46 817.04 319.73   C 815.81 322.72 815.87 326.18 815.26 329.04   Q 815.11 329.75 814.55 329.87   A 1.19 1.11 79.2 0 1 813.20 328.88   Q 812.90 327.04 812.59 324.19   C 811.91 317.95 808.19 313.23 802.22 310.91   Q 801.02 310.45 796.73 309.65   Q 796.25 309.57 795.95 309.19   A 1.30 1.30 0.0 0 1 796.58 307.15   C 798.30 306.61 800.73 306.44 802.43 305.76   Q 809.66 302.89 812.01 295.61   C 812.73 293.35 812.74 289.94 813.48 287.13   Q 813.98 286.77 814.49 286.90   Q 814.91 287.01 815.25 287.50   Z"
     id="path47" />
  <path
     fill="#030204"
     d="   M 614.9426 332.8796   A 41.07 30.84 -27.4 0 1 592.6726 379.1602   A 41.07 30.84 -27.4 0 1 542.0174 370.6804   A 41.07 30.84 -27.4 0 1 564.2874 324.3998   A 41.07 30.84 -27.4 0 1 614.9426 332.8796   Z   M 613.6055 333.3493   A 39.76 29.63 -27.6 0 0 564.6425 325.5118   A 39.76 29.63 -27.6 0 0 543.1345 370.1907   A 39.76 29.63 -27.6 0 0 592.0975 378.0282   A 39.76 29.63 -27.6 0 0 613.6055 333.3493   Z"
     id="path48" />
  <ellipse
     fill="#edebe9"
     cx="0.00"
     cy="0.00"
     transform="translate(578.37,351.77) rotate(-27.6)"
     rx="39.76"
     ry="29.63"
     id="ellipse48" />
  <path
     fill="#030204"
     d="   M 315.81 355.53   Q 314.74 356.88 313.22 357.19   Q 305.14 358.89 300.84 362.58   Q 296.46 366.33 293.87 372.51   A 7.57 7.33 -31.7 0 0 293.33 374.64   Q 292.71 381.41 291.72 383.35   C 290.53 385.70 286.88 385.23 286.62 382.57   C 285.52 371.45 283.41 362.70 271.46 359.01   Q 266.64 357.52 263.04 356.88   A 1.41 1.39 -9.5 0 1 262.09 356.21   Q 261.37 355.01 261.76 353.11   C 262.31 350.38 265.60 351.17 267.45 350.63   Q 271.10 349.57 271.80 349.36   C 280.19 346.89 284.97 339.79 285.70 330.95   Q 285.95 327.89 287.35 325.37   A 2.13 2.08 35.5 0 1 290.60 324.87   Q 291.79 325.92 292.28 328.26   C 293.02 331.79 293.12 335.56 294.37 338.37   Q 298.53 347.78 309.08 350.22   C 311.59 350.80 316.55 350.61 316.18 354.62   A 1.73 1.73 0.0 0 1 315.81 355.53   Z   M 262.83 354.76   A 1.21 1.20 -89.7 0 0 263.85 355.80   C 274.00 357.22 282.28 361.42 285.94 371.14   C 287.18 374.42 287.41 378.34 287.91 382.78   A 1.31 1.27 80.9 0 0 289.44 383.93   Q 290.29 383.75 290.75 382.46   Q 290.76 382.44 291.66 376.11   C 293.42 363.87 301.71 358.66 312.88 356.08   Q 313.66 355.90 314.36 355.50   A 1.66 1.66 0.0 0 0 313.72 352.40   C 305.79 351.50 298.93 348.32 294.57 341.62   C 292.03 337.74 291.07 331.93 290.69 327.55   Q 290.59 326.49 290.17 325.94   A 1.26 1.25 29.2 0 0 287.93 326.57   Q 287.38 331.63 286.75 334.48   C 284.22 345.94 275.71 351.00 264.64 352.30   Q 263.31 352.45 263.04 352.96   Q 262.69 353.65 262.83 354.76   Z"
     id="path49" />
  <path
     fill="#edebe9"
     d="   M 262.83 354.76   Q 262.69 353.65 263.04 352.96   Q 263.31 352.45 264.64 352.30   C 275.71 351.00 284.22 345.94 286.75 334.48   Q 287.38 331.63 287.93 326.57   A 1.26 1.25 29.2 0 1 290.17 325.94   Q 290.59 326.49 290.69 327.55   C 291.07 331.93 292.03 337.74 294.57 341.62   C 298.93 348.32 305.79 351.50 313.72 352.40   A 1.66 1.66 0.0 0 1 314.36 355.50   Q 313.66 355.90 312.88 356.08   C 301.71 358.66 293.42 363.87 291.66 376.11   Q 290.76 382.44 290.75 382.46   Q 290.29 383.75 289.44 383.93   A 1.31 1.27 80.9 0 1 287.91 382.78   C 287.41 378.34 287.18 374.42 285.94 371.14   C 282.28 361.42 274.00 357.22 263.85 355.80   A 1.21 1.20 -89.7 0 1 262.83 354.76   Z"
     id="path50" />
  <path
     fill="#030204"
     d="   M 741.02 393.11   Q 743.31 393.11 743.74 395.84   Q 744.57 401.00 745.51 405.34   C 747.60 414.98 754.26 421.63 763.81 423.60   C 766.35 424.12 771.42 424.61 771.42 427.80   C 771.42 431.00 766.35 431.49 763.81 432.01   C 754.25 433.97 747.59 440.62 745.50 450.26   Q 744.56 454.60 743.74 459.76   Q 743.30 462.49 741.01 462.49   Q 738.72 462.49 738.28 459.76   Q 737.46 454.60 736.52 450.26   C 734.43 440.62 727.77 433.97 718.22 432.00   C 715.68 431.48 710.61 430.99 710.61 427.80   C 710.61 424.61 715.68 424.12 718.22 423.59   C 727.77 421.63 734.43 414.98 736.52 405.34   Q 737.46 401.00 738.29 395.84   Q 738.72 393.11 741.02 393.11   Z   M 711.72 427.78   Q 711.72 428.95 713.23 429.51   C 715.60 430.39 720.53 430.92 723.81 432.52   Q 736.27 438.57 738.43 453.02   Q 739.02 456.98 739.42 459.61   Q 739.70 461.41 740.95 461.41   Q 742.21 461.41 742.49 459.61   Q 742.89 456.98 743.48 453.02   Q 745.64 438.57 758.10 432.52   C 761.38 430.92 766.31 430.39 768.67 429.51   Q 770.19 428.94 770.19 427.78   Q 770.19 426.61 768.67 426.04   C 766.30 425.16 761.37 424.63 758.09 423.03   Q 745.63 416.98 743.47 402.53   Q 742.88 398.57 742.48 395.94   Q 742.21 394.15 740.95 394.15   Q 739.69 394.15 739.42 395.94   Q 739.02 398.57 738.43 402.53   Q 736.27 416.98 723.81 423.04   C 720.53 424.64 715.60 425.17 713.23 426.05   Q 711.72 426.61 711.72 427.78   Z"
     id="path51" />
  <path
     fill="#edebe9"
     d="   M 740.95 394.15   Q 742.21 394.15 742.48 395.94   Q 742.88 398.57 743.47 402.53   Q 745.63 416.98 758.09 423.03   C 761.37 424.63 766.30 425.16 768.67 426.04   Q 770.19 426.61 770.19 427.78   Q 770.19 428.94 768.67 429.51   C 766.31 430.39 761.38 430.92 758.10 432.52   Q 745.64 438.57 743.48 453.02   Q 742.89 456.98 742.49 459.61   Q 742.21 461.41 740.95 461.41   Q 739.70 461.41 739.42 459.61   Q 739.02 456.98 738.43 453.02   Q 736.27 438.57 723.81 432.52   C 720.53 430.92 715.60 430.39 713.23 429.51   Q 711.72 428.95 711.72 427.78   Q 711.72 426.61 713.23 426.05   C 715.60 425.17 720.53 424.64 723.81 423.04   Q 736.27 416.98 738.43 402.53   Q 739.02 398.57 739.42 395.94   Q 739.69 394.15 740.95 394.15   Z"
     id="path52" />
  <path
     fill="#030204"
     d="   M 330.69 473.07   Q 331.22 470.92 331.64 468.78   Q 333.01 461.68 339.27 459.72   Q 342.15 458.82 343.84 458.37   A 0.87 0.87 0.0 0 0 344.37 457.09   Q 344.30 456.96 344.00 456.77   Q 343.75 456.60 343.54 456.56   C 337.51 455.36 332.67 452.81 331.72 446.19   Q 331.50 444.65 331.01 442.15   A 0.99 0.99 0.0 0 0 329.19 441.84   Q 328.93 442.27 328.87 442.80   C 328.24 448.67 327.12 452.59 321.48 455.23   Q 319.16 456.32 316.36 456.84   A 0.80 0.80 0.0 0 0 316.03 458.28   Q 316.66 458.74 317.49 458.86   Q 325.42 460.00 328.29 466.79   A 4.90 4.13 -66.7 0 1 328.55 467.65   L 329.55 473.09   Q 329.37 473.41 329.20 473.43   Q 328.43 473.53 328.34 472.75   C 327.43 464.98 325.52 461.51 317.48 459.96   C 315.40 459.56 314.47 458.53 315.50 456.40   A 1.56 1.51 -89.6 0 1 316.19 455.70   Q 316.25 455.67 320.22 454.44   C 326.45 452.52 326.66 447.12 327.87 441.80   A 1.88 1.88 0.0 0 1 330.02 440.36   C 333.22 440.92 333.03 444.58 333.32 447.28   A 2.95 2.71 -61.0 0 0 333.49 447.99   Q 334.76 451.37 337.66 453.38   C 339.72 454.80 345.02 454.59 345.63 457.18   C 346.14 459.36 342.02 460.45 340.54 460.61   A 1.86 1.73 -58.4 0 0 339.96 460.77   Q 332.70 464.07 332.28 471.63   Q 332.23 472.54 331.81 473.14   Q 331.11 474.14 330.69 473.07   Z"
     id="path53" />
  <path
     fill="#edebe9"
     d="   M 330.69 473.07   L 330.43 473.29   A 0.47 0.46 42.6 0 1 329.87 473.31   Q 329.71 473.21 329.55 473.09   L 328.55 467.65   A 4.90 4.13 -66.7 0 0 328.29 466.79   Q 325.42 460.00 317.49 458.86   Q 316.66 458.74 316.03 458.28   A 0.80 0.80 0.0 0 1 316.36 456.84   Q 319.16 456.32 321.48 455.23   C 327.12 452.59 328.24 448.67 328.87 442.80   Q 328.93 442.27 329.19 441.84   A 0.99 0.99 0.0 0 1 331.01 442.15   Q 331.50 444.65 331.72 446.19   C 332.67 452.81 337.51 455.36 343.54 456.56   Q 343.75 456.60 344.00 456.77   Q 344.30 456.96 344.37 457.09   A 0.87 0.87 0.0 0 1 343.84 458.37   Q 342.15 458.82 339.27 459.72   Q 333.01 461.68 331.64 468.78   Q 331.22 470.92 330.69 473.07   Z"
     id="path54" />
  <path
     fill="#030204"
     d="   M 358.47 560.35   A 1.27 1.25 -71.1 0 1 357.47 560.85   L 302.27 560.85   A 0.61 0.61 0.0 0 0 301.66 561.46   Q 301.56 660.09 301.68 718.52   Q 301.68 719.29 301.22 725.80   A 2.01 2.00 -88.0 0 1 299.22 727.67   L 260.88 727.67   A 1.71 1.70 -0.0 0 1 259.17 725.97   L 259.17 562.28   A 1.49 1.49 0.0 0 0 257.68 560.79   L 201.78 560.79   A 1.69 1.68 -89.5 0 1 200.10 559.07   Q 200.40 541.30 200.13 525.79   Q 200.09 523.17 202.72 523.15   Q 271.95 522.68 357.94 523.12   A 1.26 1.26 0.0 0 1 359.18 524.22   Q 359.51 526.77 359.51 527.75   Q 359.44 552.87 359.25 558.58   Q 359.23 559.36 358.47 560.35   Z   M 201.06 559.20   A 0.66 0.66 0.0 0 0 201.72 559.86   L 259.52 559.86   A 0.66 0.66 0.0 0 1 260.18 560.52   L 260.18 725.64   A 0.66 0.66 0.0 0 0 260.84 726.30   L 299.28 726.30   A 0.66 0.66 0.0 0 0 299.94 725.64   L 299.94 560.49   A 0.66 0.66 0.0 0 1 300.60 559.83   L 357.45 559.83   A 0.66 0.66 0.0 0 0 358.11 559.17   L 358.11 524.79   A 0.66 0.66 0.0 0 0 357.45 524.13   L 201.72 524.13   A 0.66 0.66 0.0 0 0 201.06 524.79   L 201.06 559.20   Z"
     id="path55" />
  <path
     fill="#030204"
     d="   M 499.54 524.30   A 2.09 2.07 11.1 0 1 501.42 523.05   Q 537.42 522.73 568.65 523.19   C 575.50 523.29 582.74 523.91 588.04 524.48   C 599.33 525.71 611.69 528.97 621.87 534.75   Q 627.64 538.03 631.51 541.28   Q 634.95 544.18 636.36 544.97   A 2.70 2.55 80.3 0 1 636.96 545.42   Q 648.86 557.48 654.71 568.55   Q 668.24 594.12 668.00 623.04   Q 667.87 639.39 664.64 654.86   Q 663.70 659.36 660.96 667.00   Q 650.36 696.65 624.68 712.97   Q 605.46 725.18 582.24 726.89   C 565.91 728.09 551.15 727.68 518.25 727.71   Q 503.63 727.73 501.15 727.68   A 1.80 1.79 0.2 0 1 499.38 725.91   C 499.25 716.58 498.92 706.76 498.92 697.70   Q 498.87 621.00 499.23 529.73   C 499.24 528.41 498.84 525.92 499.54 524.30   Z   M 500.91 726.33   Q 531.60 726.33 564.75 726.32   C 579.47 726.31 594.29 725.13 607.40 720.19   C 654.69 702.37 671.95 652.69 665.18 605.30   C 659.48 565.34 633.76 532.44 592.43 526.35   Q 580.03 524.52 564.93 524.34   Q 532.36 523.95 500.95 524.19   A 0.39 0.39 0.0 0 0 500.56 524.58   L 500.56 725.97   A 0.36 0.35 90.0 0 0 500.91 726.33   Z"
     id="path56" />
  <path
     fill="#edebe9"
     d="   M 201.06 559.20   L 201.06 524.79   A 0.66 0.66 0.0 0 1 201.72 524.13   L 357.45 524.13   A 0.66 0.66 0.0 0 1 358.11 524.79   L 358.11 559.17   A 0.66 0.66 0.0 0 1 357.45 559.83   L 300.60 559.83   A 0.66 0.66 0.0 0 0 299.94 560.49   L 299.94 725.64   A 0.66 0.66 0.0 0 1 299.28 726.30   L 260.84 726.30   A 0.66 0.66 0.0 0 1 260.18 725.64   L 260.18 560.52   A 0.66 0.66 0.0 0 0 259.52 559.86   L 201.72 559.86   A 0.66 0.66 0.0 0 1 201.06 559.20   Z"
     id="path57" />
  <path
     fill="#edebe9"
     d="   M 500.91 726.33   A 0.36 0.35 90.0 0 1 500.56 725.97   L 500.56 524.58   A 0.39 0.39 0.0 0 1 500.95 524.19   Q 532.36 523.95 564.93 524.34   Q 580.03 524.52 592.43 526.35   C 633.76 532.44 659.48 565.34 665.18 605.30   C 671.95 652.69 654.69 702.37 607.40 720.19   C 594.29 725.13 579.47 726.31 564.75 726.32   Q 531.60 726.33 500.91 726.33   Z   M 540.02 691.95   C 553.90 692.27 569.39 692.91 583.28 690.58   C 606.37 686.71 619.55 669.03 624.06 647.29   C 628.13 627.70 627.56 604.19 618.45 586.31   C 608.84 567.43 591.97 560.05 571.50 559.67   Q 556.13 559.38 540.20 559.50   A 0.42 0.42 0.0 0 0 539.78 559.92   L 539.78 691.70   A 0.25 0.25 0.0 0 0 540.02 691.95   Z"
     id="path58" />
  <path
     fill="#030204"
     d="   M 540.02 691.95   A 0.25 0.25 0.0 0 1 539.78 691.70   L 539.78 559.92   A 0.42 0.42 0.0 0 1 540.20 559.50   Q 556.13 559.38 571.50 559.67   C 591.97 560.05 608.84 567.43 618.45 586.31   C 627.56 604.19 628.13 627.70 624.06 647.29   C 619.55 669.03 606.37 686.71 583.28 690.58   C 569.39 692.91 553.90 692.27 540.02 691.95   Z   M 541.95 560.95   A 0.80 0.80 0.0 0 0 541.15 561.75   L 541.15 689.70   A 0.99 0.99 0.0 0 0 542.11 690.69   Q 551.97 690.99 564.64 690.87   Q 571.15 690.81 575.83 690.24   Q 584.51 689.18 586.91 688.63   C 607.58 683.90 618.90 666.45 622.88 646.37   C 625.05 635.44 625.77 625.61 624.67 615.23   Q 624.06 609.48 623.59 606.13   Q 622.79 600.47 619.73 592.32   Q 611.05 569.16 588.02 563.06   Q 585.42 562.37 580.94 561.73   Q 575.30 560.93 573.75 560.93   Q 553.18 560.91 541.95 560.95   Z"
     id="path59" />
  <path
     fill="#2a262f"
     d="   M 541.95 560.95   Q 553.18 560.91 573.75 560.93   Q 575.30 560.93 580.94 561.73   Q 585.42 562.37 588.02 563.06   Q 611.05 569.16 619.73 592.32   Q 622.79 600.47 623.59 606.13   Q 624.06 609.48 624.67 615.23   C 625.77 625.61 625.05 635.44 622.88 646.37   C 618.90 666.45 607.58 683.90 586.91 688.63   Q 584.51 689.18 575.83 690.24   Q 571.15 690.81 564.64 690.87   Q 551.97 690.99 542.11 690.69   A 0.99 0.99 0.0 0 1 541.15 689.70   L 541.15 561.75   A 0.80 0.80 0.0 0 1 541.95 560.95   Z"
     id="path60" />
  <path
     fill="#030204"
     d="   M 771.82 711.99   A 0.42 0.42 0.0 0 0 771.39 711.56   Q 770.95 711.57 770.53 712.06   C 768.35 714.61 767.08 716.73 764.36 718.88   Q 754.66 726.56 741.07 728.76   Q 730.61 730.45 722.22 729.57   C 702.98 727.56 683.28 719.07 678.92 697.56   C 674.10 673.84 683.32 654.37 705.33 644.44   Q 710.46 642.13 720.13 640.40   Q 737.37 637.32 753.76 635.11   Q 760.83 634.16 767.38 631.93   C 771.23 630.61 770.87 624.99 770.51 621.08   C 769.69 612.20 764.06 607.60 755.79 605.68   C 750.81 604.52 745.17 604.84 740.76 605.00   Q 735.67 605.18 730.69 608.22   Q 725.15 611.60 723.85 618.10   A 2.76 2.74 -84.4 0 1 721.16 620.32   L 686.54 620.32   A 1.57 1.57 0.0 0 1 684.99 618.50   Q 687.47 602.63 697.60 591.35   C 706.84 581.06 720.97 575.83 734.87 574.60   Q 742.87 573.89 745.26 573.90   Q 753.80 573.96 764.25 575.32   Q 772.37 576.38 780.96 579.34   Q 788.09 581.80 793.01 586.27   Q 799.28 591.98 802.27 596.76   C 806.43 603.43 807.92 610.23 808.74 618.14   Q 809.22 622.75 809.24 626.39   Q 809.48 656.85 809.35 699.26   Q 809.34 705.06 810.63 725.43   A 1.02 1.01 -21.3 0 1 810.25 726.28   Q 809.08 727.21 807.20 727.16   Q 789.79 726.65 775.72 727.11   A 2.29 2.28 -8.0 0 1 773.43 725.39   Q 771.72 718.56 771.82 711.99   Z   M 772.73 708.43   L 774.25 724.96   A 1.06 1.05 87.3 0 0 775.30 725.92   L 809.01 725.92   A 0.47 0.46 86.7 0 0 809.47 725.40   C 808.86 719.81 808.07 713.01 808.06 706.84   Q 808.05 682.15 807.99 634.75   Q 807.99 629.51 807.32 619.00   Q 805.91 597.03 790.29 585.72   Q 780.10 578.35 761.16 576.20   C 727.04 572.31 693.32 579.49 686.16 618.69   A 0.34 0.34 0.0 0 0 686.49 619.09   L 721.22 619.09   A 1.13 1.13 0.0 0 0 722.31 618.25   Q 725.32 606.80 737.03 604.26   Q 746.74 602.15 756.54 604.43   C 767.83 607.05 773.65 616.52 771.73 627.93   C 770.90 632.88 763.95 634.92 759.71 635.49   Q 746.34 637.28 721.38 641.43   Q 712.71 642.87 708.24 644.56   C 689.55 651.64 678.73 666.08 679.06 686.77   C 679.33 703.60 686.07 716.80 702.09 723.24   Q 722.46 731.43 744.37 726.83   Q 762.00 723.13 772.05 708.25   A 0.38 0.37 59.5 0 1 772.73 708.43   Z"
     id="path61" />
  <path
     fill="#030204"
     d="   M 377.62 661.70   A 0.94 0.94 0.0 0 0 376.68 662.65   C 376.84 676.21 382.25 692.76 396.13 697.51   Q 405.21 700.62 415.25 699.73   C 425.26 698.85 432.46 694.42 436.21 685.33   A 3.05 3.05 0.0 0 1 439.00 683.44   Q 451.21 683.31 473.34 683.42   C 475.43 683.43 475.88 685.32 475.35 687.10   Q 472.41 696.97 465.73 706.33   Q 463.08 710.06 460.50 712.00   C 458.38 713.60 455.74 716.64 452.57 718.65   Q 444.97 723.47 441.20 725.15   Q 435.42 727.73 427.06 729.27   Q 405.56 733.24 385.74 727.74   C 358.32 720.15 339.49 695.13 336.39 667.19   Q 335.41 658.36 335.77 646.00   C 336.41 623.63 345.64 599.45 364.45 586.37   C 381.80 574.30 404.72 571.91 425.72 575.89   Q 449.43 580.39 463.49 600.02   Q 472.21 612.19 475.17 626.78   Q 478.54 643.40 476.81 659.67   A 2.26 2.26 0.0 0 1 474.56 661.70   L 377.62 661.70   Z   M 474.12 685.76   A 0.83 0.82 4.2 0 0 473.30 684.82   L 438.86 684.82   A 1.20 1.19 -75.7 0 0 437.81 685.45   C 433.61 693.25 429.18 698.47 419.90 700.30   Q 409.62 702.33 398.83 699.66   C 380.98 695.24 374.72 676.72 375.21 660.54   A 0.34 0.34 0.0 0 1 375.55 660.21   L 474.90 660.21   A 0.91 0.91 0.0 0 0 475.81 659.35   C 477.27 632.27 471.72 602.23 447.55 586.06   C 432.21 575.80 411.45 573.83 392.98 576.54   C 370.71 579.82 353.59 592.37 344.37 613.22   C 336.53 630.94 335.37 653.34 338.50 671.77   C 342.42 694.94 356.53 714.57 378.23 723.77   C 390.56 729.00 404.00 730.08 418.04 729.18   C 443.88 727.52 465.63 712.14 473.78 687.52   Q 473.93 687.06 474.12 685.76   Z"
     id="path62" />
  <path
     fill="#edebe9"
     d="   M 772.73 708.43   A 0.38 0.37 59.5 0 0 772.05 708.25   Q 762.00 723.13 744.37 726.83   Q 722.46 731.43 702.09 723.24   C 686.07 716.80 679.33 703.60 679.06 686.77   C 678.73 666.08 689.55 651.64 708.24 644.56   Q 712.71 642.87 721.38 641.43   Q 746.34 637.28 759.71 635.49   C 763.95 634.92 770.90 632.88 771.73 627.93   C 773.65 616.52 767.83 607.05 756.54 604.43   Q 746.74 602.15 737.03 604.26   Q 725.32 606.80 722.31 618.25   A 1.13 1.13 0.0 0 1 721.22 619.09   L 686.49 619.09   A 0.34 0.34 0.0 0 1 686.16 618.69   C 693.32 579.49 727.04 572.31 761.16 576.20   Q 780.10 578.35 790.29 585.72   Q 805.91 597.03 807.32 619.00   Q 807.99 629.51 807.99 634.75   Q 808.05 682.15 808.06 706.84   C 808.07 713.01 808.86 719.81 809.47 725.40   A 0.47 0.46 86.7 0 1 809.01 725.92   L 775.30 725.92   A 1.06 1.05 87.3 0 1 774.25 724.96   L 772.73 708.43   Z   M 773.22 655.22   Q 763.88 659.29 752.94 661.44   Q 734.00 665.16 733.13 665.35   Q 729.03 666.24 724.00 669.25   C 716.68 673.63 714.97 682.52 717.01 690.23   C 719.57 699.96 729.91 702.39 739.04 701.49   C 749.12 700.50 758.45 693.54 765.65 686.63   Q 771.10 681.40 772.73 673.49   Q 774.43 665.22 773.44 655.35   A 0.16 0.16 0.0 0 0 773.22 655.22   Z"
     id="path63" />
  <path
     fill="#edebe9"
     d="   M 474.12 685.76   Q 473.93 687.06 473.78 687.52   C 465.63 712.14 443.88 727.52 418.04 729.18   C 404.00 730.08 390.56 729.00 378.23 723.77   C 356.53 714.57 342.42 694.94 338.50 671.77   C 335.37 653.34 336.53 630.94 344.37 613.22   C 353.59 592.37 370.71 579.82 392.98 576.54   C 411.45 573.83 432.21 575.80 447.55 586.06   C 471.72 602.23 477.27 632.27 475.81 659.35   A 0.91 0.91 0.0 0 1 474.90 660.21   L 375.55 660.21   A 0.34 0.34 0.0 0 0 375.21 660.54   C 374.72 676.72 380.98 695.24 398.83 699.66   Q 409.62 702.33 419.90 700.30   C 429.18 698.47 433.61 693.25 437.81 685.45   A 1.20 1.19 -75.7 0 1 438.86 684.82   L 473.30 684.82   A 0.83 0.82 4.2 0 1 474.12 685.76   Z   M 375.80 636.45   L 440.36 636.45   A 0.43 0.42 -5.1 0 0 440.78 635.95   C 438.19 621.36 430.63 606.30 414.25 604.19   C 399.78 602.33 385.56 606.62 379.40 620.92   Q 376.35 627.99 375.65 636.28   A 0.15 0.15 0.0 0 0 375.80 636.45   Z"
     id="path64" />
  <path
     fill="#030204"
     d="   M 375.80 636.45   A 0.15 0.15 0.0 0 1 375.65 636.28   Q 376.35 627.99 379.40 620.92   C 385.56 606.62 399.78 602.33 414.25 604.19   C 430.63 606.30 438.19 621.36 440.78 635.95   A 0.43 0.42 -5.1 0 1 440.36 636.45   L 375.80 636.45   Z   M 438.41 635.16   A 0.73 0.73 0.0 0 0 439.13 634.31   Q 438.20 628.47 435.70 622.83   Q 428.07 605.66 409.23 605.07   C 402.03 604.84 393.42 606.61 387.87 611.64   C 380.93 617.92 378.40 625.43 377.17 634.27   A 0.79 0.78 -86.1 0 0 377.94 635.16   L 438.41 635.16   Z"
     id="path65" />
  <path
     fill="#2a262f"
     d="   M 438.41 635.16   L 377.94 635.16   A 0.79 0.78 -86.1 0 1 377.17 634.27   C 378.40 625.43 380.93 617.92 387.87 611.64   C 393.42 606.61 402.03 604.84 409.23 605.07   Q 428.07 605.66 435.70 622.83   Q 438.20 628.47 439.13 634.31   A 0.73 0.73 0.0 0 1 438.41 635.16   Z"
     id="path66" />
  <path
     fill="#030204"
     d="   M 773.22 655.22   A 0.16 0.16 0.0 0 1 773.44 655.35   Q 774.43 665.22 772.73 673.49   Q 771.10 681.40 765.65 686.63   C 758.45 693.54 749.12 700.50 739.04 701.49   C 729.91 702.39 719.57 699.96 717.01 690.23   C 714.97 682.52 716.68 673.63 724.00 669.25   Q 729.03 666.24 733.13 665.35   Q 734.00 665.16 752.94 661.44   Q 763.88 659.29 773.22 655.22   Z   M 771.51 657.29   C 766.21 659.86 760.38 661.06 754.12 662.56   Q 752.01 663.06 735.64 666.12   Q 731.75 666.85 729.98 667.61   C 720.13 671.78 716.25 678.02 718.26 688.94   Q 720.02 698.51 730.89 699.89   C 744.48 701.62 751.80 696.40 761.68 688.71   Q 770.08 682.17 771.46 672.72   Q 772.60 664.85 772.31 657.76   A 0.56 0.55 -14.3 0 0 771.51 657.29   Z"
     id="path67" />
  <path
     fill="#2a262f"
     d="   M 771.51 657.29   A 0.56 0.55 -14.3 0 1 772.31 657.76   Q 772.60 664.85 771.46 672.72   Q 770.08 682.17 761.68 688.71   C 751.80 696.40 744.48 701.62 730.89 699.89   Q 720.02 698.51 718.26 688.94   C 716.25 678.02 720.13 671.78 729.98 667.61   Q 731.75 666.85 735.64 666.12   Q 752.01 663.06 754.12 662.56   C 760.38 661.06 766.21 659.86 771.51 657.29   Z"
     id="path68" />
</svg>
