<?xml version="1.0" encoding="UTF-8" standalone="no"?>
<!-- Created with Inkscape (http://www.inkscape.org/) -->

<svg
   version="1.1"
   id="svg1"
   width="1200"
   height="1200"
   viewBox="0 0 1200 1200"
   sodipodi:docname="castmail2list.svg"
   inkscape:version="1.4.2 (ebf0e940, 2025-05-08)"
   xml:space="preserve"
   xmlns:inkscape="http://www.inkscape.org/namespaces/inkscape"
   xmlns:sodipodi="http://sodipodi.sourceforge.net/DTD/sodipodi-0.dtd"
   xmlns="http://www.w3.org/2000/svg"
   xmlns:svg="http://www.w3.org/2000/svg"><defs
     id="defs1"><inkscape:path-effect
       effect="fill_between_many"
       method="originald"
       linkedpaths="#path3,0,1"
       id="path-effect3"
       is_visible="true"
       lpeversion="0"
       join="true"
       close="true"
       autoreverse="true" /><inkscape:path-effect
       effect="fill_between_many"
       method="originald"
       linkedpaths="#path4,0,1|#path3,0,1"
       id="path-effect4"
       is_visible="true"
       lpeversion="0"
       join="true"
       close="true"
       autoreverse="true" /><inkscape:path-effect
       effect="fill_between_many"
       method="originald"
       linkedpaths="#path8,0,1"
       id="path-effect10"
       is_visible="true"
       lpeversion="0"
       join="true"
       close="true"
       autoreverse="true" /><inkscape:path-effect
       effect="fill_between_many"
       method="originald"
       linkedpaths="#path10,0,1"
       id="path-effect11"
       is_visible="true"
       lpeversion="0"
       join="true"
       close="true"
       autoreverse="true" /><inkscape:path-effect
       effect="fill_between_many"
       method="originald"
       linkedpaths="#path4,0,1|#path12,0,1|#path10,0,1|#path9,0,1|#path11,0,1|#path8,0,1|#path7,0,1|#path6,0,1|#path3,0,1"
       id="path-effect12"
       is_visible="true"
       lpeversion="0"
       join="true"
       close="true"
       autoreverse="true" /><inkscape:path-effect
       effect="fill_between_many"
       method="originald"
       linkedpaths="#path7,0,1"
       id="path-effect13"
       is_visible="true"
       lpeversion="0"
       join="true"
       close="true"
       autoreverse="true" /><inkscape:path-effect
       effect="fill_between_many"
       method="originald"
       linkedpaths="#path6,0,1"
       id="path-effect14"
       is_visible="true"
       lpeversion="0"
       join="true"
       close="true"
       autoreverse="true" /><inkscape:path-effect
       effect="fill_between_many"
       method="originald"
       linkedpaths="#path9,0,1"
       id="path-effect15"
       is_visible="true"
       lpeversion="0"
       join="true"
       close="true"
       autoreverse="true" /></defs><sodipodi:namedview
     id="namedview1"
     pagecolor="#ffffff"
     bordercolor="#000000"
     borderopacity="0.25"
     inkscape:showpageshadow="2"
     inkscape:pageopacity="0.0"
     inkscape:pagecheckerboard="0"
     inkscape:deskcolor="#d1d1d1"
     inkscape:zoom="0.39319711"
     inkscape:cx="951.17688"
     inkscape:cy="558.24419"
     inkscape:window-width="1472"
     inkscape:window-height="854"
     inkscape:window-x="0"
     inkscape:window-y="34"
     inkscape:window-maximized="0"
     inkscape:current-layer="g1" /><g
     inkscape:groupmode="layer"
     inkscape:label="Image"
     id="g1"
     transform="translate(1155.0158,198.22975)"><g
       id="g16"
       transform="matrix(1.2256127,0,0,1.2256127,125.21861,-90.644477)"><path
         inkscape:original-d="M 0,0"
         inkscape:path-effect="#path-effect3"
         d="m -748.51108,780.68574 -358.00002,0.18666 -4,-1.26859 -4,-1.26859 -3.5,-1.78504 -3.5,-1.78505 -2.25,-2.05734 -2.25,-2.05734 v -2.86441 -2.86441 l 3.75,-3.81656 3.75,-3.81656 16.9806,-15.89472 16.9805,-15.89471 13.5195,-13.00758 13.5194,-13.00757 28.4862,-26.99243 28.4861,-26.99242 27.5373,-26.5 27.53731,-26.5 26.35089,-25 26.3509,-25 8.49412,-7.75 8.49411,-7.75 h 4.06719 4.06719 l 4.56435,3.83048 4.56436,3.83048 20.5,16.41763 20.5,16.41762 9.5,7.33589 9.5,7.3359 8.02594,3.8375 8.02594,3.8375 8.47406,2.32185 8.47406,2.32185 17,-0.0716 17,-0.0716 12.60934,-4.16367 12.60934,-4.16368 7.89066,-5.12807 7.89066,-5.12808 5,-4.21854 5,-4.21855 17.86704,-14.41144 17.86703,-14.41145 7.10526,-5.75 7.10526,-5.75 h 3.89623 3.89624 l 14.63147,14.26434 14.63147,14.26433 24,22.45861 24,22.4586 22.0427,21.02706 22.0427,21.02706 17.94788,17 17.94787,17 13.50943,12.94826 13.50942,12.94825 10.5,10.11018 10.5,10.11019 8,7.37843 8,7.37843 13.75,13.33151 13.75,13.3315 v 3.43074 3.43073 l -3.25,2.43027 -3.25,2.43026 -5,2.37063 -5,2.37062 z"
         id="path4"
         style="fill:#c79400;fill-opacity:1"
         transform="translate(194.99764,110.44893)" /><path
         inkscape:original-d="M 0,0"
         inkscape:path-effect="#path-effect11"
         d="m -603.93788,202.99908 h -32.76322 l -1.65499,-1.82874 -1.65499,-1.82874 v -2.79045 -2.79045 l 3.67684,-6.13081 3.67685,-6.13081 8.87209,-13.20557 8.8721,-13.20557 13.20088,-14.29443 13.20088,-14.29443 28.20402,-28.500003 28.20401,-28.5 -4.14429,-3.5 -4.14429,-3.5 -13.05954,-10.58096 -13.05955,-10.58096 -0.29781,-3.97079 -0.29781,-3.97078 1.92711,-1.74401 1.9271,-1.74401 20.37071,-8.54469 20.3707,-8.54469 8,-3.2827104 8,-3.282717 24.5,-10.16558 24.5,-10.1655796 8,-3.405613 8,-3.405614 9.5,-3.955164 9.5,-3.955164 4.15941,-1.231629 4.1594,-1.23163 2.57795,0.647023 2.57794,0.647022 1.68078,2.565187 1.68077,2.565187 -1.65118,9.168936 -1.65118,9.1689356 -2.04526,13 -2.04526,13.0000004 -1.46092,8.5 -1.46092,8.5 -1.59946,9.5 -1.59947,9.5 -1.30695,9 -1.30695,9 -1.04719,6 -1.04719,6 -1.56327,9 -1.56328,9.000003 -0.9227,6.5 -0.9227,6.5 -1.60009,10 -1.60008,10 -1.06536,5.5 -1.06536,5.5 -1.42879,2.25 -1.4288,2.25 -3.72694,0.0213 -3.72695,0.0213 -18.05678,-18.63183 -18.05677,-18.63183 -1.55904,0.36053 -1.55904,0.36054 -42.17706,43.15946 -42.17706,43.15947 -1.53891,0.59053 -1.53891,0.59053 z"
         id="path12"
         style="fill:#c79400;fill-opacity:1"
         transform="translate(194.99764,110.44893)" /><path
         style="fill:#c79400;fill-opacity:1"
         d="m -603.93788,202.99908 h -32.76322 l -1.65499,-1.82874 -1.65499,-1.82874 v -2.79045 -2.79045 l 3.67684,-6.13081 3.67685,-6.13081 8.87209,-13.20557 8.8721,-13.20557 13.20088,-14.29443 13.20088,-14.29443 28.20402,-28.500003 28.20401,-28.5 -4.14429,-3.5 -4.14429,-3.5 -13.05954,-10.58096 -13.05955,-10.58096 -0.29781,-3.97079 -0.29781,-3.97078 1.92711,-1.74401 1.9271,-1.74401 20.37071,-8.54469 20.3707,-8.54469 8,-3.2827104 8,-3.282717 24.5,-10.16558 24.5,-10.1655796 8,-3.405613 8,-3.405614 9.5,-3.955164 9.5,-3.955164 4.15941,-1.231629 4.1594,-1.23163 2.57795,0.647023 2.57794,0.647022 1.68078,2.565187 1.68077,2.565187 -1.65118,9.168936 -1.65118,9.1689356 -2.04526,13 -2.04526,13.0000004 -1.46092,8.5 -1.46092,8.5 -1.59946,9.5 -1.59947,9.5 -1.30695,9 -1.30695,9 -1.04719,6 -1.04719,6 -1.56327,9 -1.56328,9.000003 -0.9227,6.5 -0.9227,6.5 -1.60009,10 -1.60008,10 -1.06536,5.5 -1.06536,5.5 -1.42879,2.25 -1.4288,2.25 -3.72694,0.0213 -3.72695,0.0213 -18.05678,-18.63183 -18.05677,-18.63183 -1.55904,0.36053 -1.55904,0.36054 -42.17706,43.15946 -42.17706,43.15947 -1.53891,0.59053 -1.53891,0.59053 z m 1.4268,-2.01772 32,0.0431 9.54712,-9.90179 9.54713,-9.90179 33.38515,-34.1109 33.38516,-34.1109 h 2.62219 2.62219 l 18.28358,18.5 18.28359,18.5 1.66194,-0.0153 1.66195,-0.0153 1.15848,-0.73713 1.15847,-0.73714 1.49035,-5.99755 1.49034,-5.99755 0.63456,-5.5 0.63456,-5.5 1.43272,-8 1.43273,-8 2.01758,-12.500003 2.01759,-12.5 2.02778,-13 2.02779,-13 1.49519,-8.5 1.49519,-8.5 3.01747,-19 3.01747,-19.0000004 2.05025,-12.362056 2.05025,-12.3620546 0.51554,-1.343475 0.51554,-1.343475 -2.56882,-2.568818 -2.56882,-2.568819 -2.7711,0.658199 -2.77111,0.6582 -6,2.410906 -6,2.410905 -2,0.914392 -2,0.914392 -9.5,3.96437 -9.5,3.96437 -42.5,17.6986696 -42.5,17.6986744 -10.94722,4.38877 -10.94722,4.38878 -2.30278,2.16335 -2.30278,2.16332 v 1.7702 1.77021 l 4.75,4.00625 4.75,4.00626 10.5,8.68612 10.5,8.68611 2.25,1.47812 2.25,1.47812 -0.003,2.13499 -0.003,2.13499 -20.10959,20 -20.1096,20.000003 -19.14009,20 -19.14008,20 -3.5878,4.5 -3.5878,4.5 -7.54559,11.13429 -7.5456,11.13429 -3.61365,6.46181 -3.6142,6.46181 v 1.60421 1.60421 l 1.75,1.01928 1.75,1.01928 z"
         id="path10"
         transform="translate(194.99764,110.44893)" /><path
         inkscape:original-d="M 0,0"
         inkscape:path-effect="#path-effect15"
         d="m -895.71563,203.00777 -33.79545,0.009 -13.40515,-13.75869 -13.40515,-13.75869 -29.53356,-30.25 -29.53356,-30.25 h -1.1965 -1.1966 l -17.2661,17.98067 -17.2662,17.98067 -1.9208,0.60963 -1.9207,0.60962 -2.4152,-0.60617 -2.4152,-0.60617 -1.5,-2.28928 -1.5,-2.28928 -9.0794,-53.944853 -9.0795,-53.94484 -1.4106,-9 -1.4106,-9 -3.5226,-20.87761142 -3.5226,-20.87761058 v -2.23753 -2.237531 l 2.0726,-2.634858 2.0726,-2.634859 h 3.3248 3.3248 l 14.8526,6.100588 14.8526,6.100589 11.5,4.778257 11.5,4.7782576 9.5,4.01609 9.5,4.01609 13.50002,5.703498 13.5,5.7035004 9,3.79917 9,3.79917 14.45747,5.9995 14.45747,5.99949 1.79253,2.21368 1.79253,2.21369 v 2.59015 2.59015 l -5.75,5.55243 -5.75,5.55242 -10.5,8.39571 -10.5,8.39572 -0.92885,0.82978 -0.92886,0.82978 23.92886,24.27448 23.92885,24.274483 15.16438,15.99667 15.16438,15.99666 3.93266,5.02707 3.93266,5.02708 9.52711,13.97292 9.52712,13.97293 2.12584,4.21016 2.12585,4.21016 v 1.0853 1.08529 l -2.45455,2.45454 -2.45454,2.45455 z"
         id="path16"
         style="fill:#c79400;fill-opacity:1"
         transform="translate(194.99764,110.44893)" /><path
         style="fill:#c79400;fill-opacity:1"
         d="m -895.71563,203.00777 -33.79545,0.009 -13.40515,-13.75869 -13.40515,-13.75869 -29.53356,-30.25 -29.53356,-30.25 h -1.1965 -1.1966 l -17.2661,17.98067 -17.2662,17.98067 -1.9208,0.60963 -1.9207,0.60962 -2.4152,-0.60617 -2.4152,-0.60617 -1.5,-2.28928 -1.5,-2.28928 -9.0794,-53.944853 -9.0795,-53.94484 -1.4106,-9 -1.4106,-9 -3.5226,-20.87761142 -3.5226,-20.87761058 v -2.23753 -2.237531 l 2.0726,-2.634858 2.0726,-2.634859 h 3.3248 3.3248 l 14.8526,6.100588 14.8526,6.100589 11.5,4.778257 11.5,4.7782576 9.5,4.01609 9.5,4.01609 13.50002,5.703498 13.5,5.7035004 9,3.79917 9,3.79917 14.45747,5.9995 14.45747,5.99949 1.79253,2.21368 1.79253,2.21369 v 2.59015 2.59015 l -5.75,5.55243 -5.75,5.55242 -10.5,8.39571 -10.5,8.39572 -0.92885,0.82978 -0.92886,0.82978 23.92886,24.27448 23.92885,24.274483 15.16438,15.99667 15.16438,15.99666 3.93266,5.02707 3.93266,5.02708 9.52711,13.97292 9.52712,13.97293 2.12584,4.21016 2.12585,4.21016 v 1.0853 1.08529 l -2.45455,2.45454 -2.45454,2.45455 z m 0.88312,-2.04413 31.67857,0.0354 1.57143,-1.57143 1.57143,-1.57139 v -1.59071 -1.59071 l -2.66431,-4.58786 -2.6643,-4.58786 -5.19197,-7.5 -5.19197,-7.5 -4.38561,-6.39985 -4.38561,-6.39984 -11.97651,-13.10016 -11.9765,-13.10015 -29.78161,-30.07542 -29.78161,-30.075433 v -2.67457 -2.67458 h 0.78397 0.78397 l 7.96603,-6.54984 7.96603,-6.54985 7.70782,-6.52958 7.70782,-6.52959 0.59758,-1.88279 0.59758,-1.8828 -0.99464,-1.8585 -0.99464,-1.8585 -3.81076,-1.63401 -3.81076,-1.63402 -10,-4.11106 -10,-4.11107 -11.5,-4.87496 -11.5,-4.87495 -10.5,-4.4449444 -10.50002,-4.444945 -12,-5.048971 -12,-5.048971 -24,-9.9479106 -24,-9.94791 -2.25,-0.684802 -2.25,-0.684801 -2.0573,0.652956 -2.0572,0.652957 -0.9862,2.593858 -0.9862,2.593858 1.5298,8.070573 1.5298,8.0705726 7.0545,43.0000004 7.0544,43 0.9721,5 0.9722,5 4.4738,27.405273 4.4738,27.40528 1.5363,2.34472 1.5363,2.34473 h 2.2588 2.2587 l 17.9087,-18 17.9087,-18 h 2.3841 2.3841 l 24.68554,25.25 24.68549,25.25 16.96557,17.5 16.96558,17.5 2.02432,1.21456 2.02432,1.21457 z"
         id="path9"
         transform="translate(194.99764,110.44893)" /><path
         inkscape:original-d="M 0,0"
         inkscape:path-effect="#path-effect10"
         d="m -744.10833,566.32439 -8.40275,0.45444 -4,-0.39917 -4,-0.39916 -6,-1.60794 -6,-1.60793 -5.75227,-2.89832 -5.75227,-2.89831 -43.24773,-34.67438 -43.24773,-34.67439 -12.40826,-10.06007 -12.40826,-10.06008 -8.59174,-6.7812 -8.59174,-6.7812 -3.5,-2.69494 -3.5,-2.69495 -7,-5.57388 -7,-5.57388 -9.5,-7.52217 -9.5,-7.52216 -37,-29.46808 -37.00002,-29.46807 -15,-11.89591 -15,-11.8959 -12,-9.48662 -12,-9.48662 -11.5,-9.13428 -11.5,-9.13427 -22.2849,-17.71958 -22.2848,-17.71957 -1.0526,-2.72336 -1.0525,-2.72336 1.5664,-5.02114 1.5663,-5.02114 4.2711,-4.16292 4.271,-4.16293 5,-2.45837 5,-2.45837 5.2529,-1.09762 5.2528,-1.09762 156.03294,-0.0483 156.03294,-0.0483 2.46422,-0.93689 2.46422,-0.9369 V 89.723827 -54.600923 l -1.2,-1.2 -1.2,-1.2 h -30.34545 -30.34546 l -2.45454,-2.454545 -2.45455,-2.454546 v -2.410596 -2.410596 l 2.23055,-2.884858 2.23056,-2.884859 9.01944,-10.494023 9.01945,-10.494022 8.5,-9.617302 8.5,-9.6173 17.5,-19.83531 17.5,-19.83532 19.75905,-22.25975 19.75906,-22.25974 3.50761,-0.65803 3.50761,-0.65803 2.76641,1.14588 2.76642,1.14589 15.13157,17.21852 15.13158,17.21854 18.83534,21.51659 18.83535,21.5166 20.55306,23.983403 20.55307,23.983404 1.69693,2.472506 1.69694,2.472506 v 1.822949 1.822948 l -2.45455,2.454546 -2.45454,2.454545 h -30.34546 -30.34545 l -1.2,1.2 -1.2,1.2 V 90.686427 235.97377 l 159.18753,0.016 159.18753,0.016 6.31766,1.10017 6.31766,1.10018 5.88128,3.80125 5.88128,3.80126 3.27635,4.76201 3.27636,4.76202 0.46391,4.828 0.46391,4.82801 -1.32201,1.59292 -1.32201,1.59292 -12.55472,10.23692 -12.55473,10.237 -11.13181,8.92533 -11.13181,8.92532 -23.36819,18.63858 -23.36819,18.63858 -31.63166,25.36142 -31.63166,25.36142 -20.24098,16 -20.24097,16 -6.74934,5.5 -6.74933,5.5 -22.77955,18 -22.77955,18 -25.09848,19.91757 -25.09848,19.91757 -6.5,5.12712 -6.5,5.12712 -12.5,9.91062 -12.5,9.91062 -6.56245,5.25471 -6.56245,5.25471 -5.93755,3.57543 -5.93755,3.57543 -7.59725,2.39999 -7.59726,2.39999 z"
         id="path11"
         style="fill:#c79400;fill-opacity:1"
         transform="translate(194.99764,110.44893)" /><path
         style="fill:#c79400;fill-opacity:1"
         d="m -744.10833,566.32439 -8.40275,0.45444 -4,-0.39917 -4,-0.39916 -6,-1.60794 -6,-1.60793 -5.75227,-2.89832 -5.75227,-2.89831 -43.24773,-34.67438 -43.24773,-34.67439 -12.40826,-10.06007 -12.40826,-10.06008 -8.59174,-6.7812 -8.59174,-6.7812 -3.5,-2.69494 -3.5,-2.69495 -7,-5.57388 -7,-5.57388 -9.5,-7.52217 -9.5,-7.52216 -37,-29.46808 -37.00002,-29.46807 -15,-11.89591 -15,-11.8959 -12,-9.48662 -12,-9.48662 -11.5,-9.13428 -11.5,-9.13427 -22.2849,-17.71958 -22.2848,-17.71957 -1.0526,-2.72336 -1.0525,-2.72336 1.5664,-5.02114 1.5663,-5.02114 4.2711,-4.16292 4.271,-4.16293 5,-2.45837 5,-2.45837 5.2529,-1.09762 5.2528,-1.09762 156.03294,-0.0483 156.03294,-0.0483 2.46422,-0.93689 2.46422,-0.9369 V 89.723827 -54.600923 l -1.2,-1.2 -1.2,-1.2 h -30.34545 -30.34546 l -2.45454,-2.454545 -2.45455,-2.454546 v -2.410596 -2.410596 l 2.23055,-2.884858 2.23056,-2.884859 9.01944,-10.494023 9.01945,-10.494022 8.5,-9.617302 8.5,-9.6173 17.5,-19.83531 17.5,-19.83532 19.75905,-22.25975 19.75906,-22.25974 3.50761,-0.65803 3.50761,-0.65803 2.76641,1.14588 2.76642,1.14589 15.13157,17.21852 15.13158,17.21854 18.83534,21.51659 18.83535,21.5166 20.55306,23.983403 20.55307,23.983404 1.69693,2.472506 1.69694,2.472506 v 1.822949 1.822948 l -2.45455,2.454546 -2.45454,2.454545 h -30.34546 -30.34545 l -1.2,1.2 -1.2,1.2 V 90.686427 235.97377 l 159.18753,0.016 159.18753,0.016 6.31766,1.10017 6.31766,1.10018 5.88128,3.80125 5.88128,3.80126 3.27635,4.76201 3.27636,4.76202 0.46391,4.828 0.46391,4.82801 -1.32201,1.59292 -1.32201,1.59292 -12.55472,10.23692 -12.55473,10.237 -11.13181,8.92533 -11.13181,8.92532 -23.36819,18.63858 -23.36819,18.63858 -31.63166,25.36142 -31.63166,25.36142 -20.24098,16 -20.24097,16 -6.74934,5.5 -6.74933,5.5 -22.77955,18 -22.77955,18 -25.09848,19.91757 -25.09848,19.91757 -6.5,5.12712 -6.5,5.12712 -12.5,9.91062 -12.5,9.91062 -6.56245,5.25471 -6.56245,5.25471 -5.93755,3.57543 -5.93755,3.57543 -7.59725,2.39999 -7.59726,2.39999 z m -5.54709,-2.40815 10.85565,0.0828 6.01676,-1.5591 6.01676,-1.5591 6.42152,-3.03402 6.42152,-3.03402 38.70607,-30.57112 38.70606,-30.57112 16.5,-13.12431 16.5,-13.12431 9,-7.10875 9,-7.10875 21.5,-17.10471 21.5,-17.10471 18.5,-14.71161 18.5,-14.71161 12.5,-10.00248 12.5,-10.00248 57.5,-46.05525 57.5,-46.05524 6,-4.83804 6,-4.83804 1.72776,-2.14062 1.72777,-2.14061 0.0222,-2.29966 0.0222,-2.29966 -1.55657,-3.01008 -1.55657,-3.01007 -3.62998,-4.01795 -3.62997,-4.01795 -4.6748,-2.3689 -4.67479,-2.3689 -6.38866,-1.07696 -6.38859,-1.07692 -158.5,-0.22646 -158.5,-0.22645 -0.25722,-147.000003 -0.25721,-147 1.69834,-1.25 1.69835,-1.25 h 29.69809 29.69808 l 2.26154,-1.831282 2.26154,-1.831282 -0.6257,-2.418718 -0.6257,-2.418718 -11.14164,-13 -11.14164,-13 -18.13341,-20.896387 -18.13342,-20.89639 -9.64705,-11.10361 -9.64705,-11.10361 -15.87455,-17.99688 -15.87456,-17.99688 -2.89821,-1.38907 -2.8982,-1.38908 -3.08019,1.74571 -3.08019,1.74571 -12.5,14.08888 -12.5,14.08889 -15.5,17.43945 -15.5,17.43944 -8.5,9.79984 -8.5,9.79983 -18.08172,20.812079 -18.08173,20.812078 -1.16469,2.177558 -1.16469,2.177558 0.61407,1.600222 0.61406,1.600222 1.81661,0.97222 1.81661,0.97222 h 30.36574 30.36574 l 1.2,1.2 1.2,1.2 -0.0153,145.55 -0.0153,145.550003 -0.94809,1.5 -0.9481,1.5 -157.28659,0.26569 -157.28664,0.2657 -7,1.50097 -7,1.50098 -5.2642,3.01172 -5.2643,3.01172 -2.9626,4.08967 -2.9625,4.08967 -0.6468,3.44745 -0.6467,3.44746 0.8736,1.82419 0.8735,1.82418 7,5.64713 7,5.64713 29.9029,23.71317 29.9028,23.71317 13.0972,10.36216 13.0971,10.36215 16.5,13.09015 16.5,13.09015 34.50002,27.48528 34.5,27.48528 12,9.4865 12,9.4865 9,7.13563 9,7.13562 19.86546,15.94029 19.86545,15.94029 26.63455,21.3223 26.63454,21.32231 9.31511,7.67769 9.3151,7.6777 7.1849,4.79137 7.18489,4.79137 7.5,2.37579 7.5,2.37579 z"
         id="path8"
         transform="translate(194.99764,110.44893)" /><path
         inkscape:original-d="M 0,0"
         inkscape:path-effect="#path-effect13"
         d="m -1147.0301,740.99908 h -3.9349 l -1.773,-2.70594 -1.7731,-2.70594 -0.2524,-207.04406 -0.2523,-207.04406 0.7523,-7.39389 0.7524,-7.39389 1.7246,-1.08495 1.7245,-1.08495 2.7755,1.06743 2.7754,1.06743 35.5,28.36517 35.5,28.36516 14.5,11.59222 14.5,11.59221 10.5,8.49754 10.5,8.49753 35.00002,28.00712 35,28.00712 25,19.84467 25,19.84466 1.72776,2.10471 1.72777,2.10471 0.0222,2.25791 0.0223,2.25791 -19.25,18.74172 -19.25,18.74172 -18.5,18.02658 -18.5,18.02658 -32.99815,31.47379 -32.9981,31.47379 -17.5019,16.95546 -17.5019,16.95545 -9,8.61183 -9,8.61184 -24.292,22.68271 -24.292,22.68271 z"
         id="path14"
         style="fill:#c79400;fill-opacity:1"
         transform="translate(194.99764,110.44893)" /><path
         style="fill:#c79400;fill-opacity:1"
         d="m -1147.0301,740.99908 h -3.9349 l -1.773,-2.70594 -1.7731,-2.70594 -0.2524,-207.04406 -0.2523,-207.04406 0.7523,-7.39389 0.7524,-7.39389 1.7246,-1.08495 1.7245,-1.08495 2.7755,1.06743 2.7754,1.06743 35.5,28.36517 35.5,28.36516 14.5,11.59222 14.5,11.59221 10.5,8.49754 10.5,8.49753 35.00002,28.00712 35,28.00712 25,19.84467 25,19.84466 1.72776,2.10471 1.72777,2.10471 0.0222,2.25791 0.0223,2.25791 -19.25,18.74172 -19.25,18.74172 -18.5,18.02658 -18.5,18.02658 -32.99815,31.47379 -32.9981,31.47379 -17.5019,16.95546 -17.5019,16.95545 -9,8.61183 -9,8.61184 -24.292,22.68271 -24.292,22.68271 z m -0.1038,-2 h 1.7342 l 3.1249,-2.30546 3.1249,-2.30545 27.8194,-26.37283 27.8194,-26.37283 23.5,-22.59326 23.5,-22.59326 23,-22.07977 23.00002,-22.07978 15,-14.3207 15,-14.32069 28.79536,-28.0463 28.79535,-28.0463 -0.29535,-2.4878 -0.29536,-2.48779 -17,-13.5992 -17,-13.59921 -40,-31.96386 -40.00002,-31.96386 -43,-34.42219 -43,-34.42219 -22.2815,-17.80863 -22.2816,-17.80864 h -0.7684 -0.7685 l -1.2,1.2 -1.2,1.2 v 213.22857 213.22857 l 1.5714,1.57143 1.5715,1.57143 z"
         id="path7"
         transform="translate(194.99764,110.44893)" /><path
         inkscape:original-d="M 0,0"
         inkscape:path-effect="#path-effect14"
         d="m -352.01108,741.99908 h -1.73028 l -2.88486,-2.19818 -2.88486,-2.19819 -16.46148,-15.55181 -16.46147,-15.55182 -24.03853,-22.9476 -24.03852,-22.9476 -25.53444,-24.5524 -25.53444,-24.5524 -17.46556,-16.45253 -17.46556,-16.45253 -24,-23.07572 -24,-23.07573 -11,-10.41314 -11,-10.41315 -1.4572,-2.26835 -1.45719,-2.26835 0.96397,-2.74105 0.96398,-2.74105 17.52414,-14.0492 17.52415,-14.0492 33.96853,-27 33.96853,-27 14.00054,-11.3419 14.00055,-11.34189 16.45895,-13.15811 16.45896,-13.1581 40.98431,-32.75 40.98432,-32.75 h 2.10673 2.10673 l 1.2,1.2 1.2,1.2 V 522.6265 737.85392 l -2.63486,2.07258 -2.63486,2.07258 z"
         id="path15"
         style="fill:#c79400;fill-opacity:1"
         transform="translate(194.99764,110.44893)" /><path
         style="fill:#c79400;fill-opacity:1"
         d="m -352.01108,741.99908 h -1.73028 l -2.88486,-2.19818 -2.88486,-2.19819 -16.46148,-15.55181 -16.46147,-15.55182 -24.03853,-22.9476 -24.03852,-22.9476 -25.53444,-24.5524 -25.53444,-24.5524 -17.46556,-16.45253 -17.46556,-16.45253 -24,-23.07572 -24,-23.07573 -11,-10.41314 -11,-10.41315 -1.4572,-2.26835 -1.45719,-2.26835 0.96397,-2.74105 0.96398,-2.74105 17.52414,-14.0492 17.52415,-14.0492 33.96853,-27 33.96853,-27 14.00054,-11.3419 14.00055,-11.34189 16.45895,-13.15811 16.45896,-13.1581 40.98431,-32.75 40.98432,-32.75 h 2.10673 2.10673 l 1.2,1.2 1.2,1.2 V 522.6265 737.85392 l -2.63486,2.07258 -2.63486,2.07258 z m 0.0329,-3 h 2.5671 l 1.2,-1.2 1.2,-1.2 V 522.3581 308.11711 l -0.97933,-0.60526 -0.97934,-0.60526 -1.83386,0.98145 -1.83386,0.98146 -43.43681,34.63225 -43.4368,34.63226 -6,4.84921 -6,4.84921 -7,5.63569 -7,5.63569 -31.5,25.25675 -31.5,25.25674 -20.5,16.25273 -20.5,16.25273 -8.96761,7.18816 -8.96761,7.18816 -4.84404,4.50755 -4.84404,4.50756 0.62436,1.62706 0.62436,1.62706 29.68729,28.46264 29.68729,28.46264 9.49665,8.90274 9.49666,8.90275 11.00334,10.44909 11.00335,10.44908 14.02876,13.55092 14.02875,13.55091 8.47125,8.02973 8.47124,8.02974 24.5,23.56431 24.5,23.56432 23.48291,22.15595 23.48292,22.15595 z"
         id="path6"
         transform="translate(194.99764,110.44893)" /><path
         style="fill:#c79400;fill-opacity:1"
         d="m -748.51108,780.68574 -358.00002,0.18666 -4,-1.26859 -4,-1.26859 -3.5,-1.78504 -3.5,-1.78505 -2.25,-2.05734 -2.25,-2.05734 v -2.86441 -2.86441 l 3.75,-3.81656 3.75,-3.81656 16.9806,-15.89472 16.9805,-15.89471 13.5195,-13.00758 13.5194,-13.00757 28.4862,-26.99243 28.4861,-26.99242 27.5373,-26.5 27.53731,-26.5 26.35089,-25 26.3509,-25 8.49412,-7.75 8.49411,-7.75 h 4.06719 4.06719 l 4.56435,3.83048 4.56436,3.83048 20.5,16.41763 20.5,16.41762 9.5,7.33589 9.5,7.3359 8.02594,3.8375 8.02594,3.8375 8.47406,2.32185 8.47406,2.32185 17,-0.0716 17,-0.0716 12.60934,-4.16367 12.60934,-4.16368 7.89066,-5.12807 7.89066,-5.12808 5,-4.21854 5,-4.21855 17.86704,-14.41144 17.86703,-14.41145 7.10526,-5.75 7.10526,-5.75 h 3.89623 3.89624 l 14.63147,14.26434 14.63147,14.26433 24,22.45861 24,22.4586 22.0427,21.02706 22.0427,21.02706 17.94788,17 17.94787,17 13.50943,12.94826 13.50942,12.94825 10.5,10.11018 10.5,10.11019 8,7.37843 8,7.37843 13.75,13.33151 13.75,13.3315 v 3.43074 3.43073 l -3.25,2.43027 -3.25,2.43026 -5,2.37063 -5,2.37062 z m 0.5,-1.99963 355.5,-0.18703 5.98991,-2.80107 5.98991,-2.80107 2.26009,-2.12325 2.26009,-2.12324 v -1.70163 -1.70164 l -17.75,-16.87305 -17.75,-16.87306 -22,-21.05733 -22,-21.05734 -9.97731,-9.44366 -9.97732,-9.44366 -11.04337,-10.5 -11.04337,-10.5 -21.00419,-20 -21.0042,-20 -25.97512,-24.48493 -25.97512,-24.48494 -11.5,-11.04691 -11.5,-11.04691 -4.94841,-4.71815 -4.94841,-4.71816 h -2.22499 -2.225 l -4.82659,3.65514 -4.8266,3.65513 -10.5,8.66429 -10.5,8.66429 -15.5,12.47708 -15.5,12.47709 -4.81255,3.29457 -4.81255,3.29457 -6.27005,2.84297 -6.27005,2.84298 -9.4174,2.81594 -9.4174,2.81595 -18.5,-0.0533 -18.5,-0.0533 -8.78832,-2.70339 -8.78832,-2.70339 -6.92735,-3.48856 -6.92736,-3.48856 -8.78432,-6.67988 -8.78433,-6.67988 -15,-12.01369 -15,-12.0137 -6.78969,-5.56114 -6.78969,-5.56114 -4.096,-3.25 -4.096,-3.25 h -2.74177 -2.74177 l -18.8256,17.75 -18.8256,17.75 -34.54694,32.95064 -34.54694,32.95063 -24.00002,23.09624 -24,23.09623 -17.4665,16.45306 -17.4665,16.45313 -13.0353,12.5 -13.0353,12.5 -15.8393,14.98599 -15.8393,14.98599 -0.9053,1.69157 -0.9053,1.69157 0.6136,1.59894 0.6135,1.59895 4.1571,2.43622 4.1571,2.43621 5.4758,1.47431 5.4757,1.47431 z"
         id="path3"
         transform="translate(194.99764,110.44893)" /></g></g></svg>
