<?xml version="1.0" encoding="UTF-8" standalone="no"?>
<!-- Generator: visioncortex VTracer 0.6.4 -->

<svg
   version="1.1"
   width="194"
   height="269"
   id="svg686"
   sodipodi:docname="auxi-icon.svg"
   inkscape:version="1.2.2 (b0a8486541, 2022-12-01)"
   xmlns:inkscape="http://www.inkscape.org/namespaces/inkscape"
   xmlns:sodipodi="http://sodipodi.sourceforge.net/DTD/sodipodi-0.dtd"
   xmlns="http://www.w3.org/2000/svg"
   xmlns:svg="http://www.w3.org/2000/svg">
  <defs
     id="defs690" />
  <sodipodi:namedview
     id="namedview688"
     pagecolor="#ffffff"
     bordercolor="#000000"
     borderopacity="0.25"
     inkscape:showpageshadow="2"
     inkscape:pageopacity="0.0"
     inkscape:pagecheckerboard="0"
     inkscape:deskcolor="#d1d1d1"
     showgrid="false"
     inkscape:zoom="2.244867"
     inkscape:cx="199.56639"
     inkscape:cy="101.78777"
     inkscape:window-width="1920"
     inkscape:window-height="1008"
     inkscape:window-x="1920"
     inkscape:window-y="0"
     inkscape:window-maximized="1"
     inkscape:current-layer="svg686"
     showguides="true">
    <sodipodi:guide
       position="183.23481,487.37595"
       orientation="0,-1"
       id="guide382"
       inkscape:locked="false" />
    <sodipodi:guide
       position="204.43422,278.89345"
       orientation="0,-1"
       id="guide384"
       inkscape:locked="false" />
  </sodipodi:namedview>
  <path
     d="m 171.36598,6.1224158 c 4.01669,4.6408582 4.36905,9.4025142 4.5905,15.3520752 -0.56212,6.496887 4.33366,14.1541 -1.57041,14.1541 -0.37788,6.388937 2.56107,8.053546 -4.02678,8.053546 0.0302,1.590562 0.0302,1.590562 0.0605,3.21134 -0.39985,4.876778 -4.90276,6.745712 -9.62863,8.321015 -0.12099,4.771723 1.09228,5.920642 1.77683,10.621911 -1.66183,5.836594 1.08258,8.302217 -2.27552,11.066604 h -5.03346 l -1.00671,-4.026769 c -2.23377,2.621944 -7.01643,3.410769 -10.94904,5.223034 -0.0104,2.446807 -0.0842,7.531761 -0.044,9.233072 0.0504,1.479827 0.11059,2.949595 0.17102,4.419386 0.0104,0.734873 0.0302,1.469757 0.0401,2.224781 0.17103,3.644223 0.33222,5.647579 2.77849,8.426059 2.04754,1.35548 1.96304,2.28119 1.96304,4.70124 2.86122,1.04931 3.46861,9.45884 4.02676,13.087 -3.02006,-1.00667 -3.02006,-1.00667 -4.97306,-3.52341 0.95624,7.47473 1.58786,8.4545 2.95971,13.59035 0.14083,6.89077 -0.0836,10.65013 0,11.07363 -0.80868,1.56518 -1.88291,0.38845 -2.77689,3.0714 -2.50125,2.94074 -0.0606,9.1769 0.0596,13.66716 0.0401,1.53015 1.09655,5.85163 1.12676,7.37172 0.0504,2.20467 0.1106,4.40932 0.17103,6.60391 0.0302,1.32883 0.0605,2.64761 0.0905,4.01671 0.53959,4.68522 2.33553,7.17883 2.33553,11.57696 l 1.81476,2.61862 c 2.84895,5.85897 5.03073,8.96843 6.53072,15.31059 0.23152,0.73488 0.47315,1.45971 0.71475,2.20465 l 1.40528,2.67125 c 0.67448,2.01338 1.947,2.36222 2.62149,4.3756 2.47571,5.51724 2.57381,10.8479 7.87622,12.30595 3.60399,0.0302 7.45517,0.69378 11.04904,0.60317 3.31204,0.1611 2.46312,0.006 5.48321,2.01923 0.88588,2.8389 0.56089,1.83741 0.6817,5.03869 -1.31878,2.45633 -0.23492,2.62315 -1.93622,5.20029 -0.33222,1.22816 -0.66444,2.45632 -1.00671,3.71469 -1.00669,3.33215 -1.00669,3.33215 -4.02678,5.34555 -0.82549,0.13089 -1.66104,0.25167 -2.51673,0.38255 -6.10274,1.27662 -18.83695,2.64784 -23.65728,8.67769 -4.21315,3.85015 -20.98093,5.43335 -23.15393,3.02008 -1.05706,0.0905 -2.11406,0.17104 -3.20129,0.26174 -1.37917,0.10069 -2.76842,0.20122 -4.15764,0.31207 -0.6946,0.0504 -1.38924,0.11059 -2.10399,0.1611 -13.15043,1.09522 -8.65757,-5.60871 -8.65757,-17.84867 -12.03633,-0.67875 -18.052409,2.49925 -30.200793,3.02007 -2.549521,7.53855 4.687733,7.01967 -0.503354,16.61044 -3.614035,2.17446 -6.352239,2.31539 -10.570271,2.51673 l -3.020086,-1.0067 c -1.983203,-0.0605 -3.966372,-0.0605 -5.949562,-0.0202 -1.157711,0.0104 -2.325475,0.0202 -3.523412,0.0302 l -7.369011,0.12099 c -1.157692,0.0104 -2.315404,0.0202 -3.51334,0.0302 -1.600655,0.0302 -1.600655,0.0302 -3.231483,0.0504 -2.587211,-0.2115 -2.587211,-0.2115 -4.600593,-2.22478 -2.938233,-1.31312 -6.040165,-0.64829 -6.040165,-4.02679 -1.629652,-0.43786 -1.870475,-0.91212 -2.013382,-3.02006 -3.234541,0.50946 -1.719443,-2.525 -2.013401,-5.03348 -0.50333,0.66443 -0.996608,1.32882 -1.510031,2.01338 -3.684476,2.94962 -5.929419,2.46642 -10.570258,2.0134 l -2.013402,-2.0134 c -4.899657,-1.21244 -7.414707,0.90984 -9.0602263,-4.02677 -1.9932595,-0.66441 -1.9932595,-0.66441 -4.0267833,-1.00667 -1.0067013,-1.00671 -1.0067013,-1.00671 -1.1073755,-3.30197 0.020266,-1.38925 0.020266,-1.38925 0.040326,-2.79861 -0.7131893,-7.36943 7.7130421,-7.25481 13.4595131,-7.10725 0.744923,0.0104 1.489888,0.0202 2.265046,0.0202 1.822105,0.0302 3.654302,0.0605 5.476406,0.10048 0.271829,-0.60402 0.543616,-1.20803 0.825495,-1.84225 1.832177,-3.36234 4.147561,-4.95291 7.228051,-7.218 h 3.020083 c -0.05045,-0.58386 -0.09059,-1.16776 -0.141041,-1.77178 0.468272,-10.91929 2.782359,-11.91341 3.603964,-17.16409 1.042062,-3.47542 1.5429,-4.59765 3.583821,-6.23145 0.738256,-2.89286 1.299766,-3.40527 2.013401,-5.03344 v -4.02678 c 0.551357,-3.39743 2.543786,-7.64869 3.020063,-10.06696 0.100514,-1.01674 0.2115,-2.03351 0.312073,-3.08047 0.734894,-4.17777 1.922779,-7.19783 3.714711,-11.01321 h 2.013381 c -0.08045,-0.84563 -0.161104,-1.70132 -0.251686,-2.57712 0.422819,-5.74824 3.060368,-9.31192 7.046846,-13.2179 2.72815,-2.26506 2.72815,-2.26506 2.265087,-6.35224 h -4.026717 c -0.57383,-4.86233 1.127498,-7.25825 4.026783,-11.0736 0.986538,-1.02683 1.993214,-2.03353 3.020061,-3.0201 l 1.006684,-2.01336 c -0.624126,0.78522 -0.624126,0.78522 -1.258367,1.5805 -0.583867,0.47314 -1.167758,0.94629 -1.761717,1.43956 -2.204637,-0.31206 -2.204637,-0.31206 -4.026762,-1.0067 v -4.02677 l 2.0134,-1.00668 c -0.05045,-0.90604 -0.05045,-0.90604 -0.110644,-1.84225 -0.221471,-6.60391 -0.221471,-6.60391 1.49998,-9.79512 1.630823,-1.44965 1.630823,-1.44965 3.644214,-1.44965 l 1.006694,-8.05354 h 2.013402 V 82.942995 c -2.089082,0.238435 -2.142908,-0.259003 -3.020096,-2.013402 -1.11741,0.312067 -1.11741,0.312067 -2.265051,0.634217 -3.590731,-0.0183 -6.795179,0.07838 -6.795179,-3.65428 -7.352901,1.442412 -8.053548,4.809379 -8.053548,-3.020087 -2.818734,2.667726 -5.053586,5.063664 -7.107254,8.36562 -0.644289,0.895959 -1.288559,1.791917 -1.952972,2.707994 H 37.47564 C 34.455557,81.865832 34.455557,81.865832 34.455557,78.916213 H 31.435454 V 75.896128 H 29.422092 C 29.110019,74.939782 28.797926,73.993496 28.4758,73.006941 27.539559,69.996925 27.539559,69.996925 26.40201,67.8426 c -1.328845,-7.620677 -2.265067,-16.670852 0,-24.160636 1.79189,-2.033524 1.79189,-2.033524 3.966354,-3.835507 0.714751,-0.604004 1.429521,-1.218099 2.164413,-1.842247 1.92278,-1.369091 1.92278,-1.369091 3.936162,-1.369091 -0.466733,-3.039902 3.208441,-3.568115 5.22474,-4.530133 0.966415,-0.463066 1.93283,-0.936221 2.939531,-1.409358 2.899286,-1.097303 4.872402,-1.328846 7.94282,-1.107375 -0.247328,-2.050202 0.255597,-2.052634 1.892585,-2.325455 5.062037,-2.684643 8.16946,-5.715263 13.207802,-0.694607 0.231542,1.14762 0.453015,2.28519 0.694615,3.463005 0.996625,3.744903 0.996625,3.744903 4.08719,5.536813 5.778408,2.00333 11.790383,0.655051 17.810403,0.242303 6.731975,-1.377055 12.236235,0.653956 15.662145,0.824807 9.35922,-4.254314 8.05812,-2.863215 15.04835,-3.281941 0.50058,-0.142459 2.08088,-0.604348 3.13157,-0.579767 5.04789,-1.026601 3.28261,-2.631449 3.96731,-4.191838 0.29195,-3.251624 0.45303,-6.50325 0.62417,-9.764926 1.49247,-7.997474 3.74286,-11.794274 10.11726,-11.6675799 0.89594,0.01013 1.79191,0.020266 2.71806,0.030199 1.40938,0.040326 1.40938,0.040326 2.83888,0.070525 0.94629,0.020266 1.89256,0.030199 2.86908,0.050259 2.33551,0.030199 4.67104,0.080445 7.00657,0.1410407 -0.53991,-5.5626149 15.17687,-2.3535664 17.1138,-1.3187544 z"
     fill="#586668"
     id="path4"
     style="fill:#465872;fill-opacity:1;stroke-width:1.00669"
     sodipodi:nodetypes="cccccccccccccccccccccccccccccccccccccccccccccccccccccccccccccccccccccccccccccccccccccccccccccccccccccccccccccccccccccccccccccccccccccc" />
  <path
     d="m 82.77698,101.06617 c -0.332209,0.68456 -0.664405,1.36909 -1.006672,2.07379 -1.177864,3.47307 -1.147642,6.3623 -1.006707,10.00652 l -3.020075,1.0067 c -0.06042,0.61407 -0.120978,1.23823 -0.181169,1.87245 -0.13091,1.22816 -0.13091,1.22816 -0.26174,2.46638 -0.120979,1.20804 -0.120979,1.20804 -0.241613,2.44627 -0.322139,2.27513 -0.322139,2.27513 -1.328845,5.29521 h -2.013356 l -1.006707,8.05354 c 0.946298,0.14105 0.946298,0.14105 1.902643,0.29196 0.704697,0.23154 1.399324,0.47313 2.124126,0.71474 2.909328,5.91936 3.634153,11.58704 4.026781,18.12046 h 3.020064 v -4.02675 h 3.020074 c 3.201289,3.29188 4.026792,4.34891 4.026792,9.06023 -1.993261,-0.50334 -1.993261,-0.50334 -4.026792,-1.0067 v -2.01338 H 83.78371 l 3.020074,9.06023 c 1.369091,-0.15097 1.369091,-0.15097 2.768426,-0.31207 3.271722,0.31207 3.271722,0.31207 5.667683,2.708 1.63084,2.63753 1.63084,2.63753 1.63084,4.65094 h 2.013379 c -0.171024,-0.52348 -0.332203,-1.0369 -0.50334,-1.57045 -0.654369,-3.19123 -0.563741,-6.25157 -0.503349,-9.50318 4.479767,-0.50335 4.479767,-0.50335 9.060247,-1.00668 l 1.00669,-3.02009 c 1.48991,0.50333 1.48991,0.50333 3.02007,1.00668 v 4.02676 c 0.7047,-0.66439 1.40938,-1.32882 2.13421,-2.01335 3.33215,-2.31541 4.97307,-2.38587 8.93942,-2.01341 l 1.00671,-4.02678 5.03344,-1.00668 v 4.02678 h -3.02006 c -0.0805,0.56374 -0.17102,1.1174 -0.25169,1.70131 -1.3993,4.3187 -4.64085,7.21798 -7.80186,10.37899 4.47979,-0.99662 4.47979,-0.99662 9.06025,-2.01337 v -3.02009 h 2.01336 l 1.0067,-5.03346 3.02009,-1.0067 3.02006,3.02009 1.0067,-7.04687 4.02679,1.0067 1.00669,-6.04014 h 2.01338 c 0.99654,9.66796 3.39543,9.06022 -6.04016,9.06022 -0.22147,1.18791 -0.22147,1.18791 -0.44294,2.39593 -0.56376,2.63754 -0.56376,2.63754 -1.57046,4.65092 h -5.03344 v 2.0134 h -2.01341 v 2.01337 h -2.01336 v 3.0201 c -3.64425,1.32881 -6.14085,2.01337 -10.06694,2.01337 v -2.01337 c -0.41274,0.50335 -0.83558,0.99662 -1.25837,1.51001 -1.76172,1.51006 -1.76172,1.51006 -5.78849,1.51006 v 5.03345 c -4.04691,0.64431 -7.98309,1.14764 -12.080317,1.00669 -2.768412,-2.32544 -2.768412,-2.32544 -4.026801,-5.03344 v -2.0134 c -0.875807,0.27182 -1.751626,0.5436 -2.647573,0.8255 -3.392575,0.18116 -3.392575,0.18116 -6.372369,-1.99325 -1.540247,-1.44964 -3.010028,-2.93955 -4.479796,-4.43954 -1.671089,-1.65096 -1.671089,-1.65096 -4.620718,-3.45295 -4.439528,0.69462 -7.127394,1.63085 -10.066924,5.03346 h -2.013383 l -2.0134,6.04018 h -2.013381 l -1.006681,41.2744 h -2.013382 c -0.191094,1.87246 -0.191094,1.87246 -0.382574,3.77512 -0.231522,2.38584 -0.493278,4.03683 -1.640899,6.15088 -1.761716,3.8053 -1.409377,7.98307 -1.560368,12.13065 -0.483207,3.36235 -1.00668,4.80189 -3.463004,7.13743 -4.989531,0.7678 -14.645089,2.03081 -10.46237,11.68956 1.541259,-4.65703 1.960349,-4.83253 2.564354,-5.84928 1.822125,-2.01338 1.857831,-1.8135 4.56584,-2.06516 0.765086,0.0805 1.530173,0.1611 2.325475,0.25166 v 2.0134 h -3.020082 c -2.311088,2.56363 -1.835297,5.36783 -1.557065,8.15497 1.861295,1.43124 3.722572,2.27346 5.583848,0.90527 -0.06038,-0.93624 -0.120979,-1.87245 -0.191094,-2.82882 0.191094,-3.21135 0.191094,-3.21135 1.389213,-5.10392 2.385884,-1.47986 4.097244,-1.34896 6.85559,-1.1275 -1.248377,1.11229 -3.743446,1.46002 -4.975771,3.0066 0.493278,2.49663 1.540771,3.34625 2.054194,5.88311 0.543636,-0.16111 1.995427,-1.16838 2.559166,-1.33952 5.433505,0.36074 11.922565,2.30307 15.966149,2.01339 10.980958,-1.00113 13.338064,0.0409 8.939428,-10.18774 -2.234851,-5.47641 -0.694604,-10.85214 0.624171,-16.48963 l 1.006684,-1.00668 c 0.543611,-2.7181 0.966415,-5.45628 1.409372,-8.19449 0.59396,-2.8288 1.530153,-5.24486 2.617386,-7.91259 0.382535,-2.34561 0.724848,-4.6912 1.006707,-7.04685 h -3.020086 v -2.0134 c 12.462863,-0.50335 12.462863,-0.50335 25.167341,-1.00669 l -1.00667,9.06023 c 1.99324,0.50334 1.99324,0.50334 4.02677,1.00671 2.01337,3.02005 2.01337,3.02005 2.01337,7.04683 h 3.02006 c 1.14765,3.59391 1.03693,6.83545 0.88591,10.59041 -0.0504,1.25838 -0.10048,2.51673 -0.15097,3.80531 -0.0504,1.31874 -0.1106,2.62745 -0.17103,3.97644 -0.0504,1.32883 -0.10049,2.64759 -0.16111,4.01671 -0.63412,13.73883 15.62449,12.02071 28.2067,12.02827 l 0.58473,-6.22973 3.02009,1.0067 v 2.01338 h 5.03346 l -1.00671,-6.04017 -8.05354,-2.01338 1.0067,-3.02006 6.04015,-1.0067 c 3.9664,4.33883 3.9664,4.33883 4.27846,7.86226 -0.0805,0.72483 -0.1611,1.4597 -0.25168,2.20467 h 4.02676 c 0.24162,-2.87915 0.43287,-5.23482 0,-8.05357 -2.98987,-3.33214 -5.44001,-5.32732 -9.85942,-5.78034 -0.97065,-1.56948 -1.64895,-1.88904 -4.23427,-3.27986 -0.93622,-0.34229 -0.93622,-0.34229 -1.89259,-0.69465 -2.89926,-1.7919 -3.17109,-3.09054 -4.14756,-6.35222 -0.14104,-2.82881 -0.19109,-5.54689 -0.12098,-8.36561 0,-0.74495 0.0104,-1.48992 0.0202,-2.26508 0.0302,-1.8221 0.0605,-3.65431 0.10049,-5.4764 l 2.16431,-3.41444 c -0.77543,-4.69616 -1.35864,-9.24544 1.3187,-11.303 l 1.93853,8.56979 c 0.89538,6.82242 3.98494,13.21088 2.16105,18.94305 -0.13941,1.54696 -0.20376,2.21783 0,3.02009 l 0.91768,3.74164 c 0.63422,0.0604 1.25444,0.65074 1.90879,0.71115 0.82549,0.0906 1.64091,0.17104 2.4966,0.26174 1.2181,0.12098 1.2181,0.12098 2.47646,0.24159 2.17445,0.32217 0.72494,2.38235 2.73834,3.38902 v 2.01339 c 0.62412,0.21149 1.2483,0.41274 1.89258,0.62416 2.98986,1.9429 3.27176,4.07711 4.14757,7.42938 h 10.06693 c -1.25837,-3.67442 -1.68117,-4.81199 -5.03346,-7.04684 v -2.01341 l 6.04016,1.00671 1.00671,3.02007 c 7.96422,0.62081 6.46214,-1.19301 5.03344,-6.04013 -2.47646,-1.45973 -2.47646,-1.45973 -5.03344,-2.01341 v 2.01341 h -3.02009 l 1.00668,-4.0268 c 4.49991,-0.21149 7.87234,0.41276 12.08032,2.01339 l -0.0766,-4.63981 c -5.66769,-0.10048 -5.59108,-0.49432 -11.1883,0.30096 -3.73482,0.41274 -4.93278,-0.38254 -7.86226,-2.70799 -2.81875,-2.70802 -4.91269,-4.90259 -5.34556,-8.93944 0.15098,-1.05704 0.15098,-1.05704 0.31208,-2.13419 l -1.62082,-1.98357 -1.39925,-3.0499 h -2.01338 l -1.00671,-5.03346 -1.37133,-5.82425 c -1.7617,-5.27508 -3.08436,-2.42607 -2.89311,-7.9931 l -1.77569,-1.28304 c -2.24494,-3.75498 -4.03686,-6.81532 -5.03348,-11.07364 -0.0605,0.56376 -0.11061,1.12751 -0.17104,1.71141 -0.25168,2.55698 -0.51342,5.10392 -0.77517,7.66092 -0.13091,1.32882 -0.13091,1.32882 -0.26175,2.68786 -0.0905,0.85569 -0.18116,1.71138 -0.26174,2.58719 -0.12097,1.17785 -0.12097,1.17785 -0.24159,2.38587 -0.30201,2.09393 -0.30201,2.09393 -1.3087,5.11402 v 4.02676 h -2.01338 c -0.80537,-4.10731 -1.06711,-7.72134 -0.73489,-11.88906 0.0805,-1.08723 0.17102,-2.16436 0.26173,-3.28181 0.0905,-1.1174 0.18117,-2.23486 0.28188,-3.39255 0.0906,-1.10735 0.17104,-2.22481 0.25167,-3.37242 0.47315,-5.6878 1.11743,-10.91254 2.95968,-16.3185 h 3.02008 l -0.14793,-10.97609 -1.86564,-1.10421 c 1.16559,-6.45841 -3.81712,-14.09369 3.02008,-14.09369 l -1.32521,1.83886 c -0.4249,0.30794 0.91228,2.13606 0.63157,3.31968 0.0905,4.49991 0.895,8.86467 1.01579,13.36459 0.0403,1.53017 0.0705,3.05028 0.10048,4.58045 0.0504,2.20466 0.1106,4.39926 0.17105,6.6039 0.0302,1.32883 0.0605,2.6476 0.0905,4.00667 0.54018,4.69042 2.33554,7.18441 2.33554,11.587 l 1.90115,2.91149 c 2.84895,5.85895 4.94434,8.67557 6.4443,15.01771 0.23154,0.72482 0.47316,1.45971 0.71477,2.20468 l 1.37953,2.65463 c 0.67448,2.01337 1.97275,2.37882 2.64723,4.39222 3.54502,7.18581 2.58764,10.08413 8.05356,12.08032 3.60396,0.0302 7.13118,0.35479 10.72505,0.26419 3.31204,0.1611 2.61246,0.31599 5.63257,2.32937 0.88587,2.8288 0.74635,2.21093 0.86715,5.4223 -1.31877,2.45632 -0.42308,2.49401 -2.12439,5.07114 -0.33219,1.22817 -0.66441,2.44627 -1.00667,3.7147 -1.00671,3.33215 -1.00671,3.33215 -4.02679,5.34555 -0.8255,0.12097 -1.66105,0.25165 -2.51673,0.38252 -5.10539,3.60193 -20.93686,4.75317 -23.65729,8.6777 -5.49922,3.55837 -15.77301,5.84643 -23.15392,3.02009 -1.05704,0.0805 -2.11407,0.17102 -3.20128,0.25165 -1.37919,0.1106 -2.76842,0.21151 -4.15766,0.31209 -0.69461,0.0605 -1.38923,0.11059 -2.104,0.17102 -13.15043,1.09526 -8.65753,-5.60869 -8.65753,-17.84864 -13.89054,-0.20401 -15.189102,2.08183 -30.200833,3.02009 -2.549497,7.53855 4.687734,7.01962 -0.50333,16.61041 -3.614035,2.1644 -6.35224,2.31538 -10.570283,2.51673 l -3.020074,-1.00668 c -1.983192,-0.0605 -3.966361,-0.0605 -5.949568,-0.0302 -1.15769,0.0104 -2.325454,0.0302 -3.523432,0.0401 -2.456324,0.0302 -4.912648,0.0705 -7.368971,0.12099 -1.157711,0.0104 -2.315404,0.0202 -3.513381,0.0302 -1.600634,0.0302 -1.600634,0.0302 -3.231462,0.0504 -2.587212,-0.21152 -2.587212,-0.21152 -4.600593,-2.22482 -2.936654,-1.31416 -6.040165,-0.6519 -6.040165,-4.02675 -2.604193,0.30672 -2.013381,-0.72965 -2.013381,-3.02008 -3.234563,0.50945 -2.013402,-2.5475 -2.013402,-5.03349 -0.503331,0.66443 -0.996609,1.32885 -1.510032,2.01339 -3.684494,2.94962 -5.929419,2.46641 -10.570257,2.0134 l -2.013402,-2.0134 c -4.900974,-1.22583 -7.412457,0.91661 -9.0602269,-4.02675 -1.9932595,-0.66443 -1.9932595,-0.66443 -4.026763,-1.0067 -1.0067004,-1.0067 -1.0067004,-1.0067 -1.1073746,-3.31203 0.020267,-1.37916 0.020267,-1.37916 0.040326,-2.78854 -0.7130282,-7.36443 7.7129605,-7.26433 13.4594915,-7.10726 0.744945,0 1.489889,0.0104 2.265047,0.0202 1.822125,0.0302 3.654301,0.0605 5.476405,0.10068 0.27181,-0.604 0.543638,-1.21807 0.825498,-1.84224 1.832196,-3.36235 4.147578,-4.95294 7.22805,-7.218 h 3.020082 c -0.05047,-0.58386 -0.09059,-1.16775 -0.141042,-1.77177 0.47871,-10.9329 2.771843,-11.89766 3.603964,-17.16411 0.56376,-3.21136 0.71625,-2.19523 1.722932,-5.21533 l 1.86089,-1.01611 0.727436,-3.56157 1.285945,-1.47188 0.08126,-2.58731 c 10e-4,-1.4239 -5.67e-4,-2.06021 -0.06991,-3.56847 l 2.075432,-6.59944 0.93306,-1.33851 c 0.100513,-1.01674 0.2115,-2.03349 0.312072,-3.08045 0.734894,-4.17777 1.922781,-7.19786 3.714711,-11.01323 h 2.013361 c -0.08045,-0.85569 -0.161103,-1.70132 -0.251644,-2.57712 0.422798,-5.74823 3.060326,-9.32199 7.046844,-13.21788 2.728132,-2.26507 2.728132,-2.26507 2.265047,-6.35225 h -4.026762 c -0.573811,-4.8724 1.127497,-7.25824 4.026762,-11.07359 1.499012,-0.96572 1.325243,-1.41027 1.006701,-2.0134 -2.204659,-0.31209 -2.204659,-0.31209 -4.026763,-1.00669 v -4.02676 l 2.013361,-1.00668 c -0.05045,-0.90604 -0.05045,-0.90604 -0.110644,-1.84225 -0.221471,-6.60391 -0.221471,-6.60391 1.49998,-9.79512 1.630824,-1.44965 1.630824,-1.44965 3.644227,-1.44965 l 1.006706,-8.05354 h 2.013379 l 1.006684,-2.01338 2.013379,2.01338 3.020086,-1.00671 1.006696,-2.01337 c 3.020062,-1.0067 3.020062,-1.0067 5.033465,-1.0067 z"
     fill="#1b2729"
     id="path8"
     sodipodi:nodetypes="ccccccccccccccccccccccccccccccccccccccccccccccccccccccccccccccccccccccccccccccccccccccccccccccccccccccccccccccccccccccccccccccccccccccccccccccccccccccccccccccccccccccccccccccccccsccccccccccccccccccccccccccccccccccccccccccccccccccccccccccccccccccccccccccccccccccccccccccc"
     style="fill:#151e2f;fill-opacity:1;stroke-width:1.00669" />
  <path
     d="m 137.13842,158.44767 h 8.05354 c 0.0605,1.53018 0.0905,3.06033 0.12098,4.59053 0.0302,0.85569 0.0504,1.71136 0.0805,2.58719 -0.20143,2.8892 -0.20143,2.8892 -1.17781,6.15088 -1.01676,3.69458 -1.4295,6.97639 -1.67114,10.79178 -0.0905,1.27846 -0.17102,2.56706 -0.26173,3.8959 -0.0805,1.31874 -0.15098,2.64759 -0.23153,4.00661 l -0.27181,4.07712 c -0.43286,6.10057 -0.43286,6.10057 -0.61407,12.22125 h 2.01339 c -0.1911,-0.97649 -0.37249,-1.953 -0.56376,-2.95969 -0.15097,-1.01676 -0.29195,-2.03351 -0.44292,-3.08045 l 1.00668,-1.00671 c 0.23151,-1.4899 0.39259,-2.99995 0.54361,-4.49993 0.13091,-1.35902 0.13091,-1.35902 0.26174,-2.74828 0.0905,-0.94627 0.17103,-1.90263 0.26173,-2.87913 0.0906,-0.95633 0.18117,-1.91272 0.28188,-2.89928 0.22148,-2.36572 0.44295,-4.74151 0.66442,-7.10725 2.58719,1.29864 2.6476,2.2248 3.58381,4.91268 0.25167,0.69461 0.50336,1.39929 0.7651,2.12411 l 1.69125,5.04354 1.15049,0.88167 2.87627,14.21872 h 2.01338 l 1.0067,5.03346 h 2.0134 l 1.00666,5.03347 h 2.0134 c 0.34229,1.3087 0.34229,1.3087 0.69462,2.63752 1.63087,4.18784 3.13082,6.29183 6.35223,9.44278 3.61404,1.20805 6.5536,0.99664 10.2582,0.50335 3.83551,-0.50335 4.03007,-0.30204 7.05016,0.70467 l -0.19454,4.83215 -12.08031,-1.00668 c -0.50337,1.49995 -0.50337,1.49995 -1.00671,3.02009 h 3.02009 v -2.01341 c 4.91268,0.88591 4.91268,0.88591 6.04016,2.01341 0.51655,7.45455 -0.98244,6.21219 -6.04016,7.04684 l -1.00668,-4.02678 c -2.98989,-0.50333 -2.98989,-0.50333 -6.04019,-1.00671 0.8255,0.74497 1.66105,1.49998 2.51676,2.26507 2.51673,2.76842 2.51673,2.76842 2.51673,6.79518 -4.98313,0.50335 -4.98313,0.50335 -10.06693,1.00671 -0.98658,-2.06372 -1.96306,-4.12747 -2.94962,-6.19118 -0.9463,-2.02346 -0.9463,-2.02346 -3.09054,-2.86907 l -0.60616,-2.20432 c -1.72105,-1.12466 -3.35938,-2.86378 -6.06036,-3.12617 -2.61741,-0.41275 -1.59263,0.55441 -3.60603,-1.45898 -0.77454,-3.97361 -1.43739,-3.31133 -1.82142,-6.86541 0.5765,-3.69763 -0.48963,-14.19075 -0.85776,-17.80251 -0.5424,-3.26352 -2.31883,-11.30613 -2.82217,-8.75922 l -2.34658,14.04259 c 0.0104,0.57381 0.0202,1.14763 0.0402,1.73152 0.0504,4.92273 -0.22147,9.53338 -1.04696,14.37557 l -2.01338,-1.00671 v -3.02006 h -2.0134 c 0.0104,-1.03691 0.0104,-2.07379 0.0202,-3.14089 0.0401,-8.83877 -0.0605,-17.67752 -0.31206,-26.51629 -0.0302,-0.97651 -0.0504,-1.96305 -0.0805,-2.96973 -0.1106,-4.04693 -0.23155,-8.08377 -0.35236,-12.13064 -0.10048,-2.99996 -0.18116,-5.99993 -0.26171,-8.99985 -0.0302,-0.91611 -0.0605,-1.82211 -0.0905,-2.76841 -0.0202,-0.84563 -0.0401,-1.69126 -0.0705,-2.56708 -0.0202,-0.74495 -0.0401,-1.47982 -0.0605,-2.24491 0.23155,-2.41609 1.01678,-4.01671 2.21473,-6.11063 z"
     fill="#566568"
     id="path16"
     style="fill:#3b4a5f;fill-opacity:1;stroke-width:1.00669"
     sodipodi:nodetypes="cccccccccccccccccccccccccccccccccccccccccccccccccccccccccccccccccccc" />
  <path
     d="m 67.676573,29.339274 c 1.25839,3.261696 2.345623,4.993197 5.416013,6.734772 5.607297,2.385863 11.717902,2.395935 17.737944,2.577141 v 1.0067 c -0.724826,0.04033 -1.459709,0.07052 -2.214734,0.110644 -7.228071,0.493278 -11.939385,1.499959 -17.667454,6.181083 -2.728135,3.332162 -3.382493,5.647562 -4.278452,9.815267 2.989887,-0.34229 2.989887,-0.34229 6.040172,-1.006707 l 1.006694,-2.013379 h 3.020063 v 3.020086 h 3.020087 v 8.053539 c -2.486546,0.503353 -2.486546,0.503353 -5.033465,1.006683 v 2.013402 c 1.711381,-0.251682 1.711381,-0.251682 3.463019,-0.503353 4.560309,-0.58388 9.060246,-0.60402 13.650777,-0.503342 -1.489931,0.503342 -1.489931,0.503342 -3.020086,1.006695 l -1.006706,3.020063 c -0.755014,0 -1.510026,0.01035 -2.285202,0.01035 -3.030132,0.120783 -5.818676,0.312103 -8.788424,0.996637 -2.29526,2.939548 -2.29526,2.939548 -4.026757,6.04016 -3.463031,0.815422 -3.463031,0.815422 -7.046845,1.006706 -3.709182,0.594502 -5.033488,2.193835 -5.033488,-2.013402 h -5.033445 v 2.013402 c -5.968325,2.419715 -5.033484,3.190323 -5.033484,-3.020085 -2.818734,2.657667 -5.053587,5.063651 -7.107254,8.365619 -0.64427,0.895959 -1.28856,1.791907 -1.952993,2.707983 h -4.026742 c -3.020103,-4.097211 -3.020103,-4.097211 -3.020103,-7.046841 h -3.020062 v -3.020075 h -2.013382 c -0.312094,-0.956344 -0.624168,-1.912712 -0.946292,-2.899268 -0.936221,-2.999933 -0.936221,-2.999933 -2.07379,-5.154282 -1.328845,-7.620653 -2.265067,-16.67083 0,-24.160618 1.791911,-2.033524 1.791911,-2.033524 3.966375,-3.835507 0.71475,-0.614075 1.4295,-1.218099 2.164373,-1.842247 1.922778,-1.369113 1.922778,-1.369113 3.936181,-1.369113 -0.361297,-3.544 5.752326,-2.836707 7.046844,-3.020061 -0.422799,0.483208 -0.845638,0.966415 -1.28856,1.469765 -0.553687,0.634219 -1.097283,1.268438 -1.671114,1.932851 -0.543616,0.624147 -1.097303,1.258366 -1.661042,1.902655 -1.489908,1.701309 -1.489908,1.701309 -2.426128,3.754955 h -2.013403 l -3.020062,19.127172 h 3.020062 c 0.120979,0.654346 0.241613,1.308704 0.372482,1.993238 0.92617,4.842215 1.942921,9.473004 3.654301,14.113862 h 6.040165 c 0.271808,-0.583902 0.543616,-1.167781 0.815403,-1.761719 1.248295,-2.365739 2.395936,-4.328791 4.21804,-6.291831 h 4.026784 c 0.231541,-0.54361 0.453013,-1.077163 0.694627,-1.630844 1.318774,-2.395937 1.318774,-2.395937 3.835487,-4.91267 3.342227,-3.805297 3.563698,-8.194485 4.167722,-13.076933 0.362411,-2.526809 0.362411,-2.526809 1.369092,-3.533486 0.09059,-1.429521 0.110645,-2.859021 0.100707,-4.278449 -0.01215,-0.86576 -0.01215,-1.72145 -0.01215,-2.607334 -0.01016,-0.906026 -0.02027,-1.812053 -0.0302,-2.738202 0,-0.906027 -0.01215,-1.822126 -0.01215,-2.748275 -0.01016,-2.254996 -0.03019,-4.49992 -0.05045,-6.754915 h -2.013382 c 1.989287,-5.332204 5.304581,-1.018697 6.040144,1.761716 z"
     fill="#192128"
     id="path22"
     sodipodi:nodetypes="ccccccccccccccccccccccccccccccccccccccccccccccccccccccccccccccccc"
     style="stroke-width:1.00669" />
  <path
     d="m 119.01794,101.06617 v 2.01339 h -4.02677 l 1.00671,4.02678 c 0.58386,0.10069 1.16776,0.2114 1.7617,0.31206 2.58721,0.79529 4.21804,2.01339 6.29183,3.7147 -0.31208,-0.76508 -0.62414,-1.54026 -0.9463,-2.32545 -0.74497,-1.89258 -1.4295,-3.80532 -2.07379,-5.72809 2.82882,0.0605 2.82882,0.0605 6.04018,1.00669 3.43281,5.718 3.76503,10.69108 2.32544,17.23457 -1.65095,3.61404 -3.18113,5.51669 -6.35221,7.93275 -2.90937,0.67448 -5.11402,0.93622 -8.05356,1.00669 -1.05703,0.0402 -2.12413,0.0805 -3.22142,0.12079 -9.2213,0.1913 -15.180929,-0.71475 -21.945915,-7.16766 -2.134185,-3.33217 -2.375797,-6.21131 -2.456323,-10.12733 -0.04028,-1.05703 -0.08045,-2.10399 -0.120979,-3.18115 0.563739,-2.79862 0.563739,-2.79862 2.919408,-4.62073 3.684468,-1.65097 6.412639,-2.32544 10.419279,-2.26505 1.21809,0.0104 1.21809,0.0104 2.46639,0.0202 4.29907,-2.81374 8.60936,-1.97312 15.96615,-1.97312 z"
     fill="#211219"
     id="path24"
     sodipodi:nodetypes="cccccccccccccccccccc"
     style="stroke-width:1.00669" />
  <path
     d="m 93.850594,67.845292 c 0.805374,0.25166 1.620795,0.503343 2.456347,0.755014 3.837379,1.210133 4.551889,2.333721 5.597199,5.285124 1.1275,7.671014 0.84694,7.492447 0,11.073625 -0.82569,1.366662 -1.29877,1.752582 -3.020058,3.020086 -7.573986,2.274958 -8.421678,2.584069 -12.080333,3.020085 h -7.046843 l -3.625706,-2.029594 -1.976827,-2.101893 -1.444311,-4.928758 1.0834,-3.673051 c 6.560915,-7.536296 4.630156,-6.378665 11.143356,-9.362913 2.545331,2.026292 3.062356,-1.405446 8.913776,-1.057725 z"
     fill="#eff2f4"
     id="path28"
     sodipodi:nodetypes="ccccccccccccc"
     style="stroke-width:1.00669" />
  <path
     d="m 130.09157,16.503949 c 7.63316,4.631193 12.08034,8.958823 12.08034,17.113773 2.15299,-0.154618 2.01334,-0.008 2.01334,2.013382 2.57764,-0.05471 3.02009,-0.532085 3.02009,2.013382 3.47705,-0.553304 2.0134,3.486915 2.0134,6.040165 1.78844,1.379891 1.93108,4.074279 2.01338,9.060248 h 4.02677 v 3.020062 l -5.03346,-1.006684 v -2.013378 h -12.08031 v -2.013403 h -3.02011 v 2.013403 h -2.01335 l 1.00669,7.046843 h 4.02677 v 2.01338 c 1.49996,0.493283 1.49996,0.493283 3.02009,1.006707 -5.47643,0.493271 -5.47643,0.493271 -11.07364,1.006671 v 2.013403 c -1.99325,0.503329 -1.99325,0.503329 -4.02676,1.006683 v -2.013379 h -4.02678 l -1.00671,-2.013378 c -4.08715,2.053646 -4.08715,2.053646 -6.04015,6.040136 h -2.01339 c 0.0202,0.704697 0.0504,1.409383 0.0705,2.134208 0.0202,0.916077 0.0402,1.832176 0.0504,2.778463 0.0302,0.906029 0.0504,1.812057 0.0805,2.758345 -0.20142,2.395914 -0.20142,2.395914 -2.21473,4.409315 -1.32883,-2.657666 -1.10736,-4.711338 -1.06709,-7.671014 0.0104,-1.016754 0.0202,-2.023449 0.0202,-3.060343 0.0202,-0.775142 0.0302,-1.560364 0.0401,-2.355647 h 2.01341 c 0.10069,-0.765093 0.21149,-1.540246 0.31207,-2.325481 0.76509,-2.999934 1.60064,-3.614012 3.71469,-5.728069 0.72482,-2.62748 0.72482,-2.62748 1.00671,-5.033465 1.4899,-0.493283 1.4899,-0.493283 3.02006,-1.006695 -0.0202,-0.805351 -0.0403,-1.620785 -0.0604,-2.456323 0.0604,-2.577141 0.0604,-2.577141 1.06709,-3.583825 2.34562,-0.04028 4.70126,-0.04028 7.04685,0 2.08388,0.15097 2.08388,0.15097 4.02678,-1.006701 7.34885,-0.231543 7.34885,-0.231543 11.07363,1.006701 v 3.020062 h 4.02676 c -0.50333,-4.479777 -0.50333,-4.479777 -1.0067,-9.060227 h -2.01338 c -0.52347,-0.543616 -1.03688,-1.077162 -1.57044,-1.630849 -2.92946,-2.858999 -6.13074,-4.882453 -9.57364,-7.056917 -1.9429,-1.379163 -1.9429,-1.379163 -2.94961,-3.392544 -0.0705,-2.224801 -0.0805,-4.449582 -0.0605,-6.664312 0.0104,-1.197978 0.0202,-2.395935 0.0202,-3.634158 0.0202,-0.916098 0.0302,-1.842248 0.0401,-2.78854 z"
     fill="#263436"
     id="path32"
     sodipodi:nodetypes="cccccccccccccccccccccccccccccccccccccccccccccccccccccc"
     style="stroke-width:1.00669" />
  <path
     d="m 121.03132,61.805122 2.01341,1.006707 -1.0067,2.013378 h 4.02678 v 2.013379 c 0.59395,-0.231542 1.18789,-0.463084 1.80198,-0.694627 2.63352,-0.0908 6.5402,-0.561 8.59598,0.440816 0.89058,0.402169 4.05046,2.53785 4.48147,3.481202 0.13962,0.94654 1.68481,6.868149 1.53565,9.091112 -0.46468,1.891825 -2.03355,5.026755 -5.62047,5.943557 -1.9885,0.369036 -3.8283,0.945642 -5.88197,0.925502 -1.10735,-0.01035 -2.21471,-0.02026 -3.3523,-0.02026 -0.84559,-0.02026 -1.69122,-0.03015 -2.56704,-0.04028 -5.60023,-0.03648 -6.87219,-0.905684 -9.97553,-3.401724 l -2.1048,-2.638414 c -0.1455,-3.34006 -0.29194,-2.617409 -0.1911,-5.657612 0.0302,-1.016777 0.0605,-2.02345 0.0805,-3.060343 0.0401,-0.775164 0.0705,-1.560399 0.1106,-2.355669 h 2.01339 c 0.0905,-0.906029 0.0905,-0.906029 0.1911,-1.822105 1.15766,-3.120764 2.89925,-3.855659 5.84887,-5.224751 z"
     fill="#F1F5F5"
     id="path34"
     style="fill:#eff2f4;fill-opacity:1;stroke-width:1.00669"
     sodipodi:nodetypes="ccccccccccccccccccccc" />
  <path
     d="m 64.656511,135.29373 c 0.664417,0 1.328822,0 2.013379,0 0,0.99662 0,1.99327 0,3.02009 0.996637,-0.99665 1.993262,-1.99326 3.020086,-3.02009 1.993262,0.66442 3.986512,1.32883 6.040149,2.01338 0,0.66444 0,1.32884 0,2.0134 0.996647,0 1.99325,0 3.020074,0 0.342267,1.59057 0.674487,3.1912 1.006707,4.78179 0.191296,0.88587 0.372477,1.77176 0.563738,2.68786 0.442957,2.59728 0.442957,2.59728 0.442957,6.62403 0.996614,0 1.993261,0 3.020063,0 0,-1.32884 0,-2.65765 0,-4.02675 0.996636,0 1.993261,0 3.020085,0 3.201289,3.29188 4.026781,4.34891 4.026781,9.06023 -1.328845,-0.33222 -2.65769,-0.66443 -4.026781,-1.0067 0,-0.66442 0,-1.32882 0,-2.01338 -0.996614,0 -1.993261,0 -3.020085,0 1.489931,4.47977 1.489931,4.47977 3.020085,9.06023 0.956368,-0.0401 1.912725,-0.0805 2.89928,-0.12098 3.140869,0.12098 3.140869,0.12098 5.154271,2.13419 -0.33222,0.99661 -0.664394,1.99327 -1.006706,3.02006 -0.664395,-0.33219 -1.328823,-0.66439 -2.013357,-1.00668 0,-0.66442 0,-1.32884 0,-2.01338 -0.664439,0 -1.328868,0 -2.013402,0 0.332208,0.99661 0.664406,1.99327 1.006695,3.02006 -1.661041,0.66442 -3.322084,1.32885 -5.033488,2.01338 -1.489885,-2.4865 -1.489885,-2.4865 -3.020062,-5.03344 -0.664405,0.6644 -1.328845,1.32884 -2.013379,2.01338 -2.798626,-2.44627 -3.966395,-4.25832 -4.258301,-7.98309 0.03016,-2.1543 0.09058,-4.3187 0.19109,-6.47302 0.241601,-2.63754 0.241601,-2.63754 -0.966427,-4.67105 -0.875819,1.2181 -0.875819,1.2181 -1.76172,2.45631 -2.24491,2.557 -3.010015,3.23148 -6.29183,3.58385 -2.013367,-4.1476 -2.194583,-7.49988 -2.013367,-12.08033 -0.664429,0 -1.328841,0 -2.013397,0 0.332217,-2.65766 0.664412,-5.31533 1.006701,-8.05355 z"
     fill="#172327"
     id="path40"
     style="fill:#0f191d;fill-opacity:1;stroke-width:1.00669" />
  <path
     d="m 43.515955,34.624423 c -0.78523,0.765087 -1.580511,1.540225 -2.395935,2.325455 -2.708008,2.617406 -2.708008,2.617406 -4.650909,5.728071 h -2.013403 l -3.020062,19.127173 h 3.020062 c 0.120979,0.654346 0.241613,1.308704 0.372482,1.993261 0.92617,4.842192 1.942921,9.472969 3.654301,14.113828 h 6.040165 c 0.271808,-0.58388 0.543616,-1.167758 0.815403,-1.761708 1.218121,-2.29526 2.617427,-4.248253 4.21804,-6.291831 1.489929,0.503353 1.489929,0.503353 3.020083,1.006696 H 50.5628 l 1.006701,3.020062 c -2.114055,3.100612 -3.916037,4.952939 -7.046845,7.046866 -0.473156,0.875808 -0.956364,1.741569 -1.449643,2.637528 -1.325866,2.753787 -1.327853,2.437726 -4.449825,4.290675 -1.857142,-2.000766 -4.16748,-5.991986 -4.16748,-8.941604 h -3.020062 v -3.020064 h -2.013382 c -0.312094,-0.956355 -0.624168,-1.912723 -0.946292,-2.899279 -3.20526,-8.70021 -4.538037,-20.652185 -2.07379,-29.314901 1.791911,-2.033526 1.791911,-2.033526 3.966375,-3.835507 0.71475,-0.614076 1.4295,-1.218102 2.164373,-1.842248 1.922778,-1.369092 1.922778,-1.369092 3.936181,-1.369092 -0.528804,-4.073533 5.613534,-2.452271 7.046844,-2.013381 z"
     fill="#1d2d37"
     id="path44"
     sodipodi:nodetypes="ccccccccccccccccccccccccccc"
     style="stroke-width:1.00669" />
  <path
     d="m 168.3459,7.4437032 c 4.11739,3.9965678 3.94623,10.3286628 4.1073,15.8151398 0.0202,2.949623 0.0104,5.899225 -0.0202,8.848848 0,1.016752 -0.0104,2.043576 -0.0104,3.090542 -0.0104,2.496589 -0.0302,4.983128 -0.0504,7.479716 h -4.02677 c 0.0605,1.338917 0.0605,1.338917 0.12098,2.708009 -0.12098,3.301961 -0.73489,5.395877 -2.13419,8.365624 -2.18454,-0.513412 -4.02678,-1.006683 -6.04015,-2.01339 v -2.01338 H 157.272 c -2.2047,-2.013378 -2.2047,-2.013378 -4.02679,-4.026781 l 1.00668,-3.020082 h 9.06024 v -2.013381 h 2.01339 c 0.8859,-3.795221 1.13755,-7.308583 1.12749,-11.194425 0.0104,-1.046947 0.0104,-2.083842 0.0104,-3.161003 -0.0104,-2.848948 -0.0104,-2.848948 -1.13757,-5.778428 l -3.02009,-2.013382 -1.0067,-3.020082 c -2.01336,-1.2181 -2.01336,-1.2181 -4.02674,-2.013382 v -2.01338 c -1.12385,-1.097243 -1.35095,-1.8248405 -1.00671,-3.0200815 3.73484,-1.8623917 8.01329,-1.5905829 12.08033,-1.0067013 z"
     fill="#A0B3BB"
     id="path46"
     style="fill:#90a0bb;fill-opacity:1;stroke-width:1.00669"
     sodipodi:nodetypes="ccccccccccccccccccccccccc" />
  <path
     d="m 145.19196,179.58821 c 2.58719,1.29864 2.64761,2.2248 3.58383,4.91268 0.38254,1.04695 0.38254,1.04695 0.76508,2.12411 l 1.96778,4.28032 1.52416,1.45505 2.78887,7.54874 2.12445,5.92483 c 0.69084,1.87073 1.21563,4.35064 2.34624,5.96845 1.1964,2.03979 2.37503,3.47425 3.02006,5.03347 0.34229,1.3087 0.34229,1.3087 0.69461,2.63752 1.59058,4.09725 3.33219,6.27171 6.35225,9.44278 1.49998,0.50335 1.49998,0.50335 3.02007,1.00671 l 1.00671,3.02007 c -6.02002,-0.21149 -9.7448,-1.40934 -14.47627,-5.20458 -2.65765,-2.99998 -2.91939,-6.00998 -3.64421,-9.89579 l -3.0201,-1.00671 c -1.8221,-4.11737 -2.22478,-7.61062 -2.01337,-12.08031 h -2.01338 c -0.50336,-3.04021 -1.00669,-6.07039 -1.44963,-9.12066 -0.44297,-2.92945 -0.44297,-2.92945 -1.63086,-5.35559 -1.31876,-3.67442 -1.07715,-6.79517 -0.94629,-10.69109 z"
     fill="#9EB0B5"
     id="path52"
     style="fill:#90a0bb;fill-opacity:1;stroke-width:1.00669"
     sodipodi:nodetypes="ccccccccccccccccccccc" />
  <path
     d="m 137.13842,158.44767 h 8.05354 c 0.0605,1.53018 0.0905,3.06033 0.12098,4.59053 0.0302,0.85569 0.0504,1.71136 0.0805,2.58719 -0.19109,2.79861 -0.87581,5.10392 -1.70128,7.77167 -1.13757,4.80193 -1.28859,9.77496 -1.64093,14.68766 -0.0905,1.11742 -0.18116,2.23485 -0.27181,3.39254 -0.21149,2.74827 -0.41274,5.49654 -0.61407,8.24482 -2.4912,-0.33185 -2.30093,0.86262 -3.02007,3.02009 -1.00671,-1.00671 -1.00671,-1.00671 -1.11744,-3.52343 0,-1.08723 0.0104,-2.18453 0.0104,-3.31202 0.0104,-1.16777 0.0104,-2.34561 0.0104,-3.5637 0.0104,-1.23824 0.0202,-2.47647 0.0302,-3.75497 0,-1.2483 0.0104,-2.48653 0.0104,-3.7751 0.0104,-3.08048 0.0302,-6.17103 0.0504,-9.25149 -3.44978,0.56555 -2.10304,-4.16033 -2.13419,-6.29184 -0.0302,-1.16777 -0.0504,-2.33552 -0.0805,-3.54356 0.19109,-3.08047 0.59395,-4.70125 2.21472,-7.27839 z"
     fill="#B0B9BB"
     id="path54"
     style="fill:#90a0bb;fill-opacity:1;stroke-width:1.00669"
     sodipodi:nodetypes="cccccccccccccccccc" />
  <path
     d="m 128.16593,152.17041 v 4.02676 h -3.02007 c -0.0805,0.56376 -0.16111,1.11744 -0.25167,1.70132 -0.99662,3.06034 -2.39796,5.4122 -4.52207,7.79804 -0.99662,0.50338 0.29369,0.37591 -0.72308,0.87926 l -1.55004,2.7084 h -2.01339 v -3.02009 h -3.02006 l -1.00671,3.02009 v -2.01339 c -3.03014,2.02344 -3.6543,2.85902 -5.03346,6.04015 -3.14089,-0.83555 -5.49654,-1.52011 -7.932763,-3.71469 -1.550294,-3.19122 -1.638646,-5.68724 -1.437314,-9.18048 4.479777,-0.50333 4.789617,-0.69519 9.370077,-1.19852 l 1.00666,-3.02009 3.02011,1.00669 v 4.02678 c 0.7047,-0.66442 1.40937,-1.32882 2.1342,-2.01338 3.33214,-2.31542 4.97305,-2.38587 8.93944,-2.0134 0.12099,-0.64428 0.25164,-1.28857 0.38253,-1.95299 0.30201,-1.0268 0.30201,-1.0268 0.62415,-2.07376 2.01339,-1.0067 2.01339,-1.0067 5.03346,-1.0067 z"
     fill="#4b585d"
     id="path58"
     sodipodi:nodetypes="cccccccccccccccccccccccc"
     style="fill:#4b4f5d;fill-opacity:1;stroke-width:1.00669" />
  <path
     d="m 121.03132,49.724812 c 5.65761,-0.251682 5.65761,-0.251682 9.06025,2.01338 0.37249,2.003309 0.7047,4.01671 1.00671,6.040172 0.66441,0.332196 1.32882,0.664405 2.01338,1.006683 0,0.664406 0,1.328845 0,2.013379 2.65767,0.332208 5.31532,0.664428 8.05355,1.006696 0,0.332219 0,0.664416 0,1.006707 -3.65431,0.332196 -7.30862,0.664405 -11.07364,1.006671 0,0.66444 0,1.328857 0,2.013403 -1.32883,0.332196 -2.65767,0.664416 -4.02676,1.006683 0,-0.664417 0,-1.328822 0,-2.013379 -1.32885,0 -2.65769,0 -4.02678,0 -0.33222,-0.664416 -0.66444,-1.328845 -1.00671,-2.013378 -4.08715,2.053646 -4.08715,2.053646 -6.04015,6.040136 -0.66443,0 -1.32881,0 -2.01339,0 0.0202,0.704697 0.0504,1.409383 0.0705,2.134208 0.0202,0.916077 0.0402,1.832176 0.0504,2.778463 0.0302,0.906029 0.0504,1.812057 0.0805,2.758345 -0.20142,2.395914 -0.20142,2.395914 -2.21473,4.409315 -1.32883,-2.657666 -1.10736,-4.711338 -1.06709,-7.671014 0.0104,-1.016754 0.0202,-2.023449 0.0202,-3.060343 0.0202,-0.775142 0.0302,-1.560364 0.0401,-2.355647 0.66444,0 1.32886,0 2.01341,0 0.10069,-0.765093 0.21149,-1.540246 0.31207,-2.325481 0.76509,-2.999934 1.60064,-3.614012 3.71469,-5.728069 0.72482,-2.62748 0.72482,-2.62748 1.00671,-5.033465 1.32882,-0.33222 2.65766,-0.664416 4.02675,-1.006695 0,-1.328833 0,-2.657679 0,-4.02677 z"
     fill="#142223"
     id="path60"
     style="stroke-width:1.00669" />
  <path
     d="m 126.67431,32.296435 c 6.69452,-0.513422 10.35889,1.650971 15.66414,5.627417 0.9161,0.855689 0.9161,0.855689 1.84225,1.731502 v 2.013402 h 2.0134 c 0.50333,3.986497 0.50333,3.986497 1.00668,8.053524 h -3.02008 v -3.020061 l -6.04014,-1.006701 v -2.013381 c -9.88575,-5.536814 -20.34528,-4.439512 -31.20752,-3.020082 0.50662,-3.730415 1.41264,-4.128552 5.92649,-6.66563 4.57038,-0.483208 9.26454,-1.156375 13.81478,-1.69999 z"
     fill="#A9BDBD"
     id="path64"
     style="fill:#90a0bb;fill-opacity:1;stroke-width:1.00669"
     sodipodi:nodetypes="ccccccccccccc" />
  <path
     d="m 102.91084,85.965761 c 0,3.020087 0,3.020087 -1.26843,4.379107 -5.798532,3.956302 -10.942744,4.26837 -17.878886,4.33885 -1.489886,0.171237 -1.489886,0.171237 -2.999923,0.342267 -0.996649,1.489909 -0.996649,1.489909 -2.013402,3.020085 h -2.01338 v 2.0134 l -4.026757,2.01338 c 0.120979,-1.4295 0.241589,-2.84893 0.382524,-4.27845 0.06042,-0.795294 0.13091,-1.590575 0.211505,-2.405997 0.412747,-2.375797 0.412747,-2.375797 2.426125,-6.402555 16.040225,1.951807 15.521416,0.73104 27.180704,-3.020087 z"
     fill="#454f52"
     id="path66"
     sodipodi:nodetypes="cccccccccccc"
     style="fill:#2d4261;fill-opacity:1;stroke-width:1.00669" />
  <path
     d="m 67.676573,29.339274 c 1.25839,3.261696 2.345623,4.993197 5.416013,6.734772 5.607297,2.385863 11.717902,2.395935 17.737944,2.577141 v 1.0067 c -0.724826,0.04033 -1.459709,0.07052 -2.214734,0.110644 -8.184404,0.563737 -13.09705,1.7315 -18.734546,7.942799 -2.114057,2.456324 -3.181162,3.936162 -4.218033,7.046844 H 63.649811 V 27.577477 h -2.013382 c 1.686941,-4.745851 5.047628,-1.946489 6.040144,1.761716 z"
     fill="#18272c"
     id="path68"
     sodipodi:nodetypes="ccccccccccc"
     style="stroke-width:1.00669" />
  <path
     d="m 56.602965,165.49453 c 0.664413,0 1.328846,0 2.013382,0 -0.06039,0.89594 -0.120979,1.7919 -0.181166,2.71805 -0.09059,1.32884 -0.171031,2.64762 -0.261735,4.01671 -0.04033,0.72482 -0.09059,1.45972 -0.141041,2.21473 -0.312095,5.21467 -0.49328,10.42934 -0.604025,15.66415 -0.05045,1.95299 -0.05045,1.95299 -0.100514,3.94622 -0.06039,2.62746 -0.110644,5.25495 -0.15097,7.88242 -0.0302,1.21808 -0.06039,2.43619 -0.09059,3.6845 -0.02027,1.09728 -0.04032,2.18449 -0.06038,3.31199 -0.473157,3.20129 -1.13757,4.65095 -3.442902,6.89588 -0.996609,0 -1.993259,0 -3.020082,0 0.161103,-1.06712 0.312073,-2.13421 0.473157,-3.23148 0.734872,-5.82877 0.805353,-11.66759 0.976506,-17.52654 0.302002,-9.32197 0.855669,-18.38222 2.57712,-27.56323 0.664413,0 1.328826,0 2.013382,0 0,-0.66444 0,-1.32887 0,-2.0134 z"
     fill="#131a1c"
     id="path70"
     style="stroke-width:1.00669" />
  <path
     d="m 145.19196,53.751582 c 3.90597,0.885901 3.90597,0.885901 5.03347,2.013379 1.35902,0.231543 2.71805,0.412746 4.08716,0.563763 1.30871,0.15097 2.61742,0.291928 3.96639,0.442933 0,0.664416 0,1.328833 0,2.01339 0.99662,0.332208 1.99325,0.664406 3.02005,1.006695 0.56376,1.822106 0.56376,1.822106 1.00671,4.026758 0.56376,0.936229 0.56376,0.936229 1.1275,1.892584 1.22816,2.969748 0.5738,5.103945 -0.12098,8.174346 -0.99661,-0.332197 -1.99326,-0.664406 -3.02006,-1.006673 0,-0.664416 0,-1.328856 0,-2.013389 -0.99664,0 -1.99326,0 -3.02009,0 -0.33221,0.996613 -0.66443,1.993238 -1.0067,3.020062 -0.66441,-0.996602 -1.32883,-1.993239 -2.01338,-3.020062 -0.64427,-0.120772 -1.28856,-0.251683 -1.95298,-0.382548 -2.07378,-0.624148 -2.07378,-0.624148 -3.8355,-3.201289 -0.41275,-0.815422 -0.82549,-1.620774 -1.25837,-2.456324 1.32883,0 2.65766,0 4.02678,0 -0.11059,-2.466393 -0.11059,-2.466393 -1.00669,-5.033465 -2.49659,-1.379161 -2.49659,-1.379161 -5.03349,-2.013378 0,-1.328845 0,-2.657679 0,-4.026782 z"
     fill="#a9b8ba"
     id="path72"
     style="stroke-width:1.00669" />
  <path
     d="m 62.64313,169.52128 2.013381,1.0067 -2.013381,6.04016 h -2.013401 c -0.02027,1.19797 -0.04012,2.39594 -0.06039,3.63416 -0.08045,4.44959 -0.161102,8.89917 -0.261737,13.34876 -0.04012,1.92277 -0.07052,3.85562 -0.100513,5.7784 -0.05045,2.76842 -0.110645,5.53683 -0.171032,8.30523 -0.01016,1.28856 -0.01016,1.28856 -0.0302,2.60733 -0.02027,0.80536 -0.04033,1.61071 -0.06039,2.4362 -0.01016,0.71475 -0.0302,1.41943 -0.04012,2.14426 -0.322145,2.33552 -1.147621,3.99657 -2.295261,6.04014 h -2.013382 c -0.06038,0.84564 -0.12098,1.70131 -0.181165,2.56707 -0.09059,1.10738 -0.171033,2.21473 -0.261756,3.3523 -0.08045,1.09728 -0.161104,2.1946 -0.241594,3.32206 -0.322145,2.83889 -0.322145,2.83889 -1.328846,4.85228 -0.100514,1.44965 -0.181164,2.88922 -0.251666,4.33886 1.93042,7.2056 -11.505141,9.96386 -12.835325,6.73475 2.043577,-0.23152 4.077101,-0.44293 6.130749,-0.56374 2.325454,-0.302 2.325454,-0.302 3.93616,-3.46302 0.221491,-2.04358 0.36243,-4.10732 0.442962,-6.16094 0.352338,-5.80862 1.43955,-10.61056 3.583821,-15.9863 l 1.006701,-3.02008 h 2.013381 c -0.01016,-1.38924 -0.01016,-1.38924 -0.02027,-2.80866 -0.01016,-3.49325 -0.0302,-6.97641 -0.0302,-10.45956 l -0.0302,-4.49989 c -0.04032,-7.89249 -0.03019,-15.66416 1.087232,-23.50629 h 2.013402 c 0.141041,-0.62417 0.29193,-1.2483 0.442942,-1.8926 0.563738,-2.13417 0.563738,-2.13417 1.570439,-4.14758 z"
     fill="#454d52"
     id="path86"
     sodipodi:nodetypes="cccccccccccccccccccccccccccccccc"
     style="stroke-width:1.00669" />
  <path
     d="m 82.77698,211.80239 h 4.026769 c 1.338916,4.8724 0.644289,7.52001 -1.238226,11.97966 -1.228167,3.3422 -1.46978,6.62405 -1.781859,10.1676 l -3.020063,1.00668 v 8.05354 c -7.449888,0.44154 1.063628,-29.384 2.013379,-31.20748 z"
     fill="#9BAAAA"
     id="path94"
     style="fill:#90a0bb;fill-opacity:1;stroke-width:1.00669"
     sodipodi:nodetypes="ccccccc" />
  <path
     d="m 130.09157,16.503949 c 4.90259,2.35565 7.93273,4.278428 10.42934,9.181024 1.02682,2.999959 0.89596,5.808622 0.6443,8.93945 -2.0134,1.006681 -2.0134,1.006681 -4.40932,0.312073 -2.9899,-1.489908 -4.59053,-2.71808 -6.66432,-5.345537 -0.39262,-3.251624 -0.39262,-3.251624 -0.25169,-6.79518 0.0402,-1.177835 0.0705,-2.35567 0.11061,-3.57377 0.0504,-0.895955 0.0905,-1.79191 0.14104,-2.71806 z"
     fill="#14262c"
     id="path98"
     style="stroke-width:1.00669" />
  <path
     d="m 129.35672,86.132212 9.53507,-1.75081 c -0.78092,2.995481 -2.14881,7.708786 -5.16887,7.960469 -1.71141,-0.120772 -1.71141,-0.120772 -3.46302,-0.251683 -1.13757,-0.06042 -2.27514,-0.120783 -3.45299,-0.191296 -3.9563,-1.026824 -8.78483,-2.36086 -10.87874,-5.813809 l -0.99765,-3.421852 c 2.87607,3.68601 9.09932,3.81455 14.4262,3.468957 z"
     fill="#252d2f"
     id="path104-7-5"
     sodipodi:nodetypes="cccccccc"
     style="fill:#2d4161;fill-opacity:1;stroke-width:1.00669" />
  <path
     d="m 121.70626,87.573691 h 11.07362 c -3.02008,3.020087 -3.02008,3.020087 -6.04015,3.271745 -1.71139,-0.120771 -1.71139,-0.120771 -3.46302,-0.251658 -1.13759,-0.06042 -2.27514,-0.120784 -3.45296,-0.191309 -3.9563,-1.026812 -5.08381,-2.395927 -7.17774,-5.848887 v -3.020074 c 4.04621,2.832426 4.66996,3.732516 9.06025,6.040161 z"
     fill="#252d2f"
     id="path104-7"
     sodipodi:nodetypes="cccccccc"
     style="fill:#193055;fill-opacity:1;stroke-width:1.00669" />
  <path
     d="m 145.19196,245.02328 c 0.66442,0.33217 1.32883,0.66439 2.01338,1.00666 -0.33222,0.66444 -0.66439,1.32886 -1.0067,2.0134 0.93624,-0.0401 1.87246,-0.0805 2.82881,-0.12098 3.21136,0.12098 3.21136,0.12098 6.23144,2.13419 0.1913,3.14089 0.1913,3.14089 0,6.04015 -4.58045,0.37248 -4.58045,0.37248 -6.85556,-1.51002 -0.39261,-0.50334 -0.79531,-0.99662 -1.19799,-1.51004 0,1.66104 0,3.32208 0,5.03346 -0.66439,0 -1.32882,0 -2.01338,0 -1.00671,-1.0067 -2.01337,-2.0134 -3.02005,-3.02006 -0.99666,-0.33222 -1.99327,-0.66442 -3.0201,-1.0067 0,-0.99665 0,-1.99325 0,-3.02008 -0.66442,0 -1.32884,0 -2.01339,0 0.33221,-0.99664 0.66443,-1.99326 1.0067,-3.0201 2.32546,0 4.65091,0 7.04684,0 0,-0.99661 0,-1.99322 0,-3.02006 z"
     fill="#46585d"
     id="path108"
     style="stroke-width:1.00669" />
  <path
     d="m 78.750199,50.731496 c 6.946188,-0.50333 11.496452,-0.301998 17.113796,4.026781 1.449635,2.768404 1.449635,2.768404 2.013407,5.033465 0.996611,0 1.993232,0 3.020058,0 -0.33219,1.328823 -0.66441,2.657668 -1.006688,4.026758 -0.996642,0 -1.993253,0 -3.02007,0 0,-0.664405 0,-1.328822 0,-2.013378 -0.996637,0.503353 -0.996637,0.503353 -2.013402,1.006707 0.332208,1.328821 0.664428,2.657643 1.006695,4.026757 0.996618,0 1.99326,0 3.020087,0 0,0.664417 0,1.328845 0,2.013379 -1.661039,-0.332197 -3.322085,-0.664405 -5.033488,-1.006673 0,-0.996636 0,-1.993261 0,-3.020085 -0.996614,0 -1.99324,0 -3.020064,0 0,-0.664416 0,-1.328845 0,-2.013378 -1.328845,0 -2.65769,0 -4.026781,0 0.33222,-0.996638 0.664429,-1.993263 1.006696,-3.020087 2.657656,0 5.315346,0 8.05355,0 0,-0.664416 0,-1.328845 0,-2.013378 -2.989887,-0.996638 -5.979751,-1.993263 -9.060246,-3.020087 0,-0.664416 0,-1.328845 0,-2.013378 -2.989864,0 -5.979762,0 -9.060223,0 0.332197,-0.66444 0.664406,-1.328845 1.006673,-2.013403 z"
     fill="#364345"
     id="path120"
     style="stroke-width:1.00669" />
  <path
     d="m 141.40756,113.49006 c 4.7818,0.75502 3.11342,0.22387 5.37848,2.48893 0.67447,2.3456 1.33891,4.70125 2.0134,7.04684 l 2.01338,2.01341 c 0.27179,2.708 0.0905,5.32539 0,8.05355 -0.72483,-0.76509 -1.44965,-1.54025 -2.20467,-2.32547 -2.59725,-2.75833 -2.59725,-2.75833 -5.46632,-3.99657 -1.63451,-3.92397 -1.66032,-8.6653 -1.73427,-13.28069 z"
     fill="#A7B7BC"
     id="path124"
     style="fill:#90a0bb;fill-opacity:1;stroke-width:1.00669"
     sodipodi:nodetypes="cccccccc" />
  <path
     d="m 141.16521,148.38075 h 2.01338 c 0.99651,9.66796 3.39541,9.06022 -6.04017,9.06022 -0.14105,0.78521 -0.29193,1.58052 -0.44294,2.39593 -0.56376,2.63754 -0.56376,2.63754 -1.57047,4.65092 h -5.03344 v 2.0134 h -2.0134 v 2.01337 l -4.02676,-2.01337 h 2.0134 v -3.02009 h 2.01336 l 1.00671,-5.03346 3.02007,-1.0067 3.02006,3.02009 1.00671,-7.04687 4.02678,1.0067 z"
     fill="#3e494c"
     id="path128"
     sodipodi:nodetypes="ccccccccccccccccccc"
     style="stroke-width:1.00669" />
  <path
     d="m 142.5681,201.11168 1.5357,23.07061 -0.0471,2.80913 -3.09026,1.97777 -0.50599,-8.27468 c -0.59547,-4.18296 -0.15421,-8.18783 0.10922,-10.01838 l 1.16187,-4.45385 c 0.96398,2.27363 -0.16941,-5.1106 0.83715,-5.1106 z"
     fill="#4a595d"
     id="path132"
     sodipodi:nodetypes="ccccccccc"
     style="stroke-width:1.00669" />
  <path
     d="m 110.96439,64.825207 2.01339,1.006696 -1.00668,2.013389 h -2.01341 v 15.100384 l -3.02007,1.006707 c 0.79965,2.296802 3.37429,4.412551 0.1911,3.523405 -2.3154,-0.614068 -3.45856,-0.767501 -6.3679,-0.656764 2.49529,-2.272473 1.53778,-9.261198 1.14316,-14.946973 l 3.02008,1.006706 1.00671,5.033454 h 2.01338 c -0.0104,-0.634218 -0.0202,-1.258366 -0.0401,-1.912725 0,-0.825468 -0.0104,-1.640901 -0.0202,-2.496592 -0.0104,-0.815421 -0.0302,-1.630843 -0.0403,-2.476464 0.10049,-2.174465 0.10049,-2.174465 1.10738,-4.187844 h 2.01336 z"
     fill="#52595c"
     id="path140"
     sodipodi:nodetypes="cccccccccccccccccc"
     style="stroke-width:1.00669" />
  <path
     d="m 63.649811,47.711434 v 7.046843 h 2.013406 l 1.006673,-4.026781 1.006683,2.013403 -1.006683,3.020062 c 2.989887,-0.342266 2.989887,-0.342266 6.040172,-1.006684 l 1.006694,-2.013378 h 3.020063 v 3.020062 h 2.01338 v 3.020086 H 66.66989 l -1.006673,3.020075 v -3.020075 h -2.013406 l -1.006681,6.04016 h -5.033464 c 0.64427,-1.137572 1.28856,-2.28519 1.952974,-3.463031 2.180705,-2.558405 2.130124,-13.650742 4.087171,-13.650742 z"
     fill="#323f45"
     id="path142"
     sodipodi:nodetypes="cccccccccccccccccccc"
     style="stroke-width:1.00669" />
  <path
     d="m 64.656511,135.29373 c 0.664417,0 1.328822,0 2.013379,0 0,0.99662 0,1.99327 0,3.02009 0.664417,0 1.328845,0 2.013379,0 0.66444,3.32208 1.328834,6.64417 2.013402,10.06693 1.661043,0 3.322084,0 5.033454,0 -3.473078,5.81866 -3.473078,5.81866 -6.291832,6.92605 -0.583867,0.0402 -1.167769,0.0805 -1.76172,0.12098 -2.013356,-4.14759 -2.194582,-7.49986 -2.013356,-12.08032 -0.66444,0 -1.32885,0 -2.013406,0 0.332216,-2.65768 0.664413,-5.31531 1.0067,-8.05354 z"
     fill="#0c1518"
     id="path146"
     style="stroke-width:1.00669" />
  <path
     d="m 68.683269,31.60434 c -1.006696,2.013382 -1.006696,2.013382 -2.013379,3.020083 -0.07055,1.530174 -0.08045,3.060349 -0.06042,4.590501 0.01035,0.835568 0.02026,1.671115 0.02026,2.526804 0.02026,0.634218 0.03015,1.278509 0.04028,1.942923 l 1.006683,-3.020083 2.013402,1.006701 c -0.281881,1.4295 -0.583891,2.848947 -0.885912,4.278447 -0.161098,0.795281 -0.322127,1.590561 -0.493272,2.405983 -0.624137,2.345598 -1.489897,4.278452 -2.647586,6.402578 h -2.013273 v -27.18072 h -2.013403 c 2.362317,-6.687352 6.092229,0.876724 7.046848,4.026783 z"
     fill="#1b3136"
     id="path150"
     sodipodi:nodetypes="cccccccccccccc"
     style="stroke-width:1.00669" />
  <path
     d="m 56.602965,165.49453 c 0.664413,0 1.328846,0 2.013382,0 -0.150971,0.98655 -0.302002,1.98317 -0.452993,2.99993 -0.593974,4.13752 -0.966437,8.27503 -1.308724,12.44272 -0.07052,0.77518 -0.130908,1.54024 -0.201226,2.33552 -0.211501,2.44628 -0.412748,4.88247 -0.614076,7.32875 -0.141042,1.66104 -0.281879,3.33214 -0.4228,4.99317 -0.342306,4.05698 -0.684575,8.12403 -1.026843,12.18101 -0.332217,0 -0.664412,0 -1.00668,0 -0.02027,-4.60059 -0.04033,-9.20119 -0.05045,-13.80178 -0.01215,-1.57042 -0.02027,-3.13081 -0.0302,-4.69118 -0.01016,-2.25498 -0.01016,-4.52004 -0.02027,-6.77503 0,-0.68456 -0.01215,-1.37918 -0.01215,-2.09394 0,-4.40932 0.402676,-8.55689 1.117426,-12.90577 0.664413,0 1.328847,0 2.013402,0 0,-0.66444 0,-1.32887 0,-2.0134 z"
     fill="#081011"
     id="path154"
     style="stroke-width:1.00669" />
  <path
     d="m 115.99788,92.00591 h 9.06023 c 6.54547,3.618443 25.14971,15.88985 23.77048,19.12166 -8.77986,-6.44607 -19.51572,-13.14782 -30.70357,-12.53914 z"
     fill="#9AA9AA"
     id="path156"
     style="fill:#90a0bb;fill-opacity:1;stroke-width:1.00669"
     sodipodi:nodetypes="ccccc" />
  <path
     d="m 111.77984,99.8682 c 0.8456,-0.0202 1.68114,-0.0503 2.5469,-0.0705 1.20804,-0.0202 1.20804,-0.0202 2.44628,-0.0302 1.11743,-0.0302 1.11743,-0.0302 2.255,-0.0503 2.5268,0.43289 3.52641,2.07057 5.14719,4.01349 l -3.14389,-0.65112 c 0.50338,0.58388 0.99665,1.16777 1.51004,1.7617 1.51005,2.26507 1.51005,2.26507 1.51005,6.29183 -1.3389,-0.67449 -2.68787,-1.33889 -4.02678,-2.01338 -0.72481,-0.29193 -1.44963,-0.58388 -2.20464,-0.8859 -1.82211,-1.12748 -1.82211,-1.12748 -2.57712,-3.26167 -0.0807,-0.62417 -0.16111,-1.24831 -0.2517,-1.89258 h 4.02677 v -2.01341 l -11.72585,0.49799 -2.98141,1.46883 c -3.9651,1.0024 -5.366186,0.54992 -11.466782,1.05327 2.013402,-2.01338 2.013402,-2.01338 3.976441,-2.21471 7.547251,-0.36008 6.758501,-1.86274 14.959501,-2.00333 z"
     fill="#43484C"
     id="path166"
     style="fill:#0c254b;fill-opacity:1;stroke-width:1.00669"
     sodipodi:nodetypes="ccccccccccccccccccc" />
  <path
     d="m 74.723441,88.985848 c 1.661042,0.332196 3.322083,0.664405 5.033465,1.006672 0,0.664417 0,1.328845 0,2.01339 3.322083,0 6.644191,0 10.066929,0 0,0.664428 0,1.328846 0,2.013403 -0.634207,0.04027 -1.258366,0.07055 -1.912713,0.110597 -1.228168,0.100696 -1.228168,0.100696 -2.496603,0.201424 -0.81541,0.06042 -1.630855,0.120772 -2.476453,0.181169 -2.557012,0.342268 -2.557012,0.342268 -4.187867,3.533477 -0.664405,0 -1.328823,0 -2.01338,0 0,0.66444 0,1.32885 0,2.0134 -1.993239,0.99664 -1.993239,0.99664 -4.026757,2.01339 0.141038,-1.4295 0.291951,-2.84893 0.442933,-4.27845 0.08045,-0.795305 0.161109,-1.590587 0.241601,-2.406009 0.302021,-2.194583 0.744965,-4.268382 1.328845,-6.402556 z"
     fill="#2A3336"
     id="path170"
     style="fill:#132644;fill-opacity:1;stroke-width:1.00669" />
  <path
     d="m 136.7755,206.31373 c 1.98339,0.76061 2.0134,1.03701 2.0134,3.02008 4.68603,-1.18845 1.61904,14.87397 0,21.14053 -2.0134,-1.00666 -2.0134,-1.00666 -3.02009,-4.02674 -0.0202,-1.57044 0.0302,-3.13083 0.12097,-4.70126 0.0504,-0.89596 0.10049,-1.79192 0.15097,-2.71806 0.0504,-0.93622 0.11061,-1.87246 0.17104,-2.8389 0.0504,-0.94628 0.10048,-1.89257 0.1611,-2.86907 0.1309,-2.33552 0.26173,-4.67106 0.40267,-7.00658 z"
     fill="#A2B1B5"
     id="path178"
     style="fill:#90a0bb;fill-opacity:1;stroke-width:1.00669"
     sodipodi:nodetypes="ccccccccc" />
  <path
     d="m 138.14512,132.27364 c 0.66441,0 1.32882,0 2.01338,0 0,2.32547 0,4.65095 0,7.04687 -0.99662,0.33221 -1.99327,0.6644 -3.02008,1.00669 0.0605,0.93621 0.12097,1.87244 0.19129,2.8288 -0.19129,3.21135 -0.19129,3.21135 -1.38921,5.10395 -2.38588,1.47983 -4.09725,1.34894 -6.8556,1.12749 0,-0.99664 0,-1.99326 0,-3.02009 0.99665,0 1.99325,0 3.0201,0 0.33221,-2.32543 0.66439,-4.65092 1.00668,-7.04684 0.6644,0 1.32884,0 2.01338,0 0,-0.66442 0,-1.32884 0,-2.0134 0.66441,0 1.32884,0 2.01338,0 0.33222,-1.66104 0.66443,-3.32208 1.00671,-5.03347 z"
     fill="#353d41"
     id="path182"
     style="stroke-width:1.00669" />
  <path
     d="m 121.03132,61.805122 2.01341,1.006707 -1.0067,2.013378 h 4.02678 v 2.013379 l 4.02676,-1.006683 v 2.013389 c -3.75497,0.694604 -7.25826,1.117421 -11.07363,1.006673 h -2.01338 c -2.255,1.822128 -2.255,1.822128 -2.21471,4.409317 0.0302,0.916099 0.0504,1.822128 0.0805,2.758345 0.0104,0.926158 0.0302,1.842257 0.0504,2.778474 0.0202,0.704673 -0.45612,2.32326 -0.43598,3.048085 L 112.97778,79.92559 V 68.851965 c 2.14144,0.288246 2.06384,-0.5134 2.20468,-1.822105 1.15769,-3.120753 2.89927,-3.855625 5.84886,-5.224738 z"
     fill="#c6ced0"
     id="path184"
     sodipodi:nodetypes="ccccccccccccccccc"
     style="stroke-width:1.00669" />
  <path
     d="m 111.9711,221.86932 c 0.66441,0 1.32883,0 2.01338,0 0,1.32882 0,2.65769 0,4.02678 0.99662,0 1.99326,0 3.02008,0 0,4.98313 0,9.96625 0,15.1004 -0.99663,0 -1.99325,0 -3.02008,0 -0.12077,-6.79519 -0.12077,-6.79519 1.00669,-9.06025 -1.66104,0 -3.32208,0 -5.03348,0 0.66444,-3.32209 1.32888,-6.64417 2.01341,-10.06693 z"
     fill="#0c171c"
     id="path188"
     style="stroke-width:1.00669" />
  <path
     d="m 115.99788,166.50122 c 0,0.99661 0,1.99324 0,3.02006 0.91607,-0.3322 1.82211,-0.66441 2.7684,-1.00669 3.27175,-1.00666 3.27175,-1.00666 7.29853,-1.00666 0,1.32882 0,2.65764 0,4.02676 -3.64425,1.32881 -6.14084,2.01337 -10.06693,2.01337 0,-0.66442 0,-1.32882 0,-2.01337 -0.99665,0.33219 -1.99326,0.66441 -3.0201,1.00667 0,-0.66441 0,-1.32883 0,-2.01338 -1.66105,0.33222 -3.3221,0.66441 -5.03345,1.00671 0.8154,-1.953 0.8154,-1.953 2.01336,-4.02676 3.02009,-1.00671 3.02009,-1.00671 6.04019,-1.00671 z"
     fill="#202e33"
     id="path192"
     style="stroke-width:1.00669" />
  <path
     d="m 56.995063,252.12616 c -4.800219,2.72622 -4.807858,4.0593 -3.093905,8.13691 0.543595,-0.16111 1.775658,-0.47162 2.339397,-0.64276 7.136718,0.19453 11.584722,0.31889 15.4628,3.52342 h -7.046844 v -1.00669 c -0.604024,0.0504 -1.2181,0.0905 -1.842247,0.14105 -6.583761,0.302 -7.671702,0.30025 -10.587159,-1.40629 -1.610704,-2.38585 -1.764979,-5.06676 -2.671006,-7.79489 2.476487,-1.89026 4.700762,-1.25373 7.438964,-0.95063 z"
     fill="#2e4348"
     id="path198"
     sodipodi:nodetypes="cccccccccc"
     style="stroke-width:1.00669" />
  <path
     d="m 108.95102,158.44767 c 0.3322,0 0.6644,0 1.00667,0 0,2.32545 0,4.65094 0,7.04686 -3.88583,2.16438 -6.59383,3.41267 -11.073608,3.02006 0,-2.32544 0,-4.65093 0,-7.04686 0.64426,-0.0504 1.288548,-0.10049 1.942918,-0.15097 0.83555,-0.0705 1.6711,-0.15097 2.52681,-0.23154 0.82547,-0.0604 1.65097,-0.1309 2.50664,-0.2115 0.69463,-0.1309 1.37918,-0.27181 2.08388,-0.41274 0.3322,-0.66442 0.66439,-1.32884 1.00669,-2.01339 z"
     fill="#111c1f"
     id="path200"
     style="stroke-width:1.00669" />
  <path
     d="m 128.07817,152.40751 c 0,1.32884 0,2.65766 0,4.02678 -0.9966,0 -1.99324,0 -3.02006,0 -0.0805,0.62412 -0.1611,1.24829 -0.25169,1.89259 -0.75501,2.13418 -0.75501,2.13418 -2.76839,3.26166 -0.66444,0.29195 -1.32884,0.5839 -2.0134,0.8859 -0.33219,0.66442 -0.6644,1.32882 -1.00669,2.01338 -0.99662,0 -1.99323,0 -3.02006,0 -0.38257,-2.00331 -0.71475,-4.01669 -1.00671,-6.04015 1.00671,-1.0067 1.00671,-1.0067 4.08716,-1.06708 1.46979,0.0302 1.46979,0.0302 2.9597,0.0605 0.1915,-0.96645 0.1915,-0.96645 0.38253,-1.953 0.20143,-0.68455 0.41275,-1.36909 0.62417,-2.07378 2.01338,-1.00671 2.01338,-1.00671 5.03344,-1.00671 z"
     fill="#2f3c42"
     id="path202"
     style="stroke-width:1.00669" />
  <path
     d="m 117.00456,54.758277 c 1.16928,3.499951 8.23029,7.382286 7.33979,10.470803 -0.24419,0.846875 -5.4008,0.02325 -7.31213,1.294963 -3.07099,2.386271 -3.19062,3.163714 -3.93363,7.240593 0.0302,0.906029 0.0504,1.812057 0.0805,2.758345 -0.20143,2.395914 -0.20143,2.395914 -2.21472,4.409315 -1.32884,-2.657666 -1.10736,-4.711338 -1.0671,-7.671014 0.0104,-1.016754 0.0202,-2.023449 0.0202,-3.060343 0.0202,-0.775142 0.0302,-1.560364 0.0401,-2.355647 h 2.01339 c 0.10069,-0.765093 0.2115,-1.540246 0.31207,-2.325481 0.76511,-2.999934 1.60065,-3.614012 3.71471,-5.728069 0.72481,-2.62748 0.72481,-2.62748 1.00671,-5.033465 z"
     fill="#1e282a"
     id="path204"
     sodipodi:nodetypes="csccccccccccc"
     style="stroke-width:1.00669" />
  <path
     d="m 130.42196,65.040764 c 3.76009,-3.826876 9.42626,-1.740992 13.72307,6.140573 l 1.80424,4.395276 5.28285,-0.684476 v -2.01338 h 3.02006 v 3.020074 c -0.95633,0.211403 -1.91269,0.412735 -2.89925,0.62415 -1.55032,0.694603 -1.55032,0.694603 -3.14088,1.38923 -1.23825,3.030133 -1.23825,3.030133 -2.01341,6.040172 l -3.02005,1.006672 c 0.17366,-15.409056 -3.17323,-19.031424 -12.75663,-19.918291 z"
     fill="#5C8DBB"
     id="path216"
     style="fill:#263436;fill-opacity:1;stroke-width:1.00669"
     sodipodi:nodetypes="cccccccccccc" />
  <path
     d="m 90.83053,94.019313 -1.006695,2.013378 c -1.268425,0.100696 -2.536861,0.211391 -3.835496,0.312068 -3.473112,0.342268 -4.036851,0.513401 -6.674378,3.090571 -3.343179,1.90856 -3.991991,3.05937 -4.31742,4.50334 -2.073765,0.69462 -0.33351,1.84889 -2.286479,2.16096 -1.127501,-2.26506 -1.127501,-2.26506 -2.013391,-5.03346 0.88589,-2.32545 0.88589,-2.32545 2.013391,-4.026807 l 1.006694,4.026807 3.020063,-1.0067 v -2.0134 c 3.483148,-5.385801 8.34548,-4.419386 14.093711,-4.026757 z"
     fill="#4d5658"
     id="path218"
     sodipodi:nodetypes="cccccccccccc"
     style="stroke-width:1.00669" />
  <path
     d="m 5.2616253,237.97641 c 0.9966292,0 1.9932392,0 3.0200621,0 0,0.66442 0,1.32885 0,2.01339 0.9966495,0 1.9932596,0 3.0201026,0 -0.211501,0.74496 -0.412747,1.49998 -0.624167,2.26506 -0.432871,3.14086 -0.08045,4.18782 1.630848,6.79519 0.664413,0.66441 1.328846,1.32881 2.013402,2.01338 -3.543576,-0.59396 -5.7482341,-1.36909 -9.0602477,-3.02009 0,-3.32209 0,-6.6442 0,-10.06693 z"
     fill="#0b1b24"
     id="path222"
     style="stroke-width:1.00669" />
  <path
     d="m 187.47306,234.95633 c -1.21809,-0.11059 -1.21809,-0.11059 -2.46638,-0.22145 -1.07717,-0.0905 -2.15431,-0.18116 -3.2617,-0.2819 -1.05703,-0.0905 -2.1241,-0.1911 -3.22141,-0.28186 -2.7382,-0.1915 -5.42606,-0.26173 -8.16428,-0.22147 1.00304,-7.2177 19.37998,-8.33714 17.11377,1.00668 z"
     fill="#596D79"
     id="path224"
     style="fill:#90a0bb;fill-opacity:1;stroke-width:1.00669"
     sodipodi:nodetypes="cccccc" />
  <path
     d="m 82.77698,161.46773 c 3.020062,1.00671 3.020062,1.00671 4.026769,3.02009 0.956368,-0.0401 1.912725,-0.0805 2.89928,-0.12098 3.140869,0.12098 3.140869,0.12098 5.154271,2.13419 -0.33222,0.99661 -0.664394,1.99327 -1.006706,3.02006 -0.664395,-0.33219 -1.328823,-0.66439 -2.013357,-1.00668 0,-0.66442 0,-1.32884 0,-2.01338 -0.664439,0 -1.328868,0 -2.013402,0 0.332208,0.99661 0.664406,1.99327 1.006695,3.02006 -1.661041,0.66442 -3.322084,1.32885 -5.033488,2.01338 -2.426101,-3.53347 -3.392539,-5.76833 -3.020062,-10.06692 z"
     fill="#111d20"
     id="path232"
     style="stroke-width:1.00669" />
  <path
     d="m 147.20534,45.698031 c 0.99664,0 1.99327,0 3.02009,0 0.33222,2.32547 0.66441,4.650929 1.00669,7.046868 1.32884,0 2.65768,0 4.02677,0 0,0.996602 0,1.993238 0,3.020062 -1.66104,-0.332197 -3.32209,-0.664417 -5.03346,-1.006684 0,-0.664416 0,-1.328845 0,-2.013378 -3.98652,0 -7.97301,0 -12.08031,0 1.32882,-0.33222 2.65765,-0.66444 4.02679,-1.006707 0,-0.996625 0,-1.993251 0,-3.020074 -0.66443,-0.332198 -1.32885,-0.664418 -2.01341,-1.006684 0.99662,0 1.99326,0 3.02009,0 0,0.996613 0,1.993238 0,3.020062 1.32884,0 2.65766,0 4.02675,0 0,-1.661042 0,-3.322083 0,-5.033465 z"
     fill="#2f4149"
     id="path238"
     style="stroke-width:1.00669" />
  <path
     d="m 84.790371,209.78901 c 7.308596,0 14.617178,0 22.147249,0 0,0.3322 0,0.66441 0,1.00671 -6.48311,0.50333 -6.48311,0.50333 -13.087026,1.00667 0,0.66441 0,1.32884 0,2.01339 -0.664395,0 -1.328823,0 -2.013357,0 0.332197,0.99665 0.664382,1.99325 1.006661,3.02008 -0.996614,0 -1.993227,0 -3.020063,0 -0.332197,0.99663 -0.664417,1.99326 -1.006684,3.02008 -0.33222,-2.98989 -0.66444,-5.97976 -1.006706,-9.06022 -0.996625,-0.33223 -1.993251,-0.66444 -3.020074,-1.00671 z"
     fill="#0d1618"
     id="path246"
     style="stroke-width:1.00669" />
  <path
     d="m 145.19196,187.64175 c -0.14104,1.95299 -0.29192,3.90599 -0.44294,5.8489 -0.0805,1.08723 -0.1611,2.17445 -0.24159,3.29188 -0.32218,2.93955 -0.32218,2.93955 -1.32884,5.95964 l 0.39933,14.08884 -2.23071,-2.28528 c -0.92617,-4.48986 -1.16857,-16.18268 -0.74577,-20.743 0.10049,-1.15771 0.20143,-2.3154 0.31207,-3.51337 -0.0713,-3.25193 1.24361,-2.64761 4.27845,-2.64761 z"
     fill="#354243"
     id="path250"
     sodipodi:nodetypes="ccccccccc"
     style="stroke-width:1.00669" />
  <path
     d="m 144.18525,168.51459 h 1.00671 v 8.05355 c -0.78044,6.77324 2.15933,12.7515 -3.68392,11.78038 -0.20144,-6.75491 0.35177,-13.44141 2.67721,-19.83393 z"
     fill="#54666d"
     id="path258"
     sodipodi:nodetypes="ccccc"
     style="stroke-width:1.00669" />
  <path
     d="m 121.03132,49.724812 c 1.32882,0 2.65768,0 4.02679,0 -0.38255,2.456324 -0.38255,2.456324 -1.0067,5.033465 -0.99664,0.493284 -0.99664,0.493284 -2.01338,1.006684 -0.65435,2.03352 -0.65435,2.03352 -1.00671,4.026781 0.99665,0.332197 1.99326,0.664418 3.02009,1.006684 -1.32883,0 -2.65768,0 -4.02678,0 0,0.664428 0,1.328845 0,2.013403 -0.99661,0 -1.99323,0 -3.02007,0 0.3322,-2.989888 0.66441,-5.979764 1.00668,-9.060247 0.99666,0 1.99326,0 3.02008,0 0,-1.328833 0,-2.657679 0,-4.02677 z"
     fill="#0a181a"
     id="path264"
     style="stroke-width:1.00669" />
  <path
     d="m 151.23212,239.9898 c 6.341,0.13435 9.85943,2.64757 10.78864,6.25247 0.061,2.90881 0.37278,5.85784 -1.99656,6.86713 -0.25168,-0.7651 -0.61928,-3.20419 -0.87098,-3.98943 -1.41943,-3.06031 -1.97156,-3.47257 -4.90104,-5.10339 -3.17106,-0.72483 -3.17106,-0.72483 -6.04013,-1.00671 l 3.02007,-1.00669 z"
     fill="#93A4A9"
     id="path284"
     style="fill:#90a0bb;fill-opacity:1;stroke-width:1.00669"
     sodipodi:nodetypes="cccccccc" />
  <path
     d="m 83.783664,155.42759 c 0.996636,0 1.993261,0 3.020085,0 0,0.66443 0,1.32882 0,2.01338 1.328823,0.33222 2.657668,0.66442 4.026781,1.0067 -0.332219,1.32883 -0.664428,2.65768 -1.006695,4.02677 0.996626,0.66442 1.993251,1.32882 3.020063,2.01338 -1.993227,0.33221 -3.986478,0.66443 -6.040149,1.00671 -3.020085,-6.66433 -3.020085,-6.66433 -3.020085,-10.06694 z"
     fill="#4E5A5C"
     id="path288"
     style="fill:#4e505c;fill-opacity:1;stroke-width:1.00669" />
  <path
     d="m 76.736819,247.03665 c 1.892585,0.19149 1.892585,0.19149 4.026782,1.00669 2.255889,6.46167 4.896316,11.35958 -2.013402,13.08702 l 1.006707,-10.06693 c -2.822748,0.42138 -2.427529,-1.65655 -3.020087,-4.02678 z"
     fill="#889298"
     id="path298"
     style="fill:#90a0bb;fill-opacity:1;stroke-width:1.00669"
     sodipodi:nodetypes="ccccc" />
  <path
     d="m 140.1585,222.87602 h 1.00671 c 0.10048,1.0369 0.21149,2.0738 0.31206,3.14089 0.69464,3.88581 1.84225,6.51329 3.71469,9.94612 l 1.00668,3.02006 c -3.59633,-0.68043 -4.02673,-0.55275 -4.02673,-4.02676 -4.77061,0.87697 -4.99747,-5.2186 -4.65094,-7.35892 0.20143,-0.56377 0.41273,-1.1275 0.62415,-1.70131 l 1.00669,3.02006 z"
     fill="#7E8F94"
     id="path300"
     style="fill:#90a0bb;fill-opacity:1;stroke-width:1.00669"
     sodipodi:nodetypes="cccccccccc" />
  <path
     d="m 90.801874,68.83697 c 0.332197,0.664416 0.664416,1.328845 1.006684,2.01339 -3.654304,0 -7.308585,0 -11.073625,0 -0.332174,1.328845 -0.664394,2.657667 -1.006661,4.026781 -1.006707,1.006672 -2.013402,2.013379 -3.020109,3.020075 -0.714721,2.114056 -0.714721,2.114056 -1.006672,4.026769 -0.996637,0 -1.993262,0 -3.020086,0 0.996625,-4.942858 3.160998,-8.818634 7.046867,-12.080308 3.714667,-0.966439 7.248176,-1.117432 11.073602,-1.006707 z"
     fill="#cfd4dc"
     id="path302"
     style="stroke-width:1.00669" />
  <path
     d="m 159.28567,63.8185 c 1.95298,0.312081 1.95298,0.312081 4.02676,1.006707 1.16778,3.503288 0.71476,5.496549 0,9.060223 -0.99662,-0.332197 -1.99325,-0.664406 -3.02006,-1.006673 0,-0.996636 0,-1.993261 0,-3.020085 -0.99665,0 -1.99325,0 -3.0201,0 0.66442,-1.993262 1.32885,-3.986501 2.0134,-6.040172 z"
     fill="#aeb9c3"
     id="path310"
     style="stroke-width:1.00669" />
  <path
     d="m 78.750199,139.32051 c 1.510037,1.12751 1.510037,1.12751 3.020109,3.02009 0.191089,3.21133 0.191089,3.21133 0,6.04015 1.661041,-0.33222 3.322084,-0.66444 5.033441,-1.00671 0,0.66444 0,1.32883 0,2.0134 -0.996614,0 -1.993261,0 -3.020085,0 0,1.32883 0,2.65766 0,4.02675 -0.996603,0 -1.993239,0 -3.020063,0 -0.342267,-1.59056 -0.674487,-3.1912 -1.006695,-4.78175 -0.191102,-0.88591 -0.372489,-1.77182 -0.563763,-2.6879 -0.442944,-2.59728 -0.442944,-2.59728 -0.442944,-6.62403 z"
     fill="#424D50"
     id="path318"
     style="fill:#424450;fill-opacity:1;stroke-width:1.00669" />
  <path
     d="m 82.77698,101.06617 c -0.332209,0.68456 -0.664405,1.36909 -1.006672,2.07379 -1.177864,3.47307 -1.147642,6.3623 -1.006707,10.00652 -0.996649,0.50335 -0.996649,0.50335 -2.013402,1.0067 -0.110598,-0.57381 -0.221472,-1.13757 -0.332198,-1.72145 -0.161098,-0.74494 -0.322138,-1.47984 -0.483201,-2.24492 -0.150971,-0.7349 -0.301998,-1.46976 -0.463108,-2.22481 -0.241589,-0.61407 -0.483189,-1.22815 -0.734873,-1.86237 l -3.020063,-1.00669 3.020063,-1.00669 1.458031,-1.24532 c 3.020062,-1.00669 2.568751,-1.77476 4.58213,-1.77476 z"
     fill="#2a3a3b"
     id="path330"
     sodipodi:nodetypes="cccccccccccc"
     style="stroke-width:1.00669" />
  <path
     d="m 52.576182,221.86932 c 0.08045,4.18784 -0.02027,8.00321 -1.006681,12.08033 -0.99663,0 -1.993258,0 -3.020062,0 0,-3.6543 0,-7.30861 0,-11.07363 3.020062,-1.0067 3.020062,-1.0067 4.026743,-1.0067 z"
     fill="#09131b"
     id="path336"
     style="stroke-width:1.00669" />
  <path
     d="m 109.95769,207.77563 c -0.3322,2.32543 -0.6644,4.65091 -1.00667,7.04685 -0.66442,-0.33223 -1.32886,-0.66442 -2.0134,-1.0067 0,-1.32883 0,-2.65765 0,-4.02677 -7.308592,0 -14.617181,0 -22.147249,0 0,-0.33222 0,-0.66442 0,-1.00669 3.815355,-0.17105 7.630723,-0.3322 11.456158,-0.50335 1.087239,-0.0504 2.174467,-0.10049 3.291912,-0.14105 1.036869,-0.0504 2.073789,-0.0906 3.140889,-0.14105 0.96641,-0.0401 1.92278,-0.0905 2.90933,-0.1309 1.45969,-0.0504 2.90936,-0.0905 4.36903,-0.0905 z"
     fill="#394246"
     id="path338"
     style="stroke-width:1.00669" />
  <path
     d="m 92.843898,174.55476 c 0.71479,0.32214 1.419464,0.63423 2.154337,0.96642 3.010019,1.09731 5.546885,1.44964 8.728025,1.67112 1.47984,0.12077 1.47984,0.12077 2.97983,0.23154 0.74496,0.0504 1.47983,0.10068 2.24493,0.15096 0,0.6644 0,1.32883 0,2.01338 -4.04691,0.64427 -7.98308,1.15769 -12.080318,1.00669 -2.768426,-2.39593 -2.768426,-2.39593 -4.026804,-5.03347 0,-0.33221 0,-0.66441 0,-1.0067 z"
     fill="#39484e"
     id="path348"
     style="stroke-width:1.00669" />
  <path
     d="m 101.90414,71.872051 c 0.99666,0.33222 1.99326,0.664417 3.0201,1.006706 0.1913,1.469757 0.38254,2.939527 0.56377,4.409317 0.1106,0.815423 0.21149,1.630821 0.32212,2.476464 0.12099,2.174443 0.12099,2.174443 -0.88589,4.187845 -0.66442,0 -1.32884,0 -2.0134,0 -0.33222,-3.986524 -0.66439,-7.973014 -1.0067,-12.080332 z"
     fill="#434c4e"
     id="path368"
     style="stroke-width:1.00669" />
  <path
     d="m 141.16521,222.87602 c 0.9966,0 1.99325,0 3.02004,0 0.33223,3.98652 0.66444,7.97299 1.00671,12.08031 -0.66441,0 -1.32884,0 -2.01337,0 -2.01338,-4.14758 -2.1946,-7.49985 -2.01338,-12.08031 z"
     fill="#293a3f"
     id="path378"
     style="stroke-width:1.00669" />
  <path
     d="m 108.95102,170.52798 c 1.32884,0 2.65766,0 4.02676,0 0,1.32883 0,2.65768 0,4.02678 -1.32883,0 -2.65766,0 -4.02676,0 -0.3322,1.32883 -0.66442,2.65765 -1.00669,4.02676 -0.99665,0 -1.99326,0 -3.02009,0 0,-0.99662 0,-1.99323 0,-3.02006 0.66442,-0.33222 1.32883,-0.66442 2.01338,-1.0067 1.13755,-2.03352 1.13755,-2.03352 2.0134,-4.02678 z"
     fill="#111f24"
     id="path380"
     style="stroke-width:1.00669" />
  <path
     d="m 114.99117,158.44767 c 2.65766,0 5.31533,0 8.05356,0 0,2.01339 0,2.01339 -1.82214,4.14756 -2.20465,1.89259 -2.20465,1.89259 -5.22471,1.89259 -0.33222,-1.99325 -0.66443,-3.98651 -1.00671,-6.04015 z"
     fill="#1b282e"
     id="path382"
     style="stroke-width:1.00669" />
  <path
     d="m 73.716756,112.1398 c 0.996614,0.3322 1.99324,0.66441 3.020063,1.00668 0,3.32208 0,6.64417 0,10.06693 -0.664416,0 -1.328821,0 -2.013378,0 -0.332197,0.66441 -0.664417,1.32884 -1.006685,2.0134 0,-4.31871 0,-8.63744 0,-13.08701 z"
     fill="#0d1c1b"
     id="path384"
     style="stroke-width:1.00669" />
  <path
     d="m 61.636429,63.8185 c -0.191297,2.899291 -0.191297,2.899291 -1.0067,6.040172 -2.395916,1.258367 -2.395916,1.258367 -5.033445,2.013379 -0.996649,0.664417 -1.993258,1.328845 -3.020102,2.013379 C 57.418389,63.8185 57.418389,63.8185 61.636429,63.8185 Z"
     fill="#0d1318"
     id="path386"
     style="stroke-width:1.00669" />
  <path
     d="m 63.649811,47.711434 1.0067,11.073613 h -1.0067 l -1.006681,6.04016 h -5.033464 c 0.64427,-1.137572 1.28856,-2.28519 1.952974,-3.463031 2.180705,-2.558405 2.130124,-13.650742 4.087171,-13.650742 z"
     fill="#354247"
     id="path394"
     style="fill:#90a0bb;fill-opacity:1;stroke-width:1.00669"
     sodipodi:nodetypes="ccccccc" />
  <path
     d="m 141.16521,29.590959 1.0067,4.026763 c 2.15299,-0.154618 2.01334,-0.008 2.01334,2.013382 2.73911,0.01824 3.30852,-0.576871 2.01339,2.013382 l -2.01339,-1.006682 -1.00666,3.020083 -6.04017,-4.026783 3.02008,-1.006681 z"
     fill="#2c4041"
     id="path396"
     sodipodi:nodetypes="ccccccccc"
     style="stroke-width:1.00669" />
  <path
     d="m 170.35929,238.98309 c 2.98988,0.50338 2.98988,0.50338 6.04016,1.00671 l 1.0067,3.02007 3.02006,2.01341 -4.75519,-0.62051 -0.58228,4.82055 -0.70267,-1.17998 c -0.14104,-0.80535 -0.29195,-1.62078 -0.44295,-2.45633 -0.33221,-2.9194 -0.33221,-2.9194 -3.58383,-4.59051 z"
     fill="#364242"
     id="path398"
     sodipodi:nodetypes="cccccccccc"
     style="stroke-width:1.00669" />
  <path
     d="m 128.07817,59.791742 c 1.32884,0 2.65769,0 4.02678,0 0.33222,1.328823 0.66441,2.657668 1.00671,4.026758 -0.99665,0 -1.99327,0 -3.02009,0 0,0.66444 0,1.328857 0,2.013403 -1.32883,0.332196 -2.65767,0.664416 -4.02676,1.006683 0.88587,-4.781794 0.88587,-4.781794 2.01336,-7.046844 z"
     fill="#101b1d"
     id="path408"
     style="stroke-width:1.00669" />
  <path
     d="m 86.803749,55.764961 c 5.657613,-0.251671 5.657613,-0.251671 9.060246,2.013403 0,0.664405 0,1.328821 0,2.013378 -2.657667,0 -5.315345,0 -8.05355,0 -0.332209,-1.328845 -0.664429,-2.657667 -1.006696,-4.026781 z"
     fill="#adbabc"
     id="path410"
     style="stroke-width:1.00669" />
  <path
     d="m 78.750199,50.731496 c 1.610702,-0.03016 3.231488,-0.05029 4.842214,-0.06042 0.906017,-0.01035 1.801977,-0.03016 2.728124,-0.04028 2.496614,0.100697 2.496614,0.100697 5.5167,1.107373 -0.332219,0.996625 -0.664439,1.993239 -1.006707,3.020087 -4.318732,-0.664418 -8.637429,-1.328858 -13.087004,-2.013391 0.332197,-0.664429 0.664406,-1.328845 1.006673,-2.013403 z"
     fill="#2d3d3e"
     id="path412"
     style="stroke-width:1.00669" />
  <path
     d="m 180.42621,237.97641 3.13466,3.34294 -1.10024,2.66418 -5.05448,0.033 c -0.10069,-0.64427 -0.2115,-1.28857 -0.31208,-1.95297 -0.23156,-0.68456 -0.46311,-1.36912 -0.69462,-2.07378 l -3.02009,-1.00669 c 2.50669,-0.69463 4.40932,-1.00671 7.04685,-1.00671 z"
     fill="#4f6168"
     id="path416"
     sodipodi:nodetypes="cccccccc"
     style="stroke-width:1.00669" />
  <path
     d="m 98.884082,161.46773 c 1.661038,0 3.322088,0 5.033468,0 -0.33222,0.99666 -0.66441,1.99326 -1.00671,3.02009 -0.9966,0 -1.99326,0 -3.020068,0 0,0.66443 0,1.32884 0,2.0134 3.493228,-0.50335 3.493228,-0.50335 7.046848,-1.00669 -1.19797,1.51002 -1.19797,1.51002 -3.02007,3.02006 -2.70802,0.19148 -2.70802,0.19148 -5.033468,0 0,-2.32544 0,-4.65093 0,-7.04686 z"
     fill="#283437"
     id="path420"
     style="stroke-width:1.00669" />
  <path
     d="m 84.790371,150.39413 c 2.456335,0.62414 2.456335,0.62414 5.033464,2.01338 0.815422,3.14088 0.815422,3.14088 1.006695,6.04016 -1.892584,-0.25169 -1.892584,-0.25169 -4.026781,-1.0067 -1.731497,-2.59728 -2.013378,-3.87575 -2.013378,-7.04684 z"
     fill="#121f24"
     id="path422"
     style="stroke-width:1.00669" />
  <path
     d="m 121.12785,103.24198 c 2.98986,0.50334 2.89336,0.34092 5.94365,0.84427 l 1.00667,3.02009 c -0.9966,0.50333 -0.9966,0.50333 -2.01336,1.00668 -0.66444,2.54692 -0.66444,2.54692 -1.0067,5.03346 l -3.02008,-2.01338 h 2.01338 c -0.31208,-0.76508 0.66175,-1.20455 0.33961,-1.98978 -0.74495,-1.89259 -2.61891,-3.97857 -3.26317,-5.90134 z"
     fill="#32292f"
     id="path424"
     sodipodi:nodetypes="ccccccccc"
     style="stroke-width:1.00669" />
  <path
     d="m 140.1585,83.952383 c 0.99662,0.332196 1.99326,0.664405 3.02009,1.006672 -0.33223,0.33222 -0.66442,0.664417 -1.00668,1.006706 -0.0705,2.365717 -0.0805,4.741515 -0.0605,7.107253 0.0104,1.298635 0.0202,2.597258 0.0202,3.936163 0.0202,1.006693 0.0302,2.013403 0.0402,3.050293 -1.99327,-0.66442 -3.98653,-1.32882 -6.0402,-2.0134 1.32887,-0.332219 2.65771,-0.664416 4.0268,-1.006707 0,-4.318709 0,-8.637406 0,-13.08698 z"
     fill="#2b3842"
     id="path428"
     style="stroke-width:1.00669" />
  <path
     d="m 145.19196,53.751582 c 3.90597,0.885901 3.90597,0.885901 5.03347,2.013379 1.35902,0.231543 2.71805,0.412746 4.08716,0.563763 1.30871,0.15097 2.61742,0.291928 3.96639,0.442933 0,0.33222 0,0.664416 0,1.006707 -5.97977,0.493271 -5.97977,0.493271 -12.08034,1.006683 -0.33219,-1.661054 -0.66438,-3.322095 -1.00668,-5.033465 z"
     fill="#95a4a7"
     id="path434"
     style="stroke-width:1.00669" />
  <path
     d="m 59.623047,28.584258 h 2.013382 c 1.338917,6.009951 1.097303,12.009849 1.006701,18.120475 -1.469704,0.244652 -1.125837,-1.274173 -1.187906,-1.942922 -0.09059,-0.835547 -0.171032,-1.671114 -0.261736,-2.526805 -0.08045,-0.825474 -0.161104,-1.650969 -0.241615,-2.506659 -0.110644,-2.07379 -0.110644,-2.07379 -1.328826,-3.090543 -0.141041,-2.687865 -0.04032,-5.355609 0,-8.053546 z"
     fill="#9DB3B3"
     id="path436"
     style="fill:#90a0bb;fill-opacity:1;stroke-width:1.00669"
     sodipodi:nodetypes="cccccccc" />
  <path
     d="m 75.23706,36.97837 c 5.797443,0.4152 11.782326,0.558065 18.541224,-0.423731 2.013103,-0.210487 3.654432,-0.884526 7.076946,0.662102 -3.530545,2.706469 -6.397487,4.454528 -11.031395,4.454528 l -18.063029,2.823759 4.424024,-4.712312 z"
     fill="#344a55"
     id="path440"
     sodipodi:nodetypes="ccccccc"
     style="stroke-width:1.00669" />
  <path
     d="m 105.93092,214.82248 c 2.9899,1.99326 2.9899,1.99326 6.04018,4.02677 -0.66442,1.32884 -1.32885,2.65766 -2.01341,4.02677 -0.99661,0 -1.99324,0 -3.02007,0 -0.3322,-2.65768 -0.66442,-5.31537 -1.0067,-8.05354 z"
     fill="#0c1518"
     id="path448"
     style="stroke-width:1.00669" />
  <path
     d="m 144.18525,133.28035 c 3.02009,1.00668 3.02009,1.00668 5.03349,4.02676 0.39261,2.00331 0.73488,4.01671 1.00669,6.04015 -1.32882,-0.6644 -2.65767,-1.32882 -4.02679,-2.01338 0,-1.32883 0,-2.65766 0,-4.02677 -0.66438,0 -1.32883,0 -2.01339,0 0,-1.32882 0,-2.65765 0,-4.02676 z"
     fill="#94A4AB"
     id="path450"
     style="fill:#90a0bb;fill-opacity:1;stroke-width:1.00669" />
  <path
     d="m 98.884082,74.892137 h 2.013378 v 9.060246 h -2.013378 v 3.020063 h -2.01338 v -5.033465 c 0.242978,-2.919719 0.432484,-1.950992 1.0067,-4.02677 z m 0.561933,-0.766487 h 2.013365 v 9.060223 h -2.013365 v 3.020085 h -2.0134 v -5.033464 c 0.242988,-2.919708 0.432453,-1.950991 1.00669,-4.026758 z"
     fill="#f9fdfe"
     id="path472"
     sodipodi:nodetypes="ccccccccc"
     style="fill:#f8feff;fill-opacity:1;stroke-width:1.00669" />
  <path
     d="m 140.86088,71.485867 -0.32872,8.682866 -1.13928,2.4566 -3.20477,-0.291768 0.19191,-6.895988 0.11652,-2.926439 c 1.35143,-0.877097 2.84284,-1.17814 4.36439,-1.025271 z"
     fill="#f9fdfe"
     id="path472-3"
     sodipodi:nodetypes="ccccccc"
     style="fill:#f8feff;fill-opacity:1;stroke-width:1.00669" />
  <path
     d="m 61.699351,71.809133 c 1.459713,0.03016 1.459713,0.03016 2.959693,0.06042 0.332172,1.328845 0.664392,2.657667 1.006659,4.02678 -1.993237,0.996638 -1.993237,0.996638 -4.02676,2.01338 0,-1.328845 0,-2.657667 0,-4.026758 -1.328826,-0.33222 -2.657652,-0.664429 -4.026785,-1.006707 1.006702,-1.006695 1.006702,-1.006695 4.087193,-1.067081 z"
     fill="#141e28"
     id="path474"
     style="stroke-width:1.00669" />
  <path
     d="m 67.676573,68.851965 c 2.65769,0 5.315347,0 8.053552,0 -0.604008,3.382493 -1.862375,5.416024 -4.02677,8.053551 0.33222,-1.993262 0.664417,-3.986502 1.006707,-6.040148 -1.661042,0.332196 -3.322085,0.664416 -5.033489,1.006683 0,-0.996625 0,-1.993262 0,-3.020086 z"
     fill="#404246"
     id="path476"
     style="stroke-width:1.00669" />
  <path
     d="m 66.66989,32.611022 c 0.664417,0.332216 1.328845,0.664433 2.013379,1.0067 0,0.664413 0,1.328827 0,2.013382 -0.664405,0 -1.328823,0 -2.013379,0 0.352337,1.993259 0.352337,1.993259 1.006683,4.026783 0.664429,0.332196 1.328869,0.664413 2.013403,1.006681 -0.664417,0 -1.328823,0 -2.013403,0 -0.332173,2.657672 -0.664393,5.315342 -1.006683,8.05355 -0.332197,0 -0.664406,0 -1.006673,0 -0.03016,-2.305337 -0.05053,-4.610648 -0.06042,-6.926054 -0.01035,-1.278488 -0.03016,-2.567068 -0.04016,-3.885822 0.100696,-3.281819 0.100696,-3.281819 1.107349,-5.29522 z"
     fill="#0f1f20"
     id="path478"
     style="stroke-width:1.00669" />
  <path
     d="m 84.790371,231.93625 c 0.332208,0 0.664405,0 1.006671,0 0,3.32208 0,6.64419 0,10.06693 -0.996602,0.33222 -1.99325,0.66443 -3.020062,1.00669 0,-2.65766 0,-5.31533 0,-8.05354 0.664417,0 1.328856,0 2.013391,0 0,-0.99663 0,-1.99326 0,-3.02008 z"
     fill="#0b1514"
     id="path480"
     style="stroke-width:1.00669" />
  <path
     d="m 141.16521,148.38075 h 2.01338 c -0.0436,8.4137 2.05889,8.05354 -6.04017,8.05354 v -2.0134 h 3.02008 z"
     fill="#283535"
     id="path482"
     sodipodi:nodetypes="cccccc"
     style="stroke-width:1.00669" />
  <path
     d="m 68.683269,118.17994 c 0,2.98988 0,5.97976 0,9.06025 -0.996603,0.50335 -0.996603,0.50335 -2.013379,1.0067 -0.332197,-2.32547 -0.664406,-4.65093 -1.006673,-7.04686 -0.66444,0 -1.32885,0 -2.013406,0 0,-0.66442 0,-1.32883 0,-2.01338 3.020079,-1.00671 3.020079,-1.00671 5.033458,-1.00671 z"
     fill="#0c1617"
     id="path484"
     style="stroke-width:1.00669" />
  <path
     d="m 139.15181,251.06343 c 2.75834,0.37248 4.62072,0.6946 6.85557,2.39593 1.19796,1.63083 1.19796,1.63083 1.19796,4.65091 -0.66439,0 -1.32882,0 -2.01338,0 -1.00671,-1.00669 -2.01337,-2.01338 -3.02005,-3.02008 -0.99666,-0.33221 -1.99327,-0.66441 -3.0201,-1.00668 0,-0.99663 0,-1.99327 0,-3.02008 z"
     fill="#8598A2"
     id="path494"
     style="fill:#90a0bb;fill-opacity:1;stroke-width:1.00669" />
  <path
     d="m 148.21205,248.04334 c 4.45649,-1.019 6.2808,0.39175 7.04684,2.01338 0.52688,1.54099 0.59574,4.14237 -0.008,5.92042 -2.13803,-2.75617 -4.71619,-5.81492 -7.03895,-6.92709 z"
     fill="#99AAAE"
     id="path502"
     style="fill:#90a0bb;fill-opacity:1;stroke-width:1.00669"
     sodipodi:nodetypes="ccccc" />
  <path
     d="m 126.06481,167.50793 c 0,1.32882 0,2.65764 0,4.02676 -1.99326,0.33219 -3.98653,0.66441 -6.04018,1.00667 0.3322,-0.99661 0.66443,-1.99326 1.00669,-3.02008 -0.9966,-0.3322 -1.99326,-0.66441 -3.02008,-1.00669 2.90936,-0.83556 4.92273,-1.00666 8.05357,-1.00666 z"
     fill="#2c393f"
     id="path510"
     style="stroke-width:1.00669" />
  <path
     d="m 114.99117,104.08625 c 3.2918,-0.82597 6.9708,0.80817 9.06024,4.02677 0.4165,1.03365 0.93223,2.13319 -0.42227,2.8519 -3.50568,-0.78407 -6.0787,-1.67439 -7.78111,-3.57228 -1.43372,-1.2444 -1.82716,-2.58235 -0.85686,-3.30639 z"
     fill="#C6B1BA"
     id="path516"
     style="fill:#f0eaed;fill-opacity:1;stroke-width:1.00669"
     sodipodi:nodetypes="ccccc" />
  <path
     d="m 125.05811,159.45438 c 0.66442,0 1.32882,0 2.01339,0 -0.3322,2.32545 -0.66442,4.6509 -1.00669,7.04684 -1.32885,0 -2.65769,0 -4.02678,0 0.61406,-2.97982 1.25836,-4.40932 3.02008,-7.04684 z"
     fill="#A2B0B6"
     id="path526"
     style="fill:#78879e;fill-opacity:1;stroke-width:1.00669" />
  <path
     d="m 135.12501,140.3272 c 0.69465,1.76172 0.69465,1.76172 1.00671,4.02676 -1.25835,2.26507 -1.25835,2.26507 -3.02006,4.02679 -0.99665,0 -1.99327,0 -3.02009,0 0,-0.66444 0,-1.32883 0,-2.0134 0.66442,0 1.32883,0 2.01338,0 0,-1.32883 0,-2.65766 0,-4.02675 0.99664,-0.66443 1.99326,-1.32884 3.02006,-2.0134 z"
     fill="#141f24"
     id="path528"
     style="stroke-width:1.00669" />
  <path
     d="m 163.31243,246.02994 2.01339,2.0134 c 2.22478,0.2416 2.22478,0.2416 4.65093,0.12097 0.8255,-0.0104 4.41503,-0.78774 5.26067,-0.80785 0.63422,-0.0202 -0.61672,1.17587 0.0375,1.15571 l -1.89568,2.55144 -9.06025,-1.00669 -1.0067,2.01338 z"
     fill="#1e2f31"
     id="path538"
     sodipodi:nodetypes="ccccccccc"
     style="stroke-width:1.00669" />
  <path
     d="m 169.35261,242.00318 c 4.41517,-1.94095 7.50662,0.11997 6.04016,6.04016 h -2.01341 c -0.72992,-2.23497 -1.9263,-2.31992 -4.02675,-3.02006 z"
     fill="#828C8B"
     id="path540"
     style="fill:#90a0bb;fill-opacity:1;stroke-width:1.00669"
     sodipodi:nodetypes="ccccc" />
  <path
     d="m 151.23212,239.9898 c 4.78179,0.75501 4.78179,0.75501 7.04686,3.02007 -0.66444,0.66442 -1.32883,1.32883 -2.01339,2.01341 -1.96304,-0.24164 -1.96304,-0.24164 -4.14758,-0.88591 -0.73489,-0.20142 -1.4597,-0.40269 -2.21473,-0.61407 -0.55368,-0.17104 -1.11742,-0.34229 -1.69123,-0.51343 0.9966,-0.3322 1.99325,-0.6644 3.02007,-1.00669 0,-0.66442 0,-1.32884 0,-2.01338 z"
     fill="#7D8D92"
     id="path542"
     style="fill:#90a0bb;fill-opacity:1;stroke-width:1.00669" />
  <path
     d="m 81.770308,234.95633 c 0.332173,0 0.664394,0 1.006672,0 0,2.65767 0,5.31533 0,8.05354 0.996637,-0.3322 1.993238,-0.6644 3.020062,-1.00669 0,0.66443 0,1.32884 0,2.0134 -0.664382,0 -1.328821,0 -2.013378,0 0,0.9966 0,1.99324 0,3.02007 -0.996603,0 -1.993239,0 -3.020063,0 0.33222,-3.98651 0.664394,-7.97302 1.006707,-12.08032 z"
     fill="#202a2f"
     id="path544"
     style="stroke-width:1.00669" />
  <path
     d="m 109.07682,240.17856 c 2.8993,0.8154 2.8993,0.8154 4.9127,2.82881 -3.99657,0 -7.98309,0 -12.08034,0 4.02679,-3.02009 4.02679,-3.02009 7.16764,-2.82881 z"
     fill="#0e1616"
     id="path546"
     style="stroke-width:1.00669" />
  <path
     d="m 181.43292,232.94294 c 1.52823,0.5126 2.41144,1.71969 2.38153,2.52049 -4.03525,1.7468 -6.4083,-2.35413 -6.4083,1.50631 h -3.02008 c 0.68568,-5.66598 3.87441,-4.1485 7.04685,-4.0268 z"
     fill="#34454c"
     id="path548"
     sodipodi:nodetypes="ccccc"
     style="stroke-width:1.00669" />
  <path
     d="m 137.13842,249.05005 c 2.65768,0 5.31534,0 8.05354,0 0.3322,0.9966 0.66442,1.99323 1.00668,3.02007 -2.98987,-0.33221 -5.97973,-0.66443 -9.06022,-1.00669 0,-0.66445 0,-1.32883 0,-2.01338 z"
     fill="#32454a"
     id="path564"
     style="stroke-width:1.00669" />
  <path
     d="m 70.696671,133.28035 c -0.664429,1.66102 -1.328845,3.32206 -2.013402,5.03347 -0.664405,0 -1.328823,0 -2.013379,0 0,-0.99665 0,-1.99326 0,-3.02009 -0.996625,-0.33222 -1.993235,-0.66441 -3.020079,-1.0067 3.644227,-2.13418 3.644227,-2.13418 7.04686,-1.00668 z"
     fill="#232d30"
     id="path568"
     style="stroke-width:1.00669" />
  <path
     d="m 119.01794,101.06617 c 1.51182,0.74656 2.71229,1.33486 3.51732,2.77233 l 1.51615,4.27452 c -0.55651,-1.0004 -2.33142,-2.10379 -3.18709,-2.5568 -2.40601,-1.16776 -3.54049,-1.88538 -5.87315,-1.46997 l -0.0913,-1.26853 z"
     fill="#473c43"
     id="path570"
     sodipodi:nodetypes="ccccccc"
     style="stroke-width:1.00669" />
  <path
     d="m 126.06481,59.791742 c 0.3322,0.996625 0.6644,1.993239 1.00669,3.020087 -0.3322,0.664405 -0.66442,1.328821 -1.00669,2.013378 -1.32885,0 -2.65769,0 -4.02678,0 -0.67449,-1.338904 -1.33892,-2.687866 -2.0134,-4.026781 2.09393,-0.553669 3.86571,-1.006684 6.04018,-1.006684 z"
     fill="#1c282a"
     id="path574"
     style="stroke-width:1.00669" />
  <path
     d="m 25.395481,49.724812 c 0.664413,0 1.328827,0 2.013383,0 0,1.328823 0,2.657679 0,4.02677 0.664432,0 1.328845,0 2.0134,0 -0.332217,1.328845 -0.664432,2.657667 -1.006701,4.026782 -0.99661,-0.33222 -1.993258,-0.66444 -3.020082,-1.006707 0,-2.325448 0,-4.65093 0,-7.046845 z"
     fill="#07171e"
     id="path576"
     style="stroke-width:1.00669" />
  <path
     d="m 50.5628,210.79572 c 1.328846,0 2.657692,0 4.026784,0 0.332216,0.9966 0.664413,1.99324 1.0067,3.02006 -0.664432,0.66443 -1.328846,1.32882 -2.013401,2.0134 -0.996609,0 -1.993259,0 -3.020083,0 0,-1.66106 0,-3.3221 0,-5.03346 z"
     fill="#0c161b"
     id="path582"
     style="stroke-width:1.00669" />
  <path
     d="m 105.93092,172.54136 c -0.99661,0.50334 -0.99661,0.50334 -2.01337,1.0067 -0.66441,-0.33222 -1.32883,-0.66442 -2.01341,-1.0067 0,0.99664 0,1.99326 0,3.0201 -0.99661,0 -1.993221,0 -3.020058,0 -0.332224,-1.32884 -0.664418,-2.65769 -1.00668,-4.02677 3.644208,-1.2181 4.671048,-0.54362 8.053518,1.00667 z"
     fill="#27353a"
     id="path584"
     style="stroke-width:1.00669" />
  <path
     d="m 93.850594,165.49453 c 1.328845,0 2.657689,0 4.026808,0 1.067092,1.82211 1.067092,1.82211 2.01337,4.02675 -0.332204,0.99665 -0.664428,1.99326 -1.00669,3.02008 -2.355662,-2.14425 -3.734831,-4.14758 -5.033488,-7.04683 z"
     fill="#525F62"
     id="path586"
     style="fill:#525762;fill-opacity:1;stroke-width:1.00669" />
  <path
     d="m 83.783664,155.42759 c 0.996636,0 1.993261,0 3.020085,0 0,0.66443 0,1.32882 0,2.01338 1.328823,0.66442 2.657668,1.32884 4.026781,2.01341 -1.661041,0 -3.322084,0 -5.033488,0 -0.332196,0.99661 -0.664382,1.99323 -1.006671,3.02006 -0.332198,-2.32546 -0.664418,-4.6509 -1.006707,-7.04685 z"
     fill="#3f4a4e"
     id="path588"
     style="stroke-width:1.00669" />
  <path
     d="m 140.24527,154.32127 -3.4173,-5.60134 c 0.008,-0.82114 0.28895,-1.89431 0.75138,-3.19561 2.63029,1.40009 2.68183,6.69039 2.66592,8.79695 z"
     fill="#8D9592"
     id="path590"
     style="fill:#90a0bb;fill-opacity:1;stroke-width:1.00669"
     sodipodi:nodetypes="cccc" />
  <path
     d="m 145.28396,149.32195 -4.68664,-5.3011 c 0.008,-0.82112 0.34615,-3.08682 0.80857,-4.38814 2.63031,1.40012 3.89397,7.58271 3.87807,9.68924 z"
     fill="#8D9592"
     id="path590-6"
     style="fill:#90a0bb;fill-opacity:1;stroke-width:1.00669"
     sodipodi:nodetypes="cccc" />
  <path
     d="m 76.736819,52.744899 c 0.33222,1.661041 0.66444,3.322083 1.006707,5.033465 -2.657678,-0.33222 -5.315323,-0.66444 -8.05355,-1.006707 3.644234,-4.026758 3.644234,-4.026758 7.046843,-4.026758 z"
     fill="#09171b"
     id="path596"
     style="stroke-width:1.00669" />
  <path
     d="m 48.549439,235.96303 c 0.99661,0.33219 1.993219,0.66442 3.020062,1.00671 -0.332217,2.32545 -0.664412,4.6509 -1.006701,7.04684 -0.664412,0 -1.328825,0 -2.013361,0 0,-2.65769 0,-5.31534 0,-8.05355 z"
     fill="#0d151b"
     id="path600"
     style="stroke-width:1.00669" />
  <path
     d="m 84.790371,214.82248 c 0.664405,0 1.328845,0 2.013378,0 -0.81541,3.46301 -0.81541,3.46301 -2.013378,7.04684 -0.996638,0.33222 -1.993239,0.66444 -3.020063,1.0067 0.553668,-3.39254 1.05701,-5.11399 3.020063,-8.05354 z"
     fill="#BACACB"
     id="path606"
     style="fill:#90a0bb;fill-opacity:1;stroke-width:1.00669" />
  <path
     d="m 28.415563,67.845292 c 0.996609,0.332198 1.99326,0.664407 3.020083,1.006673 0,1.328845 0,2.657679 0,4.026792 0.996629,0.332186 1.993238,0.664406 3.020062,1.006673 0,0.996637 0,1.993262 0,3.020086 -0.664392,0 -1.328825,0 -2.013382,0 0,-0.664417 0,-1.328823 0,-2.013379 -0.664412,0 -1.328824,0 -2.013361,0 0,-1.661042 0,-3.322085 0,-5.033465 -0.664432,0 -1.328846,0 -2.013402,0 0,-0.664417 0,-1.328845 0,-2.01338 z"
     fill="#0a1923"
     id="path616"
     style="stroke-width:1.00669" />
  <path
     d="m 35.462409,246.02994 c 1.328826,0 2.657672,0 4.026784,0 0,0.66444 0,1.32886 0,2.0134 -0.99663,0 -1.99326,0 -3.020082,0 0,0.99664 0,1.99326 0,3.02009 -0.996631,0 -1.993261,0 -3.020083,0 0.885883,-3.90599 0.885883,-3.90599 2.013381,-5.03349 z"
     fill="#0f1518"
     id="path630"
     style="stroke-width:1.00669" />
  <path
     d="m 177.21264,235.08945 c 5.01695,-0.54154 8.4825,1.77274 6.23366,6.91373 l -3.02009,-1.00668 z"
     fill="#889DAA"
     id="path632"
     style="fill:#90a0bb;fill-opacity:1;stroke-width:1.00669"
     sodipodi:nodetypes="cccc" />
  <path
     d="m 83.783664,149.38744 c 0.996636,0.33217 1.993261,0.6644 3.020085,1.00669 -0.664394,0 -1.328821,0 -2.013378,0 0.332208,1.66104 0.664405,3.32206 1.006671,5.03346 -0.664382,0 -1.328821,0 -2.013378,0 -0.332198,0.99661 -0.664405,1.99325 -1.006684,3.02008 -0.664405,-1.66104 -1.328845,-3.32209 -2.013379,-5.03348 0.996614,0 1.993261,0 3.020063,0 0,-1.32884 0,-2.65765 0,-4.02675 z"
     fill="#283336"
     id="path636"
     style="stroke-width:1.00669" />
  <path
     d="m 93.850594,62.811829 c 0.664427,0.332196 1.328845,0.664405 2.013401,1.006671 0,0.996637 0,1.993262 0,3.020086 0.996618,0 1.99326,0 3.020087,0 0,0.664417 0,1.328845 0,2.013379 -1.661039,-0.332197 -3.322085,-0.664405 -5.033488,-1.006673 0,-0.996636 0,-1.993261 0,-3.020085 -0.996614,-0.33222 -1.99324,-0.664416 -3.020064,-1.006707 0.996626,-0.332197 1.99324,-0.664405 3.020064,-1.006671 z"
     fill="#465052"
     id="path640"
     style="stroke-width:1.00669" />
  <path
     d="m 134.94002,66.488862 c -6.79516,3.020063 -6.45305,2.361849 -8.71812,2.361849 l -2.62529,-2.776863 c 2.97982,-1.228179 8.32335,-0.561495 11.34341,0.415014 z"
     fill="#dde3e5"
     id="path642"
     sodipodi:nodetypes="cccc"
     style="stroke-width:1.00669" />
  <path
     d="m 62.64313,26.570877 c 1.328826,0.332196 2.657646,0.664413 4.02676,1.00668 -0.664406,2.325476 -1.328845,4.650931 -2.013379,7.046866 -0.332217,0 -0.664412,0 -1.0067,0 -0.332197,-2.657672 -0.664413,-5.315343 -1.006681,-8.053546 z"
     fill="#0b202d"
     id="path644"
     style="stroke-width:1.00669" />
  <path
     d="m 56.602965,165.49453 c 0.664413,0 1.328846,0 2.013382,0 -0.332196,1.66104 -0.664413,3.32207 -1.006681,5.03345 -0.99663,0.33222 -1.993258,0.66441 -3.020082,1.00671 0,-1.32885 0,-2.65767 0,-4.02676 0.664413,0 1.328825,0 2.013381,0 0,-0.66444 0,-1.32887 0,-2.0134 z"
     fill="#0c1b1d"
     id="path660"
     style="stroke-width:1.00669" />
  <path
     d="m 130.09157,157.44097 c 0.66442,0 1.32883,0 2.01338,0 -0.56375,3.29189 -1.51002,4.86235 -4.02678,7.04685 -0.12077,-2.39592 -0.12077,-2.39592 0,-5.03344 0.66444,-0.66444 1.32884,-1.32885 2.0134,-2.01341 z"
     fill="#2c383e"
     id="path662"
     style="stroke-width:1.00669" />
  <path
     d="m 70.696671,148.38075 c 1.661043,0 3.322084,0 5.033454,0 -1.993239,2.98986 -1.993239,2.98986 -4.02677,6.04014 -0.664406,-0.9966 -1.328822,-1.99325 -2.013379,-3.02008 0.33222,-0.99661 0.664417,-1.99323 1.006695,-3.02006 z"
     fill="#0a1820"
     id="path666"
     style="stroke-width:1.00669" />
  <path
     d="m 71.703355,131.26697 c 0.33222,0.99661 0.664417,1.99325 1.006707,3.02006 2.033518,0.73488 2.033518,0.73488 4.026757,1.0067 0.33222,1.32883 0.66444,2.65767 1.006707,4.02678 -0.664416,0 -1.328845,0 -2.013401,0 -0.332198,-0.66442 -0.664394,-1.32884 -1.006684,-2.0134 -0.996625,-0.33221 -1.993239,-0.66442 -3.020086,-1.0067 0,-1.66104 0,-3.32207 0,-5.03344 z"
     fill="#334046"
     id="path668"
     style="stroke-width:1.00669" />
  <path
     d="m 70.781283,95.853778 3.065959,1.862938 c -0.261741,2.355674 -0.593949,4.711354 -1.006684,7.046874 -0.996648,0.50335 -0.996648,0.50335 -2.013379,1.00669 z"
     fill="#0f2632"
     id="path674"
     sodipodi:nodetypes="ccccc"
     style="stroke-width:1.00669" />
  <path
     style="fill:#fbc741;fill-opacity:1;stroke:#001126;stroke-width:0"
     d="M 98.934984,64.942112 C 100.157,61.993379 99.210799,58.670444 98.083875,55.31632 l -1.660337,2.917866 c -0.227322,-3.784374 -3.591839,-7.018049 -8.448646,-9.98973 l -0.224408,4.664417 C 85.407153,50.706592 80.098057,50.394132 74.611738,50.19463 l 5.179245,4.920208 c -5.692357,-1.180878 -10.243047,0.90436 -15.058601,2.231905 l 6.040591,3.280262 c -3.323303,0.36197 -6.029567,1.63448 -8.501879,3.252215 l 3.096075,1.422203 c -2.905853,1.423435 -3.69321,4.032478 -5.02236,6.338292 l 5.132049,-1.209812 -1.076551,7.285602 c 3.332498,-2.721459 6.430681,-6.149549 9.162361,-10.682941 l -1.320824,8.273677 c 3.303383,-3.638744 7.398168,-6.963177 8.924858,-11.307527 l -0.11267,3.970193 c 2.654698,-1.351978 5.536554,-1.684267 7.699385,-5.244015 l -1.198038,4.86675 7.508697,-0.745253 c 2.199242,-0.320033 3.29215,-1.023129 3.870908,-1.904277 z"
     id="path615"
     sodipodi:nodetypes="cccccccccccccccccccccc" />
  <path
     style="fill:#fbc741;fill-opacity:1;stroke:#001126;stroke-width:0"
     d="m 116.9847,62.192157 c -1.91837,-4.567158 0.1844,-6.907325 1.09494,-9.907776 l 3.34842,3.252502 c -0.28266,-3.994419 1.38202,-6.850783 2.99638,-9.736577 l 1.49262,5.303069 c 2.60885,-3.163403 6.6145,-4.442332 10.32296,-6.122242 l -2.06685,5.270879 c 5.70454,-2.404235 9.84831,-1.569135 14.1856,-1.135718 l -5.16144,4.223635 c 6.46284,-1.023348 10.86942,1.11383 15.38598,3.08198 l -5.97374,2.666311 c 6.62004,0.569366 9.25641,3.23639 12.95814,5.342436 l -6.58444,-0.230632 c 4.7903,2.605613 5.71191,6.070829 7.65031,9.227305 l -8.17214,-2.51953 -2.58265,5.817952 c -2.23812,-3.35508 -4.8553,-6.594762 -5.77143,-10.35231 l -2.02675,6.278009 c -3.12649,-3.392977 -4.96101,-7.681982 -6.8809,-11.911798 l 0.18826,4.954561 c -3.29376,-1.844525 -6.38983,-3.826047 -8.5355,-6.466371 l 1.35716,3.784524 c -3.07787,0.670689 -6.06832,1.13985 -8.27459,-0.19758 l 1.34994,4.003027 -8.28173,-2.725718 c -0.86158,-0.317581 -1.43983,-1.109237 -2.01865,-1.899916 z"
     id="path617"
     sodipodi:nodetypes="cccccccccccccccccccccccccc" />
  <path
     style="fill:#111111;fill-opacity:1;stroke:#001126;stroke-width:0"
     d="m 80.5767,121.93567 c 3.734347,7.35772 6.70559,14.8411 22.93807,15.44539 l 3.97887,0.74254 -3.54351,1.28734 c -13.909507,-0.94689 -24.326875,-4.33537 -26.976762,-16.7387 l -0.481912,-3.03187 z"
     id="path1330"
     sodipodi:nodetypes="ccccccc" />
  <path
     style="fill:#000000;fill-opacity:1;stroke:#001126;stroke-width:0"
     d="m 108.44178,130.28285 1.13192,2.97324 1.10673,-2.9988 z"
     id="path1386" />
  <path
     style="fill:#e98f3a;fill-opacity:1;stroke:#001126;stroke-width:0"
     d="m 98.943803,64.811731 c -10.299109,-1.111609 -15.44461,-9.367239 -33.688291,0.533931 -3.203235,1.710184 -3.797877,4.039671 -4.856131,6.2591 l 5.004673,-1.045467 -0.983016,7.044438 c 6.664349,-5.331515 7.105349,-7.007012 8.656621,-9.838874 l -0.886614,7.415477 c 3.594332,-3.262492 6.963533,-6.645975 8.841202,-10.831448 l -0.08309,3.52955 c 3.635556,-0.777144 6.247384,-2.396962 7.620066,-5.036722 l -1.100123,4.65063 6.822115,-0.550631 c 2.781062,-0.06422 4.279926,-0.801646 4.652526,-2.129984 z"
     id="path1636"
     sodipodi:nodetypes="ccccccccccccc" />
  <path
     style="fill:#e98f3a;stroke:#001126;stroke-width:0"
     d="m 116.99738,62.314045 1.48536,1.592059 8.75919,2.987908 -1.31264,-4.198628 c 2.27468,1.830679 5.27489,1.034224 8.26717,0.266321 l -1.34514,-3.694227 c 1.83215,2.186791 3.80723,4.363661 8.59055,6.345737 l -0.25697,-4.452566 c 1.82463,3.990794 3.53164,8.003983 6.82476,11.715392 l 2.04273,-5.965296 c 1.15585,3.933527 3.59553,6.923138 5.83209,10.062085 -4.50606,-25.915881 -21.54879,-20.654914 -38.8871,-14.658785 z"
     id="path629"
     sodipodi:nodetypes="cccccccccccc" />
  <ellipse
     style="fill:#315336;fill-opacity:1;stroke:#001126;stroke-width:0"
     id="path1420"
     cx="122.57526"
     cy="80.112495"
     rx="6.0276198"
     ry="5.721458" />
  <ellipse
     style="fill:#315336;fill-opacity:1;stroke:#001126;stroke-width:0"
     id="path1420-5"
     cx="90.741264"
     cy="83.615509"
     rx="6.0276198"
     ry="5.721458" />
  <ellipse
     style="fill:#000000;fill-opacity:1;stroke:#001126;stroke-width:0"
     id="path2252"
     cx="122.60641"
     cy="80.044975"
     rx="3.4135072"
     ry="3.1327078" />
  <ellipse
     style="fill:#000000;fill-opacity:1;stroke:#001126;stroke-width:0"
     id="path2252-3"
     cx="90.784866"
     cy="83.59758"
     rx="3.4135072"
     ry="3.1327078" />
  <path
     style="fill:#061223;fill-opacity:1;stroke:#001126;stroke-width:0"
     d="m 47.39426,183.06865 c -0.628707,-2.11737 -0.987571,-3.55123 -2.959998,-5.17816 l -2.177808,2.3637 c -0.435059,-2.36098 -0.45204,-4.4093 -2.225064,-7.23353 -2.800212,2.87763 -3.100857,-5.31668 -4.54128,-8.2936 l -2.151422,5.98817 c -0.71931,-6.19263 -2.306104,-7.82712 -3.831678,-10.38906 -0.901933,11.25328 0.566293,10.18647 -8.520258,4.58544 1.953682,2.60322 1.947341,7.61283 2.958174,10.70666 0.715479,4.80714 5.566583,5.70428 -2.252787,6.74893 3.242872,2.69415 5.52569,7.16736 10.007898,7.56496 -0.470522,2.36643 -0.505417,2.26308 -2.937788,3.46553 5.676356,0.51359 8.17649,1.21932 5.669973,6.13224 3.652821,1.59002 5.0853,2.12439 9.452081,1.01052 l 4.322301,-8.82343 z"
     id="path4008"
     sodipodi:nodetypes="cccccccccccccccc" />
  <path
     style="fill:#344a55;fill-opacity:1;stroke:#001126;stroke-width:0"
     d="m 130.13336,16.491689 1.65583,2.615339 0.9822,9.803327 1.52134,4.659745 c -1.23133,-0.589008 -2.49588,-1.118905 -3.43556,-2.227313 -1.16127,-1.551574 -1.17238,-3.507789 -1.17569,-5.46674 0.11002,-3.133826 -0.13173,-6.316938 0.45188,-9.384358 z"
     id="path8711"
     sodipodi:nodetypes="ccccccc" />
</svg>
