<svg width="512" height="156" viewBox="0 0 512 156" fill="none" xmlns="http://www.w3.org/2000/svg">
<g id="Frame 2" clip-path="url(#clip0_19_40)">
<path id="Rectangle 9" d="M512 28H275.967C273.776 28 272 26.2241 272 24.0334V22.8999C272 16.3278 277.328 11 283.9 11H500.1C506.672 11 512 16.3278 512 22.8999V28Z" fill="url(#paint0_linear_19_40)"/>
<path id="Rectangle 11" d="M512 28H367.967C365.776 28 364 26.2241 364 24.0334V22.8999C364 16.3278 369.328 11 375.9 11H500.1C506.672 11 512 16.3278 512 22.8999V28Z" fill="url(#paint1_linear_19_40)"/>
<path id="Rectangle 10" d="M498.968 52.0002C496.776 52.0001 495 50.2236 495 48.0324V14.9666C495 12.7759 496.776 11.0001 498.967 11.0002L500.1 11.0002C506.672 11.0005 512 16.3286 512 22.9007V48.0342C512 50.2249 510.224 52.0007 508.033 52.0006L498.968 52.0002Z" fill="url(#paint2_linear_19_40)"/>
<circle id="Ellipse 3" cx="279" cy="17" r="2" fill="#D9D9D9"/>
<path id="Rectangle 12" d="M2 139H231.033C233.224 139 234.999 140.776 234.998 142.967L234.998 144.1C234.995 150.672 229.666 156 223.094 156H13.8933C7.32119 156 1.99548 150.672 1.99803 144.1L2 139Z" fill="url(#paint3_linear_19_40)"/>
<path id="Rectangle 14" d="M0 139H158.033C160.224 139 161.999 140.776 161.998 142.967L161.998 144.1C161.995 150.672 156.666 156 150.094 156H11.8933C5.3212 156 -0.00451826 150.672 -0.00197422 144.1L0 139Z" fill="url(#paint4_linear_19_40)"/>
<path id="Rectangle 13" d="M13.0334 115.001C15.2241 115.001 17 116.776 17 118.967L17 152.033C17 154.224 15.2241 156.001 13.0334 156.001L11.8999 156.002C5.32777 156.004 0 150.678 0 144.106L0 118.972C0 116.782 1.77592 115.005 3.96664 115.004L13.0334 115.001Z" fill="url(#paint5_linear_19_40)"/>
<circle id="Ellipse 4" cx="2" cy="2" r="2" transform="matrix(-1 0 0.000387095 -1 229 151)" fill="#D9D9D9"/>
<g id="snkmt">
<path d="M27.7932 100.913L43.0031 98.52C43.8576 104.615 46.2217 109.287 50.0954 112.534C54.0261 115.781 59.4948 117.404 66.5017 117.404C73.5655 117.404 78.8064 115.98 82.2243 113.132C85.6423 110.227 87.3513 106.837 87.3513 102.963C87.3513 99.4884 85.8417 96.7541 82.8225 94.7603C80.7147 93.3931 75.4738 91.6556 67.0998 89.5479C55.8205 86.6995 47.9877 84.25 43.6013 82.1992C39.2718 80.0915 35.9678 77.2147 33.6892 73.5688C31.4675 69.866 30.3566 65.793 30.3566 61.3496C30.3566 57.305 31.2681 53.5737 33.091 50.1558C34.9709 46.6808 37.5059 43.804 40.696 41.5254C43.0886 39.7594 46.3356 38.2783 50.4372 37.082C54.5957 35.8288 59.0391 35.2021 63.7673 35.2021C70.8881 35.2021 77.1258 36.2275 82.4807 38.2783C87.8925 40.3291 91.8801 43.1204 94.4436 46.6523C97.007 50.1273 98.773 54.7985 99.7414 60.666L84.7023 62.7168C84.0188 58.0456 82.0249 54.3997 78.7209 51.7793C75.4738 49.1589 70.8596 47.8486 64.8781 47.8486C57.8143 47.8486 52.7728 49.0164 49.7536 51.3521C46.7344 53.6877 45.2248 56.422 45.2248 59.5552C45.2248 61.549 45.8514 63.3434 47.1047 64.9385C48.3579 66.5905 50.3233 67.9577 53.0007 69.04C54.5388 69.6097 59.0676 70.9199 66.5871 72.9707C77.4676 75.876 85.0441 78.2686 89.3166 80.1484C93.646 81.9714 97.0355 84.6488 99.4851 88.1807C101.935 91.7126 103.159 96.099 103.159 101.34C103.159 106.467 101.65 111.309 98.6306 115.866C95.6683 120.367 91.3674 123.87 85.7277 126.376C80.0881 128.826 73.7079 130.051 66.5871 130.051C54.7951 130.051 45.7945 127.601 39.5852 122.702C33.4328 117.803 29.5022 110.54 27.7932 100.913ZM121.446 128V37.2529H135.288V50.1558C141.953 40.1867 151.581 35.2021 164.17 35.2021C169.639 35.2021 174.652 36.1991 179.209 38.1929C183.823 40.1297 187.27 42.6932 189.549 45.8833C191.827 49.0734 193.422 52.8617 194.334 57.248C194.903 60.0964 195.188 65.0809 195.188 72.2017V128H179.807V72.7998C179.807 66.5335 179.209 61.8623 178.013 58.7861C176.817 55.653 174.68 53.175 171.604 51.3521C168.585 49.4722 165.025 48.5322 160.923 48.5322C154.372 48.5322 148.704 50.6115 143.919 54.77C139.19 58.9285 136.826 66.8184 136.826 78.4395V128H121.446ZM218.943 128V2.73145H234.324V74.167L270.725 37.2529H290.635L255.943 70.9199L294.138 128H275.169L245.176 81.6011L234.324 92.0259V128H218.943Z" fill="#039475"/>
<path d="M306.358 128V37.2529H320.115V49.9849C322.963 45.5415 326.751 41.9811 331.48 39.3037C336.208 36.5693 341.591 35.2021 347.63 35.2021C354.352 35.2021 359.849 36.5978 364.121 39.3892C368.451 42.1805 371.498 46.0827 373.264 51.0957C380.442 40.5 389.785 35.2021 401.292 35.2021C410.292 35.2021 417.214 37.7087 422.056 42.7217C426.898 47.6777 429.319 55.3397 429.319 65.7075V128H414.024V70.8345C414.024 64.6821 413.511 60.2673 412.486 57.5898C411.517 54.8555 409.723 52.6623 407.102 51.0103C404.482 49.3582 401.406 48.5322 397.874 48.5322C391.494 48.5322 386.196 50.6685 381.98 54.9409C377.765 59.1564 375.657 65.9354 375.657 75.2778V128H360.276V69.04C360.276 62.2041 359.023 57.0771 356.516 53.6592C354.01 50.2412 349.908 48.5322 344.212 48.5322C339.882 48.5322 335.866 49.6715 332.163 51.9502C328.517 54.2288 325.869 57.5614 324.216 61.9478C322.564 66.3341 321.738 72.6574 321.738 80.9175V128H306.358ZM485.716 114.243L487.937 127.829C483.608 128.741 479.734 129.196 476.316 129.196C470.733 129.196 466.404 128.313 463.328 126.547C460.252 124.781 458.087 122.474 456.834 119.626C455.58 116.721 454.954 110.654 454.954 101.425V49.2158H443.674V37.2529H454.954V14.7798L470.249 5.55127V37.2529H485.716V49.2158H470.249V102.28C470.249 106.666 470.506 109.486 471.018 110.739C471.588 111.993 472.471 112.989 473.667 113.73C474.92 114.471 476.686 114.841 478.965 114.841C480.674 114.841 482.924 114.641 485.716 114.243Z" fill="#4F635B"/>
</g>
</g>
<defs>
<linearGradient id="paint0_linear_19_40" x1="512" y1="19.5" x2="272" y2="19.5" gradientUnits="userSpaceOnUse">
<stop offset="0.000189007" stop-color="#B3D890"/>
<stop offset="0.75" stop-color="#5BB682"/>
<stop offset="1" stop-color="#039475"/>
</linearGradient>
<linearGradient id="paint1_linear_19_40" x1="512" y1="19.5" x2="364" y2="19.5" gradientUnits="userSpaceOnUse">
<stop offset="0.000189007" stop-color="#B3D890"/>
<stop offset="0.75" stop-color="#5BB682"/>
<stop offset="1" stop-color="#039475"/>
</linearGradient>
<linearGradient id="paint2_linear_19_40" x1="503.5" y1="52.0004" x2="503.502" y2="11.0004" gradientUnits="userSpaceOnUse">
<stop offset="0.000189007" stop-color="#B3D890"/>
<stop offset="0.956731" stop-color="#87C789"/>
</linearGradient>
<linearGradient id="paint3_linear_19_40" x1="1.99671" y1="147.5" x2="234.997" y2="147.59" gradientUnits="userSpaceOnUse">
<stop offset="0.000189007" stop-color="#B3D890"/>
<stop offset="0.75" stop-color="#5BB682"/>
<stop offset="1" stop-color="#039475"/>
</linearGradient>
<linearGradient id="paint4_linear_19_40" x1="-0.0032903" y1="147.5" x2="161.997" y2="147.563" gradientUnits="userSpaceOnUse">
<stop offset="0.000189007" stop-color="#B3D890"/>
<stop offset="0.75" stop-color="#5BB682"/>
<stop offset="1" stop-color="#039475"/>
</linearGradient>
<linearGradient id="paint5_linear_19_40" x1="8.5" y1="115.003" x2="8.51397" y2="156.003" gradientUnits="userSpaceOnUse">
<stop offset="0.000189007" stop-color="#B3D890"/>
<stop offset="0.956731" stop-color="#87C789"/>
</linearGradient>
<clipPath id="clip0_19_40">
<rect width="512" height="156" fill="white"/>
</clipPath>
</defs>
</svg>
