<?xml version="1.0" encoding="UTF-8"?>
<svg id="Ebene_1" xmlns="http://www.w3.org/2000/svg" viewBox="0 0 579.24 568.16" width="579.24" height="568.16">
  <defs>
    <style>.cls-1{fill:#ffffff88;}</style>
    <!--
    ffffff88 is white with 50% transparency; this matches the colour of the tesa strip on
    ebd.hochfrequenz.de where it crosses the diagram SVG:
    https://github.com/Hochfrequenz/entscheidungsbaumdiagramme/blob/01bd43fa0f1d0333fa93596bc8b9fd1e4b285c8c/src/lib/components/features/svg-container.svelte#L54
    -->
  </defs>
  <path class="cls-1" d="M122.44,531.2h-56.1c-11,0-19.9-9.12-19.46-20.11C57.47,243.89,278.15,29.78,547.91,29.78v56.02c0,10.98-8.69,19.89-19.66,20.39-225.51,10.31-405.8,197-405.8,425Z"/>
  <path class="cls-1" d="M273.78,531.2h-55.93c-11.23,0-20.09-9.48-19.43-20.69,10.74-183.44,163.39-329.39,349.48-329.39v56.26c0,10.71-8.27,19.62-18.96,20.35-142.35,9.77-255.17,128.69-255.17,273.46Z"/>
  <path class="cls-1" d="M425.77,531.2h-55.45c-11.65,0-20.6-10.17-19.33-21.75,10.87-99.03,95.03-176.34,196.92-176.34v57.01c0,10.05-7.28,18.75-17.23,20.16-59.22,8.4-104.91,59.42-104.91,120.92Z"/>
</svg>
