<?xml version="1.0" encoding="UTF-8" standalone="no"?><svg xmlns="http://www.w3.org/2000/svg" xmlns:xlink="http://www.w3.org/1999/xlink" contentStyleType="text/css" height="429px" preserveAspectRatio="none" style="width:767px;height:429px;background:#FFFFFF;" version="1.1" viewBox="0 0 767 429" width="767px" zoomAndPan="magnify"><defs/><g><text fill="#888888" font-family="DejaVu Serif Condensed" font-size="10" font-weight="bold" lengthAdjust="spacing" textLength="37" x="717" y="19.3896">FV2210</text><text fill="#888888" font-family="DejaVu Serif Condensed" font-size="10" lengthAdjust="spacing" textLength="54" x="700" y="31.0303">2022-12-12</text><text fill="#000000" font-family="DejaVu Serif Condensed" font-size="14" font-weight="bold" lengthAdjust="spacing" textLength="724" x="20" y="57.5342">7.39 AD: Bestellung der Aggregationsebene der Bilanzkreissummenzeitreihe auf Ebene der Regelzone</text><text fill="#000000" font-family="DejaVu Serif Condensed" font-size="14" font-weight="bold" lengthAdjust="spacing" textLength="4" x="380" y="73.9814"> </text><text fill="#000000" font-family="DejaVu Serif Condensed" font-size="14" font-weight="bold" lengthAdjust="spacing" textLength="426" x="169" y="90.4287">7.39.1 E_0003_Bestellung der Aggregationsebene RZ prüfen</text><text fill="#000000" font-family="DejaVu Serif Condensed" font-size="14" font-weight="bold" lengthAdjust="spacing" textLength="4" x="380" y="106.876"> </text><text fill="#000000" font-family="DejaVu Serif Condensed" font-size="14" font-weight="bold" lengthAdjust="spacing" textLength="4" x="380" y="123.3232"> </text><text fill="#000000" font-family="DejaVu Serif Condensed" font-size="14" font-weight="bold" lengthAdjust="spacing" textLength="4" x="380" y="139.7705"> </text><path d="M437,162.4219 L437,170.4707 L417,174.4707 L437,178.4707 L437,186.5195 A0,0 0 0 0 437,186.5195 L586,186.5195 A0,0 0 0 0 586,186.5195 L586,172.4219 L576,162.4219 L437,162.4219 A0,0 0 0 0 437,162.4219 " fill="#F3F1F6" style="stroke:#181818;stroke-width:0.5;"/><path d="M576,162.4219 L576,172.4219 L586,172.4219 L576,162.4219 " fill="#F3F1F6" style="stroke:#181818;stroke-width:0.5;"/><text fill="#000000" font-family="DejaVu Serif Condensed" font-size="12" font-style="italic" font-weight="bold" lengthAdjust="spacing" textLength="128" x="443" y="178.6895">Prüfende Rolle: ÜNB</text><rect fill="#7A8DA1" height="38.7969" rx="12.5" ry="12.5" style="stroke:none;stroke-width:0.5;" width="78" x="339" y="155.0723"/><text fill="#000000" font-family="DejaVu Serif Condensed" font-size="16" font-weight="bold" lengthAdjust="spacing" textLength="58" x="349" y="180.0957">E_0003</text><path d="M205,272.5098 L205,296.4785 A0,0 0 0 0 205,296.4785 L334,296.4785 A0,0 0 0 0 334,296.4785 L334,290.5098 L354,284.4941 L334,282.5098 L334,282.5098 L324,272.5098 L205,272.5098 A0,0 0 0 0 205,272.5098 " fill="#F3F1F6" style="stroke:#181818;stroke-width:0.5;"/><path d="M324,272.5098 L324,282.5098 L334,282.5098 L324,272.5098 " fill="#F3F1F6" style="stroke:#181818;stroke-width:0.5;"/><text fill="#000000" font-family="DejaVu Serif Condensed" font-size="12" lengthAdjust="spacing" textLength="108" x="211" y="288.6484">Fristüberschreitung</text><rect fill="#7A8DA1" height="38.625" rx="12.5" ry="12.5" style="stroke:none;stroke-width:0.5;" width="48" x="354" y="265.1816"/><text fill="#000000" font-family="DejaVu Serif Condensed" font-size="16" lengthAdjust="spacing" textLength="28" x="364" y="290.0332">A01</text><polygon fill="#7AAB8A" points="164,213.8691,592,213.8691,604,225.8691,592,237.8691,164,237.8691,152,225.8691,164,213.8691" style="stroke:#7AAB8A;stroke-width:0.5;"/><text fill="#000000" font-family="DejaVu Serif Condensed" font-size="16" lengthAdjust="spacing" textLength="32" x="382" y="252.7207">nein</text><text fill="#000000" font-family="DejaVu Serif Condensed" font-size="18" font-weight="bold" lengthAdjust="spacing" textLength="17" x="164" y="232.1973">1:</text><text fill="#000000" font-family="DejaVu Serif Condensed" font-size="18" lengthAdjust="spacing" textLength="400" x="192" y="232.1973">Erfolgt der Eingang der Bestellung fristgerecht?</text><text fill="#000000" font-family="DejaVu Serif Condensed" font-size="16" lengthAdjust="spacing" textLength="13" x="604" y="222.0957">ja</text><polygon fill="#7AAB8A" points="146.5,345.8066,609.5,345.8066,621.5,357.8066,609.5,369.8066,146.5,369.8066,134.5,357.8066,146.5,345.8066" style="stroke:#7AAB8A;stroke-width:0.5;"/><text fill="#000000" font-family="DejaVu Serif Condensed" font-size="18" font-weight="bold" lengthAdjust="spacing" textLength="17" x="146.5" y="364.1348">2:</text><text fill="#000000" font-family="DejaVu Serif Condensed" font-size="18" lengthAdjust="spacing" textLength="435" x="174.5" y="364.1348">Erfolgt die Bestellung zum Monatsersten 00:00 Uhr?</text><text fill="#000000" font-family="DejaVu Serif Condensed" font-size="16" lengthAdjust="spacing" textLength="13" x="121.5" y="354.0332">ja</text><text fill="#000000" font-family="DejaVu Serif Condensed" font-size="16" lengthAdjust="spacing" textLength="32" x="621.5" y="354.0332">nein</text><ellipse cx="124.5" cy="389.8066" fill="none" rx="10" ry="10" style="stroke:#669580;stroke-width:1.5;"/><line style="stroke:#669580;stroke-width:2.5;" x1="118.3128" x2="130.6872" y1="383.6195" y2="395.9938"/><line style="stroke:#669580;stroke-width:2.5;" x1="130.6872" x2="118.3128" y1="383.6195" y2="395.9938"/><path d="M378.5,387.1348 L378.5,411.1035 A0,0 0 0 0 378.5,411.1035 L587.5,411.1035 A0,0 0 0 0 587.5,411.1035 L587.5,405.1348 L607.5,399.1191 L587.5,397.1348 L587.5,397.1348 L577.5,387.1348 L378.5,387.1348 A0,0 0 0 0 378.5,387.1348 " fill="#F3F1F6" style="stroke:#181818;stroke-width:0.5;"/><path d="M577.5,387.1348 L577.5,397.1348 L587.5,397.1348 L577.5,387.1348 " fill="#F3F1F6" style="stroke:#181818;stroke-width:0.5;"/><text fill="#000000" font-family="DejaVu Serif Condensed" font-size="12" lengthAdjust="spacing" textLength="188" x="384.5" y="403.2734">Gewählter Zeitpunkt nicht zulässig</text><rect fill="#7A8DA1" height="38.625" rx="12.5" ry="12.5" style="stroke:none;stroke-width:0.5;" width="48" x="607.5" y="379.8066"/><text fill="#000000" font-family="DejaVu Serif Condensed" font-size="16" lengthAdjust="spacing" textLength="28" x="617.5" y="404.6582">A02</text><line style="stroke:#7AAB8A;stroke-width:1.0;" x1="378" x2="378" y1="237.8691" y2="265.1816"/><polygon fill="#7AAB8A" points="374,255.1816,378,265.1816,382,255.1816,378,259.1816" style="stroke:#7AAB8A;stroke-width:1.0;"/><line style="stroke:#7AAB8A;stroke-width:1.0;" x1="604" x2="616" y1="225.8691" y2="225.8691"/><polygon fill="#7AAB8A" points="612,271.4941,616,281.4941,620,271.4941,616,275.4941" style="stroke:#7AAB8A;stroke-width:1.0;"/><line style="stroke:#7AAB8A;stroke-width:1.0;" x1="616" x2="616" y1="225.8691" y2="325.8066"/><line style="stroke:#7AAB8A;stroke-width:1.0;" x1="616" x2="378" y1="325.8066" y2="325.8066"/><line style="stroke:#7AAB8A;stroke-width:1.0;" x1="378" x2="378" y1="325.8066" y2="345.8066"/><polygon fill="#7AAB8A" points="374,335.8066,378,345.8066,382,335.8066,378,339.8066" style="stroke:#7AAB8A;stroke-width:1.0;"/><line style="stroke:#7AAB8A;stroke-width:1.0;" x1="378" x2="378" y1="193.8691" y2="213.8691"/><polygon fill="#7AAB8A" points="374,203.8691,378,213.8691,382,203.8691,378,207.8691" style="stroke:#7AAB8A;stroke-width:1.0;"/><line style="stroke:#7AAB8A;stroke-width:1.0;" x1="134.5" x2="124.5" y1="357.8066" y2="357.8066"/><line style="stroke:#7AAB8A;stroke-width:1.0;" x1="124.5" x2="124.5" y1="357.8066" y2="379.8066"/><polygon fill="#7AAB8A" points="120.5,369.8066,124.5,379.8066,128.5,369.8066,124.5,373.8066" style="stroke:#7AAB8A;stroke-width:1.0;"/><line style="stroke:#7AAB8A;stroke-width:1.0;" x1="621.5" x2="631.5" y1="357.8066" y2="357.8066"/><line style="stroke:#7AAB8A;stroke-width:1.0;" x1="631.5" x2="631.5" y1="357.8066" y2="379.8066"/><polygon fill="#7AAB8A" points="627.5,369.8066,631.5,379.8066,635.5,369.8066,631.5,373.8066" style="stroke:#7AAB8A;stroke-width:1.0;"/><!--SRC=[XPF1Rk8m48RlVegHzWA7xIP1Isb0L51WJukgeksXbygGSUBYsCXs5YtFiiS-Hc-ys4u2IzE8jbOEIUQV__yyYTrQwWstF8T5nXEpbJe5mPL3vawLkV4uDZP1UsEKiV15T4Gekaq5NwrJQmgTVAIQ6UqNSeSGHhNAQENbR-d_r5EqqNXEqeovvBs4XsUKhr5rY96rPdjgvSiURnRVwJkwJYJFZKxEO3Iz6Wtr0NucVaNerKG92bueNnRdF4UOu1E_Bs21LWgueJRK3fCphjCJPRTxzRqNC9OX9nesM0vdzr4K1YmAekXhM5uCTN8iCo-zGdPvqRc2qII6CJgFIXNqZr0PHcbgCULU6ifTeiRgxLWghdThYzAv8izHxr1wUieGU25WUXBUOOfgLtxbAk4YXEbZ40ITnqzZxXvWO_Sl0ZMZHRnm08rfFmUFmRVbiCyq_N1WPPhvSgS3ERmzT2LaOPJ26FP_v-FAe9GoHdDiaJACeJI0gHL6fRwYcDB9u4UY6g2mqlaKBQuoVzq6dw66rXDlCwGp12sDKhSPq8f7GTYlxYegXS9NJ-MQbIRxboLQjyfeL9wSgoAHLM3b_LegrIzPfVZF6JKv9TRPTaKEFutctf6n9x0WY8C0VcNs3Uanw1nnz1xn3zpkdpFbQHWFnBifzDg3bZG4IbNxP-Vanplu1m00]--></g></svg>
