<?xml version="1.0" encoding="UTF-8"?>
<svg id="Ebene_2" xmlns="http://www.w3.org/2000/svg" viewBox="0 0 239.37 158.52">
  <defs>
    <style>
      .cls-1 {
        stroke: #1b1464;
        stroke-width: 6px;
      }

      .cls-1, .cls-2 {
        fill: none;
        stroke-miterlimit: 10;
      }

      .cls-3 {
        fill: #1b1464;
      }

      .cls-2 {
        stroke: #9e005d;
        stroke-width: 5px;
      }

      .cls-4 {
        font-family: Helvetica-Bold, Helvetica;
        font-size: 60px;
        font-weight: 700;
      }

      .cls-5 {
        fill: #f4f3f2;
      }

      .cls-6 {
        fill: #9e005d;
      }

      .cls-7 {
        fill: #fde58c;
      }

      .cls-8 {
        fill: #fcd33f;
      }
    </style>
  </defs>
  <g id="Ebene_1-2" data-name="Ebene_1">
    <rect class="cls-5" width="239.37" height="154" rx="27.94" ry="27.94"/>
    <g>
      <line class="cls-2" x1="158" y1="19" x2="158.32" y2="74.96"/>
      <line class="cls-2" x1="182.55" y1="37.22" x2="182.76" y2="74.8"/>
      <line class="cls-2" x1="207.1" y1="56.24" x2="207.21" y2="74.63"/>
      <line class="cls-1" x1="142.76" y1="75.06" x2="222.76" y2="74.53"/>
    </g>
    <text class="cls-4" transform="translate(14.71 129.66)"><tspan class="cls-3" x="0" y="0">tada</tspan><tspan class="cls-6" x="123.37" y="0">MZ</tspan></text>
    <g id="bi8gCO.tif">
      <g>
        <path class="cls-7" d="M98.6,66.03c-.32.3-.74.46-1.11.67-2.38,1.31-4.77,2.61-7.16,3.91-.05.03-.1.03-.15.05-.08-.05-.15-.11-.23-.15-2.63-1.34-5.14-2.87-7.56-4.54-3.03-2.08-5.9-4.35-8.56-6.89-2.74-2.61-5.28-5.4-7.44-8.52-.47-.67-.93-1.34-1.39-2.01.57-1.65,1.14-3.31,1.71-4.96.37-1.06.74-2.11,1.11-3.17.06-.17.07-.36.22-.48.17.15.23.37.32.56.92,1.92,2.02,3.72,3.28,5.44,1.2,1.64,2.49,3.2,3.93,4.63,1.27,1.27,2.52,2.55,3.9,3.71,1.02.86,2.07,1.7,3.13,2.51,1.81,1.38,3.7,2.66,5.65,3.85,1.73,1.06,3.49,2.06,5.29,3,1.66.86,3.35,1.65,5.07,2.39Z"/>
        <path class="cls-8" d="M98.6,66.03c-1.72-.73-3.41-1.53-5.07-2.39-1.8-.93-3.56-1.94-5.29-3-1.95-1.19-3.83-2.47-5.65-3.85-1.06-.81-2.11-1.64-3.13-2.51-1.38-1.16-2.63-2.44-3.9-3.71-1.44-1.44-2.73-2.99-3.93-4.63-1.25-1.72-2.36-3.52-3.28-5.44-.09-.19-.16-.41-.32-.56.33-.26.71-.17,1.08-.16,2.49.1,4.79.9,7.02,1.93.16.08.33.14.5.21.01.89-.14,1.76-.26,2.64-.15,1.03-.35,2.06-.63,3.07-.08.29.01.39.26.47.88.28,1.76.56,2.64.83.39.12.48.07.57-.34.21-.91.39-1.83.59-2.75.14-.62.13-1.25.31-1.86,1.33.81,2.57,1.76,3.78,2.74,2.41,1.95,4.62,4.13,6.8,6.32.09.09.16.19.24.29-.35.14-.7.29-1.05.43-1.04.42-2.08.85-3.08,1.35-.4.2-.4.21-.19.61.34.66.69,1.31,1.04,1.97.21.38.23.39.62.2,1.01-.49,2.05-.92,3.1-1.32.66-.25,1.3-.55,2-.67,1.83,1.99,3.56,4.06,4.91,6.42.39.68.71,1.39.86,2.16.07.34.09.68-.03,1.02-.09.25-.22.46-.51.51Z"/>
        <path class="cls-7" d="M85,73.45c-.55.38-1.17.65-1.76.97-2.51,1.33-5.02,2.64-7.54,3.96-.11.06-.23.1-.35.15-1.57-1.15-3.08-2.37-4.5-3.69-2.74-2.56-5.21-5.36-7.32-8.46-1.13-1.65-2.12-3.38-3.02-5.16.54-1.52,1.07-3.04,1.62-4.56.24-.66.41-1.35.75-1.98.54.7,1.08,1.41,1.62,2.11,2.75,3.55,5.73,6.89,9.06,9.9,1.86,1.68,3.82,3.24,5.98,4.52,1.71,1.02,3.5,1.83,5.46,2.24Z"/>
        <path class="cls-3" d="M55.85,37.2c-.84.01-1.66.17-2.48.28-.63.09-1.25.21-1.88.29-3.32.4-6.78-1.88-7.3-5.66-.23-1.65.28-3.12,1.29-4.42,1.01-1.3,2.34-2.21,3.75-3.02.22-.13.32-.06.42.14.38.74.78,1.48,1.18,2.21.12.21.08.32-.13.43-.7.39-1.36.83-1.97,1.35-.36.31-.67.66-.94,1.05-1.03,1.51-.34,3.15.7,3.99.84.68,1.8.98,2.9.79,1.68-.29,3.36-.57,5.07-.63.76-.03,1.53,0,2.27.22,1.72.5,2.29,2.06,1.29,3.53-.55.81-1.3,1.41-2.08,1.98-1.12.81-2.32,1.5-3.46,2.27-1.04.71-2.05,1.43-2.94,2.33-.2.21-.4.42-.56.66-.29.45-.27.59.14.91.56.44,1.19.77,1.82,1.1,1.24.64,2.5,1.25,3.71,1.96.9.53,1.72,1.16,2.36,1.99,1.17,1.52,1.49,3.24,1.14,5.1-.32,1.73-1.09,3.26-2.13,4.66-.22.29-.23.3-.5.08-.64-.51-1.26-1.04-1.91-1.54-.21-.16-.2-.28-.05-.49.63-.87,1.12-1.82,1.4-2.87.15-.55.23-1.1.15-1.67-.14-.99-.73-1.68-1.53-2.22-.8-.54-1.66-.98-2.51-1.41-1.05-.54-2.12-1.04-3.12-1.68-.55-.36-1.06-.76-1.49-1.26-.91-1.08-1.06-2.27-.53-3.56.26-.64.68-1.2,1.15-1.71,1.03-1.12,2.24-2.02,3.48-2.86.87-.59,1.77-1.14,2.65-1.72.24-.15.47-.32.7-.48-.02-.04-.03-.08-.05-.12Z"/>
        <path class="cls-6" d="M85,73.45c-1.96-.4-3.75-1.22-5.46-2.24-2.16-1.29-4.12-2.84-5.98-4.52-3.33-3.02-6.31-6.36-9.06-9.9-.54-.7-1.08-1.41-1.62-2.11.1-.59.35-1.14.55-1.7.47-1.37.96-2.74,1.44-4.1.04-.1.08-.2.13-.3.46.67.93,1.34,1.39,2.01,2.16,3.12,4.69,5.91,7.44,8.52,2.66,2.53,5.54,4.8,8.56,6.89,2.43,1.67,4.94,3.2,7.56,4.54.08.04.15.1.23.15-.8.52-1.66.93-2.5,1.38-.89.48-1.75,1-2.68,1.4Z"/>
        <path class="cls-6" d="M100.81,42.22c-1.24-.02-2.46-.2-3.68-.37-.83-.11-1.64-.31-2.48-.3-1.16,0-1.42.28-1.36,1.43.01.29.03.58.12.86.06.2.03.34-.2.42-.95.32-1.89.65-2.83.98-.16.06-.28.06-.33-.14-.45-1.63-.59-3.27.22-4.83.79-1.51,2.14-2.15,3.78-2.28,1.1-.08,2.17.11,3.25.27,1.33.2,2.65.42,4.01.38,1.21-.03,1.52-.32,1.47-1.54-.04-1.11-.32-2.19-.65-3.25-.34-1.08-.58-2.17-.55-3.31.07-2.35,1.6-3.9,3.95-3.99.84-.03,1.66.1,2.48.28,1.75.39,3.45-.34,4.27-1.86.66-1.22.69-2.5.17-3.79-.17-.43-.18-.42.2-.65.75-.45,1.49-.9,2.24-1.34.43-.25.43-.25.67.21.58,1.1.82,2.28.8,3.52-.02,2-.62,3.8-2.03,5.25-1.98,2.04-4.4,2.71-7.17,2.14-.43-.09-.85-.18-1.29-.18-.66,0-.74.08-.72.76.02.6.17,1.18.34,1.76.39,1.29.72,2.58.83,3.93.05.66.03,1.31-.09,1.95-.4,2-1.77,3.29-3.8,3.59-.54.08-1.08.13-1.63.11Z"/>
        <path class="cls-6" d="M60.51,61.21c.91,1.78,1.89,3.51,3.02,5.16,2.12,3.1,4.58,5.9,7.32,8.46,1.42,1.32,2.93,2.54,4.5,3.69-.54.37-1.13.63-1.71.92-1.22.63-2.45,1.24-3.67,1.86-.16.08-.33.14-.5.21-1.57-1-2.98-2.18-4.26-3.53-1.96-2.06-3.6-4.36-5.1-6.77-.67-1.08-1.24-2.21-1.89-3.3-.04-.18,0-.35.05-.53.71-2.02,1.42-4.04,2.12-6.05.02-.05.07-.08.1-.12Z"/>
        <path class="cls-6" d="M80.11,43.99c-.18.61-.17,1.25-.31,1.86-.21.91-.39,1.83-.59,2.75-.09.41-.18.45-.57.34-.88-.27-1.76-.55-2.64-.83-.24-.08-.34-.18-.26-.47.28-1.01.48-2.04.63-3.07.13-.87.27-1.75.26-2.64.27-3.52-.09-6.95-1.39-10.26-.8-2.01-1.94-3.81-3.49-5.34-.09-.09-.17-.19-.24-.27.02-.14.11-.21.18-.29.62-.66,1.25-1.32,1.88-1.97.36-.37.3-.42.7-.02,1.63,1.62,2.9,3.48,3.87,5.56,1.25,2.7,1.89,5.55,2.1,8.51.13,1.82.09,3.62-.1,5.43-.02.23-.02.47-.03.71Z"/>
        <path class="cls-3" d="M93.38,55.92c-.7.12-1.34.42-2,.67-1.05.4-2.09.82-3.1,1.32-.4.2-.42.19-.62-.2-.35-.65-.7-1.31-1.04-1.97-.21-.4-.21-.41.19-.61,1-.5,2.04-.94,3.08-1.35.35-.14.7-.29,1.05-.43.95-.31,1.89-.63,2.84-.92,2.69-.84,5.44-1.43,8.23-1.77,2.07-.25,4.15-.39,6.25-.31,1.76.06,3.51.23,5.25.52.12.02.25.06.37.08.17.02.2.11.17.26-.17.87-.33,1.75-.49,2.62-.04.24-.21.2-.38.17-.59-.09-1.18-.19-1.78-.26-1.82-.21-3.64-.33-5.48-.23-1.36.08-2.71.17-4.06.36-2.23.31-4.43.78-6.58,1.41-.64.19-1.3.33-1.9.64Z"/>
        <path class="cls-7" d="M58.23,67.91c.65,1.09,1.22,2.22,1.89,3.3,1.49,2.41,3.14,4.7,5.1,6.77,1.28,1.35,2.69,2.54,4.26,3.53-1.47.78-2.97,1.52-4.5,2.19-.19-.11-.37-.22-.56-.34-2.24-1.37-4.27-3-5.91-5.06-1.04-1.3-1.84-2.73-2.16-4.39-.02-.13-.07-.24-.16-.34.63-1.79,1.26-3.58,1.89-5.38.04-.1.06-.21.15-.29Z"/>
        <path class="cls-6" d="M56.19,73.57c.09.1.13.21.16.34.32,1.66,1.12,3.09,2.16,4.39,1.65,2.06,3.67,3.69,5.91,5.06.19.11.37.22.56.34-1.29.65-2.62,1.2-3.95,1.76-.05.02-.11,0-.16.01-.08-.08-.19-.1-.29-.13-.78-.27-1.48-.68-2.12-1.2-1.14-.91-2.01-2.04-2.8-3.24-.46-.7-.82-1.45-1.23-2.18.22-.91.6-1.77.89-2.66.28-.84.58-1.67.88-2.5Z"/>
        <path class="cls-7" d="M54.42,78.73c.41.72.77,1.48,1.23,2.18.79,1.2,1.66,2.33,2.8,3.24.64.51,1.34.93,2.12,1.2.1.03.21.05.29.13-1.66.84-3.32,1.01-4.98.02-1-.6-1.63-1.54-2.11-2.57-.5-1.07-.5-1.09-.09-2.21.24-.66.42-1.35.74-1.98Z"/>
        <path class="cls-7" d="M105.41,65.01c0,.5-.11.63-.56.72-.76.16-1.53.3-2.29.45-.21.04-.43.09-.64.12-.43.04-.61-.07-.7-.5-.21-.99-.4-1.99-.58-2.98-.07-.38.07-.6.45-.68,1.03-.22,2.06-.41,3.09-.6.31-.06.53.07.59.35.23,1.08.44,2.16.63,3.12Z"/>
        <path class="cls-8" d="M111.26,70.9c-.56-.03-1.12-.05-1.68-.1-.44-.04-.57-.19-.55-.64.03-1,.08-1.99.14-2.99.03-.46.21-.62.66-.6,1.01.04,2.03.1,3.04.17.43.03.57.19.56.64-.04,1.03-.1,2.06-.17,3.09-.02.35-.2.5-.58.5-.47,0-.94-.05-1.41-.08v.02Z"/>
        <path class="cls-8" d="M107.99,76.73c0,.33-.17.49-.43.58-.44.16-.89.32-1.33.48-.49.18-.99.36-1.49.53-.46.16-.67.06-.84-.4-.33-.9-.65-1.8-.97-2.71-.18-.53-.09-.72.44-.91.88-.32,1.77-.64,2.66-.95.53-.18.72-.08.91.44.32.87.63,1.74.94,2.61.04.12.07.24.1.34Z"/>
        <path class="cls-6" d="M70.14,34.11c.09.02.2.04.3.07.9.28,1.8.56,2.69.85.54.17.62.34.45.89-.27.88-.54,1.77-.82,2.65-.19.59-.34.67-.91.5-.9-.27-1.8-.55-2.7-.84-.54-.17-.63-.34-.46-.89.28-.92.56-1.83.86-2.75.12-.37.28-.49.58-.48Z"/>
        <path class="cls-3" d="M87.52,38.86c-.02.08-.06.18-.09.29-.27.87-.53,1.73-.8,2.6-.18.57-.35.67-.92.5-.88-.27-1.77-.53-2.65-.81-.6-.19-.68-.35-.5-.97.27-.88.54-1.77.83-2.64.17-.53.35-.62.9-.46.92.28,1.84.56,2.75.85.38.12.51.31.48.65Z"/>
        <path class="cls-6" d="M56.37,64.14c-.02.06-.05.2-.09.34-.26.87-.53,1.74-.8,2.6-.17.53-.36.64-.89.47-.9-.27-1.8-.55-2.7-.84-.53-.17-.63-.35-.46-.9.27-.9.55-1.8.84-2.7.16-.51.35-.61.85-.46.94.28,1.87.58,2.81.87.27.08.46.21.45.62Z"/>
        <path class="cls-6" d="M108.09,88.43c-.04.09-.08.23-.15.36-.43.86-.85,1.72-1.29,2.58-.23.45-.42.51-.88.29-.86-.42-1.73-.85-2.58-1.29-.5-.25-.56-.44-.3-.96.42-.85.84-1.69,1.27-2.53.24-.47.44-.53.92-.3.87.42,1.72.86,2.58,1.28.22.11.4.25.42.57Z"/>
        <path class="cls-3" d="M88.11,80.49c-.06-.02-.19-.04-.31-.08-.86-.27-1.73-.53-2.59-.81-.61-.19-.69-.36-.5-.96.27-.88.55-1.76.83-2.64.18-.54.34-.63.89-.46.92.28,1.84.56,2.75.85.46.15.57.35.42.82-.28.94-.57,1.87-.87,2.8-.12.38-.25.48-.63.48Z"/>
        <path class="cls-6" d="M102.23,19.46c.16,0,.28.08.38.18.75.74,1.5,1.48,2.23,2.24.25.26.25.5-.01.76-.72.74-1.46,1.47-2.2,2.19-.28.27-.53.27-.81,0-.74-.72-1.47-1.46-2.2-2.2-.27-.27-.28-.49-.01-.76.73-.76,1.49-1.49,2.23-2.24.1-.1.23-.18.38-.18Z"/>
        <path class="cls-3" d="M81.48,23.15c.21,0,.34.07.46.19.72.72,1.44,1.43,2.15,2.15.28.29.28.55-.01.85-.71.72-1.43,1.44-2.15,2.15-.31.3-.53.3-.84,0-.72-.71-1.44-1.43-2.15-2.15-.3-.31-.3-.53,0-.84.71-.72,1.43-1.44,2.15-2.15.12-.12.25-.22.4-.2Z"/>
        <path class="cls-7" d="M63.49,41.89c-.51,0-1.01,0-1.52,0-.44,0-.59-.15-.59-.59,0-1.01,0-2.03,0-3.04,0-.43.16-.59.59-.6,1.01-.01,2.03-.01,3.04,0,.43,0,.59.16.59.6.01,1.01.01,2.03,0,3.04,0,.44-.15.58-.6.59-.51.01-1.01,0-1.52,0Z"/>
      </g>
    </g>
  </g>
</svg>