<svg width="91" height="91" viewBox="0 0 91 91" fill="none" xmlns="http://www.w3.org/2000/svg">
<path d="M79.8525 71.7295C78.5125 70.7505 76.7225 69.4395 73.5025 69.2995C73.3325 69.2895 73.1425 69.2896 72.9325 69.2896C72.7525 69.2896 72.5525 69.2895 72.3725 69.2995C69.1725 69.4395 67.3425 70.7495 66.0125 71.7295C64.9925 72.4505 64.3725 72.8895 63.1525 73.0095C62.9725 73.0195 62.7835 73.0195 62.5835 73.0195C62.3935 73.0195 62.1925 73.0195 62.0335 73.0095C60.8125 72.8895 60.1825 72.4495 59.1735 71.7295C57.8235 70.7505 56.0135 69.4395 52.8035 69.2995C52.6145 69.2895 52.4335 69.2896 52.2235 69.2896C52.0345 69.2896 51.8535 69.2895 51.6735 69.2995C48.4735 69.4395 46.6525 70.7495 45.3035 71.7295C44.2935 72.4505 43.6635 72.8895 42.4435 73.0095C42.2835 73.0195 42.0835 73.0195 41.8935 73.0195C41.6835 73.0195 41.5035 73.0195 41.3235 73.0095C40.1035 72.8895 39.4835 72.4495 38.4635 71.7295C37.1235 70.7505 35.3035 69.4395 32.1035 69.2995C31.9235 69.2895 31.7135 69.2896 31.5335 69.2896C31.3435 69.2896 31.1435 69.2895 30.9635 69.2995C27.7635 69.4395 25.9535 70.7495 24.6035 71.7295C23.6035 72.4505 22.9635 72.8895 21.7435 73.0095C21.5635 73.0195 21.3835 73.0195 21.1735 73.0195C20.9835 73.0195 20.7835 73.0195 20.6235 73.0095C19.4035 72.8895 18.7735 72.4495 17.7635 71.7295C16.4135 70.7505 14.6135 69.4395 11.4035 69.2995C11.2635 69.2895 11.1235 69.2896 7.0835 69.2896C9.2035 72.7396 11.7835 75.8696 14.7335 78.6096C15.3635 78.7496 16.0435 78.8385 16.7935 78.8695C17.0035 78.8995 17.2135 78.8996 17.4235 78.8996C17.6335 78.8996 17.8635 78.8995 18.0635 78.8695C21.6535 78.7195 23.6935 77.2595 25.2135 76.1695C26.3435 75.3595 27.0335 74.8495 28.3935 74.7295C28.6035 74.7195 28.8235 74.7196 29.0435 74.7196C29.2535 74.7196 29.4835 74.7195 29.6835 74.7295C31.0435 74.8495 31.7335 75.3605 32.8635 76.1695C34.3835 77.2595 36.4235 78.7195 40.0135 78.8695C40.2135 78.8995 40.4235 78.8996 40.6535 78.8996C40.8635 78.8996 41.0635 78.8995 41.2735 78.8695C44.8735 78.7195 46.9025 77.2595 48.4235 76.1695C49.5535 75.3595 50.2635 74.8495 51.6235 74.7295C51.8035 74.7195 52.0335 74.7196 52.2435 74.7196C52.4825 74.7196 52.6825 74.7195 52.8835 74.7295C54.2535 74.8495 54.9635 75.3605 56.0935 76.1695C57.6145 77.2595 59.6435 78.7195 63.2435 78.8695C63.4425 78.8995 63.6425 78.8996 63.8635 78.8996C64.0835 78.8996 64.3025 78.8995 64.5035 78.8695C68.0935 78.7195 70.1335 77.2595 71.6335 76.1695C72.7735 75.3595 73.4635 74.8495 74.8335 74.7295C75.0335 74.7195 75.2325 74.7196 75.4735 74.7196C75.7145 74.7196 75.9135 74.7195 76.1145 74.7295C77.2635 74.8305 77.9335 75.2095 78.8035 75.8095C79.7135 74.7995 80.5745 73.7495 81.3935 72.6695C80.8925 72.4495 80.4425 72.1395 79.8525 71.7295Z" fill="white"/>
<path d="M63.8625 85.6295C59.8825 85.6295 57.6915 84.0695 56.0915 82.9095C54.8015 81.9895 54.0715 81.4495 52.2415 81.4495C50.4515 81.4495 49.7115 81.9895 48.4215 82.9095C46.8115 84.0585 44.6315 85.6295 40.6515 85.6295C36.6615 85.6295 34.4615 84.0695 32.8615 82.9095C31.5615 81.9895 30.8515 81.4495 29.0315 81.4495C27.2215 81.4495 26.5015 81.9895 25.2115 82.9095C24.5015 83.4195 23.6815 84.0095 22.6315 84.4995C29.3025 88.4195 37.0825 90.6695 45.3825 90.6695C53.0625 90.6695 60.2925 88.7395 66.6225 85.3495C65.8125 85.5295 64.9025 85.6295 63.8625 85.6295Z" fill="white"/>
<path d="M36.6125 58.9795C36.7725 59.5495 36.9125 61.4295 37.0225 63.2805H34.8225C34.7825 61.7005 34.7925 60.1305 35.0025 59.5195C35.4725 58.0995 35.4025 56.7595 35.2625 56.0095C35.1325 55.2695 35.9425 49.2695 36.2825 48.4595C36.6125 47.6595 36.6125 47.6595 36.6125 47.6595L36.8825 48.9995C36.8825 48.9995 37.0225 54.2595 36.7525 55.1995C36.4825 56.1495 36.2825 57.7695 36.6125 58.9795Z" fill="white"/>
<path d="M90.3825 45.6695C90.3825 53.2495 88.5025 60.3895 85.1925 66.6595L85.1825 66.6695C84.6825 66.8895 84.1225 67.0095 83.3025 67.0095C81.6825 67.0095 81.0425 66.5395 79.8635 65.7095C78.4535 64.6695 76.5125 63.2795 72.9425 63.2795C69.3825 63.2795 67.4225 64.6695 66.0125 65.7095C64.8425 66.5395 64.2125 67.0095 62.5825 67.0095C60.9725 67.0095 60.3325 66.5395 59.1725 65.7095C57.7425 64.6695 55.7925 63.2795 52.2225 63.2795H51.1525C51.2135 62.8995 51.2725 62.5085 51.3125 62.0985C51.3925 61.6685 51.4825 61.2185 51.5625 60.7685C51.6525 60.3385 51.7835 59.9385 51.8925 59.5185C51.9725 59.3195 52.0525 59.1195 52.1325 58.9285C52.2225 58.7085 52.3025 58.4985 52.3925 58.2885C52.5735 57.8785 52.6825 57.4185 52.8525 57.0885C53.0335 56.7485 53.1635 56.3995 53.3125 56.0785C53.4325 55.7585 53.5525 55.4485 53.6925 55.1985C53.8125 54.9275 53.9325 54.6985 54.0125 54.4885C54.1725 54.1485 54.2725 53.9185 54.2925 53.8685C54.2715 53.8785 54.2225 53.9085 54.1425 53.9485C54.0335 53.9985 53.8725 54.0785 53.6925 54.2085C53.3425 54.4785 52.8025 54.8285 52.2935 55.4085C52.0435 55.6985 51.7325 55.9985 51.4535 56.3585C51.1635 56.7085 50.9635 57.0685 50.7235 57.4675C50.6035 57.6575 50.4835 57.8585 50.3645 58.0575C50.3035 58.1585 50.2445 58.2575 50.1935 58.3685L50.1035 58.5175L50.0635 58.5975L50.0435 58.6375L50.0035 58.7175L49.9935 58.7475C49.8125 59.2265 49.6025 59.7265 49.4535 60.2265C49.3235 60.7265 49.2035 61.2265 49.1025 61.7165C49.0125 62.2065 48.9425 62.6865 48.8825 63.1565C48.8825 63.1965 48.8725 63.2365 48.8725 63.2765H47.2625C47.3235 62.6755 47.3925 62.0465 47.4625 61.3965C47.5525 60.7765 47.6425 60.1355 47.7325 59.4965C47.8525 58.8665 47.9725 58.2165 48.0925 57.5765C48.2525 56.9565 48.4625 56.3665 48.6225 55.7565C48.8325 55.2165 49.1125 54.5275 49.3515 53.9765C49.6225 53.4365 49.8625 52.9165 50.1315 52.4165C50.4005 51.9165 50.6115 51.4165 50.8615 50.9765C51.3105 50.0675 51.6905 49.2965 51.9515 48.7665C52.2115 48.2065 52.3615 47.8765 52.3615 47.8765V47.8695C52.3615 47.8695 52.0205 48.0185 51.5015 48.3695C50.9715 48.7195 50.2915 49.2995 49.5715 50.0895C49.2115 50.4795 48.8615 50.9495 48.5015 51.4395C48.1415 51.9395 47.8415 52.5305 47.4915 53.1205C47.1715 53.7205 46.9115 54.2505 46.5815 54.9305C46.3315 55.6115 46.0715 56.3105 45.8615 57.0105C45.7115 57.7105 45.5215 58.4015 45.3915 59.0905C45.2815 59.7805 45.1815 60.4605 45.0915 61.1115C45.0115 61.8715 44.9415 62.6005 44.8915 63.2815H43.3215C43.3825 62.6695 43.4125 61.9995 43.4925 61.3095C43.5825 60.5195 43.6725 59.6795 43.7625 58.8205C43.8825 57.9695 44.0125 57.0905 44.1425 56.1895C44.3125 55.3205 44.4925 54.4195 44.6725 53.5305C44.8925 52.6705 45.1725 51.8305 45.4125 50.9795C45.7625 50.1505 46.1125 49.3305 46.4535 48.5305C46.8235 47.7805 47.1635 47.0405 47.5225 46.3405C47.9025 45.6505 48.2225 44.9705 48.5735 44.3705C49.2435 43.1605 49.8435 42.1505 50.2725 41.4505C50.7035 40.7405 50.9625 40.3405 50.9625 40.3405C50.9625 40.3405 50.5525 40.5905 49.9125 41.1305C49.2715 41.6805 48.3915 42.4905 47.4725 43.6105C46.9825 44.1405 46.5425 44.7905 46.0525 45.4605C45.5625 46.1205 45.1525 46.9205 44.6625 47.7005C44.2325 48.5105 43.8925 49.2805 43.4525 50.1895C43.1425 51.1105 42.7725 52.0405 42.5025 52.9795C42.2925 53.9195 42.0625 54.8705 41.8725 55.7995C41.7325 56.7395 41.6025 57.6595 41.4725 58.5495C41.2825 60.2795 41.1525 61.8895 41.1025 63.2795H38.1625C38.0925 61.4095 38.0725 59.5185 38.2325 59.0495C38.5725 58.0395 38.4325 56.7595 38.1025 55.8095C37.7625 54.8705 37.8925 52.5095 38.0325 50.0095C38.1625 47.5195 39.5825 42.1895 39.5825 42.1895C39.5825 42.1895 43.8325 36.7995 45.9225 35.5895C48.0125 34.3695 53.6725 29.7195 52.0525 23.1795C50.4325 16.6395 47.6025 17.5195 46.0525 17.0495C44.5025 16.5795 44.6325 13.8795 46.0525 13.6795C47.4725 13.4795 51.4425 13.2095 51.4425 13.2095C51.4425 13.2095 52.7225 13.9495 56.7035 14.4195C60.6825 14.8895 62.0935 14.5595 62.0935 14.5595C62.0935 14.5595 59.4035 12.8695 56.5735 12.1995C53.7325 11.5195 51.1735 10.4395 51.1735 10.4395C51.1735 10.4395 48.0035 7.94954 45.4435 8.95954C42.8835 9.96954 40.7335 11.8595 41.2635 15.3595C41.8035 18.8695 43.8335 20.8195 45.8535 21.1595C47.8735 21.4995 48.8835 22.3795 48.4825 25.1395C48.1425 27.4695 46.5225 27.9695 45.8535 27.6995C45.1735 27.4295 42.9535 24.7995 40.6635 24.7295C38.3635 24.6695 36.4835 25.3395 31.3635 31.0695C26.2335 36.7995 23.4735 41.6595 21.9835 44.8195C20.5035 47.9895 18.7535 54.1895 18.6835 56.2095C18.6135 58.2395 19.6335 57.8995 20.4335 56.6885C21.2435 55.4685 23.4035 52.0395 25.0235 51.0185C26.6435 50.0085 34.5935 45.4985 34.5935 45.4985C34.5935 45.4985 35.2635 46.9775 35.0635 48.9285C34.8635 50.8885 34.3935 54.1285 33.9235 55.3385C33.4435 56.5485 33.3135 58.3085 33.5835 59.9885C33.6935 60.6485 33.7635 61.9375 33.8235 63.2785H31.0235C30.9635 62.9085 30.9035 62.5385 30.8435 62.1585C30.7535 61.6985 30.6235 61.2275 30.5135 60.7675C30.3735 60.2975 30.1935 59.8185 30.0135 59.3585L29.9635 59.2485L29.9435 59.2185L29.9035 59.1385L29.8235 58.9985L29.6635 58.7185C29.5535 58.5295 29.4535 58.3385 29.3435 58.1585C29.1235 57.7885 28.9735 57.4375 28.7035 57.0975C28.4435 56.7675 28.1835 56.4575 27.9235 56.1985C27.4135 55.6585 26.8835 55.3475 26.5135 55.1375C26.1335 54.9375 25.8835 54.8775 25.8835 54.8775H25.8735C25.8735 54.8775 25.9435 55.1375 26.0635 55.5375C26.1235 55.7375 26.2035 55.9675 26.3035 56.2265C26.4135 56.4765 26.5135 56.7565 26.6135 57.0565C26.7235 57.3575 26.8635 57.6665 27.0235 57.9665C27.1835 58.2775 27.3335 58.6865 27.5035 59.0675C27.6535 59.4265 27.8135 59.8065 27.9735 60.1865C28.0635 60.5775 28.1935 60.9365 28.2835 61.3365C28.3635 61.7465 28.4335 62.1565 28.5035 62.5565C28.5335 62.7965 28.5735 63.0365 28.6035 63.2775H27.1935C27.1635 63.1475 27.1335 63.0065 27.0935 62.8775C26.9735 62.5375 26.8335 62.1975 26.7035 61.8675L26.6525 61.7695L26.6425 61.7495L26.6125 61.6995L26.5525 61.5985L26.4325 61.3995C26.3525 61.2685 26.2625 61.1385 26.1825 61.0185C26.0125 60.7585 25.8625 60.5395 25.6525 60.3085C25.4525 60.0795 25.2225 59.8785 25.0325 59.6995C24.6525 59.3295 24.2625 59.1295 24.0025 58.9785C23.8725 58.9095 23.7425 58.8695 23.6725 58.8385C23.5925 58.8085 23.5525 58.7985 23.5525 58.7985C23.5525 58.7985 23.5925 58.9685 23.6825 59.2585C23.7525 59.5485 23.9125 59.9285 24.0225 60.3685C24.0925 60.5785 24.1525 60.8185 24.2525 61.0385C24.3425 61.2585 24.4025 61.5685 24.5025 61.8385C24.5525 61.9785 24.6125 62.1285 24.6625 62.2685L24.7425 62.4895L24.7925 62.5895L24.8025 62.6395C24.8425 62.8495 24.9025 63.0595 24.9425 63.2805H3.96251C1.65251 57.8695 0.382507 51.9095 0.382507 45.6695C0.382507 20.8195 20.5325 0.66954 45.3825 0.66954C70.2325 0.66954 90.3825 20.8195 90.3825 45.6695Z" fill="white"/>
</svg>
