<svg width="91" height="91" viewBox="0 0 91 91" fill="none" xmlns="http://www.w3.org/2000/svg">
<path d="M80.0903 71.929C78.7503 70.95 76.9604 69.639 73.7404 69.499C73.5704 69.489 73.3803 69.489 73.1703 69.489C72.9903 69.489 72.7904 69.489 72.6104 69.499C69.4104 69.639 67.5803 70.949 66.2503 71.929C65.2303 72.65 64.6103 73.089 63.3903 73.209C63.2103 73.219 63.0213 73.219 62.8213 73.219C62.6313 73.219 62.4304 73.219 62.2714 73.209C61.0504 73.089 60.4204 72.649 59.4114 71.929C58.0614 70.95 56.2514 69.639 53.0414 69.499C52.8524 69.489 52.6713 69.489 52.4613 69.489C52.2723 69.489 52.0914 69.489 51.9114 69.499C48.7114 69.639 46.8904 70.949 45.5414 71.929C44.5314 72.65 43.9014 73.089 42.6814 73.209C42.5214 73.219 42.3214 73.219 42.1314 73.219C41.9214 73.219 41.7414 73.219 41.5614 73.209C40.3414 73.089 39.7214 72.649 38.7014 71.929C37.3614 70.95 35.5414 69.639 32.3414 69.499C32.1614 69.489 31.9514 69.489 31.7714 69.489C31.5814 69.489 31.3814 69.489 31.2014 69.499C28.0014 69.639 26.1914 70.949 24.8414 71.929C23.8414 72.65 23.2013 73.089 21.9813 73.209C21.8013 73.219 21.6214 73.219 21.4114 73.219C21.2214 73.219 21.0213 73.219 20.8613 73.209C19.6413 73.089 19.0114 72.649 18.0014 71.929C16.6514 70.95 14.8513 69.639 11.6413 69.499C11.5013 69.489 11.3614 69.489 7.32135 69.489C9.44135 72.939 12.0213 76.069 14.9713 78.809C15.6013 78.949 16.2813 79.038 17.0313 79.069C17.2413 79.099 17.4514 79.099 17.6614 79.099C17.8714 79.099 18.1013 79.099 18.3013 79.069C21.8913 78.919 23.9313 77.459 25.4513 76.369C26.5813 75.559 27.2714 75.049 28.6314 74.929C28.8414 74.919 29.0613 74.919 29.2813 74.919C29.4913 74.919 29.7213 74.919 29.9213 74.929C31.2813 75.049 31.9713 75.56 33.1013 76.369C34.6213 77.459 36.6614 78.919 40.2514 79.069C40.4514 79.099 40.6613 79.099 40.8913 79.099C41.1013 79.099 41.3013 79.099 41.5113 79.069C45.1113 78.919 47.1404 77.459 48.6614 76.369C49.7914 75.559 50.5014 75.049 51.8614 74.929C52.0414 74.919 52.2713 74.919 52.4813 74.919C52.7203 74.919 52.9203 74.919 53.1213 74.929C54.4913 75.049 55.2013 75.56 56.3313 76.369C57.8523 77.459 59.8814 78.919 63.4813 79.069C63.6803 79.099 63.8804 79.099 64.1014 79.099C64.3214 79.099 64.5404 79.099 64.7414 79.069C68.3314 78.919 70.3714 77.459 71.8714 76.369C73.0114 75.559 73.7014 75.049 75.0714 74.929C75.2714 74.919 75.4703 74.919 75.7113 74.919C75.9523 74.919 76.1514 74.919 76.3524 74.929C77.5014 75.03 78.1714 75.409 79.0414 76.009C79.9514 74.999 80.8123 73.949 81.6313 72.869C81.1303 72.649 80.6803 72.339 80.0903 71.929Z" fill="black"/>
<path d="M64.1004 85.829C60.1204 85.829 57.9294 84.269 56.3294 83.109C55.0394 82.189 54.3094 81.649 52.4794 81.649C50.6894 81.649 49.9494 82.189 48.6594 83.109C47.0494 84.258 44.8694 85.829 40.8894 85.829C36.8994 85.829 34.6994 84.269 33.0994 83.109C31.7994 82.189 31.0894 81.649 29.2694 81.649C27.4594 81.649 26.7394 82.189 25.4494 83.109C24.7394 83.619 23.9194 84.209 22.8694 84.699C29.5404 88.619 37.3204 90.869 45.6204 90.869C53.3004 90.869 60.5304 88.939 66.8604 85.549C66.0504 85.729 65.1404 85.829 64.1004 85.829Z" fill="black"/>
<path d="M36.8504 59.179C37.0104 59.749 37.1504 61.629 37.2604 63.48H35.0604C35.0204 61.9 35.0304 60.33 35.2404 59.719C35.7104 58.299 35.6404 56.959 35.5004 56.209C35.3704 55.469 36.1804 49.469 36.5204 48.659C36.8504 47.859 36.8504 47.859 36.8504 47.859L37.1204 49.199C37.1204 49.199 37.2604 54.459 36.9904 55.399C36.7204 56.349 36.5204 57.969 36.8504 59.179Z" fill="black"/>
<path d="M90.6204 45.869C90.6204 53.449 88.7404 60.589 85.4304 66.859L85.4204 66.869C84.9204 67.089 84.3604 67.209 83.5404 67.209C81.9204 67.209 81.2804 66.739 80.1014 65.909C78.6914 64.869 76.7504 63.479 73.1804 63.479C69.6204 63.479 67.6604 64.869 66.2504 65.909C65.0804 66.739 64.4504 67.209 62.8204 67.209C61.2104 67.209 60.5704 66.739 59.4104 65.909C57.9804 64.869 56.0304 63.479 52.4604 63.479H51.3904C51.4514 63.099 51.5104 62.708 51.5504 62.298C51.6304 61.868 51.7204 61.418 51.8004 60.968C51.8904 60.538 52.0214 60.138 52.1304 59.718C52.2104 59.519 52.2904 59.319 52.3704 59.128C52.4604 58.908 52.5404 58.698 52.6304 58.488C52.8114 58.078 52.9204 57.618 53.0904 57.288C53.2714 56.948 53.4014 56.599 53.5504 56.278C53.6704 55.958 53.7904 55.648 53.9304 55.398C54.0504 55.127 54.1704 54.898 54.2504 54.688C54.4104 54.348 54.5104 54.118 54.5304 54.068C54.5094 54.078 54.4604 54.108 54.3804 54.148C54.2714 54.198 54.1104 54.278 53.9304 54.408C53.5804 54.678 53.0404 55.028 52.5314 55.608C52.2814 55.898 51.9704 56.198 51.6914 56.558C51.4014 56.908 51.2014 57.268 50.9614 57.667C50.8414 57.857 50.7214 58.058 50.6024 58.257C50.5414 58.358 50.4824 58.457 50.4314 58.568L50.3414 58.717L50.3014 58.797L50.2814 58.837L50.2414 58.917L50.2314 58.947C50.0504 59.426 49.8404 59.926 49.6914 60.426C49.5614 60.926 49.4414 61.426 49.3404 61.916C49.2504 62.406 49.1804 62.886 49.1204 63.356C49.1204 63.396 49.1104 63.436 49.1104 63.476H47.5004C47.5614 62.875 47.6304 62.246 47.7004 61.596C47.7904 60.976 47.8804 60.335 47.9704 59.696C48.0904 59.066 48.2104 58.416 48.3304 57.776C48.4904 57.156 48.7004 56.566 48.8604 55.956C49.0704 55.416 49.3504 54.727 49.5894 54.176C49.8604 53.636 50.1004 53.116 50.3694 52.616C50.6384 52.116 50.8494 51.616 51.0994 51.176C51.5484 50.267 51.9284 49.496 52.1894 48.966C52.4494 48.406 52.5994 48.076 52.5994 48.076V48.069C52.5994 48.069 52.2584 48.218 51.7394 48.569C51.2094 48.919 50.5294 49.499 49.8094 50.289C49.4494 50.679 49.0994 51.149 48.7394 51.639C48.3794 52.139 48.0794 52.73 47.7294 53.32C47.4094 53.92 47.1494 54.45 46.8194 55.13C46.5694 55.811 46.3094 56.51 46.0994 57.21C45.9494 57.91 45.7594 58.601 45.6294 59.29C45.5194 59.98 45.4194 60.66 45.3294 61.311C45.2494 62.071 45.1794 62.8 45.1294 63.481H43.5594C43.6204 62.869 43.6504 62.199 43.7304 61.509C43.8204 60.719 43.9104 59.879 44.0004 59.02C44.1204 58.169 44.2504 57.29 44.3804 56.389C44.5504 55.52 44.7304 54.619 44.9104 53.73C45.1304 52.87 45.4104 52.03 45.6504 51.179C46.0004 50.35 46.3504 49.53 46.6914 48.73C47.0614 47.98 47.4014 47.24 47.7604 46.54C48.1404 45.85 48.4604 45.17 48.8114 44.57C49.4814 43.36 50.0814 42.35 50.5104 41.65C50.9414 40.94 51.2004 40.54 51.2004 40.54C51.2004 40.54 50.7904 40.79 50.1504 41.33C49.5094 41.88 48.6294 42.69 47.7104 43.81C47.2204 44.34 46.7804 44.99 46.2904 45.66C45.8004 46.32 45.3904 47.12 44.9004 47.9C44.4704 48.71 44.1304 49.48 43.6904 50.389C43.3804 51.31 43.0104 52.24 42.7404 53.179C42.5304 54.119 42.3004 55.07 42.1104 55.999C41.9704 56.939 41.8404 57.859 41.7104 58.749C41.5204 60.479 41.3904 62.089 41.3404 63.479H38.4004C38.3304 61.609 38.3104 59.718 38.4704 59.249C38.8104 58.239 38.6704 56.959 38.3404 56.009C38.0004 55.07 38.1304 52.709 38.2704 50.209C38.4004 47.719 39.8204 42.389 39.8204 42.389C39.8204 42.389 44.0704 36.999 46.1604 35.789C48.2504 34.569 53.9104 29.919 52.2904 23.379C50.6704 16.839 47.8404 17.719 46.2904 17.249C44.7404 16.779 44.8704 14.079 46.2904 13.879C47.7104 13.679 51.6804 13.409 51.6804 13.409C51.6804 13.409 52.9604 14.149 56.9414 14.619C60.9204 15.089 62.3314 14.759 62.3314 14.759C62.3314 14.759 59.6414 13.069 56.8114 12.399C53.9704 11.719 51.4114 10.639 51.4114 10.639C51.4114 10.639 48.2414 8.14903 45.6814 9.15903C43.1214 10.169 40.9714 12.059 41.5014 15.559C42.0414 19.069 44.0714 21.019 46.0914 21.359C48.1114 21.699 49.1214 22.579 48.7204 25.339C48.3804 27.669 46.7604 28.169 46.0914 27.899C45.4114 27.629 43.1914 24.999 40.9014 24.929C38.6014 24.869 36.7214 25.539 31.6014 31.269C26.4714 36.999 23.7114 41.859 22.2214 45.019C20.7414 48.189 18.9914 54.389 18.9214 56.409C18.8514 58.439 19.8714 58.099 20.6714 56.888C21.4814 55.668 23.6414 52.239 25.2614 51.218C26.8814 50.208 34.8314 45.698 34.8314 45.698C34.8314 45.698 35.5014 47.177 35.3014 49.128C35.1014 51.088 34.6314 54.328 34.1614 55.538C33.6814 56.748 33.5514 58.508 33.8214 60.188C33.9314 60.848 34.0014 62.137 34.0614 63.478H31.2614C31.2014 63.108 31.1414 62.738 31.0814 62.358C30.9914 61.898 30.8614 61.427 30.7514 60.967C30.6114 60.497 30.4314 60.018 30.2514 59.558L30.2014 59.448L30.1814 59.418L30.1414 59.338L30.0614 59.198L29.9014 58.918C29.7914 58.729 29.6914 58.538 29.5814 58.358C29.3614 57.988 29.2114 57.637 28.9414 57.297C28.6814 56.967 28.4214 56.657 28.1614 56.398C27.6514 55.858 27.1214 55.547 26.7514 55.337C26.3714 55.137 26.1214 55.077 26.1214 55.077H26.1114C26.1114 55.077 26.1814 55.337 26.3014 55.737C26.3614 55.937 26.4414 56.167 26.5414 56.426C26.6514 56.676 26.7514 56.956 26.8514 57.256C26.9614 57.557 27.1014 57.866 27.2614 58.166C27.4214 58.477 27.5714 58.886 27.7414 59.267C27.8914 59.626 28.0514 60.006 28.2114 60.386C28.3014 60.777 28.4314 61.136 28.5214 61.536C28.6014 61.946 28.6714 62.356 28.7414 62.756C28.7714 62.996 28.8114 63.236 28.8414 63.477H27.4314C27.4014 63.347 27.3714 63.206 27.3314 63.077C27.2114 62.737 27.0714 62.397 26.9414 62.067L26.8904 61.969L26.8804 61.949L26.8504 61.899L26.7904 61.798L26.6704 61.599C26.5904 61.468 26.5004 61.338 26.4204 61.218C26.2504 60.958 26.1004 60.739 25.8904 60.508C25.6904 60.279 25.4604 60.078 25.2704 59.899C24.8904 59.529 24.5004 59.329 24.2404 59.178C24.1104 59.109 23.9804 59.069 23.9104 59.038C23.8304 59.008 23.7904 58.998 23.7904 58.998C23.7904 58.998 23.8304 59.168 23.9204 59.458C23.9904 59.748 24.1504 60.128 24.2604 60.568C24.3304 60.778 24.3904 61.018 24.4904 61.238C24.5804 61.458 24.6404 61.768 24.7404 62.038C24.7904 62.178 24.8504 62.328 24.9004 62.468L24.9804 62.689L25.0304 62.789L25.0404 62.839C25.0804 63.049 25.1404 63.259 25.1804 63.48H4.20036C1.89036 58.069 0.620361 52.109 0.620361 45.869C0.620361 21.019 20.7704 0.869034 45.6204 0.869034C70.4704 0.869034 90.6204 21.019 90.6204 45.869Z" fill="black"/>
</svg>
