<?xml version="1.0" encoding="UTF-8" standalone="no"?><!DOCTYPE svg PUBLIC "-//W3C//DTD SVG 1.1//EN" "http://www.w3.org/Graphics/SVG/1.1/DTD/svg11.dtd"><svg width="100%" height="100%" viewBox="0 0 1000 1000" version="1.1" xmlns="http://www.w3.org/2000/svg" xmlns:xlink="http://www.w3.org/1999/xlink" xml:space="preserve" xmlns:serif="http://www.serif.com/" style="fill-rule:evenodd;clip-rule:evenodd;stroke-linecap:round;stroke-linejoin:round;stroke-miterlimit:1.5;"><g><path d="M293.763,236.181c-35.71,-1.008 -66.968,2.306 -94.846,10.798c-73.654,22.436 -123.716,81.014 -169.965,191.524c11.416,-88.152 47.038,-168.755 99.974,-234.917c87.074,-108.831 220.992,-178.587 371.075,-178.587c64.457,0 139.063,16.74 181.996,36.169c52.479,23.749 86.702,103.216 50.754,124.381c-53.766,31.655 -196.65,-46.55 -299.25,-54.15c73.783,25.65 130.022,120.605 81.7,142.5c-32.775,14.851 -40.018,-13.33 -133,-28.5c-32.293,-5.268 -61.62,-8.462 -88.437,-9.219Z" style="fill:url(#_Linear1);"/><path d="M471.675,301.17c-234.564,167.735 -250.172,628.589 311.425,544.63c1.877,-0.281 -1.712,0.677 -4.902,1.903c-95.286,18.021 -176.897,20.812 -246.201,11.895c-12.439,-1.6 -24.482,-3.578 -36.136,-5.913c-193.399,-47.192 -398.881,-339.661 -118.187,-580.541c53.108,8.664 94.002,28.026 94.002,28.026Z" style="fill:url(#_Linear2);"/><path d="M296.056,264.603c27.632,0.939 54.796,3.975 81.618,8.54c-298.305,255.993 -47.515,570.252 154.323,586.454c-111.669,-14.368 -191.387,-59.133 -244.875,-119.567c-76.998,-86.996 -98.639,-204.717 -84.538,-302.546c9.031,-62.659 32.426,-117.362 66.983,-148.791l26.489,-24.091Z" style="fill:url(#_Linear3);"/><path d="M789.75,876.309c-80.208,61.872 -180.713,98.691 -289.75,98.691c-185.799,0 -346.825,-106.907 -424.868,-262.511c-49.684,-99.062 -47.397,-424.607 174.068,-446.189c-162.015,147.345 -126.954,739.806 540.55,610.009Z" style="fill:url(#_Linear4);"/><path d="M761.232,103.319c31.887,21.07 65.911,49.204 81.694,75.951c19.734,33.442 40.089,81.037 13.324,96.53c-29.308,16.965 -141.8,-38.39 -175.594,-55.757c27.112,2.568 49.924,-0.594 66.356,-10.269c3.839,-2.26 7.304,-4.855 10.388,-7.753c2.286,-1.873 4.242,-3.983 5.785,-6.358c8.768,-11.306 13.013,-25.945 12.47,-42.731c-0.493,-15.255 -5.677,-32.686 -14.424,-49.612Z" style="fill:url(#_Linear5);"/><path d="M606.678,196.554l12.744,14.092c-115.692,104.62 -46.731,214.64 15.532,319.242c22.917,38.5 45.208,76.318 58.565,112.899c14.015,38.383 18.235,75.515 4.545,110.842c-11.624,29.996 -36.284,58.933 -80.015,86l-9.999,-16.156c39.243,-24.288 61.867,-49.792 72.298,-76.709c12.041,-31.071 7.65,-63.7 -4.676,-97.46c-12.985,-35.562 -34.766,-72.269 -57.044,-109.697c-66.869,-112.339 -136.199,-230.694 -11.949,-343.052Z" style="fill:url(#_Linear6);fill-rule:nonzero;"/><path d="M657.378,253.249l-7.261,7.516l-34.845,-33.664l7.261,-7.516l34.845,33.664Z" style="fill:#80c5c6;"/><path d="M633.706,279.725l-5.819,8.68l-40.243,-26.979l5.819,-8.68l40.243,26.979Z" style="fill:#80c5c6;"/><path d="M619.244,308.443l-2.927,10.032l-46.511,-13.568l2.927,-10.032l46.511,13.568Z" style="fill:#80c5c6;"/><path d="M614.808,338.829l0.269,10.447l-48.434,1.246l-0.269,-10.447l48.434,-1.246Z" style="fill:#80c5c6;"/><path d="M619.146,368.935l2.945,10.026l-46.486,13.654l-2.945,-10.026l46.486,-13.654Z" style="fill:#80c5c6;"/><path d="M632.595,404.618l3.58,9.818l-45.519,16.596l-3.58,-9.818l45.519,-16.596Z" style="fill:#80c5c6;"/><path d="M609.961,544.548l5.269,9.024l-41.841,24.429l-5.269,-9.024l41.841,-24.429Z" style="fill:#4e82b0;"/><path d="M628.961,576.848l5.269,9.024l-41.841,24.429l-5.269,-9.024l41.841,-24.429Z" style="fill:#4e82b0;"/><path d="M647.966,611.207l4.727,9.32l-43.21,21.916l-4.727,-9.32l43.21,-21.916Z" style="fill:#4e82b0;"/><path d="M665.839,651.16l4.245,9.549l-44.272,19.682l-4.245,-9.549l44.272,-19.682Z" style="fill:#4e82b0;"/><path d="M678.209,698.884l0.68,10.428l-48.347,3.153l-0.68,-10.428l48.347,-3.153Z" style="fill:#4e82b0;"/><path d="M667.734,752.45l-4.951,9.203l-42.668,-22.953l4.951,-9.203l42.668,22.953Z" style="fill:#4e82b0;"/><path d="M630.608,795.824l-8.61,5.922l-27.455,-39.92l8.61,-5.922l27.455,39.92Z" style="fill:#4e82b0;"/></g><path d="M995,500.285c-0.157,273.198 -222.087,494.872 -495.285,494.715c-273.198,-0.157 -494.872,-222.087 -494.715,-495.285c0.157,-273.198 222.087,-494.872 495.285,-494.715c273.198,0.157 494.872,222.087 494.715,495.285Z" style="fill:none;stroke:url(#_Linear7);stroke-width:10px;"/><defs><linearGradient id="_Linear1" x1="0" y1="0" x2="1" y2="0" gradientUnits="userSpaceOnUse" gradientTransform="matrix(-648.85,196.65,-196.65,-648.85,706.15,159.9)"><stop offset="0" style="stop-color:#80c5c6;stop-opacity:1"/><stop offset="1" style="stop-color:#67a5c1;stop-opacity:1"/></linearGradient><linearGradient id="_Linear2" x1="0" y1="0" x2="1" y2="0" gradientUnits="userSpaceOnUse" gradientTransform="matrix(197.6,569.05,-569.05,197.6,401.2,284.35)"><stop offset="0" style="stop-color:#5eabc0;stop-opacity:1"/><stop offset="1" style="stop-color:#4e82b0;stop-opacity:1"/></linearGradient><linearGradient id="_Linear3" x1="0" y1="0" x2="1" y2="0" gradientUnits="userSpaceOnUse" gradientTransform="matrix(117.8,537.7,-537.7,117.8,301.45,290.05)"><stop offset="0" style="stop-color:#4b83ac;stop-opacity:1"/><stop offset="1" style="stop-color:#38589d;stop-opacity:1"/></linearGradient><linearGradient id="_Linear4" x1="0" y1="0" x2="1" y2="0" gradientUnits="userSpaceOnUse" gradientTransform="matrix(239.4,520.6,-520.6,239.4,125.7,405)"><stop offset="0" style="stop-color:#4b83ac;stop-opacity:1"/><stop offset="1" style="stop-color:#38589d;stop-opacity:1"/></linearGradient><linearGradient id="_Linear5" x1="0" y1="0" x2="1" y2="0" gradientUnits="userSpaceOnUse" gradientTransform="matrix(85.5,63.65,-63.65,85.5,770.75,192.2)"><stop offset="0" style="stop-color:#82c4cb;stop-opacity:1"/><stop offset="1" style="stop-color:#7dbfcb;stop-opacity:1"/></linearGradient><linearGradient id="_Linear6" x1="0" y1="0" x2="1" y2="0" gradientUnits="userSpaceOnUse" gradientTransform="matrix(14.25,619.4,-619.4,14.25,606.4,206.45)"><stop offset="0" style="stop-color:#80c5c7;stop-opacity:1"/><stop offset="1" style="stop-color:#4e82b0;stop-opacity:1"/></linearGradient><linearGradient id="_Linear7" x1="0" y1="0" x2="1" y2="0" gradientUnits="userSpaceOnUse" gradientTransform="matrix(-0.57032,989.999836,-989.999836,-0.57032,500.28516,5.000082)"><stop offset="0" style="stop-color:#80c5c6;stop-opacity:1"/><stop offset="1" style="stop-color:#4b83ac;stop-opacity:1"/></linearGradient></defs></svg>