<?xml version="1.0" standalone="no"?>
<!DOCTYPE svg PUBLIC "-//W3C//DTD SVG 20010904//EN"
 "http://www.w3.org/TR/2001/REC-SVG-20010904/DTD/svg10.dtd">
<svg version="1.0" xmlns="http://www.w3.org/2000/svg"
 width="300.000000pt" height="130.000000pt" viewBox="0 0 300.000000 130.000000"
 preserveAspectRatio="xMidYMid meet">
<metadata>
Created by potrace 1.10, written by Peter Selinger 2001-2011
</metadata>
<g transform="translate(0.000000,180.000000) scale(0.100000,-0.100000)"
fill="#FFFFFF" stroke="none">
<path d="M1290 1778 c0 -67 -11 -225 -20 -284 -13 -89 -10 -196 5 -201 6 -2
10 32 10 89 0 51 4 114 8 141 8 45 10 47 41 47 l33 0 7 -71 c8 -89 34 -207 47
-215 18 -11 19 2 4 41 -9 20 -23 90 -30 154 -14 114 -31 196 -45 216 -4 6 -13
27 -19 48 -7 20 -19 37 -27 37 -8 0 -14 -1 -14 -2z m67 -160 c4 -21 2 -28 -10
-28 -8 0 -23 -3 -32 -6 -14 -6 -15 1 -11 47 2 30 5 65 6 79 1 21 4 18 21 -20
11 -25 23 -57 26 -72z"/>
<path d="M1016 1762 c-4 -6 -2 -31 5 -54 7 -25 11 -101 10 -183 -2 -164 7
-265 23 -265 7 0 11 34 12 103 1 56 5 112 11 125 7 20 14 4 42 -98 26 -94 37
-120 48 -116 8 3 15 6 16 6 1 0 2 109 2 242 0 227 -1 243 -18 246 -16 3 -17 1
-6 -19 9 -17 10 -61 4 -168 -4 -80 -6 -173 -6 -206 1 -33 0 -57 -3 -55 -8 9
-56 216 -56 244 0 46 -16 20 -31 -51 l-14 -68 -6 140 c-6 136 -18 201 -33 177z"/>
<path d="M1518 1763 c-15 -4 -18 -16 -18 -73 0 -59 -3 -71 -20 -80 -26 -14
-26 -30 2 -30 21 0 21 -1 15 -155 -6 -185 -10 -194 -70 -163 -58 30 -147 30
-211 -1 -79 -39 -132 -163 -107 -248 5 -18 7 -33 3 -33 -4 0 -65 18 -137 40
-71 22 -133 36 -137 32 -3 -4 16 -45 44 -92 53 -90 98 -184 98 -205 0 -8 12
-27 26 -44 14 -17 21 -31 15 -31 -14 0 -81 -60 -81 -73 0 -6 12 1 28 15 76 70
138 78 197 27 19 -17 35 -36 35 -41 0 -11 40 -47 52 -48 4 0 -12 26 -37 59
-50 65 -87 86 -143 79 l-37 -5 -48 111 c-26 62 -63 136 -82 165 -19 29 -35 54
-35 56 0 4 172 -44 650 -181 123 -36 311 -121 378 -172 18 -13 36 -22 40 -18
10 10 -30 39 -128 93 -113 63 -182 90 -325 128 -66 17 -173 47 -237 66 l-117
34 -7 51 c-8 67 16 150 53 186 65 63 165 76 247 32 75 -40 79 -31 86 174 3 92
2 169 -2 173 -4 3 -3 21 2 39 6 19 10 54 10 77 0 37 3 43 20 43 12 0 34 -10
51 -22 18 -14 43 -22 64 -21 40 1 43 -6 15 -32 -18 -16 -26 -17 -63 -8 -73 20
-75 15 -77 -159 -1 -84 -5 -196 -9 -248 -5 -70 -4 -105 6 -134 24 -72 11 -145
-38 -197 -34 -36 -31 -49 5 -25 53 34 77 130 54 212 -11 38 -13 97 -10 256 l4
206 24 -1 c30 -3 36 17 7 21 -17 2 -23 10 -23 27 0 32 10 36 53 23 58 -18 95
7 111 75 7 31 -12 38 -34 12 -18 -22 -44 -18 -78 10 -29 24 -47 28 -84 18z"/>
<path d="M1850 1744 c-25 -7 -57 -14 -72 -14 -16 0 -28 -5 -28 -11 0 -8 14
-10 39 -6 l39 5 6 -41 c4 -23 4 -123 0 -222 -5 -144 -3 -184 7 -198 12 -15 14
19 14 225 l0 243 34 5 c19 3 36 11 39 18 5 15 -21 14 -78 -4z"/>
<path d="M1436 1141 c-3 -5 0 -13 7 -19 15 -13 42 1 33 17 -9 13 -33 15 -40 2z"/>
<path d="M1220 1112 c0 -14 56 -32 101 -32 58 0 47 17 -13 22 -29 3 -61 9 -70
13 -10 4 -18 3 -18 -3z"/>
<path d="M1140 1040 c0 -23 25 -27 33 -6 7 16 -1 26 -20 26 -7 0 -13 -9 -13
-20z"/>
<path d="M1525 693 c-39 -20 -66 -44 -60 -53 5 -8 -82 -49 -158 -74 -90 -30
-194 -18 -331 39 -14 6 -18 4 -14 -6 8 -25 165 -72 233 -70 33 1 69 2 80 1 79
-5 93 -3 123 19 18 12 32 28 32 35 0 18 120 72 200 90 56 13 74 13 130 2 36
-8 89 -23 119 -35 30 -11 57 -18 60 -16 6 7 3 9 -54 32 -91 38 -187 56 -231
44 -25 -7 -42 -7 -48 -1 -14 14 -46 12 -81 -7z m64 -7 c-2 -2 -28 -13 -56 -24
-56 -21 -64 -11 -10 12 30 13 76 21 66 12z m-179 -105 c0 -14 -68 -43 -93 -39
-16 2 -8 9 33 24 30 12 56 22 58 23 1 0 2 -3 2 -8z"/>
<path d="M1661 632 c60 -67 98 -92 142 -92 43 0 132 44 122 60 -3 6 -19 0 -34
-11 -68 -50 -131 -38 -204 40 -49 52 -71 54 -26 3z"/>
</g>
</svg>
