<svg preserveAspectRatio="xMidYMid meet" viewBox="6.553747456 1109.090304 4096 1695.744" xmlns="http://www.w3.org/2000/svg" version="1.0" style="max-height: 500px" width="4096" height="1695.744">

<g stroke="none" fill="#000000" transform="translate(0.000000,4096.000000) scale(0.100000,-0.100000)">
<path d="M0 20480 l0 -20480 20480 0 20480 0 0 20480 0 20480 -20480 0 -20480&#10;0 0 -20480z m9795 7151 c440 -37 612 -60 941 -126 229 -47 373 -83 576 -145&#10;926 -286 1760 -741 2463 -1345 168 -143 435 -404 550 -535 222 -254 264 -304&#10;369 -444 146 -194 291 -411 406 -606 120 -203 351 -672 433 -880 259 -653 413&#10;-1343 457 -2040 13 -210 13 -770 0 -965 -81 -1197 -463 -2301 -1144 -3305&#10;-621 -915 -1481 -1671 -2456 -2160 -808 -406 -1637 -630 -2510 -680 -227 -12&#10;-722 -13 -965 0 -565 29 -1188 150 -1727 336 -476 164 -974 408 -1438 704&#10;-406 259 -748 537 -1141 929 -246 246 -344 353 -490 536 -659 825 -1090 1730&#10;-1304 2741 -117 552 -155 903 -155 1436 0 560 45 964 171 1537 78 352 154 593&#10;319 1006 41 104 164 352 264 535 412 754 843 1304 1446 1846 376 337 749 603&#10;1185 841 744 408 1563 659 2465 757 129 14 258 27 285 29 117 8 899 6 1000 -2z&#10;m8445 -5051 l0 -1020 975 0 975 0 2 1018 3 1017 383 3 382 2 -2 -2477 -3&#10;-2478 -380 0 -380 0 -3 1098 -2 1097 -975 0 -975 0 -2 -1097 -3 -1098 -372 -3&#10;-373 -2 0 2480 0 2480 375 0 375 0 0 -1020z m5260 -1460 l0 -2480 -370 0 -370&#10;0 0 2473 c0 1361 3 2477 7 2480 3 4 170 7 370 7 l363 0 0 -2480z m5051 2468&#10;c2 -7 3 -167 1 -355 l-3 -343 -734 0 -735 0 0 -2125 0 -2125 -360 0 -360 0 0&#10;2125 0 2125 -735 0 -735 0 0 355 0 355 1829 0 c1455 0 1830 -3 1832 -12z&#10;m4267 -320 l-3 -333 -1177 -3 -1178 -2 0 -710 0 -710 1021 0 1022 0 -6 -67&#10;c-4 -38 -7 -188 -7 -335 l0 -268 -1015 0 -1015 0 0 -775 0 -775 1215 0 1215 0&#10;0 -325 0 -325 -1580 0 -1580 0 0 2480 0 2480 1545 0 1545 0 -2 -332z m2466&#10;197 c129 -277 151 -324 206 -445 32 -69 92 -199 135 -290 188 -400 323 -688&#10;402 -860 47 -102 120 -259 163 -350 43 -91 121 -257 173 -370 52 -113 119&#10;-254 147 -315 29 -60 99 -209 155 -330 57 -121 127 -269 155 -330 29 -60 61&#10;-132 72 -160 33 -83 50 -115 62 -115 8 0 10 468 8 1827 -1 1006 0 1838 3 1851&#10;l5 22 355 0 355 0 0 -2480 0 -2480 -453 0 -452 0 -45 98 c-24 53 -97 212 -163&#10;352 -65 140 -130 280 -144 310 -15 30 -70 147 -123 260 -54 113 -137 290 -184&#10;393 -48 104 -114 246 -147 315 -34 70 -80 170 -104 222 -69 154 -99 217 -165&#10;355 -34 72 -75 157 -90 190 -15 33 -43 94 -63 135 -30 64 -147 316 -287 615&#10;-124 266 -160 346 -181 399 -13 33 -29 61 -36 63 -8 3 -11 -454 -12 -1839 -1&#10;-1014 -1 -1849 -1 -1855 0 -10 -78 -13 -359 -13 l-360 0 -6 43 c-4 32 -1 4903&#10;4 4915 1 1 207 1 458 0 l456 -3 61 -130z"/>
<path d="M8810 27254 c-370 -25 -504 -43 -852 -113 -225 -46 -346 -76 -529&#10;-131 -1004 -305 -1893 -838 -2609 -1566 -228 -232 -355 -377 -533 -612 -351&#10;-462 -665 -1025 -850 -1522 -206 -554 -318 -1018 -382 -1580 -36 -324 -44&#10;-905 -15 -1210 62 -660 236 -1337 496 -1935 78 -181 274 -559 381 -735 210&#10;-348 337 -524 644 -890 307 -367 748 -758 1214 -1076 170 -117 196 -133 422&#10;-263 309 -179 552 -284 763 -330 477 -104 565 -115 835 -108 205 6 253 13 435&#10;63 231 64 554 217 716 337 311 233 567 643 767 1227 96 277 116 384 127 649 8&#10;204 7 241 -9 241 -4 0 -49 -35 -101 -77 -161 -131 -365 -289 -467 -361 -343&#10;-243 -705 -429 -988 -509 -124 -34 -320 -43 -429 -19 -207 47 -466 252 -556&#10;441 -94 199 -150 451 -150 672 1 365 152 1232 316 1808 60 211 110 382 165&#10;563 60 197 73 287 49 333 -6 11 -111 99 -233 196 -388 309 -578 475 -807 709&#10;-165 168 -220 232 -307 354 -205 290 -331 585 -414 970 -19 89 -23 136 -23&#10;305 l-1 200 29 38 c48 62 198 124 313 129 70 3 80 -9 87 -110 14 -177 58 -414&#10;115 -620 51 -186 68 -229 156 -407 46 -93 94 -195 106 -225 35 -83 106 -186&#10;190 -275 41 -44 103 -116 136 -160 33 -44 91 -109 129 -145 126 -118 671 -536&#10;714 -547 16 -4 45 47 189 339 285 577 490 947 759 1373 28 44 69 109 92 145&#10;23 36 77 117 121 180 44 63 99 142 121 175 105 152 374 498 521 670 213 248&#10;564 586 817 785 454 358 972 630 1409 740 228 56 282 63 501 64 l205 1 95 -33&#10;c135 -47 230 -104 331 -200 184 -175 322 -439 390 -752 43 -197 35 -570 -16&#10;-815 -77 -366 -231 -878 -398 -1325 -241 -645 -590 -1357 -957 -1955 -247&#10;-404 -708 -1034 -1029 -1410 -47 -55 -99 -116 -115 -135 -16 -19 -70 -80 -120&#10;-135 -253 -277 -366 -398 -447 -475 l-89 -85 0 -260 c0 -551 -43 -820 -205&#10;-1300 -35 -104 -80 -243 -100 -308 -102 -330 -252 -601 -452 -816 -203 -218&#10;-602 -483 -853 -567 -68 -22 -87 -36 -68 -51 37 -29 1010 -46 1323 -23 998 74&#10;1997 408 2840 950 388 249 687 492 1036 840 547 546 976 1174 1286 1880 289&#10;656 461 1345 513 2045 13 179 13 788 0 970 -43 597 -195 1279 -399 1787 -150&#10;374 -242 569 -395 837 -302 528 -604 922 -1030 1346 -685 681 -1564 1217&#10;-2484 1515 -413 134 -957 246 -1362 280 -122 11 -970 21 -1080 14z"/>
<path d="M12130 25010 c-250 -42 -503 -135 -805 -297 -88 -47 -167 -91 -175&#10;-97 -8 -7 -60 -41 -115 -76 -129 -81 -380 -269 -470 -350 -251 -227 -542 -531&#10;-709 -740 -175 -219 -293 -373 -372 -485 -338 -482 -655 -1019 -969 -1640&#10;-169 -334 -230 -470 -240 -531 -6 -37 -3 -46 25 -78 17 -19 104 -88 193 -152&#10;515 -372 732 -549 963 -786 173 -177 291 -329 419 -542 60 -99 170 -329 219&#10;-456 68 -178 74 -181 163 -88 53 56 256 275 354 383 58 63 304 367 413 510 55&#10;72 121 158 147 192 76 97 255 353 373 533 325 493 685 1167 891 1670 175 426&#10;253 644 380 1060 51 167 106 405 151 645 39 208 44 436 14 621 -26 163 -53&#10;251 -122 392 -40 82 -64 117 -121 175 -98 99 -143 124 -264 142 -123 19 -210&#10;17 -343 -5z"/>
<path d="M8087 20263 c-52 -102 -289 -776 -325 -923 -169 -693 -242 -1146&#10;-242 -1492 0 -206 18 -296 82 -428 33 -67 60 -103 128 -171 117 -119 140 -129&#10;287 -129 96 0 136 5 212 26 208 57 475 197 760 398 234 166 627 499 730 619&#10;40 47 41 49 41 126 0 166 -132 523 -275 744 -132 205 -387 480 -680 733 -211&#10;182 -665 524 -696 524 -5 0 -15 -12 -22 -27z"/>
</g>
</svg>