<?xml version="1.0" encoding="UTF-8" standalone="no"?>
<!-- Created with Inkscape (http://www.inkscape.org/) -->

<svg
   width="210mm"
   height="297mm"
   viewBox="0 0 210 297"
   version="1.1"
   id="svg1"
   xml:space="preserve"
   inkscape:version="1.4.2 (ebf0e940d0, 2025-05-08)"
   sodipodi:docname="logo.svg"
   xmlns:inkscape="http://www.inkscape.org/namespaces/inkscape"
   xmlns:sodipodi="http://sodipodi.sourceforge.net/DTD/sodipodi-0.dtd"
   xmlns="http://www.w3.org/2000/svg"
   xmlns:svg="http://www.w3.org/2000/svg"><sodipodi:namedview
     id="namedview1"
     pagecolor="#ffffff"
     bordercolor="#666666"
     borderopacity="1.0"
     inkscape:showpageshadow="2"
     inkscape:pageopacity="0.0"
     inkscape:pagecheckerboard="0"
     inkscape:deskcolor="#d1d1d1"
     inkscape:document-units="mm"
     inkscape:zoom="1.0670983"
     inkscape:cx="326.58658"
     inkscape:cy="450.28652"
     inkscape:window-width="1920"
     inkscape:window-height="1058"
     inkscape:window-x="0"
     inkscape:window-y="0"
     inkscape:window-maximized="1"
     inkscape:current-layer="layer1" /><defs
     id="defs1" /><g
     inkscape:label="Layer 1"
     inkscape:groupmode="layer"
     id="layer1"><path
       style="fill:#d7d7d7;fill-opacity:1;stroke:#000000;stroke-width:2.64583;stroke-linecap:butt;stroke-linejoin:round;stroke-dasharray:none;stroke-opacity:1"
       d="m 123.97327,107.1129 0.99178,74.38396 c -3.0629,24.49044 -11.44979,26.0363 -25.042598,26.28234 -13.4025,0.24258 -24.392025,-5.24806 -24.794653,-37.19199 l 9.174022,10.16581 c 0,0 0.141924,-6.88564 -0.743839,-10.16581 -1.100184,-4.07422 -2.885793,-8.10873 -5.557527,-11.37546 -2.676083,-3.27204 -10.063105,-7.71642 -10.063105,-7.71642 1.423901,37.71876 3.651485,65.47669 31.737151,63.97021 21.043929,-4.4e-4 31.303259,-15.49944 32.215429,-34.2944 0,0 1.9822,-48.1468 -1.22727,-73.90783 0,0 8.42379,-7.01297 9.51737,-9.079066 3.2554,-6.150409 -1.1452,-15.817931 -4.66328,-16.902904 -3.96153,-1.221735 -12.74815,-1.67797 -15.99148,0.904124 -2.57668,2.05136 -4.37578,9.902469 -4.20264,13.191448 0.89178,5.545348 5.51085,7.250588 8.65064,11.735988 z"
       id="path1"
       sodipodi:nodetypes="ccsccsscsccssssc" /><circle
       style="opacity:1;fill:#ffffff;fill-opacity:1;stroke:#000000;stroke-width:2.64583;stroke-linecap:round;stroke-linejoin:round;stroke-dasharray:none;stroke-opacity:1"
       id="path2"
       cx="128.33102"
       cy="93.26609"
       r="6.1297264" /></g></svg>
