<svg xmlns="http://www.w3.org/2000/svg" xmlns:xlink="http://www.w3.org/1999/xlink" version="1.1" class="marks" width="644" height="473" viewBox="0 0 644 473"><rect width="644" height="473" fill="white"/><g fill="none" stroke-miterlimit="10" transform="translate(39,36)"><g class="mark-group role-frame root" role="graphics-object" aria-roledescription="group mark container"><g transform="translate(0,0)"><path class="background" aria-hidden="true" d="M0.5,0.5h600v400h-600Z" stroke="#ddd"/><g><g class="mark-group role-axis" aria-hidden="true"><g transform="translate(0.5,0.5)"><path class="background" aria-hidden="true" d="M0,0h0v0h0Z" pointer-events="none"/><g><g class="mark-rule role-axis-grid" pointer-events="none"><line transform="translate(0,400)" x2="600" y2="0" stroke="#ddd" stroke-width="1" opacity="1"/><line transform="translate(0,365)" x2="600" y2="0" stroke="#ddd" stroke-width="1" opacity="1"/><line transform="translate(0,330)" x2="600" y2="0" stroke="#ddd" stroke-width="1" opacity="1"/><line transform="translate(0,295)" x2="600" y2="0" stroke="#ddd" stroke-width="1" opacity="1"/><line transform="translate(0,260)" x2="600" y2="0" stroke="#ddd" stroke-width="1" opacity="1"/><line transform="translate(0,225)" x2="600" y2="0" stroke="#ddd" stroke-width="1" opacity="1"/><line transform="translate(0,190)" x2="600" y2="0" stroke="#ddd" stroke-width="1" opacity="1"/><line transform="translate(0,155)" x2="600" y2="0" stroke="#ddd" stroke-width="1" opacity="1"/><line transform="translate(0,121)" x2="600" y2="0" stroke="#ddd" stroke-width="1" opacity="1"/><line transform="translate(0,86)" x2="600" y2="0" stroke="#ddd" stroke-width="1" opacity="1"/><line transform="translate(0,51)" x2="600" y2="0" stroke="#ddd" stroke-width="1" opacity="1"/><line transform="translate(0,16)" x2="600" y2="0" stroke="#ddd" stroke-width="1" opacity="1"/></g></g><path class="foreground" aria-hidden="true" d="" pointer-events="none" display="none"/></g></g><g class="mark-group role-axis" role="graphics-symbol" aria-roledescription="axis" aria-label="X-axis titled 'Libraries' for a discrete scale with 6 values: toml_rs (0.0.13), rtoml (0.13.0), pytomlpp (1.0.13), toml (0.10.2), qtoml (0.3.1), tomlkit (0.13.3)"><g transform="translate(0.5,400.5)"><path class="background" aria-hidden="true" d="M0,0h0v0h0Z" pointer-events="none"/><g><g class="mark-rule role-axis-tick" pointer-events="none"><line transform="translate(50,0)" x2="0" y2="5" stroke="#888" stroke-width="1" opacity="1"/><line transform="translate(150,0)" x2="0" y2="5" stroke="#888" stroke-width="1" opacity="1"/><line transform="translate(250,0)" x2="0" y2="5" stroke="#888" stroke-width="1" opacity="1"/><line transform="translate(350,0)" x2="0" y2="5" stroke="#888" stroke-width="1" opacity="1"/><line transform="translate(450,0)" x2="0" y2="5" stroke="#888" stroke-width="1" opacity="1"/><line transform="translate(550,0)" x2="0" y2="5" stroke="#888" stroke-width="1" opacity="1"/></g><g class="mark-text role-axis-label" pointer-events="none"><text text-anchor="middle" transform="translate(49.5,15)" font-family="sans-serif" font-size="10px" fill="#000" opacity="1">toml_rs (0.0.13)</text><text text-anchor="middle" transform="translate(149.5,15)" font-family="sans-serif" font-size="10px" fill="#000" opacity="1">rtoml (0.13.0)</text><text text-anchor="middle" transform="translate(249.5,15)" font-family="sans-serif" font-size="10px" fill="#000" opacity="1">pytomlpp (1.0.13)</text><text text-anchor="middle" transform="translate(349.5,15)" font-family="sans-serif" font-size="10px" fill="#000" opacity="1">toml (0.10.2)</text><text text-anchor="middle" transform="translate(449.5,15)" font-family="sans-serif" font-size="10px" fill="#000" opacity="1">qtoml (0.3.1)</text><text text-anchor="middle" transform="translate(549.5,15)" font-family="sans-serif" font-size="10px" fill="#000" opacity="1">tomlkit (0.13.3)</text></g><g class="mark-rule role-axis-domain" pointer-events="none"><line transform="translate(0,0)" x2="600" y2="0" stroke="#888" stroke-width="1" opacity="1"/></g><g class="mark-text role-axis-title" pointer-events="none"><text text-anchor="middle" transform="translate(300,30)" font-family="sans-serif" font-size="11px" font-weight="bold" fill="#000" opacity="1">Libraries</text></g></g><path class="foreground" aria-hidden="true" d="" pointer-events="none" display="none"/></g></g><g class="mark-group role-axis" role="graphics-symbol" aria-roledescription="axis" aria-label="Y-axis titled 'Execution Time (seconds, lower=better)' for a linear scale with values from 0 to 23"><g transform="translate(0.5,0.5)"><path class="background" aria-hidden="true" d="M0,0h0v0h0Z" pointer-events="none"/><g><g class="mark-rule role-axis-tick" pointer-events="none"><line transform="translate(0,400)" x2="-5" y2="0" stroke="#888" stroke-width="1" opacity="1"/><line transform="translate(0,365)" x2="-5" y2="0" stroke="#888" stroke-width="1" opacity="1"/><line transform="translate(0,330)" x2="-5" y2="0" stroke="#888" stroke-width="1" opacity="1"/><line transform="translate(0,295)" x2="-5" y2="0" stroke="#888" stroke-width="1" opacity="1"/><line transform="translate(0,260)" x2="-5" y2="0" stroke="#888" stroke-width="1" opacity="1"/><line transform="translate(0,225)" x2="-5" y2="0" stroke="#888" stroke-width="1" opacity="1"/><line transform="translate(0,190)" x2="-5" y2="0" stroke="#888" stroke-width="1" opacity="1"/><line transform="translate(0,155)" x2="-5" y2="0" stroke="#888" stroke-width="1" opacity="1"/><line transform="translate(0,121)" x2="-5" y2="0" stroke="#888" stroke-width="1" opacity="1"/><line transform="translate(0,86)" x2="-5" y2="0" stroke="#888" stroke-width="1" opacity="1"/><line transform="translate(0,51)" x2="-5" y2="0" stroke="#888" stroke-width="1" opacity="1"/><line transform="translate(0,16)" x2="-5" y2="0" stroke="#888" stroke-width="1" opacity="1"/></g><g class="mark-text role-axis-label" pointer-events="none"><text text-anchor="end" transform="translate(-7,403)" font-family="sans-serif" font-size="10px" fill="#000" opacity="1">0</text><text text-anchor="end" transform="translate(-7,368.06609064434866)" font-family="sans-serif" font-size="10px" fill="#000" opacity="1">2</text><text text-anchor="end" transform="translate(-7,333.1321812886973)" font-family="sans-serif" font-size="10px" fill="#000" opacity="1">4</text><text text-anchor="end" transform="translate(-7,298.19827193304604)" font-family="sans-serif" font-size="10px" fill="#000" opacity="1">6</text><text text-anchor="end" transform="translate(-7,263.26436257739465)" font-family="sans-serif" font-size="10px" fill="#000" opacity="1">8</text><text text-anchor="end" transform="translate(-7,228.3304532217433)" font-family="sans-serif" font-size="10px" fill="#000" opacity="1">10</text><text text-anchor="end" transform="translate(-7,193.396543866092)" font-family="sans-serif" font-size="10px" fill="#000" opacity="1">12</text><text text-anchor="end" transform="translate(-7,158.46263451044064)" font-family="sans-serif" font-size="10px" fill="#000" opacity="1">14</text><text text-anchor="end" transform="translate(-7,123.5287251547893)" font-family="sans-serif" font-size="10px" fill="#000" opacity="1">16</text><text text-anchor="end" transform="translate(-7,88.59481579913796)" font-family="sans-serif" font-size="10px" fill="#000" opacity="1">18</text><text text-anchor="end" transform="translate(-7,53.66090644348664)" font-family="sans-serif" font-size="10px" fill="#000" opacity="1">20</text><text text-anchor="end" transform="translate(-7,18.726997087835315)" font-family="sans-serif" font-size="10px" fill="#000" opacity="1">22</text></g><g class="mark-rule role-axis-domain" pointer-events="none"><line transform="translate(0,400)" x2="0" y2="-400" stroke="#888" stroke-width="1" opacity="1"/></g><g class="mark-text role-axis-title" pointer-events="none"><text text-anchor="middle" transform="translate(-22.123046875,200) rotate(-90) translate(0,-2)" font-family="sans-serif" font-size="11px" font-weight="bold" fill="#000" opacity="1">Execution Time (seconds, lower=better)</text></g></g><path class="foreground" aria-hidden="true" d="" pointer-events="none" display="none"/></g></g><g class="mark-group role-scope" role="graphics-object" aria-roledescription="group mark container"><g transform="translate(5,395.70337718000786)"><path class="background" aria-hidden="true" d="M2.1483114099960687,0L87.85168859000393,0C89.03737393447265,0,90,0.9626260655273489,90,2.1483114099960687L90,4.2966228199921375C90,4.2966228199921375,90,4.2966228199921375,90,4.2966228199921375L0,4.2966228199921375C0,4.2966228199921375,0,4.2966228199921375,0,4.2966228199921375L0,2.1483114099960687C0,0.9626260655273489,0.9626260655273489,0,2.1483114099960687,0Z"/><g clip-path="url(#clip8)"><g class="mark-group role-scope" role="graphics-object" aria-roledescription="group mark container"><g transform="translate(0,-395.70337718000786)"><path class="background" aria-hidden="true" d="M0,0h90v0h-90Z"/><g><g class="mark-rect role-mark layer_0_marks" role="graphics-object" aria-roledescription="rect mark container"><path aria-label="Libraries: toml_rs (0.0.13); Execution Time (seconds, lower=better): 0.2459858; parser: toml_rs (0.0.13); Execution Time (s): 0.2460; Slowdown: 1.00" role="graphics-symbol" aria-roledescription="bar" d="M0,395.70337718000786h90v4.2966228199921375h-90Z" fill="#66a61e"/></g></g><path class="foreground" aria-hidden="true" d="" display="none"/></g></g></g><path class="foreground" aria-hidden="true" d="" display="none"/></g><g transform="translate(105,393.619408790907)"><path class="background" aria-hidden="true" d="M3.190295604546492,0L86.80970439545351,0C88.57047647217989,0,90,1.4295235278201144,90,3.190295604546492L90,6.380591209092984C90,6.380591209092984,90,6.380591209092984,90,6.380591209092984L0,6.380591209092984C0,6.380591209092984,0,6.380591209092984,0,6.380591209092984L0,3.190295604546492C0,1.4295235278201144,1.4295235278201144,0,3.190295604546492,0Z"/><g clip-path="url(#clip9)"><g class="mark-group role-scope" role="graphics-object" aria-roledescription="group mark container"><g transform="translate(0,-393.619408790907)"><path class="background" aria-hidden="true" d="M0,0h90v0h-90Z"/><g><g class="mark-rect role-mark layer_0_marks" role="graphics-object" aria-roledescription="rect mark container"><path aria-label="Libraries: rtoml (0.13.0); Execution Time (seconds, lower=better): 0.365295000003; parser: rtoml (0.13.0); Execution Time (s): 0.3653; Slowdown: 1.49" role="graphics-symbol" aria-roledescription="bar" d="M0,393.619408790907h90v6.380591209092984h-90Z" fill="#7570b3"/></g></g><path class="foreground" aria-hidden="true" d="" display="none"/></g></g></g><path class="foreground" aria-hidden="true" d="" display="none"/></g><g transform="translate(205,391.83165549948814)"><path class="background" aria-hidden="true" d="M4.084172250255932,0L85.91582774974407,0C88.16994377728179,0,90,1.8300562227182142,90,4.084172250255932L90,8.168344500511864C90,8.168344500511864,90,8.168344500511864,90,8.168344500511864L0,8.168344500511864C0,8.168344500511864,0,8.168344500511864,0,8.168344500511864L0,4.084172250255932C0,1.8300562227182142,1.8300562227182142,0,4.084172250255932,0Z"/><g clip-path="url(#clip10)"><g class="mark-group role-scope" role="graphics-object" aria-roledescription="group mark container"><g transform="translate(0,-391.83165549948814)"><path class="background" aria-hidden="true" d="M0,0h90v0h-90Z"/><g><g class="mark-rect role-mark layer_0_marks" role="graphics-object" aria-roledescription="rect mark container"><path aria-label="Libraries: pytomlpp (1.0.13); Execution Time (seconds, lower=better): 0.467645600002; parser: pytomlpp (1.0.13); Execution Time (s): 0.4676; Slowdown: 1.90" role="graphics-symbol" aria-roledescription="bar" d="M0,391.83165549948814h90v8.168344500511864h-90Z" fill="#1b9e77"/></g></g><path class="foreground" aria-hidden="true" d="" display="none"/></g></g></g><path class="foreground" aria-hidden="true" d="" display="none"/></g><g transform="translate(305,382.3968851703743)"><path class="background" aria-hidden="true" d="M6,0L84,0C87.311490146964,0,90,2.688509853036,90,6L90,17.603114829625724C90,17.603114829625724,90,17.603114829625724,90,17.603114829625724L0,17.603114829625724C0,17.603114829625724,0,17.603114829625724,0,17.603114829625724L0,6C0,2.688509853036,2.688509853036,0,6,0Z"/><g clip-path="url(#clip11)"><g class="mark-group role-scope" role="graphics-object" aria-roledescription="group mark container"><g transform="translate(0,-382.3968851703743)"><path class="background" aria-hidden="true" d="M0,0h90v0h-90Z"/><g><g class="mark-rect role-mark layer_0_marks" role="graphics-object" aria-roledescription="rect mark container"><path aria-label="Libraries: toml (0.10.2); Execution Time (seconds, lower=better): 1.0077953; parser: toml (0.10.2); Execution Time (s): 1.0078; Slowdown: 4.10" role="graphics-symbol" aria-roledescription="bar" d="M0,382.3968851703743h90v17.603114829625724h-90Z" fill="#e7298a"/></g></g><path class="foreground" aria-hidden="true" d="" display="none"/></g></g></g><path class="foreground" aria-hidden="true" d="" display="none"/></g><g transform="translate(405,353.1066362058293)"><path class="background" aria-hidden="true" d="M6,0L84,0C87.311490146964,0,90,2.688509853036,90,6L90,46.89336379417068C90,46.89336379417068,90,46.89336379417068,90,46.89336379417068L0,46.89336379417068C0,46.89336379417068,0,46.89336379417068,0,46.89336379417068L0,6C0,2.688509853036,2.688509853036,0,6,0Z"/><g clip-path="url(#clip12)"><g class="mark-group role-scope" role="graphics-object" aria-roledescription="group mark container"><g transform="translate(0,-353.1066362058293)"><path class="background" aria-hidden="true" d="M0,0h90v0h-90Z"/><g><g class="mark-rect role-mark layer_0_marks" role="graphics-object" aria-roledescription="rect mark container"><path aria-label="Libraries: qtoml (0.3.1); Execution Time (seconds, lower=better): 2.6846903; parser: qtoml (0.3.1); Execution Time (s): 2.6847; Slowdown: 10.91" role="graphics-symbol" aria-roledescription="bar" d="M0,353.1066362058293h90v46.89336379417068h-90Z" fill="#d95f02"/></g></g><path class="foreground" aria-hidden="true" d="" display="none"/></g></g></g><path class="foreground" aria-hidden="true" d="" display="none"/></g><g transform="translate(505,36.363636363636374)"><path class="background" aria-hidden="true" d="M6,0L84,0C87.311490146964,0,90,2.688509853036,90,6L90,363.6363636363636C90,363.6363636363636,90,363.6363636363636,90,363.6363636363636L0,363.6363636363636C0,363.6363636363636,0,363.6363636363636,0,363.6363636363636L0,6C0,2.688509853036,2.688509853036,0,6,0Z"/><g clip-path="url(#clip13)"><g class="mark-group role-scope" role="graphics-object" aria-roledescription="group mark container"><g transform="translate(0,-36.363636363636374)"><path class="background" aria-hidden="true" d="M0,0h90v0h-90Z"/><g><g class="mark-rect role-mark layer_0_marks" role="graphics-object" aria-roledescription="rect mark container"><path aria-label="Libraries: tomlkit (0.13.3); Execution Time (seconds, lower=better): 20.8185325; parser: tomlkit (0.13.3); Execution Time (s): 20.8185; Slowdown: 84.63" role="graphics-symbol" aria-roledescription="bar" d="M0,36.363636363636374h90v363.6363636363636h-90Z" fill="#e6ab02"/></g></g><path class="foreground" aria-hidden="true" d="" display="none"/></g></g></g><path class="foreground" aria-hidden="true" d="" display="none"/></g></g><g class="mark-text role-mark layer_1_marks" role="graphics-object" aria-roledescription="text mark container"><text aria-label="Libraries: toml_rs (0.0.13); Execution Time (seconds, lower=better): 0.2459858; parser: toml_rs (0.0.13); label: 0.2460s (x1.00); Execution Time (s): 0.2460; Slowdown: 1.00" role="graphics-symbol" aria-roledescription="text mark" text-anchor="middle" transform="translate(50,391.70337718000786)" font-family="sans-serif" font-size="9px" font-weight="bold" fill="#66a61e">0.2460s (x1.00)</text><text aria-label="Libraries: rtoml (0.13.0); Execution Time (seconds, lower=better): 0.365295000003; parser: rtoml (0.13.0); label: 0.3653s (x1.49); Execution Time (s): 0.3653; Slowdown: 1.49" role="graphics-symbol" aria-roledescription="text mark" text-anchor="middle" transform="translate(150,389.619408790907)" font-family="sans-serif" font-size="9px" font-weight="bold" fill="#7570b3">0.3653s (x1.49)</text><text aria-label="Libraries: pytomlpp (1.0.13); Execution Time (seconds, lower=better): 0.467645600002; parser: pytomlpp (1.0.13); label: 0.4676s (x1.90); Execution Time (s): 0.4676; Slowdown: 1.90" role="graphics-symbol" aria-roledescription="text mark" text-anchor="middle" transform="translate(250,387.83165549948814)" font-family="sans-serif" font-size="9px" font-weight="bold" fill="#1b9e77">0.4676s (x1.90)</text><text aria-label="Libraries: toml (0.10.2); Execution Time (seconds, lower=better): 1.0077953; parser: toml (0.10.2); label: 1.0078s (x4.10); Execution Time (s): 1.0078; Slowdown: 4.10" role="graphics-symbol" aria-roledescription="text mark" text-anchor="middle" transform="translate(350,378.3968851703743)" font-family="sans-serif" font-size="9px" font-weight="bold" fill="#e7298a">1.0078s (x4.10)</text><text aria-label="Libraries: qtoml (0.3.1); Execution Time (seconds, lower=better): 2.6846903; parser: qtoml (0.3.1); label: 2.6847s (x10.91); Execution Time (s): 2.6847; Slowdown: 10.91" role="graphics-symbol" aria-roledescription="text mark" text-anchor="middle" transform="translate(450,349.1066362058293)" font-family="sans-serif" font-size="9px" font-weight="bold" fill="#d95f02">2.6847s (x10.91)</text><text aria-label="Libraries: tomlkit (0.13.3); Execution Time (seconds, lower=better): 20.8185325; parser: tomlkit (0.13.3); label: 20.8185s (x84.63); Execution Time (s): 20.8185; Slowdown: 84.63" role="graphics-symbol" aria-roledescription="text mark" text-anchor="middle" transform="translate(550,32.363636363636374)" font-family="sans-serif" font-size="9px" font-weight="bold" fill="#e6ab02">20.8185s (x84.63)</text></g><g class="mark-group role-title"><g transform="translate(300,-31)"><path class="background" aria-hidden="true" d="M0,0h0v0h0Z" pointer-events="none"/><g><g class="mark-text role-title-text" role="graphics-symbol" aria-roledescription="title" aria-label="Title text 'TOML parsers benchmark (dumps)'" pointer-events="none"><text text-anchor="middle" transform="translate(0,10)" font-family="sans-serif" font-size="13px" font-weight="bold" fill="#000" opacity="1">TOML parsers benchmark (dumps)</text></g><g class="mark-text role-title-subtitle" role="graphics-symbol" aria-roledescription="subtitle" aria-label="Subtitle text 'Python: 3.13.8 (Windows 10) | CPU: 11th Gen Intel(R) Core(TM) i5-11300H @ 3.10GHz'" pointer-events="none"><text text-anchor="middle" transform="translate(0,25)" font-family="sans-serif" font-size="12px" fill="#000" opacity="1">Python: 3.13.8 (Windows 10) | CPU: 11th Gen Intel(R) Core(TM) i5-11300H @ 3.10GHz</text></g></g><path class="foreground" aria-hidden="true" d="" pointer-events="none" display="none"/></g></g></g><path class="foreground" aria-hidden="true" d="" display="none"/></g></g></g><defs><clipPath id="clip8"><path d="M2.1483114099960687,0L87.85168859000393,0C89.03737393447265,0,90,0.9626260655273489,90,2.1483114099960687L90,4.2966228199921375C90,4.2966228199921375,90,4.2966228199921375,90,4.2966228199921375L0,4.2966228199921375C0,4.2966228199921375,0,4.2966228199921375,0,4.2966228199921375L0,2.1483114099960687C0,0.9626260655273489,0.9626260655273489,0,2.1483114099960687,0Z"/></clipPath><clipPath id="clip9"><path d="M3.190295604546492,0L86.80970439545351,0C88.57047647217989,0,90,1.4295235278201144,90,3.190295604546492L90,6.380591209092984C90,6.380591209092984,90,6.380591209092984,90,6.380591209092984L0,6.380591209092984C0,6.380591209092984,0,6.380591209092984,0,6.380591209092984L0,3.190295604546492C0,1.4295235278201144,1.4295235278201144,0,3.190295604546492,0Z"/></clipPath><clipPath id="clip10"><path d="M4.084172250255932,0L85.91582774974407,0C88.16994377728179,0,90,1.8300562227182142,90,4.084172250255932L90,8.168344500511864C90,8.168344500511864,90,8.168344500511864,90,8.168344500511864L0,8.168344500511864C0,8.168344500511864,0,8.168344500511864,0,8.168344500511864L0,4.084172250255932C0,1.8300562227182142,1.8300562227182142,0,4.084172250255932,0Z"/></clipPath><clipPath id="clip11"><path d="M6,0L84,0C87.311490146964,0,90,2.688509853036,90,6L90,17.603114829625724C90,17.603114829625724,90,17.603114829625724,90,17.603114829625724L0,17.603114829625724C0,17.603114829625724,0,17.603114829625724,0,17.603114829625724L0,6C0,2.688509853036,2.688509853036,0,6,0Z"/></clipPath><clipPath id="clip12"><path d="M6,0L84,0C87.311490146964,0,90,2.688509853036,90,6L90,46.89336379417068C90,46.89336379417068,90,46.89336379417068,90,46.89336379417068L0,46.89336379417068C0,46.89336379417068,0,46.89336379417068,0,46.89336379417068L0,6C0,2.688509853036,2.688509853036,0,6,0Z"/></clipPath><clipPath id="clip13"><path d="M6,0L84,0C87.311490146964,0,90,2.688509853036,90,6L90,363.6363636363636C90,363.6363636363636,90,363.6363636363636,90,363.6363636363636L0,363.6363636363636C0,363.6363636363636,0,363.6363636363636,0,363.6363636363636L0,6C0,2.688509853036,2.688509853036,0,6,0Z"/></clipPath></defs></svg>