<svg xmlns="http://www.w3.org/2000/svg" xmlns:xlink="http://www.w3.org/1999/xlink" version="1.1" class="marks" width="644" height="475" viewBox="0 0 644 475"><rect width="644" height="475" fill="white"/><g fill="none" stroke-miterlimit="10" transform="translate(39,38)"><g class="mark-group role-frame root" role="graphics-object" aria-roledescription="group mark container"><g transform="translate(0,0)"><path class="background" aria-hidden="true" d="M0.5,0.5h600v400h-600Z" stroke="#ddd"/><g><g class="mark-group role-axis" aria-hidden="true"><g transform="translate(0.5,0.5)"><path class="background" aria-hidden="true" d="M0,0h0v0h0Z" pointer-events="none"/><g><g class="mark-rule role-axis-grid" pointer-events="none"><line transform="translate(0,400)" x2="600" y2="0" stroke="#ddd" stroke-width="1" opacity="1"/><line transform="translate(0,364)" x2="600" y2="0" stroke="#ddd" stroke-width="1" opacity="1"/><line transform="translate(0,328)" x2="600" y2="0" stroke="#ddd" stroke-width="1" opacity="1"/><line transform="translate(0,292)" x2="600" y2="0" stroke="#ddd" stroke-width="1" opacity="1"/><line transform="translate(0,256)" x2="600" y2="0" stroke="#ddd" stroke-width="1" opacity="1"/><line transform="translate(0,220)" x2="600" y2="0" stroke="#ddd" stroke-width="1" opacity="1"/><line transform="translate(0,184)" x2="600" y2="0" stroke="#ddd" stroke-width="1" opacity="1"/><line transform="translate(0,148)" x2="600" y2="0" stroke="#ddd" stroke-width="1" opacity="1"/><line transform="translate(0,112)" x2="600" y2="0" stroke="#ddd" stroke-width="1" opacity="1"/><line transform="translate(0,76)" x2="600" y2="0" stroke="#ddd" stroke-width="1" opacity="1"/><line transform="translate(0,40)" x2="600" y2="0" stroke="#ddd" stroke-width="1" opacity="1"/><line transform="translate(0,4)" x2="600" y2="0" stroke="#ddd" stroke-width="1" opacity="1"/></g></g><path class="foreground" aria-hidden="true" d="" pointer-events="none" display="none"/></g></g><g class="mark-group role-axis" role="graphics-symbol" aria-roledescription="axis" aria-label="X-axis titled 'Libraries' for a discrete scale with 7 values: toml_rs (0.0.13), rtoml (0.13.0), pytomlpp (1.0.13), tomllib (built-in), toml (0.10.2), qtoml (0.3.1), tomlkit (0.13.3)"><g transform="translate(0.5,400.5)"><path class="background" aria-hidden="true" d="M0,0h0v0h0Z" pointer-events="none"/><g><g class="mark-rule role-axis-tick" pointer-events="none"><line transform="translate(42,0)" x2="0" y2="5" stroke="#888" stroke-width="1" opacity="1"/><line transform="translate(128,0)" x2="0" y2="5" stroke="#888" stroke-width="1" opacity="1"/><line transform="translate(214,0)" x2="0" y2="5" stroke="#888" stroke-width="1" opacity="1"/><line transform="translate(299,0)" x2="0" y2="5" stroke="#888" stroke-width="1" opacity="1"/><line transform="translate(385,0)" x2="0" y2="5" stroke="#888" stroke-width="1" opacity="1"/><line transform="translate(471,0)" x2="0" y2="5" stroke="#888" stroke-width="1" opacity="1"/><line transform="translate(557,0)" x2="0" y2="5" stroke="#888" stroke-width="1" opacity="1"/></g><g class="mark-text role-axis-label" pointer-events="none"><text text-anchor="middle" transform="translate(42.35714285714285,15)" font-family="sans-serif" font-size="10px" fill="#000" opacity="1">toml_rs (0.0.13)</text><text text-anchor="middle" transform="translate(128.07142857142856,15)" font-family="sans-serif" font-size="10px" fill="#000" opacity="1">rtoml (0.13.0)</text><text text-anchor="middle" transform="translate(213.78571428571428,15)" font-family="sans-serif" font-size="10px" fill="#000" opacity="1">pytomlpp (1.0.13)</text><text text-anchor="middle" transform="translate(299.49999999999994,15)" font-family="sans-serif" font-size="10px" fill="#000" opacity="1">tomllib (built-in)</text><text text-anchor="middle" transform="translate(385.21428571428567,15)" font-family="sans-serif" font-size="10px" fill="#000" opacity="1">toml (0.10.2)</text><text text-anchor="middle" transform="translate(470.9285714285714,15)" font-family="sans-serif" font-size="10px" fill="#000" opacity="1">qtoml (0.3.1)</text><text text-anchor="middle" transform="translate(556.642857142857,15)" font-family="sans-serif" font-size="10px" fill="#000" opacity="1">tomlkit (0.13.3)</text></g><g class="mark-rule role-axis-domain" pointer-events="none"><line transform="translate(0,0)" x2="600" y2="0" stroke="#888" stroke-width="1" opacity="1"/></g><g class="mark-text role-axis-title" pointer-events="none"><text text-anchor="middle" transform="translate(300,30)" font-family="sans-serif" font-size="11px" font-weight="bold" fill="#000" opacity="1">Libraries</text></g></g><path class="foreground" aria-hidden="true" d="" pointer-events="none" display="none"/></g></g><g class="mark-group role-axis" role="graphics-symbol" aria-roledescription="axis" aria-label="Y-axis titled 'Execution Time (seconds, lower=better)' for a linear scale with values from 0 to 56"><g transform="translate(0.5,0.5)"><path class="background" aria-hidden="true" d="M0,0h0v0h0Z" pointer-events="none"/><g><g class="mark-rule role-axis-tick" pointer-events="none"><line transform="translate(0,400)" x2="-5" y2="0" stroke="#888" stroke-width="1" opacity="1"/><line transform="translate(0,364)" x2="-5" y2="0" stroke="#888" stroke-width="1" opacity="1"/><line transform="translate(0,328)" x2="-5" y2="0" stroke="#888" stroke-width="1" opacity="1"/><line transform="translate(0,292)" x2="-5" y2="0" stroke="#888" stroke-width="1" opacity="1"/><line transform="translate(0,256)" x2="-5" y2="0" stroke="#888" stroke-width="1" opacity="1"/><line transform="translate(0,220)" x2="-5" y2="0" stroke="#888" stroke-width="1" opacity="1"/><line transform="translate(0,184)" x2="-5" y2="0" stroke="#888" stroke-width="1" opacity="1"/><line transform="translate(0,148)" x2="-5" y2="0" stroke="#888" stroke-width="1" opacity="1"/><line transform="translate(0,112)" x2="-5" y2="0" stroke="#888" stroke-width="1" opacity="1"/><line transform="translate(0,76)" x2="-5" y2="0" stroke="#888" stroke-width="1" opacity="1"/><line transform="translate(0,40)" x2="-5" y2="0" stroke="#888" stroke-width="1" opacity="1"/><line transform="translate(0,4)" x2="-5" y2="0" stroke="#888" stroke-width="1" opacity="1"/></g><g class="mark-text role-axis-label" pointer-events="none"><text text-anchor="end" transform="translate(-7,403)" font-family="sans-serif" font-size="10px" fill="#000" opacity="1">0</text><text text-anchor="end" transform="translate(-7,366.97176224681107)" font-family="sans-serif" font-size="10px" fill="#000" opacity="1">5</text><text text-anchor="end" transform="translate(-7,330.9435244936221)" font-family="sans-serif" font-size="10px" fill="#000" opacity="1">10</text><text text-anchor="end" transform="translate(-7,294.91528674043315)" font-family="sans-serif" font-size="10px" fill="#000" opacity="1">15</text><text text-anchor="end" transform="translate(-7,258.88704898724416)" font-family="sans-serif" font-size="10px" fill="#000" opacity="1">20</text><text text-anchor="end" transform="translate(-7,222.85881123405525)" font-family="sans-serif" font-size="10px" fill="#000" opacity="1">25</text><text text-anchor="end" transform="translate(-7,186.8305734808663)" font-family="sans-serif" font-size="10px" fill="#000" opacity="1">30</text><text text-anchor="end" transform="translate(-7,150.80233572767733)" font-family="sans-serif" font-size="10px" fill="#000" opacity="1">35</text><text text-anchor="end" transform="translate(-7,114.77409797448838)" font-family="sans-serif" font-size="10px" fill="#000" opacity="1">40</text><text text-anchor="end" transform="translate(-7,78.74586022129944)" font-family="sans-serif" font-size="10px" fill="#000" opacity="1">45</text><text text-anchor="end" transform="translate(-7,42.71762246811048)" font-family="sans-serif" font-size="10px" fill="#000" opacity="1">50</text><text text-anchor="end" transform="translate(-7,6.689384714921529)" font-family="sans-serif" font-size="10px" fill="#000" opacity="1">55</text></g><g class="mark-rule role-axis-domain" pointer-events="none"><line transform="translate(0,400)" x2="0" y2="-400" stroke="#888" stroke-width="1" opacity="1"/></g><g class="mark-text role-axis-title" pointer-events="none"><text text-anchor="middle" transform="translate(-22.123046875,200) rotate(-90) translate(0,-2)" font-family="sans-serif" font-size="11px" font-weight="bold" fill="#000" opacity="1">Execution Time (seconds, lower=better)</text></g></g><path class="foreground" aria-hidden="true" d="" pointer-events="none" display="none"/></g></g><g class="mark-group role-scope" role="graphics-object" aria-roledescription="group mark container"><g transform="translate(4.285714285714278,397.4732921290976)"><path class="background" aria-hidden="true" d="M1.2633539354511925,0L75.87950320740595,0C76.57676722563508,0,77.14285714285714,0.5660899172220563,77.14285714285714,1.2633539354511925L77.14285714285714,2.526707870902385C77.14285714285714,2.526707870902385,77.14285714285714,2.526707870902385,77.14285714285714,2.526707870902385L0,2.526707870902385C0,2.526707870902385,0,2.526707870902385,0,2.526707870902385L0,1.2633539354511925C0,0.5660899172220563,0.5660899172220563,0,1.2633539354511925,0Z"/><g clip-path="url(#clip1)"><g class="mark-group role-scope" role="graphics-object" aria-roledescription="group mark container"><g transform="translate(0,-397.4732921290976)"><path class="background" aria-hidden="true" d="M0,0h77.14285714285714v0h-77.14285714285714Z"/><g><g class="mark-rect role-mark layer_0_marks" role="graphics-object" aria-roledescription="rect mark container"><path aria-label="Libraries: toml_rs (0.0.13); Execution Time (seconds, lower=better): 0.3506566; parser: toml_rs (0.0.13); Execution Time (s): 0.3507; Slowdown: 1.00" role="graphics-symbol" aria-roledescription="bar" d="M0,397.4732921290976h77.14285714285714v2.526707870902385h-77.14285714285714Z" fill="#66a61e"/></g></g><path class="foreground" aria-hidden="true" d="" display="none"/></g></g></g><path class="foreground" aria-hidden="true" d="" display="none"/></g><g transform="translate(89.99999999999999,395.68958019406534)"><path class="background" aria-hidden="true" d="M2.1552099029673286,0L74.98764723988981,0C76.17713996627573,0,77.14285714285714,0.9657171765814041,77.14285714285714,2.1552099029673286L77.14285714285714,4.310419805934657C77.14285714285714,4.310419805934657,77.14285714285714,4.310419805934657,77.14285714285714,4.310419805934657L0,4.310419805934657C0,4.310419805934657,0,4.310419805934657,0,4.310419805934657L0,2.1552099029673286C0,0.9657171765814041,0.9657171765814041,0,2.1552099029673286,0Z"/><g clip-path="url(#clip2)"><g class="mark-group role-scope" role="graphics-object" aria-roledescription="group mark container"><g transform="translate(0,-395.68958019406534)"><path class="background" aria-hidden="true" d="M0,0h77.14285714285714v0h-77.14285714285714Z"/><g><g class="mark-rect role-mark layer_0_marks" role="graphics-object" aria-roledescription="rect mark container"><path aria-label="Libraries: rtoml (0.13.0); Execution Time (seconds, lower=better): 0.598200200002; parser: rtoml (0.13.0); Execution Time (s): 0.5982; Slowdown: 1.71" role="graphics-symbol" aria-roledescription="bar" d="M0,395.68958019406534h77.14285714285714v4.310419805934657h-77.14285714285714Z" fill="#7570b3"/></g></g><path class="foreground" aria-hidden="true" d="" display="none"/></g></g></g><path class="foreground" aria-hidden="true" d="" display="none"/></g><g transform="translate(175.7142857142857,394.6748830676915)"><path class="background" aria-hidden="true" d="M2.662558466154252,0L74.48029867670289,0C75.94980469776712,0,77.14285714285714,1.1930524450900208,77.14285714285714,2.662558466154252L77.14285714285714,5.325116932308504C77.14285714285714,5.325116932308504,77.14285714285714,5.325116932308504,77.14285714285714,5.325116932308504L0,5.325116932308504C0,5.325116932308504,0,5.325116932308504,0,5.325116932308504L0,2.662558466154252C0,1.1930524450900208,1.1930524450900208,0,2.662558466154252,0Z"/><g clip-path="url(#clip3)"><g class="mark-group role-scope" role="graphics-object" aria-roledescription="group mark container"><g transform="translate(0,-394.6748830676915)"><path class="background" aria-hidden="true" d="M0,0h77.14285714285714v0h-77.14285714285714Z"/><g><g class="mark-rect role-mark layer_0_marks" role="graphics-object" aria-roledescription="rect mark container"><path aria-label="Libraries: pytomlpp (1.0.13); Execution Time (seconds, lower=better): 0.7390199; parser: pytomlpp (1.0.13); Execution Time (s): 0.7390; Slowdown: 2.11" role="graphics-symbol" aria-roledescription="bar" d="M0,394.6748830676915h77.14285714285714v5.325116932308504h-77.14285714285714Z" fill="#1b9e77"/></g></g><path class="foreground" aria-hidden="true" d="" display="none"/></g></g></g><path class="foreground" aria-hidden="true" d="" display="none"/></g><g transform="translate(261.4285714285714,378.89622050853814)"><path class="background" aria-hidden="true" d="M6,0L71.14285714285714,0C74.45434728982114,0,77.14285714285714,2.688509853036,77.14285714285714,6L77.14285714285714,21.103779491461864C77.14285714285714,21.103779491461864,77.14285714285714,21.103779491461864,77.14285714285714,21.103779491461864L0,21.103779491461864C0,21.103779491461864,0,21.103779491461864,0,21.103779491461864L0,6C0,2.688509853036,2.688509853036,0,6,0Z"/><g clip-path="url(#clip4)"><g class="mark-group role-scope" role="graphics-object" aria-roledescription="group mark container"><g transform="translate(0,-378.89622050853814)"><path class="background" aria-hidden="true" d="M0,0h77.14285714285714v0h-77.14285714285714Z"/><g><g class="mark-rect role-mark layer_0_marks" role="graphics-object" aria-roledescription="rect mark container"><path aria-label="Libraries: tomllib (built-in); Execution Time (seconds, lower=better): 2.9287832; parser: tomllib (built-in); Execution Time (s): 2.9288; Slowdown: 8.35" role="graphics-symbol" aria-roledescription="bar" d="M0,378.89622050853814h77.14285714285714v21.103779491461864h-77.14285714285714Z" fill="#a6761d"/></g></g><path class="foreground" aria-hidden="true" d="" display="none"/></g></g></g><path class="foreground" aria-hidden="true" d="" display="none"/></g><g transform="translate(347.1428571428571,348.689091790055)"><path class="background" aria-hidden="true" d="M6,0L71.14285714285714,0C74.45434728982114,0,77.14285714285714,2.688509853036,77.14285714285714,6L77.14285714285714,51.31090820994501C77.14285714285714,51.31090820994501,77.14285714285714,51.31090820994501,77.14285714285714,51.31090820994501L0,51.31090820994501C0,51.31090820994501,0,51.31090820994501,0,51.31090820994501L0,6C0,2.688509853036,2.688509853036,0,6,0Z"/><g clip-path="url(#clip5)"><g class="mark-group role-scope" role="graphics-object" aria-roledescription="group mark container"><g transform="translate(0,-348.689091790055)"><path class="background" aria-hidden="true" d="M0,0h77.14285714285714v0h-77.14285714285714Z"/><g><g class="mark-rect role-mark layer_0_marks" role="graphics-object" aria-roledescription="rect mark container"><path aria-label="Libraries: toml (0.10.2); Execution Time (seconds, lower=better): 7.1209295; parser: toml (0.10.2); Execution Time (s): 7.1209; Slowdown: 20.31" role="graphics-symbol" aria-roledescription="bar" d="M0,348.689091790055h77.14285714285714v51.31090820994501h-77.14285714285714Z" fill="#e7298a"/></g></g><path class="foreground" aria-hidden="true" d="" display="none"/></g></g></g><path class="foreground" aria-hidden="true" d="" display="none"/></g><g transform="translate(432.85714285714283,346.6145671255358)"><path class="background" aria-hidden="true" d="M6,0L71.14285714285714,0C74.45434728982114,0,77.14285714285714,2.688509853036,77.14285714285714,6L77.14285714285714,53.385432874464186C77.14285714285714,53.385432874464186,77.14285714285714,53.385432874464186,77.14285714285714,53.385432874464186L0,53.385432874464186C0,53.385432874464186,0,53.385432874464186,0,53.385432874464186L0,6C0,2.688509853036,2.688509853036,0,6,0Z"/><g clip-path="url(#clip6)"><g class="mark-group role-scope" role="graphics-object" aria-roledescription="group mark container"><g transform="translate(0,-346.6145671255358)"><path class="background" aria-hidden="true" d="M0,0h77.14285714285714v0h-77.14285714285714Z"/><g><g class="mark-rect role-mark layer_0_marks" role="graphics-object" aria-roledescription="rect mark container"><path aria-label="Libraries: qtoml (0.3.1); Execution Time (seconds, lower=better): 7.4088321; parser: qtoml (0.3.1); Execution Time (s): 7.4088; Slowdown: 21.13" role="graphics-symbol" aria-roledescription="bar" d="M0,346.6145671255358h77.14285714285714v53.385432874464186h-77.14285714285714Z" fill="#d95f02"/></g></g><path class="foreground" aria-hidden="true" d="" display="none"/></g></g></g><path class="foreground" aria-hidden="true" d="" display="none"/></g><g transform="translate(518.5714285714284,36.36363636363642)"><path class="background" aria-hidden="true" d="M6,0L71.14285714285714,0C74.45434728982114,0,77.14285714285714,2.688509853036,77.14285714285714,6L77.14285714285714,363.63636363636357C77.14285714285714,363.63636363636357,77.14285714285714,363.63636363636357,77.14285714285714,363.63636363636357L0,363.63636363636357C0,363.63636363636357,0,363.63636363636357,0,363.63636363636357L0,6C0,2.688509853036,2.688509853036,0,6,0Z"/><g clip-path="url(#clip7)"><g class="mark-group role-scope" role="graphics-object" aria-roledescription="group mark container"><g transform="translate(0,-36.36363636363642)"><path class="background" aria-hidden="true" d="M0,0h77.14285714285714v0h-77.14285714285714Z"/><g><g class="mark-rect role-mark layer_0_marks" role="graphics-object" aria-roledescription="rect mark container"><path aria-label="Libraries: tomlkit (0.13.3); Execution Time (seconds, lower=better): 50.4654663; parser: tomlkit (0.13.3); Execution Time (s): 50.4655; Slowdown: 143.92" role="graphics-symbol" aria-roledescription="bar" d="M0,36.36363636363642h77.14285714285714v363.63636363636357h-77.14285714285714Z" fill="#e6ab02"/></g></g><path class="foreground" aria-hidden="true" d="" display="none"/></g></g></g><path class="foreground" aria-hidden="true" d="" display="none"/></g></g><g class="mark-text role-mark layer_1_marks" role="graphics-object" aria-roledescription="text mark container"><text aria-label="Libraries: toml_rs (0.0.13); Execution Time (seconds, lower=better): 0.3506566; parser: toml_rs (0.0.13); label: 0.3507s (x1.00); Execution Time (s): 0.3507; Slowdown: 1.00" role="graphics-symbol" aria-roledescription="text mark" text-anchor="middle" transform="translate(42.85714285714285,393.4732921290976)" font-family="sans-serif" font-size="9px" font-weight="bold" fill="#66a61e">0.3507s (x1.00)</text><text aria-label="Libraries: rtoml (0.13.0); Execution Time (seconds, lower=better): 0.598200200002; parser: rtoml (0.13.0); label: 0.5982s (x1.71); Execution Time (s): 0.5982; Slowdown: 1.71" role="graphics-symbol" aria-roledescription="text mark" text-anchor="middle" transform="translate(128.57142857142856,391.68958019406534)" font-family="sans-serif" font-size="9px" font-weight="bold" fill="#7570b3">0.5982s (x1.71)</text><text aria-label="Libraries: pytomlpp (1.0.13); Execution Time (seconds, lower=better): 0.7390199; parser: pytomlpp (1.0.13); label: 0.7390s (x2.11); Execution Time (s): 0.7390; Slowdown: 2.11" role="graphics-symbol" aria-roledescription="text mark" text-anchor="middle" transform="translate(214.28571428571428,390.6748830676915)" font-family="sans-serif" font-size="9px" font-weight="bold" fill="#1b9e77">0.7390s (x2.11)</text><text aria-label="Libraries: tomllib (built-in); Execution Time (seconds, lower=better): 2.9287832; parser: tomllib (built-in); label: 2.9288s (x8.35); Execution Time (s): 2.9288; Slowdown: 8.35" role="graphics-symbol" aria-roledescription="text mark" text-anchor="middle" transform="translate(299.99999999999994,374.89622050853814)" font-family="sans-serif" font-size="9px" font-weight="bold" fill="#a6761d">2.9288s (x8.35)</text><text aria-label="Libraries: toml (0.10.2); Execution Time (seconds, lower=better): 7.1209295; parser: toml (0.10.2); label: 7.1209s (x20.31); Execution Time (s): 7.1209; Slowdown: 20.31" role="graphics-symbol" aria-roledescription="text mark" text-anchor="middle" transform="translate(385.71428571428567,344.689091790055)" font-family="sans-serif" font-size="9px" font-weight="bold" fill="#e7298a">7.1209s (x20.31)</text><text aria-label="Libraries: qtoml (0.3.1); Execution Time (seconds, lower=better): 7.4088321; parser: qtoml (0.3.1); label: 7.4088s (x21.13); Execution Time (s): 7.4088; Slowdown: 21.13" role="graphics-symbol" aria-roledescription="text mark" text-anchor="middle" transform="translate(471.4285714285714,342.6145671255358)" font-family="sans-serif" font-size="9px" font-weight="bold" fill="#d95f02">7.4088s (x21.13)</text><text aria-label="Libraries: tomlkit (0.13.3); Execution Time (seconds, lower=better): 50.4654663; parser: tomlkit (0.13.3); label: 50.4655s (x143.92); Execution Time (s): 50.4655; Slowdown: 143.92" role="graphics-symbol" aria-roledescription="text mark" text-anchor="middle" transform="translate(557.142857142857,32.36363636363642)" font-family="sans-serif" font-size="9px" font-weight="bold" fill="#e6ab02">50.4655s (x143.92)</text></g><g class="mark-group role-title"><g transform="translate(300,-32.31061528507847)"><path class="background" aria-hidden="true" d="M0,0h0v0h0Z" pointer-events="none"/><g><g class="mark-text role-title-text" role="graphics-symbol" aria-roledescription="title" aria-label="Title text 'TOML parsers benchmark (loads)'" pointer-events="none"><text text-anchor="middle" transform="translate(0,10)" font-family="sans-serif" font-size="13px" font-weight="bold" fill="#000" opacity="1">TOML parsers benchmark (loads)</text></g><g class="mark-text role-title-subtitle" role="graphics-symbol" aria-roledescription="subtitle" aria-label="Subtitle text 'Python: 3.13.8 (Windows 10) | CPU: 11th Gen Intel(R) Core(TM) i5-11300H @ 3.10GHz'" pointer-events="none"><text text-anchor="middle" transform="translate(0,25)" font-family="sans-serif" font-size="12px" fill="#000" opacity="1">Python: 3.13.8 (Windows 10) | CPU: 11th Gen Intel(R) Core(TM) i5-11300H @ 3.10GHz</text></g></g><path class="foreground" aria-hidden="true" d="" pointer-events="none" display="none"/></g></g></g><path class="foreground" aria-hidden="true" d="" display="none"/></g></g></g><defs><clipPath id="clip1"><path d="M1.2633539354511925,0L75.87950320740595,0C76.57676722563508,0,77.14285714285714,0.5660899172220563,77.14285714285714,1.2633539354511925L77.14285714285714,2.526707870902385C77.14285714285714,2.526707870902385,77.14285714285714,2.526707870902385,77.14285714285714,2.526707870902385L0,2.526707870902385C0,2.526707870902385,0,2.526707870902385,0,2.526707870902385L0,1.2633539354511925C0,0.5660899172220563,0.5660899172220563,0,1.2633539354511925,0Z"/></clipPath><clipPath id="clip2"><path d="M2.1552099029673286,0L74.98764723988981,0C76.17713996627573,0,77.14285714285714,0.9657171765814041,77.14285714285714,2.1552099029673286L77.14285714285714,4.310419805934657C77.14285714285714,4.310419805934657,77.14285714285714,4.310419805934657,77.14285714285714,4.310419805934657L0,4.310419805934657C0,4.310419805934657,0,4.310419805934657,0,4.310419805934657L0,2.1552099029673286C0,0.9657171765814041,0.9657171765814041,0,2.1552099029673286,0Z"/></clipPath><clipPath id="clip3"><path d="M2.662558466154252,0L74.48029867670289,0C75.94980469776712,0,77.14285714285714,1.1930524450900208,77.14285714285714,2.662558466154252L77.14285714285714,5.325116932308504C77.14285714285714,5.325116932308504,77.14285714285714,5.325116932308504,77.14285714285714,5.325116932308504L0,5.325116932308504C0,5.325116932308504,0,5.325116932308504,0,5.325116932308504L0,2.662558466154252C0,1.1930524450900208,1.1930524450900208,0,2.662558466154252,0Z"/></clipPath><clipPath id="clip4"><path d="M6,0L71.14285714285714,0C74.45434728982114,0,77.14285714285714,2.688509853036,77.14285714285714,6L77.14285714285714,21.103779491461864C77.14285714285714,21.103779491461864,77.14285714285714,21.103779491461864,77.14285714285714,21.103779491461864L0,21.103779491461864C0,21.103779491461864,0,21.103779491461864,0,21.103779491461864L0,6C0,2.688509853036,2.688509853036,0,6,0Z"/></clipPath><clipPath id="clip5"><path d="M6,0L71.14285714285714,0C74.45434728982114,0,77.14285714285714,2.688509853036,77.14285714285714,6L77.14285714285714,51.31090820994501C77.14285714285714,51.31090820994501,77.14285714285714,51.31090820994501,77.14285714285714,51.31090820994501L0,51.31090820994501C0,51.31090820994501,0,51.31090820994501,0,51.31090820994501L0,6C0,2.688509853036,2.688509853036,0,6,0Z"/></clipPath><clipPath id="clip6"><path d="M6,0L71.14285714285714,0C74.45434728982114,0,77.14285714285714,2.688509853036,77.14285714285714,6L77.14285714285714,53.385432874464186C77.14285714285714,53.385432874464186,77.14285714285714,53.385432874464186,77.14285714285714,53.385432874464186L0,53.385432874464186C0,53.385432874464186,0,53.385432874464186,0,53.385432874464186L0,6C0,2.688509853036,2.688509853036,0,6,0Z"/></clipPath><clipPath id="clip7"><path d="M6,0L71.14285714285714,0C74.45434728982114,0,77.14285714285714,2.688509853036,77.14285714285714,6L77.14285714285714,363.63636363636357C77.14285714285714,363.63636363636357,77.14285714285714,363.63636363636357,77.14285714285714,363.63636363636357L0,363.63636363636357C0,363.63636363636357,0,363.63636363636357,0,363.63636363636357L0,6C0,2.688509853036,2.688509853036,0,6,0Z"/></clipPath></defs></svg>