<?xml version="1.0" encoding="UTF-8" standalone="no"?>
<!-- Created with Inkscape (http://www.inkscape.org/) -->

<svg
   width="71.627037"
   height="96.209869"
   viewBox="0 0 18.951321 25.455528"
   version="1.1"
   id="svg1"
   inkscape:version="1.4 (e7c3feb100, 2024-10-09)"
   sodipodi:docname="heros_logo.svg"
   xmlns:inkscape="http://www.inkscape.org/namespaces/inkscape"
   xmlns:sodipodi="http://sodipodi.sourceforge.net/DTD/sodipodi-0.dtd"
   xmlns="http://www.w3.org/2000/svg"
   xmlns:svg="http://www.w3.org/2000/svg">
  <sodipodi:namedview
     id="namedview1"
     pagecolor="#ffffff"
     bordercolor="#666666"
     borderopacity="1.0"
     inkscape:showpageshadow="2"
     inkscape:pageopacity="0.0"
     inkscape:pagecheckerboard="0"
     inkscape:deskcolor="#d1d1d1"
     inkscape:document-units="mm"
     inkscape:zoom="17.334906"
     inkscape:cx="34.208434"
     inkscape:cy="55.696868"
     inkscape:window-width="1920"
     inkscape:window-height="1011"
     inkscape:window-x="0"
     inkscape:window-y="32"
     inkscape:window-maximized="1"
     inkscape:current-layer="layer1" />
  <defs
     id="defs1" />
  <g
     inkscape:label="Ebene 1"
     inkscape:groupmode="layer"
     id="layer1"
     transform="translate(-126.23914,-143.38565)">
    <g
       id="g30-8-4-0"
       transform="matrix(0.51039942,0,0,0.51039942,-477.09364,98.071316)">
      <g
         id="g32-8-2"
         transform="translate(180.06372,-243.33971)">
        <g
           id="g29-3-1-7">
          <path
             style="fill:#555555;fill-opacity:1;stroke:none;stroke-width:2.89815;stroke-dasharray:none;stroke-opacity:1"
             d="m 1037.7086,365.69776 c -4.3441,7.24339 -16.771,16.29641 -17.1448,16.2978 -0.4242,0.002 -16.4026,-11.647 -18.3549,-18.97868 l -0.01,-0.003 c -0.2334,-0.0794 -0.1886,-10.38283 -0.1578,-17.83037"
             id="path32-2-6" />
          <path
             style="fill:#abe85f;fill-opacity:1;stroke:none;stroke-width:2.89815;stroke-dasharray:none;stroke-opacity:1"
             d="m 1002.0491,343.70682 c 0.014,-3.61874 0.049,-6.32343 0.1078,-6.43286 0.7561,-1.41219 18.4801,-5.14972 18.498,-5.15214 0,0 17.4573,4.0404 18.2637,5.03712 0.2645,0.32695 0.318,24.88686 0.057,25.844 -0.1454,0.53336 -0.3615,1.02868 -0.6376,1.59731"
             id="path493-6-9-4-4-7-8-1" />
          <path
             style="display:none;fill:none;stroke:#000000;stroke-width:0.264583px;stroke-linecap:butt;stroke-linejoin:miter;stroke-opacity:1"
             d="m 995.28518,339.81493 45.64612,26.35379"
             id="path30-9-3" />
          <path
             style="display:none;fill:none;stroke:#000000;stroke-width:0.264583px;stroke-linecap:butt;stroke-linejoin:miter;stroke-opacity:1"
             d="m 997.69492,342.64999 42.82918,24.72748"
             id="path31-3-2" />
        </g>
        <g
           id="g13-0-7-6-1"
           transform="matrix(-3.7075591,0,0,-3.7075591,1346.8688,851.53677)"
           style="fill:#555555;fill-opacity:1;stroke:#555555">
          <path
             style="fill:#555555;fill-opacity:1;stroke:none;stroke-width:0.0634302px;stroke-linecap:butt;stroke-linejoin:miter;stroke-opacity:1"
             d="m 85.132102,137.67658 h 1.792501 v -3.15324 l 2.15677,1.13771 v 2.01553 h 1.792502 v -1.93877 l -5.741773,-3.29959 z"
             id="path2-37-8-8-5" />
          <path
             style="fill:#abe85f;fill-opacity:1;stroke:none;stroke-width:0.0634302px;stroke-linecap:butt;stroke-linejoin:miter;stroke-opacity:1"
             d="m 90.873878,130.11003 h -1.7925 v 3.15324 l -2.15677,-1.13771 v -2.01553 h -1.79251 v 1.93877 l 5.74178,3.29959 z"
             id="path2-3-8-7-0-9" />
        </g>
      </g>
    </g>
  </g>
</svg>
