<?xml version="1.0" encoding="UTF-8"?>
<!-- Created with Inkscape (http://www.inkscape.org/) -->
<svg width="858" height="789" version="1.1" viewBox="0 0 858 789" xmlns="http://www.w3.org/2000/svg">
 <path d="m823.93 394.29a393.07 393.07 0 0 1-393.07 393.07 393.07 393.07 0 0 1-393.07-393.07 393.07 393.07 0 0 1 393.07-393.07 393.07 393.07 0 0 1 393.07 393.07z" fill="#55308d" style="paint-order:stroke fill markers"/>
 <path d="m573.92 473.51a192.13 153.89 0 0 1-192.13 153.89 192.13 153.89 0 0 1-192.13-153.89 192.13 153.89 0 0 1 192.13-153.89 192.13 153.89 0 0 1 192.13 153.89z" fill="#55308d" style="paint-order:stroke fill markers"/>
 <g fill="none" stroke="#ff8000">
  <path d="m735.55 394.29a304.69 304.69 0 0 1-304.69 304.69 304.69 304.69 0 0 1-304.69-304.69 304.69 304.69 0 0 1 304.69-304.69 304.69 304.69 0 0 1 304.69 304.69z" stroke-width="14.173" style="paint-order:stroke fill markers"/>
  <path d="m665.89 394.29a235.03 235.03 0 0 1-235.03 235.03 235.03 235.03 0 0 1-235.03-235.03 235.03 235.03 0 0 1 235.03-235.03 235.03 235.03 0 0 1 235.03 235.03z" stroke-width="10.932" style="paint-order:stroke fill markers"/>
  <path d="m583.55 394.29a152.69 152.69 0 0 1-152.69 152.69 152.69 152.69 0 0 1-152.69-152.69 152.69 152.69 0 0 1 152.69-152.69 152.69 152.69 0 0 1 152.69 152.69z" stroke-width="7.1021" style="paint-order:stroke fill markers"/>
 </g>
 <g fill="#fff" stroke-width="6.5953" aria-label="ID31">
  <path d="m233.26 300.67q8.4419 0 12.927 2.9019 4.4848 2.6381 4.4848 10.289 0 13.19-17.411 13.19h-79.671q-17.411 0-17.411-13.19 0-7.6505 4.4848-10.289 4.4848-2.9019 12.927-2.9019h26.645v-101.04h-26.645q-17.411 0-17.411-13.19 0-7.6505 4.4848-10.289 4.4848-2.9019 12.927-2.9019h79.671q8.4419 0 12.927 2.9019 4.4848 2.6381 4.4848 10.289 0 13.19-17.411 13.19h-26.645v101.04z"/>
  <path d="m293.68 327.05q-17.675 0-17.675-13.19 0-6.3314 4.221-9.761t11.871-3.4295v-101.04q-16.092 0-16.092-13.19 0-7.9143 4.4848-10.552 4.7486-2.6381 13.19-2.6381h55.928q28.755 0 48.277 21.105 19.786 21.105 19.786 52.234v12.399q0 30.866-19.258 49.596-18.994 18.467-50.915 18.467zm97.61-80.99q0-19.786-12.135-32.976-11.871-13.454-31.657-13.454h-29.019v101.04h29.283q13.19 0 22.16-3.9572 9.2334-3.9572 13.454-10.816 4.4848-6.8591 6.0676-13.454 1.8467-6.5952 1.8467-14.246z"/>
  <path d="m501.56 304.63q42.473 0 42.473-25.853 0-11.608-10.552-18.994t-29.811-8.4419q-13.718-0.79143-13.718-12.135 0-5.8038 3.6933-9.4972 3.9572-3.6933 10.025-3.6933h10.552q9.761 0 16.884-6.0676 7.1229-6.3314 7.1229-14.773 0-9.2334-7.9143-14.51-7.9143-5.54-21.632-5.54-10.289 0-17.148 2.6381-6.8591 2.3743-9.2334 5.54-2.3743 2.9019-5.8038 5.54-3.1657 2.3743-7.6505 2.3743-5.2762 0-9.2334-3.9572-3.6933-3.9572-3.6933-9.2334 0-11.344 16.62-20.313t37.725-8.9695q24.007 0 39.044 13.19 15.301 13.19 15.301 32.712 0 10.816-5.54 18.994-5.54 7.9143-18.467 15.565 29.811 14.51 29.811 39.835 0 9.4972-3.1657 17.939t-10.289 16.62q-7.1229 7.9143-21.369 12.663-13.982 4.7486-33.24 4.7486-24.271 0-39.308-6.0676-14.773-6.3314-14.773-16.356 0-5.54 3.6933-9.2334 3.9572-3.9572 9.4972-3.9572 2.6381 0 5.2762 1.5829 2.9019 1.319 5.54 3.1657 2.6381 1.5829 10.289 3.1657 7.6505 1.319 18.994 1.319z"/>
  <path d="m611.04 313.86q0-7.6505 4.4848-10.289 4.4848-2.9019 12.927-2.9019h26.645v-112.91l-21.632 15.301q-3.9572 3.4295-10.816 3.4295-4.4848 0-7.9143-2.9019-3.1657-2.9019-3.1657-7.6505 0-4.221 1.8467-6.8591 1.8467-2.9019 6.3314-6.0676l35.614-24.271h26.117v141.93h26.645q17.411 0 17.411 13.19t-17.411 13.19h-79.671q-17.411 0-17.411-13.19z"/>
 </g>
 <g fill="#fffdfd" stroke-width="3.5202" aria-label="integrate">
  <path d="m116.29 419.64q9.2935 0 9.2935 7.0405t-9.2935 7.0405h-48.439q-9.2935 0-9.2935-7.0405 0-4.0835 2.3938-5.4916 2.3938-1.5489 6.8997-1.5489h17.179v-33.372h-10.983q-9.4343 0-9.4343-7.0405 0-4.2243 2.3938-5.6324 2.5346-1.4081 7.0405-1.4081h25.064v47.453zm-19.15-73.644v14.785h-16.616v-14.785z"/>
  <path d="m146.85 433.72q-9.2935 0-9.2935-7.0405t9.2935-7.0405h0.84486v-33.372q-8.5894-0.28162-8.5894-7.0405 0-7.0405 9.4343-7.0405h13.236v6.7589q5.0692-4.7875 9.2935-6.6181 4.2243-1.9713 9.9975-1.9713 10.983 0 18.024 6.1956t7.0405 17.46v25.627q8.5894 0 8.5894 7.0405t-9.2935 7.0405h-12.532q-9.4343 0-9.4343-7.0405t8.5894-7.0405v-25.064q0-10.138-12.673-10.138-4.9284 0-8.871 2.1122-3.8019 2.1122-8.7302 7.4629v25.627h0.84486q9.2935 0 9.2935 7.0405t-9.2935 7.0405z"/>
  <path d="m248.94 413.86q0 4.3651 2.3938 6.1956t9.7159 1.8305q5.4916 0 9.9975-0.98567 4.6467-0.98567 6.8997-2.1122 2.3938-1.2673 4.6467-2.253 2.3938-0.98567 3.9427-0.98567 2.8162 0 4.7875 2.1122t1.9713 5.0692q0 3.9427-6.0548 7.1813-5.914 3.0978-13.236 4.5059-7.1813 1.5489-13.095 1.5489-11.969 0-19.009-5.21t-7.0405-14.222v-30.274h-4.9284q-9.2935 0-9.2935-7.0405 0-4.0835 2.3938-5.4916 2.3938-1.5489 6.8997-1.5489h4.9284v-12.391q0-9.2935 7.0405-9.2935 4.0835 0 5.4916 2.3938 1.5489 2.3938 1.5489 6.8997v12.391h25.487q4.5059 0 6.8997 1.5489 2.3938 1.4081 2.3938 5.4916 0 7.0405-9.2935 7.0405h-25.487z"/>
  <path d="m380.73 424.28q0 4.5059-8.167 7.4629-8.167 2.8162-15.348 3.5202-7.0405 0.70405-12.11 0.70405-16.334 0-26.754-9.1526t-10.42-23.515q0-13.94 10.42-23.374 10.561-9.5751 25.909-9.5751 15.771 0 26.05 9.5751 10.42 9.5751 10.42 24.079v5.4916h-57.45q4.7875 12.391 23.093 12.391 7.4629 0 16.616-2.253 9.1526-2.3938 10.983-2.3938 2.8162 0 4.7875 2.1122 1.9713 1.9713 1.9713 4.9284zm-57.028-27.176h41.398q-1.6897-5.7732-7.3221-9.1526-5.6324-3.5202-13.377-3.5202t-13.518 3.5202q-5.6324 3.5202-7.1813 9.1526z"/>
  <path d="m407.63 454.84q0-4.0835 2.3938-5.6324 2.3938-1.4081 6.8997-1.4081h15.348q6.1956 0 9.7159-2.957t3.5202-8.3078v-7.7446q-9.2935 6.8997-19.854 6.8997-14.222 0-23.797-9.2935-9.4343-9.4343-9.4343-23.374 0-14.081 9.4343-23.374 9.5751-9.4343 23.797-9.4343 11.546 0 19.854 7.0405v-5.0692h16.334q9.2935 0 9.2935 7.0405t-9.2935 7.0405h-2.253v50.269q0 11.124-7.7446 18.164-7.6037 7.1813-19.15 7.1813h-15.771q-9.2935 0-9.2935-7.0405zm18.305-70.546q-8.0262 0-13.799 5.4916-5.6324 5.3508-5.6324 13.095t5.6324 13.236q5.7732 5.4916 13.799 5.4916t13.799-5.3508q5.7732-5.4916 5.7732-13.095 0-7.8854-5.7732-13.377-5.6324-5.4916-13.799-5.4916z"/>
  <path d="m534.92 370.49q5.914 0 11.828 3.6611t5.914 8.3078q0 2.957-2.1122 5.0692t-4.9284 2.1122q-2.3938 0-5.4916-2.5346t-5.4916-2.5346q-3.3794 0-8.3078 3.0978-4.7875 2.957-14.926 11.265v20.699h19.573q9.4343 0 9.4343 7.0405t-9.4343 7.0405h-41.821q-9.2935 0-9.2935-7.0405 0-4.0835 2.3938-5.4916 2.3938-1.5489 6.8997-1.5489h8.167v-33.372h-4.9284q-9.2935 0-9.2935-7.0405t9.2935-7.0405h19.009v9.1526q8.4486-6.3364 13.377-8.5894t10.138-2.253z"/>
  <path d="m562.66 416.96q0-9.5751 9.4343-16.616 9.4343-7.1813 24.642-7.1813 6.3364 0 14.644 1.4081v-3.2386q0-6.8997-13.095-6.8997-5.7732 0-13.095 1.6897-7.3221 1.5489-8.871 1.5489-2.957 0-4.9284-1.9713-1.9713-2.1122-1.9713-5.21 0-4.5059 4.2243-5.914 11.969-4.2243 24.219-4.2243 12.955 0 20.277 5.4916 7.4629 5.4916 7.4629 15.348v28.444h2.253q9.2935 0 9.2935 7.0405t-9.2935 7.0405h-16.475v-3.2386q-10.561 5.4916-23.374 5.4916-10.42 0-17.883-5.4916-7.4629-5.6324-7.4629-13.518zm48.861-2.253v-7.0405q-8.871-1.5489-15.63-1.5489-7.1813 0-12.814 3.0978-5.4916 3.0978-5.4916 7.1813 0 2.3938 3.0978 3.9427t7.6037 1.5489q11.546 0 23.234-7.1813z"/>
  <path d="m671.36 413.86q0 4.3651 2.3938 6.1956t9.7159 1.8305q5.4916 0 9.9975-0.98567 4.6467-0.98567 6.8997-2.1122 2.3938-1.2673 4.6467-2.253 2.3938-0.98567 3.9427-0.98567 2.8162 0 4.7875 2.1122t1.9713 5.0692q0 3.9427-6.0548 7.1813-5.914 3.0978-13.236 4.5059-7.1813 1.5489-13.095 1.5489-11.969 0-19.009-5.21t-7.0405-14.222v-30.274h-4.9284q-9.2935 0-9.2935-7.0405 0-4.0835 2.3938-5.4916 2.3938-1.5489 6.8997-1.5489h4.9284v-12.391q0-9.2935 7.0405-9.2935 4.0835 0 5.4916 2.3938 1.5489 2.3938 1.5489 6.8997v12.391h25.487q4.5059 0 6.8997 1.5489 2.3938 1.4081 2.3938 5.4916 0 7.0405-9.2935 7.0405h-25.487z"/>
  <path d="m803.16 424.28q0 4.5059-8.167 7.4629-8.167 2.8162-15.348 3.5202-7.0405 0.70405-12.11 0.70405-16.334 0-26.754-9.1526t-10.42-23.515q0-13.94 10.42-23.374 10.561-9.5751 25.909-9.5751 15.771 0 26.05 9.5751 10.42 9.5751 10.42 24.079v5.4916h-57.45q4.7875 12.391 23.093 12.391 7.4629 0 16.616-2.253 9.1526-2.3938 10.983-2.3938 2.8162 0 4.7875 2.1122 1.9713 1.9713 1.9713 4.9284zm-57.028-27.176h41.398q-1.6897-5.7732-7.3221-9.1526-5.6324-3.5202-13.377-3.5202t-13.518 3.5202q-5.6324 3.5202-7.1813 9.1526z"/>
 </g>
</svg>
