<?xml version="1.0" encoding="UTF-8" standalone="no"?>
<!DOCTYPE svg PUBLIC "-//W3C//DTD SVG 1.1//EN" "http://www.w3.org/Graphics/SVG/1.1/DTD/svg11.dtd">
<svg width="100%" height="100%" viewBox="0 0 1024 1024" version="1.1" xmlns="http://www.w3.org/2000/svg" xmlns:xlink="http://www.w3.org/1999/xlink" xml:space="preserve" xmlns:serif="http://www.serif.com/" style="fill-rule:evenodd;clip-rule:evenodd;stroke-linecap:round;stroke-linejoin:round;stroke-miterlimit:1.5;">
    <g transform="matrix(1.04704,0,0,1.13858,-33.6803,-19.6091)">
        <path d="M608.9,220.717L608.9,551.067C608.9,558.193 602.609,563.979 594.859,563.979L447.473,563.979C439.724,563.979 433.432,558.193 433.432,551.067L433.432,220.717C433.432,213.591 439.724,207.805 447.473,207.805L594.859,207.805C602.609,207.805 608.9,213.591 608.9,220.717Z" style="fill:white;"/>
    </g>
    <g transform="matrix(1.20974,0,0,1.20974,-107.385,-31.2285)">
        <circle cx="512" cy="372.798" r="66.128"/>
    </g>
    <g transform="matrix(1.20974,0,0,1.20974,-107.385,-31.2285)">
        <path d="M512,98.607L415.807,98.607C394.067,98.607 395.783,112.91 394.353,119.775C392.922,126.64 385.485,172.123 388.918,191.003C392.35,209.883 409.332,233.911 409.332,233.911L409.332,241.724L306.665,241.724C306.665,241.724 332.564,120.633 340.288,100.895C348.011,81.157 351.73,47.689 417.809,47.689L512,47.689" style="fill:none;stroke:white;stroke-width:33.07px;"/>
        <path d="M409.332,599.03L409.332,241.724L306.665,241.724C306.665,241.724 274.751,355.399 274.751,599.03L409.332,599.03Z" style="fill:white;stroke:white;stroke-width:33.07px;"/>
        <path d="M512,599.03L269.138,599.03C263.629,599.03 259.163,603.496 259.163,609.006L259.163,841.58C259.163,843.931 260.097,846.187 261.76,847.85C263.423,849.513 265.678,850.447 268.03,850.447C312.814,850.447 512,850.447 512,850.447" style="fill:none;stroke:white;stroke-width:33.07px;"/>
    </g>
    <g transform="matrix(-1.20974,0,0,1.20974,1131.39,-31.2285)">
        <path d="M512,98.607L415.807,98.607C394.067,98.607 395.783,112.91 394.353,119.775C392.922,126.64 385.485,172.123 388.918,191.003C392.35,209.883 409.332,233.911 409.332,233.911L409.332,241.724L306.665,241.724C306.665,241.724 332.564,120.633 340.288,100.895C348.011,81.157 351.73,47.689 417.809,47.689L512,47.689" style="fill:none;stroke:white;stroke-width:33.07px;"/>
        <path d="M409.332,599.03L409.332,241.724L306.665,241.724C306.665,241.724 274.751,355.399 274.751,599.03L409.332,599.03Z" style="fill:white;stroke:white;stroke-width:33.07px;"/>
        <path d="M512,599.03L269.138,599.03C263.629,599.03 259.163,603.496 259.163,609.006L259.163,841.58C259.163,843.931 260.097,846.187 261.76,847.85C263.423,849.513 265.678,850.447 268.03,850.447C312.814,850.447 512,850.447 512,850.447" style="fill:none;stroke:white;stroke-width:33.07px;"/>
    </g>
    <g transform="matrix(1.20974,0,0,1.20974,-107.385,-31.2285)">
        <path d="M578.128,633.017L578.128,784.527C578.128,787.357 575.83,789.654 573,789.654L299.131,789.654C296.301,789.654 294.003,787.357 294.003,784.527L294.003,633.017C294.003,630.187 296.301,627.889 299.131,627.889L573,627.889C575.83,627.889 578.128,630.187 578.128,633.017Z"/>
    </g>
</svg>
