<?xml version="1.0" encoding="UTF-8"?>
<!DOCTYPE svg PUBLIC "-//W3C//DTD SVG 1.1//EN" "http://www.w3.org/Graphics/SVG/1.1/DTD/svg11.dtd">
<svg xmlns="http://www.w3.org/2000/svg" style="background: transparent; background-color: transparent; color-scheme: light dark;" xmlns:xlink="http://www.w3.org/1999/xlink" version="1.1" width="160px" height="146px" viewBox="-0.5 -0.5 160 146"><defs/><g><g data-cell-id="0"><g data-cell-id="1"><g data-cell-id="tqBxPX9QbWqCnDgizAYw-22"><g><path d="M 80 3 C 88.35 3 96.37 10.37 102.27 23.5 C 108.18 36.63 111.5 54.43 111.5 73 C 111.5 91.57 108.18 109.37 102.27 122.5 C 96.37 135.63 88.35 143 80 143" fill="none" stroke="#6b6b6b" stroke-width="6" stroke-miterlimit="10" transform="rotate(-90,80,73)" pointer-events="all" style="stroke: light-dark(rgb(107, 107, 107), rgb(107, 107, 107));"/></g></g><g data-cell-id="tqBxPX9QbWqCnDgizAYw-21"><g><path d="M 80 3 C 88.35 3 96.37 10.37 102.27 23.5 C 108.18 36.63 111.5 54.43 111.5 73 C 111.5 91.57 108.18 109.37 102.27 122.5 C 96.37 135.63 88.35 143 80 143" fill="none" stroke="#6b6b6b" stroke-width="6" stroke-miterlimit="10" pointer-events="all" style="stroke: light-dark(rgb(107, 107, 107), rgb(107, 107, 107));"/></g></g><g data-cell-id="tqBxPX9QbWqCnDgizAYw-33"><g/><g data-cell-id="tqBxPX9QbWqCnDgizAYw-1"><g><path d="M 0 33 Q 40 69 80 33 Q 120 -3 160 33 L 160 93 Q 120 57 80 93 Q 40 129 0 93 L 0 33 Z" fill-opacity="0.5" fill="#009682" stroke="none" pointer-events="all" style="fill: light-dark(rgb(0, 150, 130), rgb(0, 150, 130));"/></g></g><g data-cell-id="tqBxPX9QbWqCnDgizAYw-2"><g><path d="M 0 53 Q 40 107 80 53 Q 120 -1 160 53 L 160 93 Q 120 39 80 93 Q 40 147 0 93 L 0 53 Z" fill-opacity="0.6" fill="#009682" stroke="none" pointer-events="all" style="fill: light-dark(rgb(0, 150, 130), rgb(0, 150, 130));"/></g></g><g data-cell-id="tqBxPX9QbWqCnDgizAYw-3"><g><path d="M 0 73 Q 40 145 80 73 Q 120 1 160 73 L 160 93 Q 120 21 80 93 Q 40 165 0 93 L 0 73 Z" fill="#009682" stroke="none" pointer-events="all" style="fill: light-dark(rgb(0, 150, 130), rgb(0, 150, 130));"/></g></g></g><g data-cell-id="IXEXvQSagwVBPV9I2waN-1"><g><ellipse cx="80" cy="73" rx="70" ry="70" fill="none" stroke="#6b6b6b" stroke-width="6" pointer-events="all" style="stroke: light-dark(rgb(107, 107, 107), rgb(107, 107, 107));"/></g></g><g data-cell-id="tqBxPX9QbWqCnDgizAYw-23"><g><path d="M 127.38 120.38 L 32.62 25.62" fill="none" stroke="#000000" stroke-width="6" stroke-miterlimit="10" pointer-events="stroke" style="stroke: light-dark(rgb(0, 0, 0), rgb(255, 255, 255));"/><ellipse cx="129.5" cy="122.5" rx="3" ry="3" fill="#000000" stroke="#000000" stroke-width="6" pointer-events="all" style="fill: light-dark(rgb(0, 0, 0), rgb(255, 255, 255)); stroke: light-dark(rgb(0, 0, 0), rgb(255, 255, 255));"/><ellipse cx="30.5" cy="23.5" rx="3" ry="3" fill="#000000" stroke="#000000" stroke-width="6" pointer-events="all" style="fill: light-dark(rgb(0, 0, 0), rgb(255, 255, 255)); stroke: light-dark(rgb(0, 0, 0), rgb(255, 255, 255));"/></g></g><g data-cell-id="tqBxPX9QbWqCnDgizAYw-20"><g><path d="M 80 3 C 88.35 3 96.37 10.37 102.27 23.5 C 108.18 36.63 111.5 54.43 111.5 73 C 111.5 91.57 108.18 109.37 102.27 122.5 C 96.37 135.63 88.35 143 80 143" fill="none" stroke="#6b6b6b" stroke-width="6" stroke-miterlimit="10" transform="rotate(-180,80,73)" pointer-events="all" style="stroke: light-dark(rgb(107, 107, 107), rgb(107, 107, 107));"/></g></g><g data-cell-id="tqBxPX9QbWqCnDgizAYw-18"><g><path d="M 80 3 C 88.66 3 96.97 10.37 103.1 23.5 C 109.23 36.63 112.67 54.43 112.67 73 C 112.67 91.57 109.23 109.37 103.1 122.5 C 96.97 135.63 88.66 143 80 143" fill="none" stroke="#6b6b6b" stroke-width="6" stroke-miterlimit="10" transform="rotate(90,80,73)" pointer-events="all" style="stroke: light-dark(rgb(107, 107, 107), rgb(107, 107, 107));"/></g></g></g></g></g></svg>