<?xml version="1.0" encoding="UTF-8" standalone="no"?>
<!-- Created with Inkscape (http://www.inkscape.org/) -->

<svg
   width="156mm"
   height="45mm"
   viewBox="0 0 156 45"
   version="1.1"
   id="svg1"
   inkscape:version="1.4.1 (1:1.4.1+202503302257+93de688d07)"
   sodipodi:docname="logo_name.svg"
   inkscape:export-filename="logo_name_logo.svg"
   inkscape:export-xdpi="96"
   inkscape:export-ydpi="96"
   xmlns:inkscape="http://www.inkscape.org/namespaces/inkscape"
   xmlns:sodipodi="http://sodipodi.sourceforge.net/DTD/sodipodi-0.dtd"
   xmlns="http://www.w3.org/2000/svg"
   xmlns:svg="http://www.w3.org/2000/svg">
  <sodipodi:namedview
     id="namedview1"
     pagecolor="#ffffff"
     bordercolor="#000000"
     borderopacity="0.25"
     inkscape:showpageshadow="2"
     inkscape:pageopacity="0.0"
     inkscape:pagecheckerboard="0"
     inkscape:deskcolor="#d1d1d1"
     inkscape:document-units="mm"
     inkscape:zoom="0.65655865"
     inkscape:cx="244.45645"
     inkscape:cy="361.73463"
     inkscape:window-width="1920"
     inkscape:window-height="945"
     inkscape:window-x="0"
     inkscape:window-y="0"
     inkscape:window-maximized="1"
     inkscape:current-layer="g1" />
  <defs
     id="defs1">
    <rect
       x="-281.77225"
       y="0.76154661"
       width="378.48865"
       height="334.31897"
       id="rect1" />
    <inkscape:perspective
       sodipodi:type="inkscape:persp3d"
       inkscape:vp_x="-0.11765369 : -7.302767 : 1"
       inkscape:vp_y="715.18402 : 790.27271 : 0"
       inkscape:vp_z="135.96837 : -168.42797 : 1"
       inkscape:persp3d-origin="32.523742 : -126.98387 : 1"
       id="perspective12" />
    <inkscape:perspective
       sodipodi:type="inkscape:persp3d"
       inkscape:vp_x="0 : -103.50001 : 1"
       inkscape:vp_y="0 : 999.99998 : 0"
       inkscape:vp_z="209.99999 : -103.50001 : 1"
       inkscape:persp3d-origin="105.00002 : -153.00001 : 1"
       id="perspective1" />
    <rect
       x="-281.77225"
       y="0.76154661"
       width="378.48865"
       height="334.31897"
       id="rect1-4" />
    <rect
       x="-281.77225"
       y="0.76154661"
       width="945.07935"
       height="322.13422"
       id="rect1-4-2" />
    <rect
       x="-281.77225"
       y="0.76154661"
       width="945.07935"
       height="322.13422"
       id="rect1-4-2-1" />
  </defs>
  <g
     id="g1"
     transform="translate(91.602805,-0.06732391)">
    <g
       id="g20"
       transform="rotate(-2.2469979,-37.42282,216.04289)">
      <path
         id="path17-2"
         style="fill:#767676;fill-opacity:1;stroke:#000000;stroke-width:0.670278;stroke-linecap:round;stroke-linejoin:round;stroke-dasharray:none;stroke-opacity:1;paint-order:stroke markers fill"
         inkscape:transform-center-x="0.58877233"
         inkscape:transform-center-y="-0.44965194"
         d="m 25.759259,6.032481 c 0.560593,-0.333978 2.450182,-1.399976 2.792223,-0.929405 0.342042,0.470597 -4.293949,12.278799 -3.864391,15.25263 0.111055,0.768702 -2.344279,6.737673 -2.85988,7.404393 -0.515602,0.66673 -1.69383,-2.242654 -2.197583,-2.323353 -0.503838,-0.0802 -2.737818,-3.154104 -2.850395,-3.921395 -0.112638,-0.767293 0.796441,-6.724203 1.159914,-7.600337 0.363388,-0.876132 2.524534,-4.72764 3.085135,-5.061623 z"
         sodipodi:nodetypes="sssssssss" />
      <path
         id="path14"
         style="fill:#606060;fill-opacity:1;stroke:#000000;stroke-width:0.670278;stroke-linecap:round;stroke-linejoin:round;stroke-dasharray:none;stroke-opacity:1;paint-order:stroke markers fill"
         inkscape:transform-center-x="8.8455204"
         inkscape:transform-center-y="8.0295482"
         d="M 26.733649,44.910009 C 24.850206,44.314079 15.087482,37.123399 14.618621,35.986749 14.14976,34.850109 26.087857,5.462133 27.681526,5.355581 c 1.593671,-0.106553 12.424096,23.930288 13.877886,25.001078 1.45381,1.07079 -0.85001,12.89706 -1.54519,13.6654 -0.695167,0.76834 -11.397132,1.48388 -13.280573,0.88795 z"
         sodipodi:nodetypes="ssssss" />
      <path
         id="path12"
         style="fill:#474747;fill-opacity:1;stroke:#000000;stroke-width:0.670278;stroke-linecap:round;stroke-linejoin:round;stroke-dasharray:none;stroke-opacity:1;paint-order:stroke markers fill"
         inkscape:transform-center-x="10.019965"
         inkscape:transform-center-y="-26.569843"
         d="m 17.927422,26.631922 c -0.373675,1.839647 3.755913,17.594057 1.749781,17.204197 -1.5167,-0.29474 -9.669952,0.33253 -14.731754,-5.02641 -1.27967,-1.35479 5.412726,-18.796394 6.796354,-20.065061 1.383629,-1.268667 7.57894,-10.316398 9.213087,-9.39253 1.634137,0.923872 -2.653788,15.440147 -3.027468,17.279804 z"
         sodipodi:nodetypes="ssssss" />
      <path
         id="path16"
         style="fill:#afafaf;fill-opacity:1;stroke:#000000;stroke-width:0.670278;stroke-linecap:round;stroke-linejoin:round;stroke-dasharray:none;stroke-opacity:1;paint-order:stroke markers fill"
         inkscape:transform-center-x="0.42523529"
         inkscape:transform-center-y="2.6147724"
         d="M 36.434247,23.533186 C 35.133161,22.2326 32.402771,16.672176 32.284118,15.087265 32.140209,13.164997 26.340947,5.550491 28.444274,4.953141 c 2.103311,-0.597338 3.068817,0.329123 3.903182,1.656606 0.307754,0.489638 3.79853,2.450311 4.380647,4.664312 1.459881,5.552451 1.835047,8.361153 2.07707,9.399722 0.365019,1.566432 7.726769,8.556978 6.202479,9.733128 -1.52427,1.17617 -2.96314,-1.23872 -5.22893,-1.33852 -2.265762,-0.0998 -2.043389,-4.23461 -3.344475,-5.535203 z"
         sodipodi:nodetypes="sssssssss" />
      <path
         id="path17"
         style="fill:#555555;fill-opacity:1;stroke:#000000;stroke-width:0.670278;stroke-linecap:round;stroke-linejoin:round;stroke-dasharray:none;stroke-opacity:1;paint-order:stroke markers fill"
         inkscape:transform-center-x="-0.9001798"
         inkscape:transform-center-y="0.44198484"
         d="m 42.476822,44.002929 c -0.42336,0.32419 -4.7561,0.82746 -5.087232,0.4918 -0.331127,-0.33568 2.108703,-10.27771 1.424499,-12.59801 -0.176871,-0.59977 1.147403,-5.638258 1.491573,-6.228786 0.34416,-0.590526 1.62988,1.592376 2.04859,1.598786 0.41872,0.006 2.58144,2.19867 2.75939,2.79714 0.17797,0.59847 0.10968,5.44964 -0.0872,6.18955 -0.19682,0.7399 -2.12633,7.42533 -2.5497,7.74952 z"
         sodipodi:nodetypes="sssssssss" />
      <path
         id="path19"
         style="fill:#666666;fill-opacity:1;stroke:#000000;stroke-width:0.670278;stroke-linecap:round;stroke-linejoin:round;stroke-dasharray:none;stroke-opacity:1;paint-order:stroke markers fill"
         inkscape:transform-center-x="-0.62239103"
         inkscape:transform-center-y="-1.1394065"
         d="m 18.385681,31.789489 c 0.439758,-1.57071 0.455345,3.38499 1.121783,4.22903 0.523942,0.87966 6.491249,4.7741 6.977343,5.3779 0.486099,0.6038 0.738429,3.49501 0.321956,3.68886 -0.416479,0.19385 -5.21857,-0.02157 -6.224007,-0.383646 -1.005436,-0.36207 -9.253716,-1.917501 -10.202144,-2.384407 -0.4551013,-0.224044 2.961969,-1.969237 5.886753,-5.124767 1.189639,-1.28349 0.417494,0.67195 2.118316,-5.40297 z"
         sodipodi:nodetypes="scssssss" />
      <path
         id="path20-6"
         style="fill:#3d3d3d;fill-opacity:1;stroke:#000000;stroke-width:0.670278;stroke-linecap:round;stroke-linejoin:round;stroke-dasharray:none;stroke-opacity:1;paint-order:stroke markers fill"
         inkscape:transform-center-x="-0.15082686"
         inkscape:transform-center-y="2.0871371"
         d="m 35.551363,43.586039 c 0.173701,-0.20113 0.190277,-2.24536 0.28207,-2.52804 0.0918,-0.28268 2.361579,-4.85207 2.506856,-4.9406 0.145289,-0.0885 -0.414684,3.43892 -0.325323,3.6112 0.08935,0.17228 0.12332,1.35405 0.08947,1.65742 -0.03383,0.30336 0.693267,2.7966 0.561699,3.00261 -0.13159,0.20597 -1.810192,0.38468 -1.940421,0.33817 -0.130207,-0.0465 -2.305157,0.16856 -2.131445,-0.0326 z"
         sodipodi:nodetypes="sssssssss" />
      <path
         id="path20-8"
         style="fill:#7c7c7c;fill-opacity:1;stroke:#000000;stroke-width:0.670278;stroke-linecap:round;stroke-linejoin:round;stroke-dasharray:none;stroke-opacity:1;paint-order:stroke markers fill"
         inkscape:transform-center-x="1.7291425"
         inkscape:transform-center-y="-1.3779128"
         d="m 32.696491,13.966713 c 0.188724,0.187102 1.623153,2.210528 1.727714,2.488731 0.104592,0.278207 0.983653,1.312911 0.925283,1.472731 -0.05834,0.159825 1.706077,6.609049 1.528773,6.530124 -0.177305,-0.07893 -3.935313,-5.932365 -4.09808,-6.190596 -0.162775,-0.258218 -1.099885,-3.154284 -1.125545,-3.397374 -0.02569,-0.243075 -2.285768,-5.045472 -2.154989,-5.090375 0.130776,-0.04487 3.008115,3.999628 3.196844,4.186759 z"
         sodipodi:nodetypes="ssssssss" />
    </g>
    <g
       id="text1-7-2"
       style="opacity:1"
       transform="matrix(0.26458333,0,0,0.26458333,-98.830126,-7.0039831)">
      <path
         style="font-size:200px;font-family:Lato;-inkscape-font-specification:'Lato, Normal';text-align:center;baseline-shift:baseline;white-space:pre;display:inline;overflow:visible;vector-effect:none;stroke-linecap:round;stroke-linejoin:round;paint-order:stroke markers fill;enable-background:accumulate;stop-color:#000000;stop-opacity:1"
         d="m 264.06836,38.195312 a 1.2667916,1.2667916 0 0 0 -1.26758,1.265625 V 186.76172 a 1.2667916,1.2667916 0 0 0 1.26758,1.26758 h 17.79883 a 1.2667916,1.2667916 0 0 0 1.26758,-1.26758 v -74.06641 c 3.69535,-4.0753 7.66747,-7.334 11.94335,-9.72461 l 0.006,-0.002 c 7.8e-4,-4.3e-4 0.001,-0.002 0.002,-0.002 4.41879,-2.43191 9.12105,-3.638675 14.18164,-3.638675 6.94979,0 11.82154,1.998065 15.01758,5.931645 a 1.2667916,1.2667916 0 0 0 0.0137,0.0176 c 3.28891,3.90947 5.00195,9.5123 5.00195,16.98438 v 64.5 a 1.2667916,1.2667916 0 0 0 1.26758,1.26758 h 17.79883 a 1.2667916,1.2667916 0 0 0 1.26758,-1.26758 v -64.5 c 0,-5.84134 -0.74836,-11.20278 -2.25782,-16.07422 -1.50902,-4.87001 -3.75337,-9.062476 -6.73828,-12.537109 -2.92722,-3.552329 -6.63657,-6.277279 -11.0664,-8.148438 -4.38661,-1.947881 -9.4335,-2.90625 -15.10547,-2.90625 -7.03816,0 -13.32325,1.441104 -18.79102,4.347656 -4.55152,2.363263 -8.68159,5.557738 -12.54101,9.269532 V 39.460937 a 1.2667916,1.2667916 0 0 0 -1.26758,-1.265625 z m -114.80078,1.400391 c -1.89573,0 -3.71091,0.367261 -5.4043,1.103516 a 1.2667916,1.2667916 0 0 0 -0.0195,0.0098 c -1.60883,0.731288 -3.07158,1.757122 -4.37109,3.056641 -1.25428,1.254277 -2.24716,2.768193 -2.97071,4.501953 -0.73296,1.690139 -1.10156,3.503055 -1.10156,5.394531 0,1.895727 0.36921,3.71091 1.10547,5.404297 a 1.2667916,1.2667916 0 0 0 0.008,0.01953 c 0.72471,1.594354 1.70851,3.048558 2.9336,4.345704 a 1.2667916,1.2667916 0 0 0 0.0508,0.05078 c 1.29714,1.225082 2.75135,2.206934 4.3457,2.93164 a 1.2667916,1.2667916 0 0 0 0.0195,0.0098 c 1.69339,0.736255 3.50857,1.105469 5.4043,1.105469 1.89572,0 3.71091,-0.369214 5.40429,-1.105469 1.66938,-0.725817 3.14314,-1.71931 4.39063,-2.966797 1.29609,-1.296088 2.31987,-2.755555 3.05078,-4.359375 0.81045,-1.698232 1.2207,-3.527172 1.2207,-5.435547 0,-1.90205 -0.40973,-3.726445 -1.21484,-5.419922 -0.72289,-1.722091 -1.74594,-3.225879 -3.05273,-4.46875 -1.24453,-1.312045 -2.72004,-2.346176 -4.39454,-3.074218 -1.69338,-0.736255 -3.50857,-1.103516 -5.40429,-1.103516 z m 116.0664,1.132813 h 15.26758 V 99.0625 a 1.2667916,1.2667916 0 0 0 2.1875,0.867187 c 4.24358,-4.504715 8.92763,-8.079206 14.0625,-10.74414 a 1.2667916,1.2667916 0 0 0 0.01,-0.0059 c 5.06519,-2.692888 10.91097,-4.050781 17.60547,-4.050781 5.39089,0 10.07459,0.906633 14.08593,2.689453 a 1.2667916,1.2667916 0 0 0 0.0234,0.0098 c 4.09494,1.72755 7.44426,4.198496 10.11328,7.439453 a 1.2667916,1.2667916 0 0 0 0.0176,0.01953 c 2.74304,3.189577 4.82751,7.059621 6.25,11.650391 1.42387,4.59522 2.14453,9.6989 2.14453,15.32422 v 63.23242 h -15.26758 v -63.23242 c 0,-7.85743 -1.81974,-14.11735 -5.59375,-18.60742 -3.73756,-4.593177 -9.52774,-6.859378 -16.97265,-6.859378 -5.46976,0 -10.63123,1.325155 -15.41016,3.957028 a 1.2667916,1.2667916 0 0 0 -0.008,0.004 c -4.66794,2.60855 -8.97898,6.13717 -12.92774,10.5625 a 1.2667916,1.2667916 0 0 0 -0.32031,0.84375 v 73.33203 h -15.26758 z m -116.0664,1.40039 c 1.57094,0 3.02125,0.297453 4.39453,0.894531 1.38313,0.601361 2.56605,1.429996 3.58398,2.507813 a 1.2667916,1.2667916 0 0 0 0.0527,0.05078 c 1.0688,1.009425 1.89627,2.21707 2.5,3.666016 a 1.2667916,1.2667916 0 0 0 0.0254,0.06055 c 0.65318,1.365737 0.97656,2.798814 0.97656,4.353515 0,1.554701 -0.32338,2.987779 -0.97656,4.353516 a 1.2667916,1.2667916 0 0 0 -0.01,0.02148 c -0.60204,1.3245 -1.44248,2.528425 -2.54297,3.628907 -1.01918,1.019179 -2.21208,1.826077 -3.60937,2.433593 -1.37328,0.597078 -2.82359,0.894532 -4.39453,0.894532 -1.56812,0 -3.01563,-0.297643 -4.38672,-0.892579 -1.32272,-0.60292 -2.51939,-1.415544 -3.61133,-2.441406 -1.02586,-1.091935 -1.83848,-2.288604 -2.44141,-3.611328 -0.59493,-1.371094 -0.89453,-2.818596 -0.89453,-4.386719 0,-1.57094 0.29941,-3.021251 0.89649,-4.394531 a 1.2667916,1.2667916 0 0 0 0.006,-0.01953 c 0.60949,-1.462783 1.41733,-2.681008 2.42773,-3.691406 1.09806,-1.098057 2.30005,-1.933391 3.6211,-2.535157 1.37005,-0.593917 2.81603,-0.892578 4.38281,-0.892578 z M 38.267578,42.195312 A 1.2667916,1.2667916 0 0 0 37,43.460937 V 186.76172 a 1.2667916,1.2667916 0 0 0 1.267578,1.26758 h 81.400392 a 1.2667916,1.2667916 0 0 0 1.26562,-1.26758 v -16.30078 a 1.2667916,1.2667916 0 0 0 -1.26562,-1.26563 H 58.933594 V 43.460937 a 1.2667916,1.2667916 0 0 0 -1.265625,-1.265625 z m 1.267578,2.533204 H 56.400391 V 170.46094 a 1.2667916,1.2667916 0 0 0 1.267578,1.26758 h 60.732421 v 13.76562 H 39.535156 Z m 164.533204,6.566406 c -1.37053,0 -2.65405,0.443541 -3.625,1.314453 -0.95534,0.793693 -1.56291,1.928814 -1.73047,3.185547 a 1.2667916,1.2667916 0 0 0 -0.002,0.002 l -3.97266,30.330078 -15.62891,1.978516 a 1.2667916,1.2667916 0 0 0 -1.10742,1.255859 v 7.099609 c 0,1.565556 0.46934,2.988102 1.51367,3.937503 a 1.2667916,1.2667916 0 0 0 0.0508,0.043 c 0.96628,0.7906 2.19778,1.1875 3.50195,1.1875 h 10.93359 v 60.73242 c 0,8.61446 2.20939,15.42233 6.75,20.17578 a 1.2667916,1.2667916 0 0 0 0.006,0.006 c 4.60459,4.74627 11.17442,7.08594 19.41016,7.08594 4.74686,0 9.36794,-0.82807 13.83789,-2.47852 a 1.2667916,1.2667916 0 0 0 0.0156,-0.006 c 4.467,-1.71807 8.31709,-4.07035 11.51172,-7.05664 A 1.2667916,1.2667916 0 0 0 245.74805,178.5 l -5.19922,-8.5 a 1.2667916,1.2667916 0 0 0 -0.0176,-0.0273 c -0.86648,-1.33911 -2.11842,-2.27735 -3.56445,-2.27735 -0.95556,0 -1.79307,0.42373 -2.64453,1.04297 -0.62956,0.43991 -1.43213,0.95264 -2.40625,1.53711 -0.91003,0.54602 -2.03712,1.08124 -3.36719,1.58984 -0.001,3.6e-4 -0.003,-3.5e-4 -0.004,0 -1.15888,0.40511 -2.61738,0.62891 -4.37695,0.62891 -2.99955,0 -5.27476,-0.8978 -7.10547,-2.72852 -1.75848,-1.75848 -2.72852,-4.54136 -2.72852,-8.60351 v -59.5332 h 27.73438 a 1.2667916,1.2667916 0 0 0 1.26562,-1.26758 V 87.460937 a 1.2667916,1.2667916 0 0 0 -1.26562,-1.265625 H 214.33398 V 52.5625 a 1.2667916,1.2667916 0 0 0 -1.26562,-1.267578 z m 0,2.533203 h 7.73242 v 33.632812 a 1.2667916,1.2667916 0 0 0 1.26758,1.267579 h 27.73242 v 10.367187 h -27.73242 a 1.2667916,1.2667916 0 0 0 -1.26758,1.265627 v 60.80078 c 0,4.47118 1.09585,8.01968 3.4707,10.39453 2.30263,2.30262 5.3627,3.47266 8.89649,3.47266 1.97222,0 3.71145,-0.24393 5.21875,-0.77149 a 1.2667916,1.2667916 0 0 0 0.0312,-0.0117 c 1.45391,-0.55387 2.71914,-1.14984 3.80078,-1.79882 1.01775,-0.61065 1.87468,-1.1574 2.57617,-1.64844 a 1.2667916,1.2667916 0 0 0 0.0176,-0.0137 c 0.6152,-0.44743 1.04319,-0.55664 1.1543,-0.55664 0.41989,0 0.83706,0.19384 1.43554,1.11718 0.001,0.002 9e-4,0.002 0.002,0.004 l 4.58984,7.5 c -2.78624,2.43109 -6.02555,4.44497 -9.87305,5.92578 -4.1943,1.54767 -8.50269,2.32031 -12.95312,2.32031 -7.75936,0 -13.52233,-2.12677 -17.58399,-6.30859 l -0.002,-0.004 c -3.99079,-4.17978 -6.04687,-10.23834 -6.04687,-18.42187 v -62 a 1.2667916,1.2667916 0 0 0 -1.26758,-1.265627 h -12.19922 c -0.81736,0 -1.37589,-0.209609 -1.87109,-0.607422 -0.40467,-0.383983 -0.66211,-0.95267 -0.66211,-2.027344 v -5.982421 l 15.49218,-1.960938 a 1.2667916,1.2667916 0 0 0 1.09571,-1.091797 l 4.10156,-31.298828 c 0.0978,-0.729445 0.3509,-1.179149 0.8457,-1.583984 a 1.2667916,1.2667916 0 0 0 0.0488,-0.04492 c 0.49301,-0.448192 1.06425,-0.669922 1.94922,-0.669922 z M 140.26758,84.195312 A 1.2667916,1.2667916 0 0 0 139,85.460937 V 186.76172 a 1.2667916,1.2667916 0 0 0 1.26758,1.26758 h 17.80078 a 1.2667916,1.2667916 0 0 0 1.26562,-1.26758 V 85.460937 a 1.2667916,1.2667916 0 0 0 -1.26562,-1.265625 z m 1.26758,2.533204 h 15.26562 v 98.765624 h -15.26562 z"
         id="path2" />
      <path
         style="font-size:200px;font-family:Lato;-inkscape-font-specification:'Lato, Normal';text-align:center;baseline-shift:baseline;white-space:pre;display:inline;overflow:visible;vector-effect:none;fill:#474747;stroke-linecap:round;stroke-linejoin:round;paint-order:stroke markers fill;enable-background:accumulate;stop-color:#000000;stop-opacity:1"
         d="m 57.667638,170.46172 h 62.000002 v 16.3 H 38.267638 V 43.461719 h 19.4 z M 158.06763,85.461719 V 186.76172 h -17.8 V 85.461719 Z m 4,-31.8 q 0,2.6 -1.1,4.9 -1,2.2 -2.8,4 -1.7,1.7 -4,2.7 -2.3,1 -4.9,1 -2.6,0 -4.9,-1 -2.2,-1 -4,-2.7 -1.7,-1.8 -2.7,-4 -1,-2.3 -1,-4.9 0,-2.6 1,-4.9 1,-2.4 2.7,-4.1 1.8,-1.8 4,-2.8 2.3,-1 4.9,-1 2.6,0 4.9,1 2.3,1 4,2.8 1.8,1.7 2.8,4.1 1.1,2.3 1.1,4.9 z m 58.1001,134.700001 q -12,0 -18.5,-6.7 -6.4,-6.7 -6.4,-19.3 v -62 h -12.2 q -1.6,0 -2.7,-0.900001 -1.1,-1 -1.1,-3 v -7.1 l 16.6,-2.1 4.1,-31.3 q 0.2,-1.5 1.3,-2.4 1.1,-1 2.8,-1 h 9 v 34.9 h 29 v 12.900001 h -29 v 60.8 q 0,6.4 3.1,9.5 3.1,3.1 8,3.1 2.8,0 4.8,-0.7 2.1,-0.8 3.6,-1.7 1.5,-0.9 2.5,-1.6 1.1,-0.8 1.9,-0.8 1.4,0 2.5,1.7 l 5.2,8.5 q -4.6,4.3 -11.1,6.8 -6.5,2.4 -13.4,2.4 z m 43.89984,-1.6 V 39.461719 h 17.8 v 59.6 q 6.5,-6.9 14.4,-11 7.9,-4.2 18.2,-4.2 8.3,0 14.6,2.8 6.4,2.7 10.6,7.8 4.3,5 6.5,12.100001 2.2,7.1 2.2,15.7 v 64.5 h -17.8 v -64.5 q 0,-11.5 -5.3,-17.8 -5.2,-6.400001 -16,-6.400001 -7.9,0 -14.8,3.800001 -6.8,3.8 -12.6,10.3 v 74.6 z"
         id="path3" />
    </g>
    <g
       id="text1-7-2-6"
       style="opacity:1"
       transform="matrix(0.26458333,0,0,0.26458333,1.7916391,-7.0039831)">
      <path
         style="font-size:200px;font-family:Lato;-inkscape-font-specification:'Lato, @wght=700';font-variation-settings:'wght' 700;text-align:center;baseline-shift:baseline;white-space:pre;display:inline;overflow:visible;vector-effect:none;stroke-linecap:round;stroke-linejoin:round;paint-order:stroke markers fill;enable-background:accumulate;stop-color:#000000;stop-opacity:1"
         d="m 192.26758,82.595703 c -5.85116,0 -11.09792,0.814634 -15.72656,2.472656 -4.59029,1.64428 -8.50409,3.888103 -11.70508,6.738282 -0.001,0.0012 -0.002,0.0027 -0.004,0.0039 -3.19298,2.777534 -5.64435,6.064767 -7.31836,9.828123 -2.6e-4,5.7e-4 2.6e-4,0.001 0,0.002 -1.6711,3.69099 -2.51367,7.58034 -2.51367,11.62109 0,4.47624 0.75736,8.37032 2.32422,11.64648 a 1.2667916,1.2667916 0 0 0 0.0156,0.0293 c 1.60496,3.14014 3.71556,5.81864 6.31446,7.99609 2.56112,2.14581 5.46501,3.94057 8.69726,5.38477 a 1.2667916,1.2667916 0 0 0 0.0293,0.0117 c 3.23056,1.34606 6.49428,2.55764 9.79297,3.63476 a 1.2667916,1.2667916 0 0 0 0.008,0.004 c 3.33363,1.06676 6.56751,2.0995 9.70117,3.09961 a 1.2667916,1.2667916 0 0 0 0.0293,0.01 c 3.12834,0.91244 5.88004,2.01566 8.25391,3.29883 a 1.2667916,1.2667916 0 0 0 0.0234,0.0117 c 2.3325,1.19777 4.1429,2.65061 5.48242,4.35547 a 1.2667916,1.2667916 0 0 0 0.0312,0.0391 c 1.32309,1.55319 1.99805,3.50934 1.99805,6.07813 0,2.10523 -0.39806,4.05667 -1.19531,5.89648 a 1.2667916,1.2667916 0 0 0 -0.0137,0.0332 c -0.7243,1.81074 -1.86183,3.40594 -3.46289,4.82226 -1.5897,1.40627 -3.60557,2.561 -6.07422,3.44922 -2.43758,0.81096 -5.33124,1.23242 -8.6875,1.23242 -3.96892,0 -7.23777,-0.46113 -9.78906,-1.33203 h -0.002 c -2.6004,-0.91078 -4.82391,-1.91444 -6.66601,-2.99414 h -0.002 c -1.84136,-1.11837 -3.41595,-2.1357 -4.71484,-3.04492 -1.47959,-1.03571 -2.997,-1.62891 -4.52539,-1.62891 -1.3642,0 -2.58273,0.26376 -3.58008,0.89844 -0.91563,0.58267 -1.68287,1.40336 -2.29883,2.4043 l -4.19922,6.79882 a 1.2667916,1.2667916 0 0 0 0.23047,1.60743 c 4.12253,3.71027 9.12002,6.75056 14.96875,9.13086 a 1.2667916,1.2667916 0 0 0 0.0117,0.006 c 5.89881,2.33209 12.46392,3.48829 19.66602,3.48829 6.3135,0 11.92356,-0.84806 16.82031,-2.57227 4.86182,-1.71191 9.01285,-4.05652 12.41602,-7.04297 a 1.2667916,1.2667916 0 0 0 0.01,-0.01 c 3.3964,-3.04983 5.98218,-6.64514 7.7207,-10.74805 a 1.2667916,1.2667916 0 0 0 0.002,-0.008 c 1.73393,-4.16144 2.59765,-8.66887 2.59765,-13.48633 0,-4.21933 -0.79771,-7.89902 -2.44336,-10.98242 -1.54136,-3.0771 -3.62276,-5.69118 -6.22461,-7.80078 -2.5635,-2.07853 -5.46806,-3.80586 -8.70117,-5.18165 -3.17026,-1.34904 -6.44102,-2.56237 -9.81054,-3.64062 l 0.0293,0.008 c -3.27542,-1.13637 -6.48587,-2.17218 -9.63086,-3.10937 l -0.004,-0.002 c -3.07563,-0.98181 -5.81102,-2.08998 -8.20313,-3.31835 -2.34731,-1.20538 -4.20689,-2.61207 -5.61719,-4.20313 -1.25923,-1.49304 -1.89453,-3.31344 -1.89453,-5.66992 0,-1.88645 0.38809,-3.57392 1.16211,-5.125 0.84838,-1.63351 2.02188,-3.04924 3.55469,-4.27735 1.59661,-1.22629 3.51494,-2.19244 5.78711,-2.886714 a 1.2667916,1.2667916 0 0 0 0.0312,-0.0098 c 2.24979,-0.749931 4.81181,-1.134766 7.69922,-1.134766 3.36923,0 6.24402,0.392539 8.61914,1.142578 a 1.2667916,1.2667916 0 0 0 0.0273,0.0078 c 2.47244,0.715705 4.56476,1.524245 6.26953,2.408205 a 1.2667916,1.2667916 0 0 0 0.0508,0.0234 c 1.84215,0.85528 3.37723,1.64109 4.59765,2.34765 1.39175,0.80575 2.72553,1.27149 4.03516,1.27149 2.03822,0 3.83543,-1.07004 4.8125,-2.86133 l -0.0332,0.0586 4,-6.499998 a 1.2667916,1.2667916 0 0 0 -0.20703,-1.583985 c -3.98695,-3.780736 -8.73253,-6.733428 -14.19726,-8.853515 l -0.004,-0.002 c -5.43807,-2.202101 -11.57093,-3.291016 -18.37109,-3.291016 z m 0,2.533203 c 6.53155,0 12.32953,1.04391 17.42383,3.107422 a 1.2667916,1.2667916 0 0 0 0.0176,0.0059 c 4.85607,1.881724 9.00129,4.497192 12.58594,7.720704 l -3.40625,5.535159 a 1.2667916,1.2667916 0 0 0 -0.0332,0.0566 c -0.62293,1.14204 -1.29278,1.54101 -2.58789,1.54101 -0.69037,0 -1.62405,-0.26877 -2.76563,-0.92968 -1.3027,-0.7542 -2.89174,-1.56336 -4.76367,-2.433598 -1.88763,-0.977741 -4.11904,-1.831966 -6.69922,-2.580078 -2.68951,-0.848031 -5.81096,-1.257813 -9.37109,-1.257813 -3.10815,0 -5.9409,0.416058 -8.48828,1.263672 -2.51574,0.770828 -4.72038,1.86528 -6.58399,3.298827 a 1.2667916,1.2667916 0 0 0 -0.0195,0.0156 c -1.79372,1.43497 -3.21609,3.1454 -4.23242,5.10547 a 1.2667916,1.2667916 0 0 0 -0.01,0.0176 c -0.95672,1.91344 -1.43359,4.0219 -1.43359,6.26563 0,2.83817 0.83161,5.34662 2.5,7.31836 a 1.2667916,1.2667916 0 0 0 0.0176,0.0215 c 1.65522,1.87112 3.79044,3.46191 6.37109,4.78711 2.54005,1.30435 5.40456,2.46264 8.59375,3.48047 a 1.2667916,1.2667916 0 0 0 0.0234,0.008 c 3.11432,0.92767 6.29696,1.95451 9.54687,3.08203 a 1.2667916,1.2667916 0 0 0 0.0293,0.01 c 3.29715,1.05509 6.49344,2.24097 9.58985,3.55859 3.03356,1.29088 5.72783,2.89688 8.09765,4.81836 2.32675,1.88656 4.17332,4.20015 5.56445,6.98242 a 1.2667916,1.2667916 0 0 0 0.0156,0.0312 c 1.41584,2.64701 2.15039,5.89527 2.15039,9.80274 0,4.5152 -0.80342,8.67363 -2.40234,12.51172 -2.4e-4,5.7e-4 2.4e-4,0.001 0,0.002 -1.59332,3.75696 -3.93791,7.02284 -7.06836,9.83594 -3.12981,2.74606 -6.97816,4.93361 -11.58203,6.55469 -4.56992,1.60912 -9.89397,2.42968 -15.98047,2.42968 -6.93124,0 -13.16652,-1.11125 -18.73438,-3.3125 -5.24812,-2.13722 -9.65377,-4.85268 -13.38086,-8.04101 l 3.59375,-5.81446 a 1.2667916,1.2667916 0 0 0 0,-0.002 c 0.45071,-0.7324 0.95092,-1.24504 1.50196,-1.5957 0.46931,-0.29866 1.1849,-0.50196 2.2207,-0.50196 0.8716,0 1.88518,0.34092 3.07226,1.17188 1.36352,0.95446 2.98499,2.00058 4.86915,3.14453 a 1.2667916,1.2667916 0 0 0 0.0176,0.01 c 2.02166,1.18511 4.39363,2.24851 7.1211,3.20312 a 1.2667916,1.2667916 0 0 0 0.01,0.004 c 2.91513,0.99541 6.44581,1.46679 10.60938,1.46679 3.57222,0 6.73978,-0.44516 9.5,-1.36523 a 1.2667916,1.2667916 0 0 0 0.0273,-0.01 c 2.72336,-0.97761 5.0389,-2.28628 6.91211,-3.94335 1.86144,-1.64666 3.25285,-3.58043 4.12891,-5.76368 0.93065,-2.15481 1.39843,-4.4637 1.39843,-6.88476 10e-6,-3.02526 -0.85902,-5.66191 -2.5957,-7.70703 -1.58917,-2.01331 -3.69905,-3.68509 -6.2832,-5.01368 -2.55656,-1.38062 -5.46592,-2.54141 -8.73242,-3.49414 l 0.0293,0.008 c -3.133,-0.9999 -6.36617,-2.03304 -9.69922,-3.09961 -3.22794,-1.05427 -6.42292,-2.24102 -9.58593,-3.5586 -3.02675,-1.3543 -5.71863,-3.02243 -8.08594,-5.00586 -2.33051,-1.95258 -4.21705,-4.33793 -5.67773,-7.1914 -1.36203,-2.85458 -2.06836,-6.35364 -2.06836,-10.53711 0,-3.69196 0.75873,-7.20296 2.28711,-10.57813 a 1.2667916,1.2667916 0 0 0 0.002,-0.008 c 1.52516,-3.431613 3.73783,-6.405941 6.67383,-8.958983 a 1.2667916,1.2667916 0 0 0 0.0117,-0.0098 c 2.93027,-2.61177 6.54703,-4.69814 10.88476,-6.251953 4.30469,-1.541978 9.25754,-2.326172 14.87305,-2.326172 z"
         id="path4" />
      <path
         style="font-size:200px;font-family:Lato;-inkscape-font-specification:'Lato, @wght=700';font-variation-settings:'wght' 700;text-align:center;baseline-shift:baseline;white-space:pre;display:inline;overflow:visible;vector-effect:none;fill:#474747;stroke-linecap:round;stroke-linejoin:round;paint-order:stroke markers fill;enable-background:accumulate;stop-color:#000000;stop-opacity:1"
         d="m 219.96758,102.16172 q -1.2,2.2 -3.7,2.2 -1.5,0 -3.4,-1.1 -1.9,-1.1 -4.7,-2.4 -2.7,-1.400001 -6.5,-2.500001 -3.8,-1.2 -9,-1.2 -4.5,0 -8.1,1.2 -3.6,1.1 -6.2,3.100001 -2.5,2 -3.9,4.7 -1.3,2.6 -1.3,5.7 0,3.9 2.2,6.5 2.3,2.6 6,4.5 3.7,1.9 8.4,3.4 4.7,1.4 9.6,3.1 5,1.6 9.7,3.6 4.7,2 8.4,5 3.7,3 5.9,7.4 2.3,4.3 2.3,10.4 0,7 -2.5,13 -2.5,5.9 -7.4,10.3 -4.9,4.3 -12,6.8 -7.1,2.5 -16.4,2.5 -10.6,0 -19.2,-3.4 -8.6,-3.5 -14.6,-8.9 l 4.2,-6.8 q 0.8,-1.3 1.9,-2 1.1,-0.7 2.9,-0.7 1.8,0 3.8,1.4 2,1.4 4.8,3.1 2.9,1.7 6.9,3.1 4.1,1.4 10.2,1.4 5.2,0 9.1,-1.3 3.9,-1.4 6.5,-3.7 2.6,-2.3 3.8,-5.3 1.3,-3 1.3,-6.4 0,-4.2 -2.3,-6.9 -2.2,-2.8 -5.9,-4.7 -3.7,-2 -8.5,-3.4 -4.7,-1.5 -9.7,-3.1 -4.9,-1.6 -9.7,-3.6 -4.7,-2.1 -8.4,-5.2 -3.7,-3.1 -6,-7.6 -2.2,-4.6 -2.2,-11.1 0,-5.8 2.4,-11.1 2.4,-5.400001 7,-9.400001 4.6,-4.1 11.3,-6.5 6.7,-2.4 15.3,-2.4 10,0 17.9,3.2 8,3.1 13.8,8.6 z"
         id="path5" />
    </g>
  </g>
</svg>
