<?xml version="1.0" encoding="UTF-8" standalone="no"?>
<!-- Created with Inkscape (http://www.inkscape.org/) -->

<svg
   width="50mm"
   height="50mm"
   viewBox="0 0 50 50"
   version="1.1"
   id="svg1"
   inkscape:version="1.4.1 (1:1.4.1+202503302257+93de688d07)"
   sodipodi:docname="logo.svg"
   xmlns:inkscape="http://www.inkscape.org/namespaces/inkscape"
   xmlns:sodipodi="http://sodipodi.sourceforge.net/DTD/sodipodi-0.dtd"
   xmlns="http://www.w3.org/2000/svg"
   xmlns:svg="http://www.w3.org/2000/svg">
  <sodipodi:namedview
     id="namedview1"
     pagecolor="#ffffff"
     bordercolor="#000000"
     borderopacity="0.25"
     inkscape:showpageshadow="2"
     inkscape:pageopacity="0.0"
     inkscape:pagecheckerboard="0"
     inkscape:deskcolor="#d1d1d1"
     inkscape:document-units="mm"
     inkscape:zoom="1.3131173"
     inkscape:cx="84.531672"
     inkscape:cy="170.96721"
     inkscape:window-width="1920"
     inkscape:window-height="945"
     inkscape:window-x="0"
     inkscape:window-y="0"
     inkscape:window-maximized="1"
     inkscape:current-layer="svg1" />
  <defs
     id="defs1">
    <inkscape:perspective
       sodipodi:type="inkscape:persp3d"
       inkscape:vp_x="-0.11765369 : -2.3027666 : 1"
       inkscape:vp_y="715.18405 : 790.27268 : 0"
       inkscape:vp_z="135.96837 : -163.42797 : 1"
       inkscape:persp3d-origin="32.523742 : -121.98387 : 1"
       id="perspective12" />
    <inkscape:perspective
       sodipodi:type="inkscape:persp3d"
       inkscape:vp_x="0 : -98.500007 : 1"
       inkscape:vp_y="0 : 999.99995 : 0"
       inkscape:vp_z="210 : -98.500007 : 1"
       inkscape:persp3d-origin="105.00001 : -148.00001 : 1"
       id="perspective1" />
  </defs>
  <g
     id="g20"
     transform="rotate(-2.2469979,25,24.96434)">
    <path
       id="path17-2"
       style="fill:#767676;fill-opacity:1;stroke:#000000;stroke-width:0.670278;stroke-linecap:round;stroke-linejoin:round;stroke-dasharray:none;stroke-opacity:1;paint-order:stroke markers fill"
       inkscape:transform-center-x="0.58877233"
       inkscape:transform-center-y="-0.44965194"
       d="m 25.759259,6.032481 c 0.560593,-0.333978 2.450182,-1.399976 2.792223,-0.929405 0.342042,0.470597 -4.293949,12.278799 -3.864391,15.25263 0.111055,0.768702 -2.344279,6.737673 -2.85988,7.404393 -0.515602,0.66673 -1.69383,-2.242654 -2.197583,-2.323353 -0.503838,-0.0802 -2.737818,-3.154104 -2.850395,-3.921395 -0.112638,-0.767293 0.796441,-6.724203 1.159914,-7.600337 0.363388,-0.876132 2.524534,-4.72764 3.085135,-5.061623 z"
       sodipodi:nodetypes="sssssssss" />
    <path
       id="path14"
       style="fill:#606060;fill-opacity:1;stroke:#000000;stroke-width:0.670278;stroke-linecap:round;stroke-linejoin:round;stroke-dasharray:none;stroke-opacity:1;paint-order:stroke markers fill"
       inkscape:transform-center-x="8.8455204"
       inkscape:transform-center-y="8.0295482"
       d="M 26.733649,44.910009 C 24.850206,44.314079 15.087482,37.123399 14.618621,35.986749 14.14976,34.850109 26.087857,5.462133 27.681526,5.355581 c 1.593671,-0.106553 12.424096,23.930288 13.877886,25.001078 1.45381,1.07079 -0.85001,12.89706 -1.54519,13.6654 -0.695167,0.76834 -11.397132,1.48388 -13.280573,0.88795 z"
       sodipodi:nodetypes="ssssss" />
    <path
       id="path12"
       style="fill:#474747;fill-opacity:1;stroke:#000000;stroke-width:0.670278;stroke-linecap:round;stroke-linejoin:round;stroke-dasharray:none;stroke-opacity:1;paint-order:stroke markers fill"
       inkscape:transform-center-x="10.019965"
       inkscape:transform-center-y="-26.569843"
       d="m 17.927422,26.631922 c -0.373675,1.839647 3.755913,17.594057 1.749781,17.204197 -1.5167,-0.29474 -9.669952,0.33253 -14.731754,-5.02641 -1.27967,-1.35479 5.412726,-18.796394 6.796354,-20.065061 1.383629,-1.268667 7.57894,-10.316398 9.213087,-9.39253 1.634137,0.923872 -2.653788,15.440147 -3.027468,17.279804 z"
       sodipodi:nodetypes="ssssss" />
    <path
       id="path16"
       style="fill:#afafaf;fill-opacity:1;stroke:#000000;stroke-width:0.670278;stroke-linecap:round;stroke-linejoin:round;stroke-dasharray:none;stroke-opacity:1;paint-order:stroke markers fill"
       inkscape:transform-center-x="0.42523529"
       inkscape:transform-center-y="2.6147724"
       d="M 36.434247,23.533186 C 35.133161,22.2326 32.402771,16.672176 32.284118,15.087265 32.140209,13.164997 26.340947,5.550491 28.444274,4.953141 c 2.103311,-0.597338 3.068817,0.329123 3.903182,1.656606 0.307754,0.489638 3.79853,2.450311 4.380647,4.664312 1.459881,5.552451 1.835047,8.361153 2.07707,9.399722 0.365019,1.566432 7.726769,8.556978 6.202479,9.733128 -1.52427,1.17617 -2.96314,-1.23872 -5.22893,-1.33852 -2.265762,-0.0998 -2.043389,-4.23461 -3.344475,-5.535203 z"
       sodipodi:nodetypes="sssssssss" />
    <path
       id="path17"
       style="fill:#555555;fill-opacity:1;stroke:#000000;stroke-width:0.670278;stroke-linecap:round;stroke-linejoin:round;stroke-dasharray:none;stroke-opacity:1;paint-order:stroke markers fill"
       inkscape:transform-center-x="-0.9001798"
       inkscape:transform-center-y="0.44198484"
       d="m 42.476822,44.002929 c -0.42336,0.32419 -4.7561,0.82746 -5.087232,0.4918 -0.331127,-0.33568 2.108703,-10.27771 1.424499,-12.59801 -0.176871,-0.59977 1.147403,-5.638258 1.491573,-6.228786 0.34416,-0.590526 1.62988,1.592376 2.04859,1.598786 0.41872,0.006 2.58144,2.19867 2.75939,2.79714 0.17797,0.59847 0.10968,5.44964 -0.0872,6.18955 -0.19682,0.7399 -2.12633,7.42533 -2.5497,7.74952 z"
       sodipodi:nodetypes="sssssssss" />
    <path
       id="path19"
       style="fill:#666666;fill-opacity:1;stroke:#000000;stroke-width:0.670278;stroke-linecap:round;stroke-linejoin:round;stroke-dasharray:none;stroke-opacity:1;paint-order:stroke markers fill"
       inkscape:transform-center-x="-0.62239103"
       inkscape:transform-center-y="-1.1394065"
       d="m 18.385681,31.789489 c 0.439758,-1.57071 0.455345,3.38499 1.121783,4.22903 0.523942,0.87966 6.491249,4.7741 6.977343,5.3779 0.486099,0.6038 0.738429,3.49501 0.321956,3.68886 -0.416479,0.19385 -5.21857,-0.02157 -6.224007,-0.383646 -1.005436,-0.36207 -9.253716,-1.917501 -10.202144,-2.384407 -0.4551013,-0.224044 2.961969,-1.969237 5.886753,-5.124767 1.189639,-1.28349 0.417494,0.67195 2.118316,-5.40297 z"
       sodipodi:nodetypes="scssssss" />
    <path
       id="path20-6"
       style="fill:#3d3d3d;fill-opacity:1;stroke:#000000;stroke-width:0.670278;stroke-linecap:round;stroke-linejoin:round;stroke-dasharray:none;stroke-opacity:1;paint-order:stroke markers fill"
       inkscape:transform-center-x="-0.15082686"
       inkscape:transform-center-y="2.0871371"
       d="m 35.551363,43.586039 c 0.173701,-0.20113 0.190277,-2.24536 0.28207,-2.52804 0.0918,-0.28268 2.361579,-4.85207 2.506856,-4.9406 0.145289,-0.0885 -0.414684,3.43892 -0.325323,3.6112 0.08935,0.17228 0.12332,1.35405 0.08947,1.65742 -0.03383,0.30336 0.693267,2.7966 0.561699,3.00261 -0.13159,0.20597 -1.810192,0.38468 -1.940421,0.33817 -0.130207,-0.0465 -2.305157,0.16856 -2.131445,-0.0326 z"
       sodipodi:nodetypes="sssssssss" />
    <path
       id="path20-8"
       style="fill:#7c7c7c;fill-opacity:1;stroke:#000000;stroke-width:0.670278;stroke-linecap:round;stroke-linejoin:round;stroke-dasharray:none;stroke-opacity:1;paint-order:stroke markers fill"
       inkscape:transform-center-x="1.7291425"
       inkscape:transform-center-y="-1.3779128"
       d="m 32.696491,13.966713 c 0.188724,0.187102 1.623153,2.210528 1.727714,2.488731 0.104592,0.278207 0.983653,1.312911 0.925283,1.472731 -0.05834,0.159825 1.706077,6.609049 1.528773,6.530124 -0.177305,-0.07893 -3.935313,-5.932365 -4.09808,-6.190596 -0.162775,-0.258218 -1.099885,-3.154284 -1.125545,-3.397374 -0.02569,-0.243075 -2.285768,-5.045472 -2.154989,-5.090375 0.130776,-0.04487 3.008115,3.999628 3.196844,4.186759 z"
       sodipodi:nodetypes="ssssssss" />
  </g>
</svg>
