<svg width="200" height="200" viewBox="0 0 24 24" xmlns="http://www.w3.org/2000/svg">
    <defs>
        <linearGradient id="pyflange-gradient" x1="0%" y1="0%" x2="100%" y2="100%">
            <stop offset="0%" style="stop-color:#3776AB;stop-opacity:1" />
            <stop offset="100%" style="stop-color:#FFD43B;stop-opacity:1" />
        </linearGradient>
    </defs>
    <path fill-rule="evenodd" fill="url(#pyflange-gradient)" d="
        M 12,2 A 10,10 0 1 1 12,22 A 10,10 0 1 1 12,2 Z
        M 12,6 A 6,6 0 1 0 12,18 A 6,6 0 1 0 12,6 Z
        M 12,4 m -1.2,0 a 1.2,1.2 0 1,0 2.4,0 a 1.2,1.2 0 1,0 -2.4,0 Z
        M 20,12 m -1.2,0 a 1.2,1.2 0 1,0 2.4,0 a 1.2,1.2 0 1,0 -2.4,0 Z
        M 12,20 m -1.2,0 a 1.2,1.2 0 1,0 2.4,0 a 1.2,1.2 0 1,0 -2.4,0 Z
        M 4,12 m -1.2,0 a 1.2,1.2 0 1,0 2.4,0 a 1.2,1.2 0 1,0 -2.4,0 Z
    "/>
</svg>
