<svg width="32" height="32" viewBox="0 0 32 32" fill="none" xmlns="http://www.w3.org/2000/svg">
<g clip-path="url(#clip0_1_4)">
<mask id="mask0_1_4" style="mask-type:luminance" maskUnits="userSpaceOnUse" x="0" y="0" width="32" height="32">
<path d="M32 0H0V32H32V0Z" fill="white"/>
</mask>
<g mask="url(#mask0_1_4)">
<path d="M32 0H0V32H32V0Z" fill="#A855F7"/>
<g opacity="0.7" filter="url(#filter0_f_1_4)">
<path d="M40.8097 14.7996C39.8327 23.2254 28.397 28.1743 22.8012 29.5955L13.2662 33.4663L-0.621696 34.6733C-4.96604 31.5809 -14.1676 24.7718 -16.2192 22.2748C-18.7836 19.1536 -20.2509 5.3491 -17.0522 -3.43482C-13.8534 -12.2188 -0.446096 -16.151 4.45043 -19.2464C9.34696 -22.3419 12.2541 -10.9009 14.8323 -6.61044C16.8949 -3.17806 25.1788 -0.438469 29.0629 0.502279C33.3856 1.7573 41.7867 6.37379 40.8097 14.7996Z" fill="#F97316"/>
</g>
<g filter="url(#filter1_f_1_4)">
<path d="M47.4476 -45.0832C57.5812 -48.9743 62.3635 -38.0177 63.488 -32.053L67.1648 -22.7633L67.136 -6.56026C62.9104 0.601264 53.6453 15.9261 50.3901 19.9333C46.3211 24.9423 29.3882 35.0575 19.0587 36.456C8.72921 37.8544 5.39468 23.881 2.16046 19.7786C-1.07377 15.6762 13.142 5.23125 18.6334 -0.499786C23.0264 -5.08462 27.2475 -16.8361 28.809 -22.1388C30.7995 -28.1657 37.3141 -41.1922 47.4476 -45.0832Z" fill="#5A17EE"/>
</g>
<g opacity="0.42" filter="url(#filter2_f_1_4)">
<path d="M17.3014 41.2679C13.805 40.3108 13.0311 35.337 13.0812 32.9697L12.5455 28.8395L13.6644 23.1185C15.5018 21.5596 19.5045 18.275 20.8165 17.6078C22.4565 16.7737 28.5463 17.0956 31.9345 18.9789C35.3227 20.8622 35.4285 26.5692 36.1784 28.7638C36.9283 30.9584 46.5151 46.1165 44.3723 46.8784C42.7672 47.4491 20.827 81.0034 14.2081 77.5334C13.552 79.9352 13.0814 80.0896 13.0814 76.2895C13.3786 76.8901 13.7579 77.2974 14.2081 77.5334C16.2088 70.2096 19.9344 41.9886 17.3014 41.2679Z" fill="#1EC9C6"/>
</g>
</g>
<path d="M19.7974 18.7323L26.8202 16.161L27.154 16.0275V4.5H4.75V27.5H10.1636V22.2514L14.2786 20.7516L20.474 27.5H27.25L19.7974 18.7323ZM10.1956 16.3771V10.0199H21.6674V12.1727L10.1956 16.3771Z" fill="white"/>
</g>
<defs>
<filter id="filter0_f_1_4" x="-37.7997" y="-38.6907" width="97.6077" height="92.284" filterUnits="userSpaceOnUse" color-interpolation-filters="sRGB">
<feFlood flood-opacity="0" result="BackgroundImageFix"/>
<feBlend mode="normal" in="SourceGraphic" in2="BackgroundImageFix" result="shape"/>
<feGaussianBlur stdDeviation="9.46" result="effect1_foregroundBlur_1_4"/>
</filter>
<filter id="filter1_f_1_4" x="-34.4325" y="-82.0198" width="137.717" height="154.694" filterUnits="userSpaceOnUse" color-interpolation-filters="sRGB">
<feFlood flood-opacity="0" result="BackgroundImageFix"/>
<feBlend mode="normal" in="SourceGraphic" in2="BackgroundImageFix" result="shape"/>
<feGaussianBlur stdDeviation="18.06" result="effect1_foregroundBlur_1_4"/>
</filter>
<filter id="filter2_f_1_4" x="-2.34612" y="2.28224" width="61.9216" height="91.8646" filterUnits="userSpaceOnUse" color-interpolation-filters="sRGB">
<feFlood flood-opacity="0" result="BackgroundImageFix"/>
<feBlend mode="normal" in="SourceGraphic" in2="BackgroundImageFix" result="shape"/>
<feGaussianBlur stdDeviation="7.44581" result="effect1_foregroundBlur_1_4"/>
</filter>
<clipPath id="clip0_1_4">
<rect width="32" height="32" fill="white"/>
</clipPath>
</defs>
</svg>
