<svg width="69" height="32" viewBox="0 0 69 32" fill="none" xmlns="http://www.w3.org/2000/svg">
<path d="M50.6995 5.86261V18.1032H53.6672V14.4122H60.0974V18.0764H63.0652V5.86261H50.6995ZM60.0974 11.4809H53.6672V8.79391H60.0974V11.4809Z" fill="#2B1B44"/>
<path d="M47.9792 12.5802V15.6336V18.0763H35.8608V15.145H45.0115V13.4351H35.8608V10.7481V7.69467V5.86261H47.9792V8.79391H38.8286V10.5038H47.9792V12.5802Z" fill="#2B1B44"/>
<path d="M20.7747 5.86261V18.1032H23.7424V14.4122H30.1726V18.0764H33.1403V5.86261H20.7747ZM30.1726 11.4809H23.7424V8.79391H30.1726V11.4809Z" fill="#2B1B44"/>
<path d="M14.0749 13.4205L17.8736 12.055L18.0542 11.9841V5.86261H5.93579V18.0763H8.86399V15.2892L11.0898 14.4928L14.4409 18.0763H18.1061L14.0749 13.4205ZM8.8813 12.1698V8.79391H15.0864V9.93711L8.8813 12.1698Z" fill="#2B1B44"/>
<path d="M59.7634 20.8952H65.6865V3.28299H3.3239V20.8952H47.8404L59.751 26.7138V20.8952H59.7634ZM0 -6.10352e-05H69.0005V24.1831H63.0873V31.9999L47.0688 24.1831H0V-6.10352e-05Z" fill="#2B1B44"/>
</svg>
