<svg width="20" height="24" viewBox="0 0 20 24" fill="none" xmlns="http://www.w3.org/2000/svg">
<g clip-path="url(#clip0_2074_16998)">
<path fill-rule="evenodd" clip-rule="evenodd" d="M16.2595 4.9836V3.53271H10.2141V9.57805H11.665V7.75841H14.8086V9.57201H16.2595V7.75841V6.30753V4.97755V4.9836ZM14.8086 6.31357H11.665V4.9836H14.8086V6.31357Z" fill="#5A17EE"/>
<path fill-rule="evenodd" clip-rule="evenodd" d="M9.24694 13.9949V15.5062V16.7153H3.32251V15.2644H7.79606V14.418H3.32251V13.0881V11.5767V10.6699H9.24694V12.1208H4.77339V12.9672H9.24694V13.9949Z" fill="#5A17EE"/>
<path fill-rule="evenodd" clip-rule="evenodd" d="M16.2595 12.1174V10.6665H10.2141V16.7118H11.665V14.8922H14.8086V16.7058H16.2595V14.8922V13.4413V12.1113V12.1174ZM14.8086 13.4474H11.665V12.1174H14.8086V13.4474Z" fill="#5A17EE"/>
<path d="M17.5894 2.20655V18.0079H15.083V20.7017L10.5514 18.1989L10.196 18.003H9.79335H1.99607V2.20655H17.593H17.5894ZM19.1648 0.634766H0.420654V19.5797H9.79093L16.6536 23.3701V19.5797H19.1612V0.634766H19.1648Z" fill="#5A17EE"/>
<path fill-rule="evenodd" clip-rule="evenodd" d="M7.30167 7.27748L9.1588 6.60161L9.24706 6.56655V3.53662H3.32263V3.65753L3.30933 9.58196H4.76021V8.20241L5.84837 7.80826L7.48061 9.58196H9.27245L7.30167 7.27748ZM4.76263 6.65843V4.9875H7.79618V5.55335L4.76263 6.65843Z" fill="#5A17EE"/>
</g>
<defs>
<clipPath id="clip0_2074_16998">
<rect width="19.5833" height="24" fill="white"/>
</clipPath>
</defs>
</svg>
