<?xml version="1.0" encoding="UTF-8" standalone="no"?>
<!-- Created with Inkscape (http://www.inkscape.org/) -->

<svg
   width="64"
   height="64"
   viewBox="0 0 16.933333 16.933333"
   version="1.1"
   id="svg1"
   inkscape:export-filename="eye_open.png"
   inkscape:export-xdpi="96"
   inkscape:export-ydpi="96"
   inkscape:version="1.3.2 (1:1.3.2+202311252150+091e20ef0f)"
   sodipodi:docname="eye_colin.svg"
   xmlns:inkscape="http://www.inkscape.org/namespaces/inkscape"
   xmlns:sodipodi="http://sodipodi.sourceforge.net/DTD/sodipodi-0.dtd"
   xmlns="http://www.w3.org/2000/svg"
   xmlns:svg="http://www.w3.org/2000/svg">
  <sodipodi:namedview
     id="namedview1"
     pagecolor="#ffffff"
     bordercolor="#000000"
     borderopacity="0.25"
     inkscape:showpageshadow="2"
     inkscape:pageopacity="0.0"
     inkscape:pagecheckerboard="0"
     inkscape:deskcolor="#d1d1d1"
     inkscape:document-units="px"
     showguides="false"
     inkscape:export-bgcolor="#ffffff00"
     inkscape:zoom="7.3669157"
     inkscape:cx="18.664527"
     inkscape:cy="37.600539"
     inkscape:window-width="1920"
     inkscape:window-height="954"
     inkscape:window-x="0"
     inkscape:window-y="27"
     inkscape:window-maximized="1"
     inkscape:current-layer="layer1" />
  <defs
     id="defs1" />
  <g
     inkscape:label="Layer 1"
     inkscape:groupmode="layer"
     id="layer1"
     transform="translate(-116.48108,-29.758682)"
     style="display:none">
    <path
       id="path2-4"
       style="fill:none;stroke:#000000;stroke-width:0.819578;stroke-linecap:round"
       d="m 124.33701,35.223754 c 1.20884,-0.235572 2.44605,0.239922 3.18595,1.224454 0.7399,0.984532 0.85255,2.305167 0.29007,3.400789"
       sodipodi:nodetypes="csc" />
    <path
       id="path1-1"
       style="fill:none;stroke:#000000;stroke-width:0.819578;stroke-linecap:round;stroke-dasharray:none;stroke-opacity:1"
       d="m 129.6135,41.863813 c 1.37131,-0.822693 2.54515,-2.019472 3.34383,-3.506286 -1.59751,-2.933888 -4.6707,-4.760137 -8.01133,-4.760747 -0.41763,0.0012 -0.88178,0.03093 -1.28854,0.08777 m -1.96169,0.423218 c -2.49165,1.248466 -3.86189,2.560982 -4.74882,4.272492 1.5894,2.938812 4.65799,4.773847 7.99905,4.783478 0.83758,-0.0024 2.22436,0.0082 2.92179,-0.593931"
       sodipodi:nodetypes="cccccccc" />
    <path
       style="fill:none;fill-opacity:1;stroke:#000000;stroke-width:0.819578;stroke-dasharray:none;stroke-opacity:1"
       id="path2-1"
       sodipodi:type="arc"
       sodipodi:cx="124.95214"
       sodipodi:cy="38.380257"
       sodipodi:rx="3.215883"
       sodipodi:ry="3.215883"
       sodipodi:start="0.95555478"
       sodipodi:end="4.0596475"
       sodipodi:arc-type="slice"
       d="m 126.80821,41.006456 a 3.215883,3.215883 0 0 1 -4.44701,-0.721222 3.215883,3.215883 0 0 1 0.63772,-4.459745 l 1.95322,2.554768 z" />
    <path
       style="fill:#000000;fill-opacity:1;stroke:#000000;stroke-width:0.819578;stroke-linecap:round;stroke-dasharray:none;stroke-opacity:1"
       d="M 119.51668,30.962221 130.13327,45.44949"
       id="path3"
       sodipodi:nodetypes="cc" />
  </g>
  <g
     inkscape:groupmode="layer"
     id="layer2"
     inkscape:label="Layer 2"
     style="display:inline"
     transform="translate(-116.48108,-29.758682)">
    <g
       id="g3"
       transform="matrix(0.27319282,0,0,0.27319282,104.65389,22.422573)"
       style="display:inline">
      <path
         id="path1"
         style="fill:none;stroke:#000000;stroke-width:3;stroke-dasharray:none;stroke-opacity:1"
         d="M 74.277637,40.903446 A 33.397148,33.397148 0 0 0 44.99777,58.412972 33.397148,33.397148 0 0 0 74.277637,75.922498 33.397148,33.397148 0 0 0 103.60246,58.329773 33.397148,33.397148 0 0 0 74.277637,40.903446 Z" />
      <circle
         style="fill:#000000;fill-opacity:1;stroke:#000000;stroke-width:3;stroke-dasharray:none;stroke-opacity:1"
         id="path2"
         cx="74.30011"
         cy="58.412975"
         r="11.771477" />
    </g>
  </g>
</svg>
