<?xml version="1.0" encoding="UTF-8"?>
<!DOCTYPE svg PUBLIC "-//W3C//DTD SVG 1.1//EN" "http://www.w3.org/Graphics/SVG/1.1/DTD/svg11.dtd">
<svg xmlns="http://www.w3.org/2000/svg" version="1.1" width="321px" height="264px" style="shape-rendering:geometricPrecision; text-rendering:geometricPrecision; image-rendering:optimizeQuality; fill-rule:evenodd; clip-rule:evenodd" xmlns:xlink="http://www.w3.org/1999/xlink">
<g><path style="opacity:1" fill="#1489d1" d="M 258.5,113.5 C 258.833,113.5 259.167,113.5 259.5,113.5C 267.444,122.78 275.777,131.78 284.5,140.5C 267.269,158.398 249.602,176.065 231.5,193.5C 230.167,193.5 228.833,193.5 227.5,193.5C 227.826,184.983 227.493,176.65 226.5,168.5C 167.504,169.536 108.504,169.703 49.5,169C 48.5072,149.91 48.1739,130.743 48.5,111.5C 107.833,111.5 167.167,111.5 226.5,111.5C 227.493,103.016 227.826,94.3494 227.5,85.5C 228.552,85.3505 229.552,85.5172 230.5,86C 239.702,95.3689 249.035,104.536 258.5,113.5 Z"/></g>
<g><path style="opacity:0.961" fill="#cae5f5" d="M 258.5,113.5 C 249.035,104.536 239.702,95.3689 230.5,86C 229.552,85.5172 228.552,85.3505 227.5,85.5C 227.826,94.3494 227.493,103.016 226.5,111.5C 226.334,102.494 226.5,93.4938 227,84.5C 228.507,83.4652 230.007,83.6319 231.5,85C 241.091,94.0874 250.091,103.587 258.5,113.5 Z"/></g>
<g><path style="opacity:0.573" fill="#c7e3f4" d="M 259.5,113.5 C 268.132,121.631 276.632,129.964 285,138.5C 285.692,139.437 285.525,140.103 284.5,140.5C 275.777,131.78 267.444,122.78 259.5,113.5 Z"/></g>
<g><path style="opacity:0.279" fill="#d8ebf8" d="M 226.5,168.5 C 227.493,176.65 227.826,184.983 227.5,193.5C 228.833,193.5 230.167,193.5 231.5,193.5C 230.415,195.582 228.915,195.916 227,194.5C 226.5,185.84 226.334,177.173 226.5,168.5 Z"/></g>
</svg>
