<?xml version="1.0" encoding="UTF-8" standalone="no"?>
<!DOCTYPE svg PUBLIC "-//W3C//DTD SVG 1.1//EN" "http://www.w3.org/Graphics/SVG/1.1/DTD/svg11.dtd">
<svg xmlns="http://www.w3.org/2000/svg" xmlns:xlink="http://www.w3.org/1999/xlink" version="1.1" width="1041.6666pt" height="1041.6666pt" viewBox="0 0 1041.6666 1041.6666">
<g enable-background="new">
<clipPath id="cp0">
<path transform="matrix(.6666666,0,0,.6666666,0,0)" d="M 0 0 L 1562.5 0 L 1562.5 1562.5 L 0 1562.5 Z " fill-rule="evenodd"/>
</clipPath>
<g clip-path="url(#cp0)">
<path transform="matrix(2.0833333,0,0,2.0833333,0,0)" d="M 0 0 L 500 0 L 500 500 L 0 500 Z " fill="#ffffff"/>
</g>
<clipPath id="cp1">
<path transform="matrix(.6666666,0,0,.6666666,0,0)" d="M 0 0 L 1562.5 0 L 1562.5 1562.5 L 0 1562.5 Z " fill-rule="evenodd"/>
</clipPath>
<g clip-path="url(#cp1)">
<g id="Layer-1" data-name="Div">
<path transform="matrix(2.0833333,0,0,2.0833333,0,0)" d="M 0 0 L 500 0 L 500 500 L 0 500 Z " fill="#022031"/>
</g>
<clipPath id="cp2">
<path transform="matrix(.6666666,0,0,.6666666,0,0)" d="M 0 0 L 1562.5 0 L 1562.5 1562.5 L 0 1562.5 Z "/>
</clipPath>
<g clip-path="url(#cp2)">
<clipPath id="cp3">
<path transform="matrix(.6666666,0,0,.6666666,0,0)" d="M 0 0 L 1562.5 0 L 1562.5 1562.5 L 0 1562.5 Z "/>
</clipPath>
<g clip-path="url(#cp3)">
<clipPath id="cp4">
<path transform="matrix(.6666666,0,0,.6666666,0,0)" d="M 164.40709 780.3651 L 350.0226 594.7496 L 535.6381 780.3651 L 350.0226 965.98068 L 164.40709 780.3651 Z "/>
</clipPath>
<g clip-path="url(#cp4)">
<clipPath id="cp5">
<path transform="matrix(.6666666,0,0,.6666666,0,0)" d="M 164.40709 780.3651 L 350.0226 594.7496 L 535.6381 780.3651 L 350.0226 965.98068 L 164.40709 780.3651 Z "/>
</clipPath>
<g clip-path="url(#cp5)">
</g>
<path transform="matrix(.3319305,-.3319305,.3319305,.3319305,110.70008,520.21017)" d="M 345 77.4 C 340.8 81.6 334 81.6 329.8 77.4 L 299 46.600004 C 290.2 64.600009 290.7 85.3 291.2 109.9 C 291.7 130.8 292.2 152.5 286.90003 175.4 C 280.7 202.2 267.40003 225.4 246.40003 246.5 C 225.40003 267.5 202.10002 280.8 175.30002 287 C 152.30002 292.3 130.70001 291.8 109.80002 291.3 C 85.30002 290.69999 64.60002 290.19999 46.50002 299.09999 L 77.30002 329.89997 C 81.500019 334.09999 81.500019 340.89997 77.30002 345.09999 C 73.10002 349.3 66.30002 349.3 62.100019 345.09999 L 28.800019 311.8 C 22.200018 318.4 11.500019 318.4 4.9000189 311.8 C -1.6999812 305.19999 -1.6999812 294.5 4.9000189 287.9 C 37.10002 255.7 74.500019 256.6 110.60001 257.5 C 130.20001 258 149.20001 258.4 168.00002 254 L 106.000019 192 C 101.80002 187.8 101.80002 181 106.000019 176.8 C 110.20001 172.6 117.000019 172.6 121.20001 176.8 L 190.40001 246 C 198.40001 242.1 206.50002 236.8 214.50002 229.9 L 134.40003 149.79999 C 130.20003 145.59999 130.20003 138.79999 134.40003 134.59999 C 138.60002 130.4 145.40003 130.4 149.60002 134.59999 L 229.70001 214.69998 C 236.6 206.69998 241.80002 198.69998 245.80002 190.59998 L 176.60002 121.39998 C 172.40003 117.19998 172.40003 110.39998 176.60002 106.19998 C 180.80002 101.999988 187.60002 101.999988 191.80002 106.19998 L 253.80002 168.19998 C 258.2 149.39998 257.80003 130.39998 257.30003 110.79998 C 256.40003 74.69998 255.50002 37.29998 287.7 5.099983 C 294.30003 -1.5000167 305 -1.5000167 311.6 5.099983 C 318.2 11.699984 318.2 22.399983 311.6 28.999983 L 345 62.1 C 349.2 66.3 349.2 73.1 345 77.4 Z " fill="#32ee88"/>
<path transform="matrix(.3319305,-.3319305,.3319305,.3319305,110.70008,520.21017)" d="M 364.5 81.7 C 332.3 113.899997 294.9 113 258.8 112.1 C 220.19998 111.2 183.69998 110.299999 146.99999 147 C 110.29999 183.70001 111.19998 220.2 112.09998 258.8 C 112.999988 294.9 113.89999 332.3 81.69998 364.5 C 75.09998 371.1 64.39998 371.1 57.79998 364.5 C 51.19998 357.9 51.19998 347.2 57.79998 340.6 C 79.79998 318.6 79.099979 292.6 78.29998 259.6 C 77.79998 238.70001 77.29998 217 82.59998 194.1 C 88.79998 167.3 102.09998 144.1 123.09998 123.00001 C 144.09998 101.90001 167.39998 88.70001 194.19998 82.50001 C 217.19998 77.200008 238.79999 77.700008 259.69999 78.200008 C 292.69999 79.00001 318.69999 79.600009 340.69999 57.700006 C 347.3 51.100008 357.99998 51.100008 364.59999 57.700006 C 371.1 64.4 371.1 75.1 364.5 81.7 Z " fill="#00ecde"/>
<path transform="matrix(.3319305,-.3319305,.3319305,.3319305,110.70008,520.21017)" d="M 323 70.6 C 329.2 67.6 335.1 63.399999 340.7 57.8 L 345 62.1 C 349.2 66.299999 349.2 73.1 345 77.299999 C 340.8 81.49999 334 81.49999 329.8 77.299999 L 323 70.6 Z M 70.6 323 C 67.6 329.2 63.399999 335.1 57.8 340.7 L 62.1 345 C 66.299999 349.2 73.1 349.2 77.299999 345 C 81.49999 340.8 81.49999 334 77.299999 329.8 L 70.6 323 Z M 121.3 176.6 C 117.100009 172.40001 110.3 172.40001 106.100009 176.6 C 101.90001 180.8 101.90001 187.6 106.100009 191.8 L 115.700008 201.40001 C 117.50001 193.90001 120.00001 186.40001 123.700008 179.00002 L 121.3 176.6 Z M 149.7 134.5 C 145.5 130.3 138.7 130.3 134.5 134.5 C 130.3 138.7 130.3 145.5 134.5 149.7 L 139.7 154.9 C 142 152.29999 144.4 149.59999 147 147 C 149.6 144.4 152.3 141.9 154.9 139.7 L 149.7 134.5 Z M 191.9 106.1 C 187.7 101.9 180.9 101.9 176.7 106.1 C 172.5 110.299999 172.5 117.1 176.7 121.299999 L 179 123.6 C 186.5 119.9 193.9 117.4 201.4 115.6 L 191.9 106.1 Z " fill="#06a1b4"/>
</g>
</g>
</g>
</g>
<clipPath id="cp6">
<path transform="matrix(.6666666,0,0,.6666666,0,0)" d="M 0 0 L 1562.5 0 L 1562.5 1562.5 L 0 1562.5 Z " fill-rule="evenodd"/>
</clipPath>
<g clip-path="url(#cp6)">
<g id="Layer-1" data-name="H1">
<g id="Layer-2" data-name="NonStruct">
<symbol id="font_7_3a">
<path d="M .28500004 .381 L .62600007 0 L .485 0 L .21600002 .312 L .10400001 .20000002 L .10400001 .001 L 0 .001 L 0 .71000006 L .10400001 .71000006 L .10400001 .329 L .18200001 .412 L .47700007 .71000006 L .614 .71000006 L .28500004 .381 Z "/>
</symbol>
<symbol id="font_7_13">
<path d="M .27900005 .39000003 C .27433337 .392 .2696667 .39400003 .26500006 .39600004 C .261 .39733339 .25633333 .3986667 .251 .4 C .24566667 .40133334 .24000001 .40200005 .23400001 .402 C .21466668 .40200005 .19666668 .3986667 .18 .39200003 C .16333334 .386 .149 .37766669 .13700001 .367 C .125 .35633336 .11533334 .34366668 .10800001 .32900004 C .10133334 .31500004 .09800001 .30000005 .098000008 .284 L .097 0 L 0 0 L 0 .47900004 L .07700001 .47900004 L .097 .42600004 C .110333349 .44533337 .12766667 .4606667 .149 .47200004 C .171 .484 .19833334 .49 .23100002 .49 C .25233335 .49 .27666668 .48700003 .30400003 .48100005 L .27900005 .39000003 Z "/>
</symbol>
<symbol id="font_7_6">
<path d="M .25000004 0 C .21533335 0 .18266668 .006333334 .15200001 .019000002 C .122 .032333334 .09566667 .050333337 .07300001 .07300001 C .05033334 .09566668 .032333338 .12233334 .019000002 .153 C .006333334 .18366666 0 .21633335 0 .25100003 C 0 .28566668 .006000001 .31833337 .018000003 .349 C .03066667 .3796667 .047333335 .40633337 .068 .42900003 C .08933333 .45166669 .114 .46933339 .14200002 .48200003 C .17000002 .49533335 .2 .50200006 .23200003 .50200006 C .26466669 .50200006 .29466669 .49633337 .32200004 .485 C .35000003 .47366668 .37400005 .456 .39400003 .432 C .41466669 .408 .4306667 .3773333 .44200004 .34 C .45333339 .3033333 .45900003 .25933335 .45900003 .208 L .10300001 .208 C .10766667 .19066668 .11500001 .17433334 .125 .159 C .135 .14433332 .14666668 .13133334 .16 .120000008 C .17400003 .10933334 .18933337 .10100001 .206 .095000009 C .22333336 .08900001 .24133337 .086 .26000003 .086 C .28533338 .086 .3086667 .090666677 .33 .10000001 C .35200004 .10933334 .3706667 .12166667 .38600005 .137 L .44600005 .07700001 C .4226667 .05366667 .39400006 .035 .36 .021000002 C .32666669 .0070000009 .29000006 0 .25000004 0 M .23200003 .414 C .2166667 .414 .20200002 .411 .18800003 .405 C .17466669 .39900003 .16200002 .3906667 .15 .38000003 C .13866668 .36933337 .12866669 .35666669 .12000001 .342 C .11200001 .32733337 .106000009 .31133334 .102000009 .294 L .35500003 .294 C .3536667 .31000004 .35000003 .32533337 .344 .34 C .33800004 .35466669 .3296667 .36733333 .31900005 .37800003 C .30833338 .38933335 .2956667 .398 .28100003 .404 C .26700003 .41066668 .2506667 .414 .23200003 .414 Z "/>
</symbol>
<symbol id="font_7_18">
<path d="M .16100002 0 L 0 .47900004 L .10300001 .47900004 L .21500002 .117000009 L .333 .47900004 L .41900004 .47900004 L .537 .120000008 L .64800009 .47900004 L .75100007 .47900004 L .59000006 0 L .48400004 0 L .38400004 .293 L .37600003 .33900003 L .36800004 .293 L .26900003 0 L .16100002 0 Z "/>
</symbol>
<symbol id="font_7_d">
<path d="M .097 .73 L .097 .73 L .097 0 L 0 0 L 0 .73 L .097 .73 Z "/>
</symbol>
<symbol id="font_7_1a">
<path d="M .20300001 .24500002 L 0 .6700001 L .10800001 .6700001 L .256 .35900004 L .40100003 .6700001 L .508 .6700001 L .199 0 L .09200001 0 L .20300001 .24500002 Z "/>
</symbol>
<symbol id="font_7_1b">
<path d="M .136 .086 L .39900003 .086 L .39900003 0 L 0 0 L 0 .069000009 L .261 .39200003 L .021000002 .39200003 L .021000002 .47900004 L .395 .47900004 L .395 .40600003 L .136 .086 Z "/>
</symbol>
<use xlink:href="#font_7_3a" transform="matrix(105.41666,0,0,-105.41666,374.1158,530.9793)" fill="#ffffff"/>
<use xlink:href="#font_7_13" transform="matrix(105.41666,0,0,-105.41666,448.42564,530.8739)" fill="#ffffff"/>
<use xlink:href="#font_7_6" transform="matrix(105.41666,0,0,-105.41666,484.26249,532.1389)" fill="#ffffff"/>
<use xlink:href="#font_7_18" transform="matrix(105.41666,0,0,-105.41666,537.59658,530.8739)" fill="#ffffff"/>
<use xlink:href="#font_7_d" transform="matrix(105.41666,0,0,-105.41666,623.8175,530.8739)" fill="#ffffff"/>
<use xlink:href="#font_7_1a" transform="matrix(105.41666,0,0,-105.41666,640.2597,551.0085)" fill="#ffffff"/>
<use xlink:href="#font_7_1b" transform="matrix(105.41666,0,0,-105.41666,697.2833,530.8739)" fill="#ffffff"/>
<use xlink:href="#font_7_6" transform="matrix(105.41666,0,0,-105.41666,745.5585,532.1389)" fill="#ffffff"/>
<use xlink:href="#font_7_13" transform="matrix(105.41666,0,0,-105.41666,804.37417,530.8739)" fill="#ffffff"/>
</g>
</g>
<g id="Layer-1" data-name="P">
<g id="Layer-2" data-name="NonStruct">
<symbol id="font_8_57">
<path d="M .261 0 C .21499999 0 .172 .012000001 .132 .036000004 C .092 .060666667 .06 .09366667 .036000004 .135 C .012000001 .17633336 0 .22066669 0 .26800005 C 0 .31533338 .012000001 .35966669 .036000004 .40100003 C .06 .44233338 .092 .47500003 .132 .49900005 C .172 .5236667 .21499999 .536 .261 .536 C .303 .536 .34133337 .526 .37600003 .50600007 C .41066668 .48666669 .439 .46100006 .46100004 .42900003 C .48300005 .3976667 .49733339 .365 .504 .33100004 L .368 .33100004 C .36533336 .34033338 .35966669 .35100005 .351 .36300005 C .34233333 .3756667 .33033333 .3866667 .315 .39600004 C .29966668 .40533338 .28166668 .41 .261 .41000004 C .22500001 .41 .19500001 .39666669 .171 .37000004 C .14766668 .34333337 .136 .30933336 .136 .26800005 C .136 .22666669 .14766668 .19266667 .171 .16600001 C .19500001 .13933334 .22500001 .126 .261 .126 C .28166668 .126 .29966668 .13066668 .315 .14 C .33033333 .14933335 .34233333 .16000001 .351 .172 C .35966669 .18466668 .36533336 .19566667 .368 .205 L .504 .205 C .49733339 .171 .48300005 .138 .46100004 .106000009 C .439 .07466667 .41066668 .049000008 .37600003 .029000001 C .34133337 .009666667 .303 0 .261 0 Z "/>
</symbol>
<symbol id="font_8_68">
<path d="M .251 0 C .20033334 0 .15900001 .016666668 .127 .05 C .095000009 .08333334 .079 .12866669 .079 .186 L .079 .40200005 L 0 .40200005 L 0 .513 L .035 .513 C .054333334 .513 .06933334 .51800009 .080000009 .52800008 C .090666677 .5386667 .09600001 .55366668 .09600001 .573 L .09600001 .651 L .215 .651 L .215 .52300009 L .32 .52300009 L .32 .40200005 L .215 .40200005 L .215 .2 C .21499999 .176 .221 .158 .23300001 .146 C .2456667 .134 .26300005 .128 .28500004 .128 C .299 .128 .31066666 .13033335 .32 .135 L .32 .011 C .29933337 .0036666666 .27633337 0 .251 0 Z "/>
</symbol>
<symbol id="font_8_3e">
<path d="M 0 0 L 0 .70000007 L .23200003 .70000007 C .29466669 .70000007 .3523334 .6843334 .40500004 .65300008 C .45833335 .62166669 .50033339 .579 .531 .52500006 C .56233337 .4716667 .578 .41333334 .578 .35000003 C .578 .286 .56233337 .22733335 .531 .17400001 C .4996667 .120666678 .45733337 .07833334 .40400005 .047000003 C .35133339 .015666668 .29400004 0 .23200003 0 L 0 0 M .23200003 .13800001 C .268 .13800001 .30133335 .14733334 .33200003 .16600001 C .36333338 .18466668 .38833336 .21 .40700004 .24200002 C .4256667 .27466668 .43500004 .31066669 .435 .35000003 C .43500004 .38933335 .4256667 .42500005 .40700004 .45700003 C .38833336 .4896667 .36333338 .51533338 .33200003 .53400006 C .30133335 .5526667 .268 .56200006 .23200003 .56200006 L .143 .56200006 L .143 .13800001 L .23200003 .13800001 Z "/>
</symbol>
<symbol id="font_8_48">
<path d="M .44200004 .24200002 L .44200004 .70000007 L .58000007 .70000007 L .58000007 0 L .44900007 0 L .13800001 .45800004 L .13800001 0 L 0 0 L 0 .70000007 L .13100001 .70000007 L .44200004 .24200002 Z "/>
</symbol>
<symbol id="font_8_3b">
<path d="M .661 0 L .511 0 L .46000005 .14400001 L .19600001 .14400001 L .14500001 0 L 0 0 L .26100005 .70000007 L .40100003 .70000007 L .661 0 M .41300003 .27600003 L .32800005 .522 L .24300002 .27600003 L .41300003 .27600003 Z "/>
</symbol>
<symbol id="font_8_3">
<path d="M 0 0 Z "/>
</symbol>
<symbol id="font_8_5a">
<path d="M .26900003 .58500006 C .22100002 .58500006 .19700001 .56100007 .19700001 .513 L .19700001 .51000007 L .30700005 .51000007 L .30700005 .38900004 L .202 .38900004 L .202 0 L .066 0 L .066 .38900004 L 0 .38900004 L 0 .51000007 L .066 .51000007 L .066 .52900007 C .066 .5856667 .08166667 .63033339 .113000009 .66300007 C .145 .6963334 .18666667 .71300008 .23800002 .71300008 C .26333336 .71300008 .28633336 .7093334 .30700005 .702 L .30700005 .57900008 C .29700003 .583 .28433336 .58500006 .26900003 .58500006 Z "/>
</symbol>
<symbol id="font_8_59">
<path d="M .51000007 .27600003 C .51000007 .25133337 .5080001 .23233335 .504 .21900001 L .13700001 .21900001 C .14433335 .18833335 .15866667 .16433335 .18 .147 C .202 .12966667 .22833334 .121000017 .259 .12100001 C .29633335 .121000017 .32666669 .13366668 .35000003 .15900001 L .49300004 .15900001 C .48300005 .13433334 .46700005 .109666679 .44500003 .08500001 C .4236667 .060333339 .39699999 .040000004 .365 .024 C .333 .008 .29833333 0 .261 0 C .21366668 0 .17 .012000001 .13 .036000004 C .09 .060000004 .058333339 .09233334 .035 .133 C .011666667 .17433334 0 .21933335 0 .26800005 C 0 .31533338 .011666667 .35966669 .035 .40100003 C .059000005 .44233338 .091 .47500003 .131 .49900005 C .171 .5236667 .21366668 .536 .259 .536 C .305 .536 .347 .5246667 .38500003 .50200006 C .4236667 .47933338 .454 .44800005 .476 .40800003 C .49866668 .36866669 .51000007 .3246667 .51000007 .27600003 M .259 .41500003 C .22966667 .41500006 .204 .40600003 .18200001 .38800005 C .16000001 .3706667 .145 .3466667 .13700001 .316 L .379 .316 C .37100003 .34600006 .35600005 .37000004 .33400003 .38800005 C .31266669 .40600003 .28766669 .41500006 .259 .41500003 Z "/>
</symbol>
<symbol id="font_8_55">
<path d="M .23300001 .536 C .29900003 .536 .35100005 .51600006 .38900004 .47600005 C .42700006 .4366667 .446 .38400004 .44600005 .31800003 L .44600005 .013 L .344 .013 L .32200004 .063 L .31700004 .063 C .27700005 .021 .22866671 0 .17200002 0 C .14 0 .11066667 .0066666665 .08400001 .02 C .058000003 .03333333 .037333337 .051666667 .022 .075 C .007333333 .09833334 0 .124000009 0 .15200001 C 0 .18666668 .010333334 .21666669 .031000004 .24200002 C .051666675 .268 .080333348 .28766669 .117000009 .30100004 C .15433334 .31500004 .19700003 .32200004 .24500004 .32200004 L .31000004 .32200004 L .31000004 .33200003 C .31000004 .35800005 .30300004 .37833337 .28900004 .39300005 C .275 .40766669 .256 .41500006 .23200003 .41500003 C .21133335 .41500006 .19466667 .40933336 .18200001 .39800004 C .17 .38733337 .16266667 .3756667 .16 .36300005 L .024 .36300005 C .026666666 .39300005 .036000004 .421 .052 .44700004 C .068666677 .4736667 .09233334 .49500004 .123 .51100006 C .15366666 .5276667 .19033332 .536 .23300001 .536 M .204 .111 C .23533334 .111 .2606667 .12033334 .28000004 .139 C .30000005 .15766667 .31000004 .17966669 .31000004 .205 L .31000004 .231 L .24100003 .231 C .20433335 .231 .17766668 .22500001 .16100002 .213 C .14433335 .20166667 .136 .18566668 .136 .165 C .136 .149 .14166667 .13599999 .153 .126 C .165 .116 .182 .111 .204 .111 Z "/>
</symbol>
<symbol id="font_8_69">
<path d="M .20600002 0 C .16533335 0 .12933333 .009000001 .098000008 .027 C .06733334 .04566667 .043333338 .071666669 .026000005 .105000007 C .008666668 .139 0 .17800002 0 .222 L 0 .52300009 L .136 .52300009 L .136 .23400001 C .136 .20400001 .14566668 .17833334 .165 .157 C .18433334 .13633333 .20833333 .126 .237 .126 C .26633335 .126 .29033337 .13633333 .30900003 .157 C .32833336 .17766667 .33800004 .20333334 .33800004 .23400001 L .33800004 .52300009 L .474 .52300009 L .474 .013 L .37200005 .013 L .35000003 .063 L .34500004 .063 C .33433334 .04966667 .3166667 .03566667 .29200004 .021000002 C .26733337 .0070000009 .2386667 0 .20600002 0 Z "/>
</symbol>
<symbol id="font_8_66">
<path d="M 0 0 L 0 .51000007 L .10200001 .51000007 L .12400001 .46 L .12900001 .46 C .13900002 .47333337 .154 .48700003 .17400001 .50100007 C .19466667 .51566669 .21933334 .523 .24800001 .523 C .266 .523 .28133334 .52133336 .294 .518 L .294 .38200004 C .28133334 .3853334 .26433335 .387 .24300002 .38700003 C .21033335 .387 .18433334 .377 .165 .35700003 C .14566668 .33766667 .136 .31066669 .136 .27600003 L .136 0 L 0 0 Z "/>
</symbol>
<symbol id="font_8_6c">
<path d="M .33800004 .26000003 L .508 0 L .35200004 0 L .25100003 .165 L .15 0 L 0 0 L .17 .26000003 L .011000001 .51000007 L .165 .51000007 L .257 .35700003 L .34800003 .51000007 L .49600003 .51000007 L .33800004 .26000003 Z "/>
</symbol>
<symbol id="font_8_5d">
<path d="M .14400001 0 L .008000001 0 L .008000001 .51000007 L .14400001 .51000007 L .14400001 0 M .076000008 .57500007 C .05466667 .57500007 .036666674 .5823334 .022000004 .597 C .0073333347 .6116667 0 .6296667 0 .651 C 0 .6723334 .0073333347 .69033339 .022000004 .70500007 C .036666674 .7196667 .05466667 .72700008 .076000008 .72700008 C .09733334 .72700008 .11533334 .7196667 .13000001 .70500007 C .14466667 .69033339 .15200001 .6723334 .15200001 .651 C .15200001 .6296667 .14466667 .6116667 .13000001 .597 C .11533334 .5823334 .09733334 .57500007 .076000008 .57500007 Z "/>
</symbol>
<symbol id="font_8_63">
<path d="M .261 0 C .21499999 0 .172 .012000001 .132 .036000004 C .092 .060666667 .06 .09366667 .036000004 .135 C .012000001 .17633336 0 .22066669 0 .26800005 C 0 .31533338 .012000001 .35966669 .036000004 .40100003 C .06 .44233338 .092 .47500003 .132 .49900005 C .172 .5236667 .21499999 .536 .261 .536 C .307 .536 .35000003 .5236667 .39000003 .49900005 C .43000005 .47500003 .462 .44233338 .486 .40100003 C .51 .35966669 .522 .31533338 .522 .26800005 C .522 .22066669 .51 .17633336 .486 .135 C .462 .09366667 .43000005 .060666667 .39000003 .036000004 C .35000003 .012000001 .307 0 .261 0 M .261 .126 C .29700003 .126 .32666669 .13933334 .35000003 .16600001 C .37399999 .19266667 .386 .22666669 .386 .26800005 C .386 .30933336 .37399999 .34333337 .35000003 .37000004 C .32666669 .39666669 .29700003 .41 .261 .41000004 C .22500001 .41 .19500001 .39666669 .171 .37000004 C .14766668 .34333337 .136 .30933336 .136 .26800005 C .136 .22666669 .14766668 .19266667 .171 .16600001 C .19500001 .13933334 .22500001 .126 .261 .126 Z "/>
</symbol>
<symbol id="font_8_62">
<path d="M 0 0 L 0 .51000007 L .10200001 .51000007 L .12400001 .46 L .12900001 .46 C .13966668 .47333337 .15733335 .48700003 .18200001 .50100007 C .2066667 .51566669 .23533337 .523 .268 .523 C .30866669 .523 .34433333 .5136667 .375 .49500004 C .40633337 .47700004 .4306667 .451 .448 .41700004 C .46533338 .38366667 .47400008 .34500004 .47400005 .30100004 L .47400005 0 L .338 0 L .338 .289 C .33799998 .319 .32833336 .34433333 .30900003 .365 C .28966669 .38633336 .26566667 .39699999 .237 .397 C .20766668 .39699999 .18333334 .3866667 .164 .36600004 C .14533334 .34533335 .136 .31966666 .136 .289 L .136 0 L 0 0 Z "/>
</symbol>
<use xlink:href="#font_8_57" transform="matrix(41.666666,0,0,-41.666666,369.54585,602.1239)" fill="#32ee88"/>
<use xlink:href="#font_8_68" transform="matrix(41.666666,0,0,-41.666666,392.2958,602.1239)" fill="#32ee88"/>
<use xlink:href="#font_8_3e" transform="matrix(41.666666,0,0,-41.666666,410.00413,601.5822)" fill="#32ee88"/>
<use xlink:href="#font_8_48" transform="matrix(41.666666,0,0,-41.666666,438.3791,601.5822)" fill="#32ee88"/>
<use xlink:href="#font_8_3b" transform="matrix(41.666666,0,0,-41.666666,465.2124,601.5822)" fill="#32ee88"/>
<use xlink:href="#font_8_3" transform="matrix(41.666666,0,0,-41.666666,492.50404,601.5822)" fill="#32ee88"/>
<use xlink:href="#font_8_5a" transform="matrix(41.666666,0,0,-41.666666,504.00404,601.5822)" fill="#32ee88"/>
<use xlink:href="#font_8_59" transform="matrix(41.666666,0,0,-41.666666,518.71237,602.1239)" fill="#32ee88"/>
<use xlink:href="#font_8_55" transform="matrix(41.666666,0,0,-41.666666,542.37899,602.1239)" fill="#32ee88"/>
<use xlink:href="#font_8_68" transform="matrix(41.666666,0,0,-41.666666,563.8373,602.1239)" fill="#32ee88"/>
<use xlink:href="#font_8_69" transform="matrix(41.666666,0,0,-41.666666,580.87899,602.1239)" fill="#32ee88"/>
<use xlink:href="#font_8_66" transform="matrix(41.666666,0,0,-41.666666,605.5456,601.5822)" fill="#32ee88"/>
<use xlink:href="#font_8_59" transform="matrix(41.666666,0,0,-41.666666,619.6289,602.1239)" fill="#32ee88"/>
<use xlink:href="#font_8_3" transform="matrix(41.666666,0,0,-41.666666,642.2123,601.5822)" fill="#32ee88"/>
<use xlink:href="#font_8_59" transform="matrix(41.666666,0,0,-41.666666,654.04556,602.1239)" fill="#32ee88"/>
<use xlink:href="#font_8_6c" transform="matrix(41.666666,0,0,-41.666666,676.6289,601.5822)" fill="#32ee88"/>
<use xlink:href="#font_8_68" transform="matrix(41.666666,0,0,-41.666666,698.42056,602.1239)" fill="#32ee88"/>
<use xlink:href="#font_8_66" transform="matrix(41.666666,0,0,-41.666666,715.6705,601.5822)" fill="#32ee88"/>
<use xlink:href="#font_8_55" transform="matrix(41.666666,0,0,-41.666666,729.5038,602.1239)" fill="#32ee88"/>
<use xlink:href="#font_8_57" transform="matrix(41.666666,0,0,-41.666666,751.6705,602.1239)" fill="#32ee88"/>
<use xlink:href="#font_8_68" transform="matrix(41.666666,0,0,-41.666666,774.4204,602.1239)" fill="#32ee88"/>
<use xlink:href="#font_8_5d" transform="matrix(41.666666,0,0,-41.666666,791.3371,601.5822)" fill="#32ee88"/>
<use xlink:href="#font_8_63" transform="matrix(41.666666,0,0,-41.666666,801.1287,602.1239)" fill="#32ee88"/>
<use xlink:href="#font_8_62" transform="matrix(41.666666,0,0,-41.666666,826.67037,601.5822)" fill="#32ee88"/>
</g>
</g>
<path transform="matrix(0,2.0824917,-2.0824917,0,320.65016,403.74174)" stroke-width="3" stroke-linecap="round" stroke-miterlimit="4" stroke-linejoin="miter" fill="none" stroke="#ffffff" d="M 1.5 1.5 L 114.55489 1.5 "/>
</g>
<g id="Layer-1" data-name="Image">
<path transform="matrix(2.7777777,0,0,-2.7777777,0,1063.9999)" d="M 39.456888 151.07556 L 128.80652 151.07556 L 128.80652 240.42519 L 39.456888 240.42519 Z " fill-opacity="0"/>
</g>
<g id="Layer-1" data-name="Image">
<path transform="matrix(2.7777777,0,0,-2.7777777,0,1063.9999)" d="M 113.18707 150.65479 L 115.43707 150.65479 L 115.43707 237.69596 L 113.18707 237.69596 Z " fill-opacity="0"/>
</g>
</g>
</svg>
