<?xml version="1.0" encoding="UTF-8" standalone="no"?>
<!-- Created with Inkscape (http://www.inkscape.org/) -->

<svg
   width="63.999996"
   height="63.999996"
   viewBox="0 0 16.933332 16.933332"
   version="1.1"
   id="svg1"
   xmlns="http://www.w3.org/2000/svg"
   xmlns:svg="http://www.w3.org/2000/svg">
  <defs
     id="defs1" />
  <g
     id="layer1"
     transform="translate(-116.48108,-29.758682)"
     style="display:inline">
    <path
       id="path2-4"
       style="fill:none;stroke:#000000;stroke-width:0.819578;stroke-linecap:round"
       d="m 124.33701,35.223754 c 1.20884,-0.235572 2.44605,0.239922 3.18595,1.224454 0.7399,0.984532 0.85255,2.305167 0.29007,3.400789" />
    <path
       id="path1-1"
       style="fill:none;stroke:#000000;stroke-width:0.819578;stroke-linecap:round;stroke-dasharray:none;stroke-opacity:1"
       d="m 129.6135,41.863813 c 1.37131,-0.822693 2.54515,-2.019472 3.34383,-3.506286 -1.59751,-2.933888 -4.6707,-4.760137 -8.01133,-4.760747 -0.41763,0.0012 -0.88178,0.03093 -1.28854,0.08777 m -1.96169,0.423218 c -2.49165,1.248466 -3.86189,2.560982 -4.74882,4.272492 1.5894,2.938812 4.65799,4.773847 7.99905,4.783478 0.83758,-0.0024 2.22436,0.0082 2.92179,-0.593931" />
    <path
       style="fill:none;fill-opacity:1;stroke:#000000;stroke-width:0.819578;stroke-dasharray:none;stroke-opacity:1"
       id="path2-1"
       d="m 126.80821,41.006456 a 3.215883,3.215883 0 0 1 -4.44701,-0.721222 3.215883,3.215883 0 0 1 0.63772,-4.459745 l 1.95322,2.554768 z" />
    <path
       style="fill:#000000;fill-opacity:1;stroke:#000000;stroke-width:0.819578;stroke-linecap:round;stroke-dasharray:none;stroke-opacity:1"
       d="M 119.51668,30.962221 130.13327,45.44949"
       id="path3" />
  </g>
</svg>
