<svg width="3157" height="3296" viewBox="0 0 3157 3296" fill="none" xmlns="http://www.w3.org/2000/svg">
<path d="M1801.88 1845.34C1543.72 1896.79 1381.93 1760.12 1239.17 1639.51C1107.31 1528.11 1003.16 1440.13 832.751 1474.04C820.819 1476.54 808.493 1476.65 796.487 1474.37C784.48 1472.09 773.03 1467.47 762.799 1460.76C752.568 1454.05 743.758 1445.39 736.88 1435.29C730.001 1425.19 725.189 1413.84 722.722 1401.9C720.256 1389.96 720.183 1377.67 722.509 1365.73C724.835 1353.79 729.513 1342.45 736.273 1332.35C743.032 1322.26 751.74 1313.61 761.892 1306.92C772.044 1300.22 783.439 1295.6 795.419 1293.34C1053.54 1241.88 1215.36 1378.58 1358.12 1499.18C1489.99 1610.56 1594.13 1698.56 1764.56 1664.67C1934.99 1630.77 1996.04 1509.75 2073.18 1356.66C2156.76 1190.91 2251.62 1003 2509.68 951.64C2533.58 947.118 2558.35 952.196 2578.63 965.771C2598.9 979.346 2613.04 1000.32 2617.96 1024.13C2622.88 1047.95 2618.18 1072.67 2604.9 1092.94C2591.61 1113.2 2570.81 1127.36 2547.01 1132.35C2376.56 1166.32 2315.53 1287.27 2238.39 1440.36C2154.81 1606.04 2060.02 1793.86 1801.88 1845.34Z" fill="#384350"/>
<path d="M2293.83 1805.26C2035.68 1856.7 1873.9 1720.06 1731.11 1599.44C1599.24 1488.03 1495.08 1400.05 1324.7 1433.97C1154.31 1467.89 1093.19 1588.87 1016.08 1741.98C932.482 1907.68 837.687 2095.51 579.564 2146.96C567.632 2149.46 555.306 2149.57 543.299 2147.29C531.293 2145.01 519.843 2140.38 509.612 2133.67C499.381 2126.96 490.571 2118.31 483.692 2108.21C476.813 2098.1 472.002 2086.76 469.535 2074.82C467.069 2062.88 466.996 2050.58 469.322 2038.65C471.648 2026.71 476.326 2015.36 483.086 2005.27C489.846 1995.17 498.553 1986.53 508.705 1979.83C518.857 1973.13 530.253 1968.52 542.232 1966.25C712.67 1932.3 773.717 1811.33 850.839 1658.26C934.455 1492.57 1029.21 1304.72 1287.34 1253.25C1545.48 1201.77 1707.32 1338.48 1850.08 1459.09C1981.93 1570.48 2086.07 1658.49 2256.52 1624.57C2268.4 1622.2 2280.64 1622.19 2292.56 1624.55C2304.47 1626.9 2315.82 1631.56 2325.95 1638.28C2336.08 1644.99 2344.81 1653.62 2351.62 1663.68C2358.43 1673.73 2363.19 1685.01 2365.64 1696.87C2368.09 1708.74 2368.18 1720.95 2365.9 1732.82C2363.62 1744.68 2359.01 1755.97 2352.34 1766.03C2345.68 1776.1 2337.08 1784.74 2327.04 1791.46C2317 1798.19 2305.71 1802.9 2293.83 1805.26Z" fill="#053A81"/>
<path d="M1847.87 1926.81C1589.71 1978.27 1427.91 1841.59 1285.15 1720.98C1153.3 1609.59 1049.15 1521.61 878.738 1555.52C866.806 1558.02 854.481 1558.13 842.474 1555.85C830.467 1553.57 819.018 1548.94 808.787 1542.23C798.555 1535.52 789.746 1526.87 782.867 1516.77C775.988 1506.66 771.177 1495.31 768.71 1483.37C766.243 1471.43 766.171 1459.14 768.497 1447.2C770.823 1435.27 775.5 1423.92 782.26 1413.83C789.02 1403.73 797.728 1395.09 807.88 1388.39C818.032 1381.69 829.427 1377.08 841.407 1374.81C1099.53 1323.36 1261.35 1460.05 1404.11 1580.66C1535.97 1692.03 1640.11 1780.04 1810.54 1746.14C1980.97 1712.24 2042.03 1591.22 2119.17 1438.13C2202.75 1272.39 2297.61 1084.48 2555.67 1033.11C2579.56 1028.59 2604.34 1033.67 2624.62 1047.25C2644.89 1060.82 2659.03 1081.79 2663.95 1105.61C2668.86 1129.42 2664.17 1154.15 2650.89 1174.41C2637.6 1194.68 2616.8 1208.84 2593 1213.82C2422.55 1247.8 2361.52 1368.74 2284.38 1521.83C2200.8 1687.52 2106.01 1875.34 1847.87 1926.81Z" fill="#888C92"/>
<path d="M2339.81 1886.74C2081.67 1938.17 1919.88 1801.53 1777.1 1680.91C1645.23 1569.5 1541.07 1481.52 1370.68 1515.44C1200.3 1549.37 1139.18 1670.35 1062.06 1823.45C978.47 1989.16 883.674 2176.98 625.551 2228.43C613.619 2230.93 601.293 2231.04 589.287 2228.76C577.28 2226.48 565.83 2221.86 555.599 2215.15C545.368 2208.44 536.559 2199.78 529.68 2189.68C522.801 2179.58 517.989 2168.23 515.523 2156.29C513.056 2144.35 512.984 2132.06 515.309 2120.12C517.635 2108.18 522.313 2096.84 529.073 2086.74C535.833 2076.65 544.541 2068 554.693 2061.31C564.845 2054.61 576.24 2049.99 588.22 2047.73C758.657 2013.77 819.704 1892.81 896.826 1739.74C980.442 1574.05 1075.19 1386.19 1333.33 1334.72C1591.47 1283.25 1753.31 1419.96 1896.07 1540.56C2027.92 1651.96 2132.06 1739.96 2302.51 1706.04C2314.39 1703.68 2326.63 1703.67 2338.54 1706.02C2350.46 1708.37 2361.81 1713.04 2371.94 1719.75C2382.07 1726.47 2390.79 1735.1 2397.6 1745.15C2404.41 1755.21 2409.18 1766.49 2411.63 1778.35C2414.08 1790.21 2414.17 1802.42 2411.89 1814.29C2409.6 1826.16 2405 1837.44 2398.33 1847.51C2391.66 1857.57 2383.07 1866.21 2373.03 1872.94C2362.99 1879.67 2351.69 1884.37 2339.81 1886.74Z" fill="#1E5FB5"/>
<path d="M1868.95 2042.8C1610.79 2094.26 1449 1957.58 1306.24 1836.97C1174.39 1725.57 1070.23 1637.59 899.824 1671.5C887.892 1674 875.566 1674.11 863.559 1671.83C851.553 1669.55 840.103 1664.93 829.872 1658.22C819.641 1651.51 810.831 1642.85 803.952 1632.75C797.074 1622.65 792.262 1611.3 789.795 1599.36C787.329 1587.42 787.256 1575.13 789.582 1563.19C791.908 1551.25 796.586 1539.91 803.345 1529.81C810.105 1519.72 818.813 1511.07 828.965 1504.38C839.117 1497.68 850.512 1493.06 862.492 1490.8C1120.62 1439.35 1282.43 1576.04 1425.19 1696.64C1557.06 1808.02 1661.2 1896.02 1831.63 1862.13C2002.06 1828.23 2063.11 1707.21 2140.25 1554.12C2223.84 1388.37 2318.69 1200.46 2576.76 1149.1C2600.65 1144.58 2625.43 1149.66 2645.7 1163.23C2665.98 1176.81 2680.11 1197.78 2685.03 1221.59C2689.95 1245.41 2685.26 1270.13 2671.97 1290.4C2658.69 1310.66 2637.89 1324.82 2614.09 1329.81C2443.64 1363.78 2382.6 1484.73 2305.47 1637.82C2221.89 1803.5 2127.09 1991.33 1868.95 2042.8Z" fill="#DFE1E2"/>
<path d="M2360.9 2002.72C2102.75 2054.16 1940.97 1917.52 1798.19 1796.9C1666.31 1685.49 1562.16 1597.51 1391.77 1631.43C1221.38 1665.35 1160.26 1786.34 1083.15 1939.44C999.555 2105.15 904.76 2292.97 646.637 2344.42C634.704 2346.92 622.379 2347.03 610.372 2344.75C598.365 2342.47 586.916 2337.84 576.685 2331.13C566.453 2324.42 557.644 2315.77 550.765 2305.67C543.886 2295.56 539.074 2284.22 536.608 2272.28C534.141 2260.34 534.069 2248.04 536.395 2236.11C538.721 2224.17 543.399 2212.82 550.158 2202.73C556.918 2192.63 565.626 2183.99 575.778 2177.29C585.93 2170.59 597.325 2165.98 609.305 2163.71C779.743 2129.76 840.79 2008.79 917.911 1855.72C1001.53 1690.03 1096.28 1502.18 1354.42 1450.71C1612.55 1399.24 1774.39 1535.94 1917.15 1656.55C2049 1767.95 2153.15 1855.95 2323.59 1822.03C2335.47 1819.66 2347.72 1819.65 2359.63 1822.01C2371.54 1824.36 2382.89 1829.03 2393.02 1835.74C2403.16 1842.45 2411.88 1851.08 2418.69 1861.14C2425.5 1871.19 2430.27 1882.47 2432.72 1894.33C2435.17 1906.2 2435.25 1918.41 2432.97 1930.28C2430.69 1942.14 2426.08 1953.43 2419.42 1963.49C2412.75 1973.56 2404.15 1982.2 2394.11 1988.93C2384.08 1995.65 2372.78 2000.36 2360.9 2002.72Z" fill="#4F89D6"/>
</svg>
