<?xml version="1.0" encoding="UTF-8" standalone="no"?>
<svg
   version="1.1"
   width="512"
   height="512"
   id="svg3"
   sodipodi:docname="25cf4882-0a2b-4682-add4-0f8d749f03c6.svg"
   inkscape:version="1.4 (86a8ad7, 2024-10-11)"
   xmlns:inkscape="http://www.inkscape.org/namespaces/inkscape"
   xmlns:sodipodi="http://sodipodi.sourceforge.net/DTD/sodipodi-0.dtd"
   xmlns="http://www.w3.org/2000/svg"
   xmlns:svg="http://www.w3.org/2000/svg">
  <defs
     id="defs3" />
  <sodipodi:namedview
     id="namedview3"
     pagecolor="#ffffff"
     bordercolor="#000000"
     borderopacity="0.25"
     inkscape:showpageshadow="2"
     inkscape:pageopacity="0.0"
     inkscape:pagecheckerboard="0"
     inkscape:deskcolor="#d1d1d1"
     inkscape:zoom="0.97250001"
     inkscape:cx="45.758354"
     inkscape:cy="183.54756"
     inkscape:window-width="2560"
     inkscape:window-height="1369"
     inkscape:window-x="-8"
     inkscape:window-y="-8"
     inkscape:window-maximized="1"
     inkscape:current-layer="svg3" />
  <g
     id="g1"
     transform="translate(-44.424923,-43.424282)">
    <path
       d="m 152.98804,70.872812 c 2.30659,-0.0063 4.61316,-0.01352 6.91974,-0.0219 5.59242,-0.01788 11.18476,-0.02185 16.7772,-0.02032 4.54446,0.0011 9.08889,-0.0021 13.63334,-0.0085 1.31269,-0.0018 2.62538,-0.0036 3.93807,-0.0054 0.98019,-0.0013 0.98019,-0.0013 1.98017,-0.0027 12.32741,-0.01609 24.65477,-0.01524 36.98219,-0.0094 11.2778,0.0048 22.55543,-0.01306 33.83319,-0.04127 11.59344,-0.02877 23.1868,-0.04173 34.78028,-0.03779 6.5038,0.0019 13.00745,-0.0026 19.51122,-0.0238 5.53032,-0.01791 11.06041,-0.02102 16.59074,-0.0049 2.82115,0.0078 5.64176,0.0065 8.46289,-0.0088 3.05678,-0.01543 6.11236,-0.0047 9.1691,0.01275 0.89304,-0.01068 1.78609,-0.02136 2.7062,-0.03237 6.00301,0.07383 6.00301,0.07383 8.99643,2.368402 0.63056,0.81205 1.26112,1.6241 1.91079,2.460758 0.88607,0.907938 1.78546,1.802991 2.69479,2.687637 0.49247,0.490888 0.98493,0.981776 1.49232,1.487539 0.52818,0.526428 1.05635,1.052856 1.60053,1.595237 1.18682,1.183061 2.37362,2.366132 3.56042,3.54921 0.63064,0.628655 1.26128,1.25731 1.91103,1.905015 14.07638,14.03249 28.1462,28.07153 42.21145,42.11517 2.07635,2.07316 4.15277,4.14626 6.22921,6.21932 0.41333,0.41265 0.82665,0.8253 1.25249,1.25046 6.70811,6.69694 13.42073,13.38936 20.13499,20.08013 6.89629,6.87238 13.78764,13.74968 20.67468,20.63133 3.86594,3.8626 7.73412,7.7229 11.60767,11.57787 3.63909,3.62177 7.27219,7.24945 10.9007,10.88182 1.33487,1.33416 2.67194,2.66611 4.01134,3.99572 1.8233,1.81063 3.6386,3.62891 5.45206,5.44938 0.53579,0.52834 1.07158,1.05667 1.6236,1.60101 0.48357,0.48866 0.96714,0.97732 1.46536,1.48079 0.41988,0.41891 0.83975,0.83782 1.27236,1.26942 2.11153,2.78767 1.95386,5.88311 1.95835,9.2637 0.003,0.92576 0.007,1.85152 0.01,2.80533 -7.4e-4,1.01663 -10e-4,2.03326 -0.002,3.0807 0.004,1.62067 0.004,1.62067 0.008,3.27408 0.007,3.00137 0.008,6.00272 0.009,9.0041 0.002,3.23661 0.008,6.47321 0.0138,9.70981 0.0116,7.08076 0.0167,14.16152 0.0205,21.24229 0.002,4.42486 0.006,8.84971 0.01,13.27456 0.0104,12.2595 0.0192,24.519 0.0221,36.77851 1.9e-4,0.7848 3.7e-4,1.56961 5.7e-4,2.3782 1.8e-4,0.78666 3.7e-4,1.57332 5.6e-4,2.38382 3.8e-4,1.594 7.6e-4,3.18801 10e-4,4.78202 1.9e-4,0.79068 3.8e-4,1.58135 5.8e-4,2.39599 0.003,12.79208 0.0182,25.58411 0.0381,38.37618 0.0203,13.14469 0.0309,26.28935 0.0319,39.43406 7.8e-4,7.37551 0.006,14.75097 0.0212,22.12647 0.0132,6.2853 0.0175,12.57053 0.0105,18.85584 -0.003,3.20232 -0.003,6.4045 0.009,9.6068 0.11299,31.832 0.11299,31.832 -6.02308,43.08703 -0.29768,0.56579 -0.59535,1.13158 -0.90205,1.71452 -5.96031,10.86879 -15.88056,16.55711 -27.52351,20.04463 -3.42045,0.8273 -6.61544,0.96266 -10.13099,0.96783 -0.8733,0.003 -0.8733,0.003 -1.76424,0.006 -1.95491,0.006 -3.90978,0.005 -5.8647,0.005 -1.41421,0.003 -2.82842,0.006 -4.24264,0.01 -3.88971,0.009 -7.77942,0.0117 -11.66914,0.014 -4.19398,0.003 -8.38794,0.0115 -12.58191,0.019 -10.13039,0.0169 -20.26078,0.0254 -30.39118,0.033 -4.77163,0.004 -9.54325,0.008 -14.31487,0.0128 -15.86387,0.0145 -31.72774,0.0269 -47.59161,0.0331 -4.11636,0.002 -8.23271,0.003 -12.34907,0.005 -1.02309,4.1e-4 -2.04618,8.2e-4 -3.10027,10e-4 -16.57076,0.007 -33.14146,0.0287 -49.71218,0.0564 -17.01613,0.0282 -34.03223,0.0436 -51.04838,0.0463 -9.55257,0.002 -19.10507,0.009 -28.65762,0.0311 -8.13598,0.0185 -16.27187,0.0254 -24.40787,0.0171 -4.14906,-0.004 -8.29793,-0.002 -12.44696,0.0143 -3.80373,0.0151 -7.60711,0.0142 -11.41084,9.4e-4 -1.37074,-0.002 -2.74151,0.002 -4.11222,0.0118 -14.33854,0.0996 -24.99852,-3.14851 -35.60213,-13.07061 -10.867384,-11.45895 -12.248125,-24.98159 -12.166298,-39.99188 -0.0039,-1.58627 -0.0094,-3.17254 -0.01613,-4.7588 -0.01417,-4.32971 -0.0072,-8.65917 0.0034,-12.98888 0.0078,-4.68071 -0.0042,-9.36137 -0.01358,-14.04207 -0.01515,-9.15771 -0.01191,-18.31533 -0.002,-27.47304 0.0077,-7.44445 0.0087,-14.88886 0.005,-22.33331 -5.23e-4,-1.06087 -0.001,-2.12175 -0.0016,-3.21477 -0.0011,-2.15537 -0.0022,-4.31073 -0.0033,-6.46609 -0.0094,-19.61877 3.38e-4,-39.2375 0.01824,-58.85625 0.0162,-17.89189 0.01475,-35.7837 -0.0016,-53.67559 -0.01829,-20.12475 -0.02545,-40.24947 -0.01498,-60.37423 0.0011,-2.14703 0.0022,-4.29405 0.0032,-6.44107 5.26e-4,-1.0563 0.0011,-2.11259 0.0016,-3.20089 0.0029,-7.43346 -0.002,-14.86689 -0.01006,-22.30035 -0.0096,-9.06174 -0.007,-18.12339 0.0112,-27.18513 0.009,-4.62088 0.01251,-9.2416 0.0012,-13.86248 -0.01021,-4.23448 -0.0045,-8.46864 0.01358,-12.70309 0.0038,-1.52727 0.0019,-3.05457 -0.0064,-4.58182 -0.07367,-14.66439 2.762434,-26.522965 12.925148,-37.693373 13.78333,-12.933495 31.00448,-12.113871 48.65143,-12.091194 z m 1.15995,173.578218 c -1.21763,3.25297 -0.95648,6.70571 -0.95017,10.15565 -1e-4,0.58412 -2e-4,1.16824 -3.1e-4,1.77006 6.3e-4,1.87901 0.007,3.75794 0.0139,5.63694 0.001,1.16478 0.002,2.32956 0.003,3.49434 0.004,4.30501 0.0164,8.61002 0.0274,12.91502 0.0176,9.62682 0.0352,19.25365 0.0533,29.17219 28.1589,0 56.3178,0 85.33,0 0,-21.96394 0,-43.92788 0,-66.5574 -13.97943,-0.0993 -13.97943,-0.0993 -27.95891,-0.16666 -5.70238,-0.0204 -11.40458,-0.0445 -17.10683,-0.0908 -4.59769,-0.0371 -9.19519,-0.0575 -13.79302,-0.0663 -1.75345,-0.006 -3.50689,-0.0186 -5.26025,-0.037 -2.45755,-0.0248 -4.91428,-0.0282 -7.37194,-0.0266 -0.72364,-0.0123 -1.44728,-0.0246 -2.19285,-0.0372 -4.51792,0.0314 -7.32583,0.65281 -10.7929,3.83787 z m 103.2493,-2.5599 c -0.081,2.05093 -0.10715,4.07713 -0.0969,6.1283 -10e-5,0.65138 -2e-4,1.30275 -3.1e-4,1.97386 6.4e-4,2.11801 0.007,4.23595 0.0138,6.35394 0.001,1.30381 0.002,2.60761 0.003,3.91141 0.004,4.84597 0.0164,9.69192 0.0274,14.53787 0.0176,10.82358 0.0352,21.64716 0.0533,32.79872 28.44049,0 56.88098,0 86.1833,0 0,-21.96394 0,-43.92788 0,-66.5574 -15.14524,-0.0248 -15.14524,-0.0248 -30.29048,-0.0417 -6.17275,-0.005 -12.34549,-0.0112 -18.51824,-0.0227 -4.97387,-0.009 -9.94774,-0.0144 -14.92163,-0.0166 -1.90222,-0.002 -3.80444,-0.005 -5.70666,-0.009 -2.65438,-0.006 -5.30871,-0.007 -7.96309,-0.007 -0.79483,-0.003 -1.58966,-0.006 -2.40858,-0.009 -3.46144,-0.34743 -3.46144,-0.34743 -6.37462,0.95947 z m 104.9559,0 c -0.0856,2.02029 -0.11621,4.01569 -0.11041,6.03643 -10e-4,0.63128 -0.003,1.26256 -0.005,1.91297 -0.004,2.0967 -10e-4,4.19334 0.002,6.29004 -5.7e-4,1.45071 -10e-4,2.90142 -0.002,4.35213 -10e-4,3.0444 5.8e-4,6.08878 0.005,9.13318 0.005,3.91125 0.002,7.82245 -0.003,11.7337 -0.003,2.99681 -0.002,5.9936 1.1e-4,8.99041 5.7e-4,1.44257 -1.4e-4,2.88514 -0.002,4.3277 -0.002,2.01263 0.001,4.02518 0.006,6.03781 -0.002,0.60199 -0.003,1.20399 -0.005,1.82423 -0.2241,2.77176 -0.2241,2.77176 0.96894,5.0655 2.59289,0.0859 5.16642,0.11617 7.7597,0.11041 0.81438,10e-4 1.62876,0.003 2.46782,0.005 2.70616,0.004 5.41227,10e-4 8.11843,-0.002 1.8716,5.7e-4 3.74319,10e-4 5.61478,0.002 3.92819,10e-4 7.85636,-5.8e-4 11.78454,-0.005 5.04763,-0.005 10.09522,-0.002 15.14285,0.003 3.86641,0.003 7.73282,0.002 11.59923,-1.1e-4 1.86174,-5.8e-4 3.72347,1.3e-4 5.5852,0.002 2.59708,0.002 5.19409,-0.001 7.79116,-0.006 1.16629,0.003 1.16629,0.003 2.35615,0.005 3.39931,0.33065 3.39931,0.33065 6.25684,-0.96895 0.0894,-1.78345 0.11824,-3.56995 0.12396,-5.35562 0.003,-0.55922 0.006,-1.11844 0.009,-1.6946 0.008,-1.85867 0.01,-3.71727 0.0107,-5.57595 0.003,-1.28948 0.006,-2.57896 0.009,-3.86845 0.005,-2.7087 0.007,-5.41738 0.006,-8.12608 -9e-5,-3.46712 0.0115,-6.93409 0.0263,-10.40117 0.01,-2.66609 0.0112,-5.33215 0.0108,-7.99825 10e-4,-1.2778 0.005,-2.5556 0.0114,-3.83338 0.008,-1.79131 0.006,-3.58231 7.7e-4,-5.37363 10e-4,-1.01874 0.002,-2.03749 0.004,-3.08711 -0.21181,-2.72102 -0.64434,-4.5718 -1.91757,-6.97666 -5.47644,-3.48501 -11.14686,-3.54019 -17.46536,-3.52361 -1.06021,-0.002 -1.06021,-0.002 -2.14184,-0.005 -2.32283,-0.004 -4.6456,-10e-4 -6.96843,0.002 -1.61679,-5.7e-4 -3.23358,-0.001 -4.85037,-0.002 -3.38045,-10e-4 -6.76088,5.6e-4 -10.14133,0.005 -4.34253,0.005 -8.68502,0.002 -13.02754,-0.003 -3.33425,-0.003 -6.66849,-0.002 -10.00274,1.1e-4 -1.60213,5.7e-4 -3.20427,-1.4e-4 -4.8064,-0.002 -2.23083,-0.002 -4.46157,0.001 -6.69239,0.006 -1.00065,-0.003 -1.00065,-0.003 -2.02152,-0.005 -3.00277,-0.26443 -3.00277,-0.26443 -5.50548,0.96895 z m -209.0585,83.6234 c -0.28159,21.40077 -0.56318,42.80153 -0.8533,64.8508 28.44049,0 56.88098,0 86.1833,0 0,-21.40076 0,-42.80153 0,-64.8508 -28.1589,0 -56.3178,0 -85.33,0 z m 104.9559,0 c 0,21.40077 0,42.80153 0,64.8508 28.1589,0 56.3178,0 85.33,0 0,-21.40076 0,-42.80153 0,-64.8508 -28.1589,0 -56.3178,0 -85.33,0 z m 104.1026,0 c -0.0176,10.54199 -0.0352,21.08398 -0.0533,31.94542 -0.008,3.33335 -0.0155,6.6667 -0.0235,10.10106 -0.003,2.97807 -0.003,2.97807 -0.005,5.95614 -10e-4,1.3304 -0.004,2.6608 -0.009,3.9912 -0.006,2.0107 -0.007,4.02133 -0.007,6.03204 -0.003,0.59648 -0.006,1.19296 -0.009,1.80752 -0.22686,2.74633 -0.22686,2.74633 0.95947,5.01742 2.62351,0.0813 5.22782,0.1071 7.85157,0.0969 0.82407,1.3e-4 1.64815,2.5e-4 2.4972,3.8e-4 2.73796,-6e-4 5.47588,-0.007 8.21384,-0.0139 1.89277,-0.002 3.78554,-0.003 5.67831,-0.004 4.99263,-0.003 9.98524,-0.0116 14.97786,-0.0211 5.98451,-0.0102 11.96903,-0.0142 17.95354,-0.0192 9.10148,-0.008 18.2029,-0.0246 27.30438,-0.0394 0,-21.40076 0,-42.80153 0,-64.8508 -28.1589,0 -56.3178,0 -85.33,0 z m -209.0585,82.7701 c -0.0528,8.30688 -0.10559,16.61375 -0.15999,25.17235 -0.0233,2.61075 -0.0466,5.2215 -0.0706,7.91136 -0.007,2.08269 -0.014,4.16539 -0.0194,6.24809 -0.0131,1.07053 -0.0262,2.14106 -0.0397,3.24404 -0.002,6.5425 0.0459,12.30508 4.6095,17.42182 8.56051,4.91773 17.62563,4.33647 27.17894,4.24983 1.55656,-0.005 3.11312,-0.008 4.66969,-0.011 4.07097,-0.01 8.1417,-0.0348 12.21257,-0.0632 4.89824,-0.031 9.79657,-0.0426 14.69488,-0.0575 7.4182,-0.0247 14.83587,-0.0738 22.25409,-0.1183 0,-21.11917 0,-42.23835 0,-63.9975 -28.1589,0 -56.3178,0 -85.33,0 z m 104.9559,0 c 0,21.11918 0,42.23835 0,63.9975 28.44049,0 56.88098,0 86.1833,0 0,-21.11917 0,-42.23835 0,-63.9975 -28.44049,0 -56.88098,0 -86.1833,0 z m 104.1026,0 c 0,21.11918 0,42.23835 0,63.9975 13.35196,0.0993 13.35196,0.0993 26.70396,0.16666 5.44761,0.0204 10.89503,0.0445 16.34249,0.0908 4.39299,0.0371 8.78577,0.0575 13.17891,0.0663 1.67415,0.006 3.34828,0.0186 5.02234,0.037 2.34909,0.0249 4.69731,0.0282 7.04651,0.0266 0.68865,0.0123 1.37731,0.0245 2.08683,0.0372 4.79831,-0.0348 7.59552,-1.06193 11.53576,-3.83787 4.49137,-6.73705 3.64948,-16.44301 3.57986,-24.25238 -0.002,-0.92906 -0.003,-1.85811 -0.005,-2.81531 -0.009,-3.42143 -0.0327,-6.84281 -0.0548,-10.26418 -0.0352,-7.6733 -0.0704,-15.3466 -0.10667,-23.25243 -28.1589,0 -56.3178,0 -85.33,0 z"
       fill="#10cb88"
       id="path1"
       style="stroke-width:0.8533" />
    <path
       d="m 362.35319,71.231131 c 3.66741,0.407489 5.2365,2.505894 7.6797,5.1198 0.89027,0.895777 1.78433,1.787793 2.68146,2.676694 0.4895,0.488442 0.97899,0.976884 1.48332,1.480127 0.52485,0.52369 1.04971,1.04738 1.59047,1.586939 1.17956,1.177058 2.35911,2.354121 3.53866,3.53119 0.62672,0.625399 1.25344,1.250797 1.89916,1.895148 13.98771,13.958461 27.97106,27.921281 41.95135,41.887171 2.06356,2.06142 4.12715,4.12281 6.19076,6.18417 0.41077,0.41032 0.82154,0.82064 1.24476,1.2434 6.66791,6.66046 13.33883,13.31791 20.01084,19.97426 6.85228,6.83635 13.70128,13.67598 20.54739,20.5185 3.84319,3.84096 7.68788,7.68039 11.53614,11.51627 3.61483,3.60329 7.22569,7.21052 10.83347,10.82087 1.32735,1.32689 2.65619,2.65231 3.98657,3.97617 1.81009,1.80165 3.6149,3.60843 5.41843,5.41664 0.53247,0.5275 1.06494,1.05499 1.61354,1.59848 3.6109,3.63643 3.6109,3.63643 4.56158,6.48847 -14.34544,0.0399 -28.69086,0.07 -43.03634,0.0884 -6.66125,0.009 -13.32247,0.0208 -19.9837,0.0403 -5.8077,0.017 -11.61538,0.028 -17.42311,0.0318 -3.07353,0.002 -6.14699,0.007 -9.22049,0.0199 -3.43585,0.0138 -6.87158,0.0141 -10.30745,0.0133 -1.51909,0.009 -1.51909,0.009 -3.06887,0.0186 -12.18793,-0.0303 -22.87331,-3.90868 -31.78144,-12.31853 -9.62029,-10.35596 -12.36676,-22.76188 -12.23681,-36.54941 -3.7e-4,-1.05848 -7.5e-4,-2.11696 -0.001,-3.20752 0.001,-2.86792 0.0142,-5.73535 0.0322,-8.60319 0.0161,-3.00987 0.0175,-6.01976 0.0205,-9.02967 0.008,-5.68419 0.0289,-11.36825 0.0547,-17.05238 0.0287,-6.47774 0.0427,-12.9555 0.0555,-19.43329 0.0267,-13.310958 0.0716,-26.621787 0.12882,-39.932649 z"
       fill="#144d75"
       id="path2"
       style="stroke-width:0.8533" />
  </g>
</svg>
