<?xml version="1.0" standalone="no"?>
<!DOCTYPE svg PUBLIC "-//W3C//DTD SVG 20010904//EN"
 "http://www.w3.org/TR/2001/REC-SVG-20010904/DTD/svg10.dtd">
<svg version="1.0" xmlns="http://www.w3.org/2000/svg"
 width="299.000000pt" height="206.000000pt" viewBox="0 0 299.000000 206.000000"
 preserveAspectRatio="xMidYMid meet">
<metadata>
Created by potrace 1.10, written by Peter Selinger 2001-2011
</metadata>
<g transform="translate(0.000000,206.000000) scale(0.100000,-0.100000)"
fill="#000000" stroke="none">
<path d="M657 1974 c-4 -4 -7 -16 -7 -26 0 -20 -26 -25 -32 -6 -3 9 -12 8 -32
-5 -20 -14 -25 -23 -20 -39 5 -18 3 -20 -17 -15 -14 3 -31 2 -39 -3 -13 -9
-13 -11 0 -20 25 -16 85 -11 145 12 l56 21 -3 41 c-2 32 -7 42 -23 44 -12 2
-24 0 -28 -4z"/>
<path d="M2338 1935 c-2 -32 1 -45 10 -45 7 0 30 -9 52 -20 38 -20 102 -26
134 -14 28 11 -1 35 -32 27 -22 -5 -24 -3 -20 15 7 26 -37 61 -55 43 -17 -17
-40 -13 -33 6 7 18 -9 33 -35 33 -13 0 -18 -11 -21 -45z"/>
<path d="M230 1950 c-15 -28 -19 -126 -8 -179 7 -30 6 -32 -8 -20 -8 7 -24 29
-34 48 l-19 36 -1 -48 c0 -50 20 -109 47 -139 15 -16 15 -18 0 -18 -9 0 -28 5
-42 10 -26 10 -27 9 -20 -17 8 -34 30 -59 70 -84 l30 -19 -47 0 c-27 0 -48 -4
-48 -10 0 -20 73 -90 106 -102 19 -6 34 -15 34 -20 0 -4 -19 -13 -42 -19 -55
-16 -54 -15 -33 -39 11 -12 37 -22 67 -26 l49 -7 -21 -22 c-22 -23 -22 -23 -2
-34 12 -6 32 -11 46 -11 22 0 26 -5 26 -27 0 -43 13 -56 48 -48 25 5 31 3 37
-14 8 -25 32 -27 62 -6 20 14 22 14 28 -5 9 -28 30 -25 54 8 11 15 21 22 21
16 0 -17 -40 -64 -55 -64 -7 0 -18 6 -24 14 -10 12 -17 12 -43 2 -37 -16 -39
-19 -73 -126 -32 -99 -66 -150 -99 -150 -53 0 -63 70 -27 174 42 119 16 196
-66 196 -47 0 -125 -47 -101 -61 12 -6 13 -19 8 -54 -4 -25 -3 -45 2 -45 4 0
8 -7 8 -15 0 -9 7 -30 16 -48 l17 -32 13 50 c7 28 13 53 14 57 0 5 6 7 13 5 8
-1 12 14 12 51 -1 42 2 52 14 50 34 -7 36 -53 7 -148 -50 -163 -13 -247 100
-226 27 6 43 18 67 52 l32 46 9 -36 c9 -40 -12 -86 -39 -86 -10 0 -15 -10 -15
-27 0 -16 -9 -41 -20 -58 -11 -16 -20 -41 -20 -54 0 -24 0 -24 15 -5 13 18 14
16 15 -26 1 -40 2 -43 14 -27 12 16 14 15 20 -16 3 -18 13 -42 21 -53 13 -17
14 -17 15 -1 0 23 8 22 29 -5 24 -28 50 -19 44 16 -5 25 2 31 35 27 6 -1 12 7
12 19 0 11 7 20 15 20 16 0 21 25 7 34 -5 3 -20 -1 -35 -9 -24 -12 -28 -12
-42 8 -21 29 -18 56 8 97 16 25 28 34 44 32 17 -3 20 1 16 17 -3 10 2 44 11
75 15 49 15 59 1 98 -17 49 -19 94 -6 103 5 3 9 -7 9 -22 -2 -62 18 -82 82
-83 47 -1 53 -11 51 -104 -1 -70 1 -86 13 -86 8 0 24 -12 36 -27 12 -16 25
-28 28 -28 4 0 13 -4 20 -8 7 -5 26 -13 43 -17 23 -7 30 -6 26 3 -3 9 7 11 36
8 34 -3 39 -1 34 13 -5 12 0 16 16 16 28 0 47 18 40 36 -3 8 -1 14 4 14 5 0
15 16 22 35 11 30 10 38 -6 60 -10 13 -22 25 -26 25 -4 0 -17 9 -29 20 -39 36
-51 27 -43 -35 7 -58 5 -61 -26 -44 -11 6 -34 11 -50 11 -25 1 -29 5 -27 22 2
14 10 21 24 20 21 0 20 0 -5 64 -27 69 -43 82 -132 108 -26 8 -55 25 -64 37
-15 21 -14 24 39 74 56 53 65 83 25 83 -20 0 -59 33 -59 50 0 6 9 1 20 -10 11
-11 30 -20 43 -20 15 0 28 -11 42 -37 25 -45 36 -47 47 -5 l9 32 34 -26 c40
-30 44 -44 15 -44 -11 0 -20 -7 -20 -15 0 -8 -4 -15 -10 -15 -5 0 -10 -14 -10
-31 0 -37 16 -30 29 14 7 25 9 27 10 10 1 -20 4 -21 26 -11 33 15 53 -2 47
-41 -4 -26 -2 -29 17 -24 13 3 23 0 27 -10 3 -9 12 -13 20 -10 8 3 21 0 29 -7
12 -10 15 -9 15 4 0 28 -52 126 -80 150 -33 27 -124 155 -117 163 3 3 20 -2
36 -10 30 -15 31 -15 37 9 3 13 1 38 -5 55 -15 43 -14 45 9 24 18 -17 20 -17
20 -1 0 29 -26 80 -53 106 -27 25 -37 47 -15 34 7 -5 9 -2 6 8 -4 8 4 28 18
44 22 27 23 27 24 7 0 -19 3 -20 24 -10 18 9 23 19 22 42 -1 29 1 30 36 27 33
-2 36 -1 31 19 -4 13 0 27 8 33 8 6 20 21 27 34 10 18 10 22 -2 22 -26 0 -112
-43 -156 -80 -82 -66 -118 -83 -169 -75 -26 4 -52 12 -59 18 -8 6 -32 10 -54
8 -43 -2 -68 12 -68 38 1 14 2 14 11 -1 8 -14 24 -18 75 -18 70 0 104 12 104
36 0 8 -5 12 -11 9 -15 -10 -99 4 -99 16 0 5 12 15 28 21 15 7 37 21 49 31 14
12 30 17 43 14 18 -5 21 -2 18 21 -2 21 -12 29 -53 44 -53 19 -96 14 -159 -19
-34 -18 -101 -5 -148 28 l-28 20 0 -29 c0 -16 6 -35 14 -42 8 -6 12 -18 10
-25 -7 -17 26 -35 61 -35 25 0 25 -1 11 -22 -17 -23 -21 -60 -9 -72 4 -4 6
-27 4 -51 -3 -54 5 -71 25 -54 11 9 19 0 44 -52 32 -68 38 -107 18 -127 -18
-18 -70 -14 -98 8 -23 18 -25 25 -25 107 -1 87 -1 89 -48 168 -47 80 -79 165
-92 239 -8 48 -22 37 -39 -30 l-13 -49 -18 35 c-10 19 -24 53 -30 75 l-12 39
-13 -24z m495 -140 c-7 -12 -55 -14 -55 -2 0 4 14 8 30 9 18 1 28 -2 25 -7z"/>
<path d="M2800 1953 c0 -10 -12 -43 -27 -73 l-26 -55 -9 35 c-6 19 -14 46 -20
60 -12 31 -23 15 -32 -53 -4 -28 -34 -99 -72 -175 l-65 -127 6 -72 c6 -69 5
-74 -19 -98 -22 -21 -34 -26 -69 -23 -36 3 -42 6 -45 28 -5 31 14 95 40 138
16 26 23 30 34 21 18 -14 29 28 20 76 -4 22 -3 35 4 35 14 0 12 30 -4 61 -13
26 -13 27 24 33 21 3 40 13 44 21 3 8 1 15 -4 15 -6 0 -1 9 10 20 11 11 20 31
20 44 l0 25 -44 -25 c-55 -31 -106 -32 -180 -4 -47 17 -65 19 -83 11 -13 -6
-32 -11 -43 -11 -19 0 -50 -35 -50 -57 0 -8 9 -11 28 -7 20 4 33 0 46 -15 11
-12 24 -21 31 -21 7 0 20 -8 29 -19 16 -18 15 -19 -29 -25 -24 -4 -49 -4 -55
-1 -14 9 -12 -19 2 -33 7 -7 40 -12 79 -12 59 0 70 3 83 22 13 18 16 19 16 6
0 -31 -31 -51 -70 -45 -22 3 -43 -1 -54 -9 -10 -7 -37 -16 -60 -19 -47 -7 -87
11 -167 77 -45 37 -127 78 -155 78 -12 0 -12 -4 -2 -22 7 -13 19 -31 27 -40 7
-10 11 -25 7 -33 -5 -13 0 -16 22 -14 38 4 53 -8 46 -37 -5 -18 -2 -24 10 -24
9 0 16 -6 17 -12 0 -7 5 -2 10 11 l9 23 23 -28 c12 -16 21 -35 19 -42 -2 -8 1
-11 7 -7 6 3 11 2 11 -2 0 -5 -9 -14 -20 -21 -24 -15 -60 -83 -60 -113 0 -21
1 -22 20 -4 23 21 24 19 9 -24 -13 -38 -4 -87 14 -73 13 10 57 23 57 16 0 -9
-77 -113 -116 -155 -56 -62 -116 -198 -69 -159 8 7 22 10 30 6 9 -3 15 0 15 9
0 20 20 29 33 16 8 -8 6 -11 -6 -11 -23 0 -22 -17 2 -30 30 -16 46 -13 31 6
-15 17 -18 73 -6 93 5 8 19 10 37 6 22 -5 29 -3 29 9 0 9 4 16 9 16 5 0 7 -8
4 -18 -2 -10 3 -25 13 -33 16 -13 17 -12 10 16 -9 36 -24 55 -42 55 -22 0 -17
11 19 41 l32 27 11 -31 c14 -41 23 -40 47 6 14 27 25 37 43 37 13 0 32 10 44
22 11 12 20 18 20 12 0 -19 -17 -34 -53 -49 -20 -8 -37 -21 -37 -28 0 -6 23
-31 50 -55 28 -24 50 -52 50 -62 0 -25 -32 -46 -90 -61 -67 -17 -86 -35 -114
-106 l-24 -62 21 2 c16 1 23 -4 25 -20 3 -20 -1 -23 -27 -23 -16 0 -42 -5 -56
-10 l-26 -10 3 51 c3 59 -9 72 -41 40 -12 -12 -24 -21 -27 -21 -9 0 -43 -44
-44 -56 0 -16 24 -64 33 -64 5 0 6 -9 2 -20 -5 -15 0 -21 19 -26 14 -3 30 -3
37 1 8 5 9 1 4 -14 -6 -19 -2 -21 29 -21 20 0 36 -4 36 -9 0 -12 56 3 76 20 8
6 14 9 14 5 0 -3 19 13 41 35 l42 42 -6 73 c-4 40 -3 76 2 79 5 3 33 10 62 15
29 6 54 12 57 15 2 2 7 24 9 49 3 25 9 43 14 40 14 -8 11 -45 -7 -98 -14 -40
-14 -54 -5 -84 7 -21 13 -54 14 -74 2 -32 6 -38 24 -38 29 0 66 -63 58 -101
-8 -35 -26 -51 -45 -39 -25 16 -60 12 -54 -5 4 -8 12 -15 20 -15 8 0 14 -9 14
-20 0 -12 6 -20 13 -19 32 4 39 -2 34 -27 -6 -35 20 -44 44 -16 15 19 18 20
21 5 3 -15 4 -15 21 1 9 10 17 27 17 39 0 12 5 29 10 37 8 13 10 12 10 -2 0
-10 5 -18 10 -18 6 0 10 21 10 48 1 46 1 46 15 22 l14 -25 1 26 c0 15 -9 38
-20 52 -11 14 -20 37 -20 51 0 15 -8 30 -20 36 -30 16 -43 48 -35 87 l6 34 29
-40 c35 -48 57 -61 105 -61 84 0 112 85 71 215 -28 88 -32 135 -14 153 22 22
28 13 28 -43 0 -41 3 -53 13 -49 10 3 18 -12 27 -51 12 -49 15 -53 26 -37 7
10 16 31 19 45 4 15 11 27 15 27 4 0 4 19 -1 43 -6 32 -4 45 7 53 12 9 7 16
-24 38 -65 45 -132 32 -158 -30 -15 -36 -10 -76 21 -163 18 -53 20 -112 3
-133 -43 -53 -92 -3 -138 142 -29 91 -36 102 -64 114 -26 11 -34 11 -47 0 -8
-8 -21 -14 -27 -14 -13 0 -52 48 -52 64 0 6 10 -1 21 -16 25 -34 45 -36 52 -6
6 20 8 21 24 6 34 -28 53 -30 63 -3 8 21 14 23 45 18 32 -5 35 -3 37 18 0 13
1 31 2 39 1 8 10 16 21 18 70 10 79 20 48 54 -15 17 -14 18 18 18 33 0 99 32
99 48 0 4 -20 13 -45 20 -50 13 -58 27 -20 36 32 8 101 70 108 96 5 18 0 20
-46 20 l-52 0 35 18 c53 26 112 128 63 107 -10 -4 -29 -10 -42 -13 l-23 -5 28
42 c19 29 29 59 32 97 2 30 2 54 0 54 -3 0 -18 -18 -32 -41 -15 -22 -30 -39
-32 -36 -2 2 1 28 7 57 9 41 9 66 0 107 -12 52 -31 81 -31 46z m-420 -144 c0
-15 -34 -19 -47 -6 -12 12 -9 14 17 14 16 0 30 -4 30 -8z"/>
<path d="M865 1770 c-3 -5 -28 -10 -55 -10 -69 0 -71 -16 -2 -24 47 -6 59 -4
69 11 7 9 13 20 13 25 0 11 -18 10 -25 -2z"/>
<path d="M2160 1767 c0 -28 26 -38 84 -31 65 8 65 24 0 24 -25 0 -54 5 -65 10
-15 8 -19 7 -19 -3z"/>
<path d="M1120 1747 c0 -8 9 -22 20 -32 19 -18 20 -17 20 1 0 20 -17 44 -32
44 -4 0 -8 -6 -8 -13z"/>
<path d="M1902 1748 c-7 -7 -12 -21 -12 -32 0 -18 1 -19 20 -1 20 18 27 45 12
45 -4 0 -13 -5 -20 -12z"/>
<path d="M1095 1710 c-4 -6 5 -23 19 -37 21 -21 26 -22 26 -9 0 39 -30 70 -45
46z"/>
<path d="M1155 1663 c-28 -53 -30 -55 -39 -32 -7 20 -15 24 -48 24 -37 0 -39
-1 -33 -25 4 -14 13 -32 21 -41 20 -22 18 -29 -11 -29 l-25 0 0 -186 c0 -179
1 -186 23 -217 30 -41 67 -113 67 -132 0 -7 -17 -27 -37 -44 -24 -20 -32 -31
-22 -31 9 0 22 -6 28 -14 10 -12 8 -17 -8 -26 -12 -6 -21 -18 -21 -27 0 -13 3
-14 12 -5 17 17 49 15 76 -4 28 -19 28 -32 0 -36 -33 -4 -34 -39 -3 -68 32
-30 33 -49 0 -42 -14 2 -25 0 -25 -5 0 -21 79 -130 122 -170 86 -78 216 -143
288 -144 69 -1 207 65 291 139 42 37 129 156 129 176 0 5 -14 6 -30 2 l-30 -6
14 29 c9 16 22 31 31 35 28 10 14 50 -20 56 l-29 5 29 23 c23 18 37 22 62 17
37 -7 44 8 12 25 -16 9 -18 14 -8 26 6 8 18 14 26 14 7 0 -2 14 -22 31 -19 17
-35 37 -35 45 0 21 55 128 74 143 14 11 16 42 16 202 l0 189 -25 0 c-29 0 -31
7 -11 29 8 9 17 28 21 42 6 24 4 25 -37 24 -36 -1 -43 -5 -48 -25 -5 -22 -8
-21 -33 22 -15 26 -27 51 -27 57 0 8 -106 11 -343 11 l-343 0 -29 -57z m405
-205 c0 -22 26 -24 38 -2 6 11 16 13 35 9 32 -8 34 -26 9 -74 l-17 -34 -97 1
c-54 0 -102 3 -108 7 -5 3 -15 24 -22 46 -10 34 -9 42 3 50 22 14 49 11 49 -6
0 -8 9 -15 20 -15 12 0 20 7 20 18 0 13 8 17 35 18 27 0 35 -4 35 -18z m37
-116 c12 -7 19 -37 39 -159 5 -33 5 -33 -37 -33 -48 0 -79 -22 -79 -54 0 -39
16 -49 79 -54 65 -5 74 -21 13 -23 -28 -2 -22 -4 23 -9 107 -14 133 -12 140 9
11 35 -5 53 -39 47 -69 -14 -166 -17 -186 -6 -26 14 -26 56 0 70 11 6 43 9 72
8 45 -3 53 0 52 15 -2 21 24 23 32 2 4 -8 10 -12 16 -9 12 8 65 -15 71 -30 4
-10 -10 -13 -53 -12 -35 1 -56 -2 -53 -8 4 -5 -3 -6 -18 -1 -13 4 -41 9 -61
12 -30 4 -38 2 -38 -11 0 -13 12 -16 69 -16 38 0 82 5 97 10 20 8 32 7 50 -5
48 -31 16 -109 -48 -117 -24 -3 -25 -5 -13 -22 8 -10 29 -21 47 -25 21 -4 34
-14 36 -25 3 -13 0 -16 -10 -10 -10 6 -11 5 -2 -7 21 -25 14 -72 -14 -96 -28
-25 -62 -30 -62 -10 0 22 -37 51 -46 36 -4 -8 -3 -10 4 -5 7 4 12 3 12 -3 0
-18 -18 -21 -24 -4 -9 24 26 45 39 23 8 -13 42 -13 50 1 4 5 4 21 1 35 -5 18
-13 24 -35 24 -15 0 -40 9 -54 20 -56 44 -237 1 -237 -57 0 -7 -6 -13 -13 -13
-7 0 -26 -14 -42 -30 -26 -27 -30 -29 -37 -13 -6 17 -7 17 -7 1 -1 -10 -6 -18
-11 -18 -6 0 -10 8 -8 18 2 13 -3 16 -24 14 -16 -1 -28 1 -28 7 0 11 47 24 60
16 5 -3 17 6 26 20 9 14 23 25 30 25 8 0 14 7 14 15 0 8 12 21 28 29 37 19 62
48 71 82 6 25 12 29 42 28 23 -1 26 0 8 3 -33 5 -56 48 -37 70 9 11 9 16 -1
22 -8 5 -10 18 -5 34 4 18 2 27 -6 27 -7 0 -10 7 -6 15 3 10 -1 18 -12 22 -33
13 -46 35 -43 72 1 20 10 42 19 49 17 13 130 16 149 4z m-186 -117 c14 5 19 2
19 -13 0 -15 5 -19 20 -15 15 4 19 2 14 -10 -3 -9 1 -17 11 -19 15 -2 13 -7
-9 -30 -14 -16 -30 -28 -37 -28 -9 0 -9 -3 0 -14 15 -18 -2 -31 -27 -21 -14 5
-14 7 -2 16 11 8 10 9 -7 4 -20 -6 -23 -3 -23 25 0 17 -4 29 -9 25 -6 -3 -6
-18 0 -37 5 -17 7 -34 4 -36 -9 -9 -37 9 -32 21 3 8 -3 19 -14 25 -10 7 -16
18 -13 26 3 8 0 17 -7 22 -9 5 -10 2 -6 -10 4 -10 3 -15 -3 -11 -6 3 -10 13
-10 22 0 11 6 14 20 10 17 -4 20 -2 15 14 -5 15 -3 18 12 12 16 -6 17 -5 3 12
-14 17 -13 18 11 12 20 -5 29 -2 35 11 7 16 7 16 11 -1 3 -12 10 -16 24 -12z
m-86 -150 c21 -34 42 -55 53 -55 23 0 57 35 71 73 10 25 41 39 41 17 0 -5 -4
-10 -10 -10 -5 0 -6 -9 -2 -20 9 -25 3 -100 -8 -100 -5 0 -11 8 -13 18 -3 9
-5 3 -6 -14 -1 -29 -16 -54 -33 -54 -4 0 -5 8 -1 18 3 9 -3 5 -15 -10 -12 -14
-22 -31 -22 -37 0 -6 -4 -11 -10 -11 -5 0 -11 17 -11 38 -1 37 -1 37 -9 7 -7
-28 -8 -29 -15 -8 -4 13 -11 21 -15 18 -15 -9 -21 34 -9 57 l12 23 -23 -20
-23 -20 6 38 c3 21 2 37 -4 37 -6 0 -6 7 1 19 5 11 7 27 4 35 -13 33 7 14 41
-39z m-75 36 c0 -17 -25 -30 -40 -21 -13 8 -12 10 3 10 9 0 17 5 17 10 0 6 5
10 10 10 6 0 10 -4 10 -9z m11 -40 c-7 -13 -8 -22 -1 -26 5 -3 10 -17 10 -31
0 -25 14 -55 39 -87 8 -9 11 -20 8 -23 -11 -11 -61 51 -76 92 -7 21 -23 49
-34 62 -18 19 -18 22 -4 22 9 0 17 -5 17 -10 0 -6 10 -2 22 10 25 23 34 20 19
-9z m346 23 c-3 -3 -12 -4 -19 -1 -8 3 -5 6 6 6 11 1 17 -2 13 -5z m-217 -34
c0 -5 -5 -10 -11 -10 -5 0 -7 5 -4 10 3 6 8 10 11 10 2 0 4 -4 4 -10z m15 -19
c-3 -6 -14 -10 -23 -10 -15 1 -15 2 1 6 9 2 17 9 17 15 0 6 3 9 6 5 3 -3 3
-10 -1 -16z m256 -163 c10 -25 10 -33 0 -36 -7 -2 -32 -19 -57 -38 -48 -37
-63 -41 -82 -22 -9 9 -12 9 -12 0 0 -10 -4 -10 -19 0 -23 14 -18 28 8 23 20
-4 97 37 95 51 -1 5 -5 19 -9 32 -6 20 -3 22 28 22 29 0 37 -5 48 -32z m-361
-100 c0 -19 -2 -20 -10 -8 -7 11 -10 11 -10 2 0 -7 -4 -10 -10 -7 -15 10 -12
23 8 28 9 3 18 5 20 6 1 0 2 -9 2 -21z m410 3 c0 -6 -4 -13 -10 -16 -5 -3 -10
1 -10 9 0 9 5 16 10 16 6 0 10 -4 10 -9z"/>
<path d="M1507 1304 c-4 -4 -7 -18 -7 -31 0 -18 5 -23 26 -23 22 0 25 4 22 27
-3 27 -26 41 -41 27z"/>
<path d="M1453 1153 c4 -3 10 -3 14 0 3 4 0 7 -7 7 -7 0 -10 -3 -7 -7z"/>
<path d="M1400 1129 c0 -5 5 -7 10 -4 6 3 10 8 10 11 0 2 -4 4 -10 4 -5 0 -10
-5 -10 -11z"/>
<path d="M1926 1704 c-9 -8 -16 -27 -15 -42 0 -27 0 -27 11 -4 6 12 14 22 18
22 12 0 20 29 10 35 -4 3 -16 -2 -24 -11z"/>
<path d="M1000 1592 c0 -5 9 -12 21 -15 13 -3 19 -1 16 6 -5 15 -37 22 -37 9z"/>
<path d="M2009 1583 c-12 -15 -12 -16 4 -10 10 4 23 7 28 7 5 0 9 5 9 10 0 16
-26 12 -41 -7z"/>
<path d="M975 1020 c-11 -13 -14 -20 -6 -20 18 0 51 19 51 30 0 17 -26 11 -45
-10z"/>
<path d="M1033 1008 c-21 -28 -24 -38 -9 -38 19 0 48 29 41 41 -8 13 -21 11
-32 -3z"/>
<path d="M1984 1008 c-8 -12 21 -38 43 -38 10 0 10 6 -3 25 -18 27 -29 31 -40
13z"/>
<path d="M1987 933 c-3 -5 6 -16 19 -26 22 -17 25 -17 31 -2 9 24 -37 49 -50
28z"/>
<path d="M1007 923 c-25 -24 13 -35 42 -12 l23 19 -29 0 c-16 0 -33 -3 -36 -7z"/>
<path d="M1070 856 c0 -24 14 -26 40 -5 l25 19 -32 0 c-22 0 -33 -5 -33 -14z"/>
<path d="M1920 863 c0 -5 11 -13 25 -20 25 -11 42 -2 30 17 -7 12 -55 14 -55
3z"/>
<path d="M1086 773 c-13 -13 -5 -21 23 -25 17 -2 28 -1 25 4 -8 13 -41 28 -48
21z"/>
<path d="M1921 757 c-8 -11 -5 -13 19 -9 17 2 30 8 30 13 0 14 -36 11 -49 -4z"/>
<path d="M643 584 c-5 -14 35 -69 44 -60 5 5 -24 76 -32 76 -3 0 -8 -7 -12
-16z"/>
<path d="M2382 587 c-6 -7 -14 -26 -18 -42 l-7 -30 27 24 c27 25 33 45 17 55
-5 3 -13 0 -19 -7z"/>
<path d="M610 542 c0 -10 14 -31 31 -48 l31 -29 -8 30 c-12 50 -54 87 -54 47z"/>
<path d="M2407 543 c-8 -10 -19 -31 -23 -48 l-7 -30 32 29 c17 17 31 38 31 48
0 23 -12 23 -33 1z"/>
<path d="M560 506 c0 -14 37 -33 46 -23 2 2 2 12 -2 21 -8 20 -44 21 -44 2z"/>
<path d="M2443 503 c-3 -10 -8 -21 -10 -25 -2 -4 10 -2 27 3 16 6 30 17 30 25
0 20 -39 17 -47 -3z"/>
<path d="M2604 499 c-2 -4 8 -9 23 -11 28 -3 28 -3 31 -89 l3 -86 -113 -6
c-82 -4 -145 -14 -228 -36 -167 -45 -255 -61 -337 -61 l-73 0 0 89 0 88 103 5
c97 5 385 67 347 75 -8 2 -69 -10 -134 -27 -66 -17 -157 -33 -203 -37 -72 -5
-83 -4 -83 10 0 25 -32 37 -73 27 -54 -12 -87 -37 -93 -70 -7 -30 -11 -32
-177 -54 -47 -6 -232 9 -286 24 -31 8 -40 16 -44 39 -11 54 -133 85 -158 40
-10 -20 -16 -21 -90 -15 -43 3 -137 21 -209 39 -71 18 -130 29 -130 25 0 -19
288 -78 382 -78 l78 0 0 -91 0 -92 -107 6 c-81 4 -148 16 -268 47 -122 32
-186 43 -268 47 l-108 6 3 86 3 86 30 6 c27 6 26 7 -12 8 l-43 1 0 -105 0
-106 63 7 c73 7 136 -3 347 -56 85 -21 185 -42 222 -45 87 -9 158 1 158 22 0
10 6 13 16 9 9 -3 20 -6 25 -6 5 0 9 -15 9 -34 0 -34 0 -34 73 -52 103 -27
359 -27 475 0 l82 19 0 33 c0 19 4 34 9 34 5 0 16 3 25 6 10 4 16 1 16 -9 0
-39 175 -27 390 27 171 43 201 48 305 48 l85 0 0 103 0 103 -30 4 c-17 3 -33
1 -36 -3z m-1292 -176 c101 -23 338 -23 431 0 38 9 70 17 73 17 2 0 4 -40 4
-89 l0 -88 -77 -16 c-158 -33 -334 -31 -469 5 l-44 12 0 88 c0 48 2 88 4 88 3
0 38 -7 78 -17z"/>
<path d="M1300 236 c0 -25 5 -48 10 -51 6 -4 10 7 10 27 1 28 2 30 11 15 8
-14 14 -16 25 -6 12 9 14 6 14 -20 0 -17 5 -31 10 -31 6 0 10 23 10 50 0 52
-8 61 -30 35 -11 -14 -14 -13 -27 5 -22 32 -33 24 -33 -24z"/>
<path d="M1717 260 c-13 -18 -16 -19 -27 -5 -22 26 -30 17 -30 -35 0 -27 5
-50 10 -50 6 0 10 14 10 32 0 24 3 29 12 20 9 -9 14 -7 24 6 12 15 13 14 14
-10 0 -16 5 -28 10 -28 6 0 10 20 10 45 0 49 -11 57 -33 25z"/>
<path d="M1435 216 c0 -37 3 -46 20 -50 30 -8 45 -7 45 4 0 6 -11 10 -25 10
-16 0 -25 6 -25 16 0 11 6 15 20 11 11 -3 20 -1 20 4 0 5 -9 9 -20 9 -12 0
-20 7 -20 16 0 11 6 15 20 11 11 -3 20 -1 20 4 0 5 -12 9 -27 9 -26 0 -28 -3
-28 -44z"/>
<path d="M1530 221 c0 -46 19 -66 55 -57 22 6 25 12 25 51 0 25 -3 45 -7 45
-5 0 -8 -17 -8 -37 0 -31 -4 -38 -20 -38 -16 0 -21 8 -23 38 -4 49 -22 48 -22
-2z"/>
<path d="M460 400 c0 -35 4 -48 13 -46 6 3 24 7 40 10 21 5 27 12 27 34 0 36
-17 52 -52 52 -27 0 -28 -2 -28 -50z m63 18 c6 -19 -11 -48 -28 -48 -10 0 -15
10 -15 30 0 23 5 30 19 30 11 0 21 -6 24 -12z"/>
<path d="M2500 400 c0 -27 5 -50 10 -50 6 0 10 14 10 32 0 25 3 29 12 20 8 -8
15 -9 25 -1 10 9 13 5 13 -20 0 -17 5 -31 10 -31 6 0 10 23 10 50 0 52 -8 61
-30 35 -12 -14 -15 -14 -30 0 -26 23 -30 19 -30 -35z"/>
<path d="M580 390 c0 -27 5 -50 10 -50 6 0 10 23 10 50 0 28 -4 50 -10 50 -5
0 -10 -22 -10 -50z"/>
<path d="M2438 398 c-2 -35 -7 -43 -23 -43 -16 0 -21 8 -25 40 -3 27 -8 36
-13 27 -5 -7 -6 -29 -3 -48 6 -29 11 -34 36 -34 34 0 36 2 45 58 4 27 3 42 -4
42 -5 0 -11 -19 -13 -42z"/>
<path d="M650 401 c-5 -11 -10 -26 -10 -35 0 -18 38 -46 62 -46 29 0 21 18 -9
22 -22 2 -28 8 -28 28 0 21 5 25 27 25 21 -1 24 2 16 12 -16 19 -46 16 -58 -6z"/>
<path d="M2283 400 c-13 -5 -23 -12 -23 -16 0 -3 7 -4 15 0 12 4 15 -3 15 -34
0 -22 5 -40 10 -40 6 0 10 18 10 40 0 27 6 42 18 49 16 10 15 10 -3 10 -11 0
-30 -4 -42 -9z"/>
<path d="M753 390 c11 -7 17 -24 17 -50 0 -22 5 -40 10 -40 6 0 10 18 10 40 0
33 3 38 18 33 11 -4 14 -3 7 4 -5 6 -26 14 -45 17 -28 6 -31 5 -17 -4z"/>
<path d="M850 344 c0 -51 18 -77 51 -72 21 3 24 9 27 46 2 23 0 42 -5 42 -4 0
-8 -17 -8 -37 0 -31 -4 -38 -20 -38 -16 0 -21 8 -23 40 -5 55 -22 70 -22 19z"/>
<path d="M2182 368 c-20 -26 -23 -56 -6 -72 18 -18 55 -18 61 0 2 7 -6 10 -21
7 -17 -4 -28 0 -32 10 -8 22 12 55 38 60 21 4 20 4 -3 6 -15 0 -31 -5 -37 -11z"/>
<path d="M978 300 c2 -27 8 -50 14 -50 6 0 7 13 3 33 -7 30 -6 31 11 15 16
-16 18 -16 30 0 12 15 13 13 14 -15 0 -18 5 -33 10 -33 6 0 10 23 10 50 0 47
-1 50 -19 40 -11 -5 -21 -15 -23 -22 -3 -8 -9 -5 -17 10 -21 39 -36 27 -33
-28z"/>
<path d="M1970 300 c0 -27 5 -50 10 -50 6 0 10 7 10 15 0 9 11 20 25 25 32 12
33 45 3 54 -44 11 -48 8 -48 -44z m50 15 c0 -8 -7 -15 -15 -15 -8 0 -15 7 -15
15 0 8 7 15 15 15 8 0 15 -7 15 -15z"/>
<path d="M2072 303 c-21 -50 -20 -71 2 -40 15 19 46 23 46 5 0 -8 3 -9 11 -1
7 7 5 21 -7 47 -10 20 -21 36 -25 36 -3 0 -16 -21 -27 -47z m33 8 c3 -5 1 -12
-5 -16 -5 -3 -10 1 -10 9 0 18 6 21 15 7z"/>
</g>
</svg>
